<?xml version="1.0" encoding="UTF-8" standalone="no"?>
<!-- Created with Inkscape (http://www.inkscape.org/) -->

<svg
   xmlns:dc="http://purl.org/dc/elements/1.1/"
   xmlns:cc="http://creativecommons.org/ns#"
   xmlns:rdf="http://www.w3.org/1999/02/22-rdf-syntax-ns#"
   xmlns:svg="http://www.w3.org/2000/svg"
   xmlns="http://www.w3.org/2000/svg"
   xmlns:sodipodi="http://sodipodi.sourceforge.net/DTD/sodipodi-0.dtd"
   xmlns:inkscape="http://www.inkscape.org/namespaces/inkscape"
   width="266.75488"
   height="260.38428"
   id="svg2"
   version="1.1"
   inkscape:version="0.48.2 r9819"
   sodipodi:docname="hand.svg">
  <defs
     id="defs4" />
  <sodipodi:namedview
     id="base"
     pagecolor="#ffffff"
     bordercolor="#666666"
     borderopacity="1.0"
     inkscape:pageopacity="0.0"
     inkscape:pageshadow="2"
     inkscape:zoom="0.98994949"
     inkscape:cx="142.52506"
     inkscape:cy="61.434898"
     inkscape:document-units="px"
     inkscape:current-layer="g3180"
     showgrid="false"
     inkscape:window-width="960"
     inkscape:window-height="701"
     inkscape:window-x="59"
     inkscape:window-y="0"
     inkscape:window-maximized="0"
     fit-margin-top="5"
     fit-margin-left="5"
     fit-margin-right="5"
     fit-margin-bottom="5" />
  <metadata
     id="metadata7">
    <rdf:RDF>
      <cc:Work
         rdf:about="">
        <dc:format>image/svg+xml</dc:format>
        <dc:type
           rdf:resource="http://purl.org/dc/dcmitype/StillImage" />
        <dc:title></dc:title>
      </cc:Work>
    </rdf:RDF>
  </metadata>
  <g
     inkscape:label="Layer 1"
     inkscape:groupmode="layer"
     id="layer1"
     transform="translate(-232.47494,-333.4128)">
    <g
       id="g3180"
       transform="translate(-7.0710681,44.44671)">
      <path
         style="fill:#678872"
         d="m 426.54601,543.92027 c -10.99423,-1.86973 -26.28983,-7.71317 -35.26462,-13.47228 -6.87511,-4.41174 -21.01686,-21.92016 -18.80787,-23.28539 0.5699,-0.35222 2.63339,1.85645 4.58554,4.90815 7.38607,11.54628 13.09535,16.31521 26.29711,21.9658 4.33837,1.8569 11.82155,4.36163 16.62929,5.56608 8.04259,2.01485 10.14337,2.13187 26.28051,1.46385 14.74959,-0.61058 17.4662,-0.50519 17.08037,0.66263 -0.327,0.98974 -3.16523,1.572 -9.87957,2.02676 -10.65443,0.72163 -23.19394,0.79821 -26.92076,0.1644 z m -169,-32.18003 c 0,-1.68524 2.63284,-3.03918 7.04961,-3.62526 4.45039,-0.59054 4.45039,-0.59054 -0.0496,1.91095 -4.72384,2.62592 -7,3.18336 -7,1.71431 z m 92.59735,-3.24567 c -2.57633,-2.26777 -4.43499,-4.37246 -4.13036,-4.67709 0.30463,-0.30463 1.78668,0.59583 3.29344,2.00104 1.50676,1.4052 3.79945,3.10108 5.09487,3.76863 2.75343,1.41889 8.41126,0.61932 10.11114,-1.42891 1.46872,-1.7697 -1.04164,-3.54284 -9.96912,-7.04149 -3.47149,-1.36047 -7.09696,-3.18414 -8.0566,-4.0526 -0.95964,-0.86846 -2.35138,-1.4505 -3.09276,-1.29344 -2.02974,0.43003 -9.90856,-4.571 -13.85706,-8.79566 -3.4909,-3.73507 -3.4909,-3.73507 0.008,-0.90103 3.3413,2.70615 13.14831,7.65767 25.0008,12.6228 6.03794,2.52935 13,6.58623 13,7.57526 0,0.34606 -1.3459,1.91541 -2.9909,3.48746 -4.45649,4.25886 -8.54393,3.9001 -14.41175,-1.26497 z m -105.59735,0.85607 c 0,-0.2386 1.99511,-4.40863 4.43357,-9.26673 2.43846,-4.8581 5.42504,-11.91639 6.63684,-15.68508 1.98456,-6.17201 2.85972,-7.41336 8.81643,-12.50551 13.12476,-11.21983 27.18343,-25.72384 29.1036,-30.02552 1.0434,-2.3375 2.3724,-4.25 2.95333,-4.25 0.58093,0 1.05623,-0.38242 1.05623,-0.84981 0,-0.4674 -3.32836,-0.63622 -7.39637,-0.37515 -6.14641,0.39446 -7.83105,0.15783 -9.96857,-1.40018 -2.98973,-2.17919 -3.65736,-8.28154 -1.13506,-10.37486 0.825,-0.68469 1.5,-1.87373 1.5,-2.64232 0,-1.96238 4.12013,-8.04796 9.04357,-13.35768 2.29494,-2.475 5.29135,-5.94803 6.65869,-7.71784 1.36733,-1.76981 8.51213,-8.22655 15.87734,-14.34832 8.66784,-7.20448 15.30171,-13.66885 18.8075,-18.32695 9.37083,-12.45092 17.75839,-18.20494 22.68988,-15.56569 0.98535,0.52734 4.18362,0.96583 7.10728,0.97442 2.92366,0.009 8.01574,0.66756 11.31574,1.46438 11.33909,2.73793 12.60067,2.40618 21.80121,-5.7329 8.84542,-7.82492 19.39036,-16.20631 24.19015,-19.22695 2.99137,-1.88255 2.99137,-1.88255 0.43909,1.04865 -11.03824,12.67701 -27.06027,27.4312 -29.7884,27.4312 -0.49549,0 -2.7976,1.8407 -5.11581,4.09045 -2.31821,2.24974 -5.71843,4.71865 -7.55605,5.48645 -1.83761,0.7678 -4.12562,2.72407 -5.08446,4.34726 -2.13591,3.6158 -11.07777,11.32165 -10.06002,8.66944 0.54125,-1.41047 0.32769,-1.67458 -0.95581,-1.18205 -1.42705,0.54761 -1.46774,0.41126 -0.29789,-0.99831 0.8431,-1.01588 1.49461,-1.21339 1.72477,-0.52289 0.64605,1.93815 2.20512,1.20157 3.47203,-1.64035 0.67426,-1.5125 4.3745,-5.74299 8.22275,-9.40108 6.99681,-6.65108 6.99681,-6.65108 1.00262,-8.46068 -6.11831,-1.84707 -16.08417,-2.25054 -23.09627,-0.93507 -3.011,0.56487 -5.80373,2.6143 -12.87161,9.44577 -4.96447,4.79841 -10.6013,9.9717 -12.5263,11.4962 -1.925,1.5245 -8.54601,7.71546 -14.71335,13.75769 -11.21335,10.98586 -11.21335,10.98586 -10.61594,18.73288 0.73895,9.5826 -0.89797,13.74967 -6.6771,16.99772 -2.16366,1.21605 -4.24323,2.71144 -4.62125,3.3231 -1.00988,1.63401 11.82798,0.25835 15.54977,-1.66626 2.70968,-1.40123 3.061,-1.39282 3.89259,0.0931 0.6704,1.19793 1.81668,1.49346 4.29969,1.1085 4.83356,-0.74939 13.25962,0.98153 18.59953,3.82079 2.52117,1.34051 5.19192,2.4373 5.935,2.4373 0.74308,0 1.35106,0.48575 1.35106,1.07946 0,0.67915 1.11251,0.8351 3,0.42054 3.32445,-0.73017 3.56999,-0.38555 1.77412,2.49008 -1.07278,1.71779 -0.72932,2.47978 2.75,6.1011 5.37696,5.59641 20.64997,17.90882 22.21512,17.90882 1.73206,0 1.60202,-5.24749 -0.23924,-9.65424 -1.87672,-4.49163 -1.87388,-5.48685 0.0226,-7.90463 1.42552,-1.81737 1.48507,-1.71744 0.93401,1.56737 -0.37949,2.2621 -0.0344,4.57125 0.97124,6.5 0.85791,1.64533 1.5626,4.42368 1.56599,6.17411 0.008,4.26716 2.67086,5.03925 8.0009,2.32007 4.57624,-2.33462 9.38851,-9.02134 11.14583,-15.4873 0.60353,-2.22066 0.86481,-7.59107 0.58456,-12.01538 -0.40692,-6.42433 -1.20554,-9.47719 -4.05474,-15.5 -1.95141,-4.125 -4.34374,-8.71931 -5.31629,-10.20958 -0.97255,-1.49026 -1.41931,-3.05854 -0.9928,-3.48506 1.61985,-1.61984 8.30071,9.4926 11.77084,19.57871 2.79429,8.12174 2.56468,21.07759 -0.48979,27.63688 -4.2241,9.07103 -11.47359,14.48923 -19.36023,14.46967 -5.8192,-0.0144 -12.67558,-4.61227 -25.90241,-17.36995 -6.57396,-6.34078 -13.96124,-12.99206 -16.41618,-14.78064 -4.24233,-3.09079 -4.90954,-3.25325 -13.46353,-3.27829 -9.49835,-0.0278 -13.8679,1.31596 -12.85577,3.95351 0.35049,0.91338 -0.0487,1.53285 -1.03724,1.60975 -0.88385,0.0687 -2.05699,0.2375 -2.60699,0.375 -0.55,0.1375 -1.43963,0.30625 -1.97695,0.375 -0.53732,0.0687 -1.70893,1.24215 -2.60357,2.60755 -1.55067,2.36661 -1.50504,2.62706 0.97694,5.57673 1.43197,1.70179 2.60358,3.45709 2.60358,3.90065 0,0.44357 2.05306,2.32154 4.56235,4.17328 2.5093,1.85173 5.90133,4.43362 7.53785,5.73753 2.91563,2.32304 3.01703,2.33315 5.04002,0.50236 2.73265,-2.47301 4.85978,-6.70455 4.85978,-9.66764 0,-1.48721 -1.5996,-3.97762 -4.2235,-6.57555 -4.22349,-4.18169 -4.22349,-4.18169 -0.75,-3.0142 9.52433,3.20127 10.88176,9.26671 4.26948,19.07738 -2.3342,3.46326 -2.38975,3.83495 -0.89254,5.97251 1.68196,2.40133 2.17852,6.8344 0.76554,6.8344 -0.45706,0 -1.4331,-1.125 -2.16898,-2.5 -0.73588,-1.375 -1.68107,-2.5 -2.10044,-2.5 -0.41936,0 -5.34756,4.6125 -10.95156,10.25 -5.604,5.6375 -8.81909,8.45 -7.14465,6.25 1.67444,-2.2 6.00368,-6.912 9.62054,-10.47111 3.61686,-3.55907 6.57611,-6.96813 6.57611,-7.57565 0,-1.43708 -4.28217,-5.4532 -5.81445,-5.4532 -0.65205,0 -1.18555,-0.37779 -1.18555,-0.83954 0,-1.16432 -11.23655,-9.78337 -13.82584,-10.60518 -1.72763,-0.54833 -4.08831,1.22753 -12.89448,9.70012 -5.92882,5.70424 -11.89062,11.24283 -13.24844,12.30797 -5.3777,4.21854 -8.6124,8.29044 -10.32886,13.00215 -2.64618,7.26379 -10.16771,21.75626 -11.52648,22.20918 -0.64674,0.21558 -1.1759,0.19674 -1.1759,-0.0419 z m 41.6725,-81.76852 c 4.39932,-1.53361 10.46572,-10.01101 11.08304,-15.48782 0.27751,-2.46208 0.0874,-4.4765 -0.42254,-4.4765 -2.74924,0 -14.333,15.51379 -14.333,19.19578 0,2.11884 -0.12559,2.09256 3.6725,0.76854 z m -13.6725,76.29912 c -2.88812,-1.11416 -12,-11.05805 -12,-13.09573 0,-2.49163 1.58471,-3.69231 2.32547,-1.76192 0.65549,1.70818 16.83956,9.59421 19.68968,9.59421 1.13037,0 3.27688,-0.76151 4.77003,-1.69223 2.71482,-1.69224 2.71482,-1.69224 -0.25914,1.53848 -4.76993,5.18174 -10.04091,7.14744 -14.52604,5.41719 z M 500.22613,487.6178 c -0.36946,-0.825 -1.53326,-4.65 -2.58621,-8.5 -6.81334,-24.91219 -8.27284,-29.96582 -9.10132,-31.51384 -0.50983,-0.95264 -2.26792,-7.31092 -3.90687,-14.12952 -5.41832,-22.54221 -12.78249,-40.26987 -19.37808,-46.64859 -1.90489,-1.84225 -7.26904,-4.71496 -13.20764,-7.0732 -17.24832,-6.84936 -23.5,-9.94436 -23.5,-11.63407 0,-1.83124 18.2327,-20.50078 20.0211,-20.50078 0.65736,0 -1.07519,2.04129 -3.85013,4.53619 -2.77493,2.49491 -6.96115,6.82442 -9.30271,9.62115 -3.87876,4.63276 -4.10524,5.19621 -2.54675,6.3358 1.47823,1.08091 10.77343,5.18368 28.93577,12.77184 2.6165,1.09316 6.17704,3.6046 7.91231,5.58096 5.71047,6.50386 11.86251,22.21386 16.89914,43.15406 1.65361,6.875 4.52136,17.675 6.37278,24 1.85142,6.325 3.67194,13.3 4.0456,15.5 0.37366,2.2 1.56579,6.64417 2.64918,9.87593 1.81113,5.40259 2.25526,12.44559 0.54383,8.62407 z M 381.35851,429.93469 c 0.72187,-0.28887 1.58438,-0.25335 1.91667,0.0789 0.33229,0.33229 -0.25834,0.56864 -1.3125,0.52522 -1.16495,-0.048 -1.4019,-0.28494 -0.60417,-0.60416 z m -68.4448,-1.80107 c -0.37177,-0.96882 3.00202,-5.12074 9.71617,-11.95706 5.65713,-5.76008 11.80671,-12.74219 13.66572,-15.51581 1.85901,-2.77362 3.74127,-5.04295 4.1828,-5.04295 1.07903,0 13.99258,-8.65048 16.81761,-11.26572 1.2375,-1.1456 2.25,-1.63429 2.25,-1.08598 0,0.83474 -9.55735,10.38079 -19.07961,19.05705 -1.33121,1.21295 -7.59539,7.80161 -13.92039,14.64148 -6.325,6.83987 -11.85162,12.48496 -12.28138,12.54465 -0.42977,0.0597 -1.03768,-0.55936 -1.35092,-1.37566 z m 59.09118,0.41765 c -0.36253,-0.58659 -0.4085,-1.31719 -0.10214,-1.62354 0.82264,-0.82264 3.64326,0.46152 3.64326,1.65869 0,1.35725 -2.69711,1.33048 -3.54112,-0.0351 z m 17.13357,-27.63525 c 15.45132,-14.34046 34.74931,-30.79822 36.11329,-30.79822 2.95425,0 2.4783,2.35347 -0.82099,4.0596 -3.74412,1.93616 -10.54635,7.19253 -16.74606,12.9404 -2.37295,2.2 -5.0624,4.41154 -5.97657,4.91454 -0.91417,0.50299 -1.88712,1.23069 -2.16212,1.61711 -0.275,0.38642 -3.65,3.03408 -7.5,5.88369 -5.61464,4.15572 -6.19007,4.4294 -2.90755,1.38288 z m 74.93496,-84.37972 c -4.34244,-4.00272 -8.52741,-10.95945 -8.52741,-14.17521 0,-3.76074 -3.94331,-2.88328 -9.23957,2.05599 -1.50676,1.4052 -2.93707,2.35741 -3.17847,2.11602 -0.54838,-0.54839 11.77959,-11.10867 14.32012,-12.26679 5.82258,-2.65427 21.58766,12.94425 21.28265,21.0578 -0.17542,4.66594 -0.88716,5.52331 -3.44762,4.153 -1.60583,-0.85942 -2.23685,-0.8601 -2.52264,-0.003 -0.75825,2.27473 -4.34951,1.06011 -8.68706,-2.93811 z m 3.9439,-3.6685 c -1.69348,-2.648 -8.47131,-9.49914 -8.47131,-8.56294 0,1.30631 5.42581,9.45741 6.84806,10.28772 2.88864,1.68639 3.43412,1.10678 1.62325,-1.72478 z m -32.97131,0.75 c 4.91151,-4.98649 5.5,-5.46559 5.5,-4.47766 0,1.06247 -8.29276,9.47766 -9.33977,9.47766 -0.59677,0 1.13112,-2.25 3.83977,-5 z"
         id="path3184"
         inkscape:connector-curvature="0" />
    </g>
  </g>
</svg>
