<?xml version="1.0" encoding="UTF-8" standalone="no"?>
<!-- Created with Inkscape (http://www.inkscape.org/) -->

<svg
   xmlns:dc="http://purl.org/dc/elements/1.1/"
   xmlns:cc="http://creativecommons.org/ns#"
   xmlns:rdf="http://www.w3.org/1999/02/22-rdf-syntax-ns#"
   xmlns:svg="http://www.w3.org/2000/svg"
   xmlns="http://www.w3.org/2000/svg"
   xmlns:sodipodi="http://sodipodi.sourceforge.net/DTD/sodipodi-0.dtd"
   xmlns:inkscape="http://www.inkscape.org/namespaces/inkscape"
   width="184.85298"
   height="226.61113"
   id="svg2"
   version="1.1"
   inkscape:version="0.48.2 r9819"
   sodipodi:docname="New document 1">
  <defs
     id="defs4" />
  <sodipodi:namedview
     id="base"
     pagecolor="#ffffff"
     bordercolor="#666666"
     borderopacity="1.0"
     inkscape:pageopacity="0.0"
     inkscape:pageshadow="2"
     inkscape:zoom="0.98994949"
     inkscape:cx="141.94741"
     inkscape:cy="-16.776728"
     inkscape:document-units="px"
     inkscape:current-layer="layer1"
     showgrid="false"
     fit-margin-top="5"
     fit-margin-left="5"
     fit-margin-right="5"
     fit-margin-bottom="5"
     inkscape:window-width="968"
     inkscape:window-height="702"
     inkscape:window-x="57"
     inkscape:window-y="0"
     inkscape:window-maximized="0" />
  <metadata
     id="metadata7">
    <rdf:RDF>
      <cc:Work
         rdf:about="">
        <dc:format>image/svg+xml</dc:format>
        <dc:type
           rdf:resource="http://purl.org/dc/dcmitype/StillImage" />
        <dc:title></dc:title>
      </cc:Work>
    </rdf:RDF>
  </metadata>
  <g
     inkscape:label="Layer 1"
     inkscape:groupmode="layer"
     id="layer1"
     transform="translate(-233.05259,-208.16213)">
    <g
       id="g3066"
       transform="translate(-50.507625,-16.162441)">
      <path
         style="fill:#b1cafd"
         d="m 306.28568,445.01236 c -1.925,-0.47266 -4.8941,-0.61435 -6.598,-0.31486 -2.3511,0.41323 -3.77818,-0.0405 -5.91922,-1.88219 -2.7985,-2.40717 -2.83254,-2.57885 -4.22976,-21.33278 -1.45205,-19.4899 -1.36104,-32.36642 0.76623,-108.40607 1.39162,-49.7441 2.33093,-64.84271 4.26686,-68.58638 1.4283,-2.76203 2.49976,-3.29472 10.40309,-5.17207 4.84594,-1.15109 15.1108,-3.06918 22.8108,-4.26241 7.7,-1.19323 17.825,-2.80523 22.5,-3.58221 14.66895,-2.438 30.36477,-2.83276 40.70296,-1.02372 14.34852,2.5108 19.33483,5.17302 29.78181,15.90065 18.92833,19.43682 33.16477,42.08996 40.04889,63.72614 2.36641,7.43742 2.68821,10.00011 2.57418,20.5 -0.21981,20.24052 -4.50689,35.94551 -14.19472,52 -16.84775,27.91979 -47.27559,48.81313 -79.41312,54.5292 -6.6,1.1739 -19.77287,3.67256 -29.27305,5.55258 -17.24256,3.41219 -27.14412,4.09321 -34.22695,2.35412 z m 41.5,-43.76592 c 25.39395,-4.57508 31.91755,-7.38973 41.59328,-17.94572 9.57713,-10.44842 19.37875,-27.61024 22.45157,-39.31084 2.34541,-8.93078 1.54857,-26.95037 -1.566,-35.41342 -1.90952,-5.18865 -3.6183,-7.34276 -12.63655,-15.92983 -7.84175,-7.46683 -11.65868,-10.36308 -15.38827,-11.6765 -5.60027,-1.97221 -21.77674,-4.18564 -25.2003,-3.44817 -1.23955,0.26701 -6.75373,0.74698 -12.25373,1.06659 -15.90221,0.9241 -14.18894,-1.60254 -14.79431,21.81783 -0.28674,11.09354 -1.06056,26.24508 -1.7196,33.67008 -1.17694,13.25997 -0.64232,67.12917 0.68757,69.28099 0.64145,1.03789 2.51366,0.82795 18.82634,-2.11101 z"
         id="path3080"
         inkscape:connector-curvature="0" />
      <path
         style="fill:#91b0fb"
         d="m 307.41613,443.64653 c -2.946,-0.9639 -5.14507,-1.13481 -6.75,-0.52462 -3.19475,1.21464 -7.02295,-0.34579 -7.9442,-3.23817 -0.88483,-2.77804 -1.02691,-5.99409 -1.9354,-43.80728 -0.68411,-28.47392 0.56702,-95.47884 2.44852,-131.13249 1.16287,-22.0357 1.13993,-21.993 13.26346,-24.69191 5.10794,-1.13711 12.21217,-2.53385 15.78717,-3.10386 3.575,-0.57 13.7,-2.20635 22.5,-3.63634 22.73096,-3.69374 41.37698,-3.67927 54,0.0419 10.46382,3.08466 13.80148,5.42949 25.06205,17.60706 16.35398,17.68574 28.3168,37.11227 35.04855,56.91564 2.7255,8.01784 2.87961,9.35086 2.71677,23.5 -0.26059,22.64322 -4.72121,37.83094 -15.91255,54.17983 -7.75776,11.33294 -15.34006,19.2623 -26.53529,27.74989 -16.3613,12.40421 -33.0006,19.58652 -53.37953,23.04112 -5.5,0.93235 -16.49417,3.02821 -24.43149,4.65747 -17.80352,3.65445 -27.9914,4.38744 -33.93806,2.44176 z m 47.86955,-42.04719 c 16.67419,-3.4537 17.82465,-3.8465 24.37981,-8.32382 10.98505,-7.50302 19.64038,-18.28216 27.91029,-34.75878 5.98174,-11.91777 6.997,-16.91072 6.47242,-31.83053 -0.6658,-18.93616 -2.04991,-21.99257 -16.23606,-35.85274 -6.53642,-6.38622 -11.82599,-10.76292 -13.01823,-10.77156 -1.10453,-0.008 -4.03323,-0.75381 -6.50823,-1.65734 -3.46163,-1.26371 -7.84587,-1.61936 -19,-1.54131 -13.56174,0.0949 -28.50652,1.38638 -29.68546,2.56532 -0.28512,0.28513 -0.45843,6.51004 -0.38512,13.83315 0.0733,7.3231 -0.554,20.73973 -1.39401,29.81473 -0.9808,10.59605 -1.52874,27.6021 -1.53135,47.52749 -0.003,27.11979 0.20211,31.32184 1.63292,33.36462 1.98161,2.82914 2.46982,2.78687 27.36302,-2.36923 z m 39.68311,-142.71038 c -0.31922,-0.79773 -0.55618,-0.56078 -0.60416,0.60417 -0.0434,1.05416 0.19292,1.64479 0.52522,1.3125 0.33229,-0.33229 0.36781,-1.1948 0.0789,-1.91667 z"
         id="path3078"
         inkscape:connector-curvature="0" />
      <path
         style="fill:#5790fd"
         d="m 307.28568,442.44522 c -2.80746,-1.27075 -4.11756,-1.36145 -6.62105,-0.45839 -3.9896,1.43913 -5.89439,0.67366 -7.40627,-2.97632 -1.01549,-2.45161 -0.9377,-3.33849 0.48301,-5.50677 1.44018,-2.19799 1.58802,-4.0716 0.98853,-12.52745 -0.3877,-5.4686 -1.0772,-10.173 -1.53222,-10.45422 -0.45502,-0.28121 -0.86735,-6.90902 -0.91629,-14.72845 -0.0489,-7.81944 -0.16063,-20.51716 -0.2482,-28.21716 -0.0876,-7.7 -0.0211,-18.5 0.14762,-24 0.16876,-5.5 0.71437,-27.1 1.21246,-48 1.02612,-43.05662 1.3632,-47.64181 3.71113,-50.48175 1.9571,-2.3672 8.56361,-4.22194 23.20044,-6.5134 5.76446,-0.90245 17.23084,-2.71722 25.48084,-4.03283 8.25,-1.31561 16.35,-2.38389 18,-2.37397 1.65,0.01 7.96074,-0.0427 14.02388,-0.11688 8.51056,-0.10416 12.38636,0.31066 17,1.81948 3.28686,1.07492 7.86621,2.47086 10.17632,3.1021 9.06973,2.47828 35.71204,33.5604 45.15131,52.67554 2.15861,4.37133 5.42812,11.99199 7.26558,16.93479 3.22956,8.68759 3.33744,9.45322 3.23899,22.98692 -0.15621,21.4745 -4.79244,39.45375 -13.46534,52.21836 -10.84491,15.96135 -17.42849,22.70493 -35.27128,36.12848 -3.63411,2.73403 -17.68669,9.49646 -25.61946,12.32869 -6.49039,2.31725 -15.2692,4.36787 -27,6.30687 -4.675,0.77273 -11.65,2.11742 -15.5,2.98819 -6.37542,1.44195 -14.39267,2.57894 -28,3.97091 -3.38088,0.34585 -6.13338,-0.002 -8.5,-1.07274 z m 47.06218,-34.86876 c 0,-0.55 -1.13899,-1.14239 -2.53109,-1.31642 -1.8039,-0.22552 -2.53109,0.15269 -2.53109,1.31642 0,1.16373 0.72719,1.54194 2.53109,1.31642 1.3921,-0.17403 2.53109,-0.76642 2.53109,-1.31642 z m -17.05558,-0.61709 c 1.92137,-0.6144 5.7434,-1.4571 8.4934,-1.87267 2.75,-0.41557 10.175,-1.96199 16.5,-3.4365 12.3654,-2.88267 18.69297,-6.29182 27.79568,-14.97571 8.72028,-8.31905 20.05567,-27.40479 23.815,-40.09803 2.03594,-6.87429 2.18098,-23.65549 0.27659,-32 -1.66322,-7.28774 -5.65034,-15.24935 -9.24721,-18.46516 -16.01495,-14.31828 -17.50878,-16.51901 -15.63877,-23.03934 1.36796,-4.7698 1.2055,-5.85299 -0.53309,-3.55437 -0.80751,1.06762 -1.4682,3.15002 -1.4682,4.62756 0,4.34678 -2.18473,5.40588 -7.21721,3.49873 -6.70241,-2.54001 -38.54937,-2.32343 -48.49901,0.32982 l -2.78378,0.74235 -0.6531,20.4302 c -0.3592,11.23662 -1.18422,24.48021 -1.83337,29.43021 -0.64916,4.95 -1.36895,20.25 -1.59955,34 -0.2306,13.75 -0.62934,27.8234 -0.88609,31.27423 -0.36742,4.93833 -0.10071,6.72691 1.25265,8.40029 5.12083,6.33171 6.04117,6.68615 12.22606,4.70839 z m 59.04335,-144.4431 c 1.07092,-1.29038 0.9624,-2.49131 -0.62755,-6.94451 -2.28869,-6.41024 -3.98933,-6.6925 -3.74996,-0.62239 0.33394,8.46844 1.6875,10.80817 4.37751,7.5669 z m 11.95005,0.96448 c 0,-1.11991 -3.42973,-6.40429 -4.15659,-6.40429 -1.69694,0 -1.89962,2.26527 -0.40655,4.54398 1.42216,2.17049 4.56314,3.45101 4.56314,1.86031 z m 3.5,-18.40429 c 0.33992,-0.55 -0.33508,-1 -1.5,-1 -1.16492,0 -1.83992,0.45 -1.5,1 0.33992,0.55 1.01492,1 1.5,1 0.48508,0 1.16008,-0.45 1.5,-1 z"
         id="path3076"
         inkscape:connector-curvature="0" />
      <path
         style="fill:#4876fa"
         d="m 307.44174,440.90194 c -2.68192,-1.71701 -3.04546,-2.30787 -1.83627,-2.98457 1.12304,-0.62848 1.44531,-2.32847 1.26327,-6.66382 -0.3257,-7.75639 -0.9155,-8.57366 -4.75471,-6.58832 -4.19255,2.16805 -5.30479,0.75685 -5.42939,-6.88875 -0.0556,-3.41001 -0.55078,-8.22502 -1.10048,-10.70002 -0.59876,-2.69594 -0.89712,-20.33562 -0.7442,-44 0.21215,-32.83184 0.52716,-40.42848 1.86599,-45 2.46769,-8.42609 2.28873,-38.80795 -0.29452,-50 -1.44311,-6.25236 -1.34983,-17.9981 0.16677,-21 1.44907,-2.86822 6.93694,-5.04237 13.77538,-5.45745 2.51234,-0.1525 5.61883,-0.83971 6.90332,-1.52715 1.28448,-0.68743 5.75393,-1.39058 9.9321,-1.56255 4.17817,-0.17197 8.89633,-0.63355 10.48479,-1.02574 2.86555,-0.7075 2.88278,-0.68461 2.20469,2.92991 -0.39009,2.07938 -0.28232,3.64298 0.2511,3.64298 1.80438,0 5.6424,-3.83138 5.64921,-5.63944 0.0136,-3.5971 5.19716,-4.75687 19.00689,-4.25256 1.65,0.0602 5.20532,-0.4403 7.90072,-1.11235 3.68232,-0.91812 5.82441,-0.94517 8.61602,-0.10878 2.04341,0.61222 5.57559,1.11313 7.84928,1.11313 2.27369,0 4.13398,0.39344 4.13398,0.87431 0,0.48087 1.58515,2.60488 3.52255,4.72004 2.25298,2.45967 3.2855,4.39715 2.86482,5.37569 -1.12364,2.61372 -0.9447,5.30763 0.38321,5.76894 0.73259,0.25451 1.7267,-0.86703 2.34782,-2.64879 1.06059,-3.0424 3.17092,-4.04911 4.3816,-2.09019 0.33992,0.55 2.72898,1.00485 5.30902,1.01078 4.11452,0.01 5.21325,0.51024 8.94098,4.07519 3.10485,2.96927 4.25,4.85249 4.25,6.98922 0,2.15753 0.47559,2.92481 1.81291,2.92481 3.8538,0 12.9887,12.35715 21.5271,29.1206 8.09791,15.89864 10.66935,24.4691 10.61608,35.38281 -0.067,13.73582 -3.17352,36.32997 -6.05325,44.02674 -4.98224,13.31623 -32.24318,42.6705 -47.10288,50.71985 -5.59854,3.03267 -7.85847,3.35492 -10.77118,1.5359 -1.62645,-1.01573 -2.31861,-0.86849 -4.23643,0.90119 -2.58337,2.38383 -15.20445,8.31291 -17.69547,8.31291 -0.89458,0 -3.3057,0.9 -5.35807,2 -2.7496,1.4737 -5.64208,2 -10.99179,2 -3.99312,0 -8.67849,0.40675 -10.41192,0.90389 -2.28884,0.65644 -3.92736,0.50148 -5.98491,-0.56599 -2.67421,-1.3874 -2.94593,-1.32878 -4.8417,1.04443 -1.66971,2.09023 -3.1892,2.63049 -9.00849,3.20304 -3.85,0.3788 -8.21515,1.30205 -9.70034,2.05167 -3.69558,1.86529 -5.72979,1.6941 -9.6436,-0.81156 z m 1.26155,-25.14158 c 1.88899,-1.38126 1.87121,-4.75556 -0.0284,-5.38796 -1.39117,-0.46314 -4.68594,4.41492 -3.87175,5.73231 0.80803,1.30741 1.75566,1.22374 3.90015,-0.34435 z m 68.10631,-2.75926 c 0.36228,-1.14145 0.35581,-2.37824 -0.0144,-2.74843 -0.87334,-0.87333 -3.61063,2.85122 -2.9185,3.97111 0.91651,1.48294 2.25067,0.92675 2.93287,-1.22268 z m 8.47608,-2.86562 c 0,-1.06754 -0.48921,-2.24333 -1.08713,-2.61287 -1.52909,-0.94503 -3.29874,1.1059 -2.57704,2.98663 0.8572,2.23382 3.66417,1.9475 3.66417,-0.37376 z m -28.14896,-3.05708 c 2.00245,-2.19239 4.9473,-3.64027 10.95851,-5.3879 4.52111,-1.31442 9.22601,-3.12009 10.45532,-4.01261 1.22932,-0.89251 3.81674,-2.68175 5.74981,-3.97608 1.93307,-1.29434 4.16264,-3.13408 4.9546,-4.08833 3.20491,-3.86168 12.9957,-10.53702 15.45476,-10.53702 2.26887,0 2.57596,-0.41021 2.57596,-3.44098 0,-1.89254 0.41494,-3.69743 0.92208,-4.01087 0.50715,-0.31343 1.88574,-3.46564 3.06353,-7.00492 1.1778,-3.53927 3.00889,-7.53781 4.0691,-8.88565 1.0602,-1.34783 2.86055,-4.63468 4.00077,-7.30409 1.14021,-2.66942 3.28168,-6.12183 4.75882,-7.67203 2.39474,-2.51318 2.50523,-2.91972 1.01989,-3.75257 -2.70066,-1.51429 -7.5399,-10.22287 -8.33679,-15.00268 -2.32967,-13.97368 -8.32367,-25.64654 -15.81673,-30.8019 -6.72869,-4.62946 -10.68067,-10.54084 -10.68067,-15.97615 0,-3.89995 0.50058,-4.93403 4,-8.26294 2.2,-2.09281 4,-4.24658 4,-4.78615 0,-2.2866 2.03441,-1.91081 4.83906,0.89384 2.99007,2.99007 7.16094,4.06465 7.16094,1.84495 0,-1.92254 -4.99917,-9.83786 -6.21341,-9.83786 -0.62101,0 -1.99269,0.78153 -3.04817,1.73672 -1.82626,1.65275 -1.98722,1.64351 -3.32874,-0.19113 -0.77532,-1.06032 -1.40968,-3.10583 -1.40968,-4.54559 0,-1.43976 -0.60993,-3.45187 -1.35539,-4.47135 -1.89359,-2.58964 -4.64072,-1.29861 -4.65992,2.18996 -0.0276,5.01806 -1.2242,5.60807 -5.49528,2.70964 -3.62838,-2.46228 -4.04783,-2.53238 -6.92979,-1.15807 -7.93585,3.78434 -12.07201,2.92426 -9.45479,-1.96605 1.18766,-2.21918 1.12223,-2.66493 -0.57318,-3.90465 -2.41072,-1.76275 -3.65544,-1.76067 -6.07724,0.0102 -1.90328,1.39171 -1.90314,1.43699 0.0106,3.55161 1.93051,2.13319 1.92637,2.15155 -1.01328,4.50068 -3.68787,2.94705 -2.68594,4.03803 3.70845,4.03803 5.43048,0 5.52316,0.20906 3.27866,7.39553 -0.67135,2.14955 -0.19322,1.96761 4.65651,-1.77192 2.97258,-2.29209 6.29956,-4.84543 7.39328,-5.67409 2.11203,-1.60017 8.8847,-1.51917 10.43032,0.12474 0.47871,0.50916 1.16411,2.32252 1.52311,4.02969 0.54737,2.60291 0.24301,3.37241 -1.88556,4.7671 -1.73132,1.13441 -2.73981,2.92339 -3.17217,5.62717 -0.91577,5.72695 -2.23275,6.3987 -7.75538,3.95578 -2.55858,-1.13178 -5.12702,-1.76419 -5.70764,-1.40534 -0.58062,0.35884 -3.89461,0.11677 -7.36443,-0.53794 -5.26246,-0.99295 -6.7854,-0.9485 -9.1828,0.26801 -1.75917,0.89266 -7.17039,1.65348 -13.94968,1.96133 -16.10031,0.73111 -15.42436,0.004 -15.42436,16.59523 0,7.57071 -0.47083,19.81737 -1.04629,27.21482 -0.87653,11.26768 -1.40384,13.93663 -3.25,16.44989 -2.15736,2.93691 -2.20333,3.6329 -2.1858,33.09359 l 0.0179,30.09359 4.48209,4.63989 c 4.96087,5.13554 7.28138,5.65504 15.47317,3.46407 3.95529,-1.05788 4.7332,-0.99543 6.22864,0.5 2.69274,2.69275 6.99433,2.14538 10.13132,-1.2892 z m 76.81313,-18.56916 c 0.33077,-0.86197 0.11071,-2.0579 -0.48901,-2.65762 -1.44384,-1.44384 -4.27127,0.81081 -3.50873,2.79795 0.73152,1.90632 3.24624,1.81805 3.99774,-0.14033 z m -124.83507,-7.75718 c 0.19041,-1.00343 -0.42621,-2.67792 -1.37027,-3.72109 -1.67713,-1.8532 -1.76156,-1.83936 -3.68336,0.6038 -1.08178,1.37527 -1.70137,3.1924 -1.37686,4.03806 0.83714,2.18156 5.98157,1.44493 6.43049,-0.92077 z m 116.29944,-4.9256 c 1.08712,-2.04022 1.04378,-2.12204 -0.46482,-0.87756 -0.91505,0.75485 -1.66372,1.76735 -1.66372,2.25 0,1.52749 0.88863,0.95452 2.12854,-1.37244 z m -114.19883,-25.5 c 0.0387,-2.3375 -0.34395,-4.25 -0.85026,-4.25 -1.40717,0 -2.32635,5.60338 -1.51737,9.25 0.63006,2.84011 0.8204,2.99776 1.50917,1.25 0.4335,-1.1 0.81981,-3.9125 0.85846,-6.25 z m 1.07029,-20.12756 c 0,-2.0866 -2.31486,-4.47425 -3.34201,-3.4471 -0.36189,0.3619 -0.65799,1.70799 -0.65799,2.99133 0,1.66666 0.57143,2.33333 2,2.33333 1.28986,0 2,-0.66667 2,-1.87756 z m 7.98899,-35.87244 c -0.0341,-5.41776 -1.3266,-9.25 -3.11983,-9.25 -2.29117,0 -2.35621,1.74226 -0.26058,6.97976 1.66515,4.16162 3.39964,5.32648 3.38041,2.27024 z m 3.21396,-21.16864 c 1.26338,-0.50526 3.1598,-1.19501 4.21427,-1.53279 1.26545,-0.40536 1.5806,-0.95075 0.92705,-1.6043 -1.15298,-1.15298 -8.34427,1.49208 -8.34427,3.06915 0,1.21602 0.31546,1.22271 3.20295,0.0679 z m -6.20295,-13.08136 c 0,-0.55 -0.675,-1 -1.5,-1 -0.825,0 -1.5,0.45 -1.5,1 0,0.55 0.675,1 1.5,1 0.825,0 1.5,-0.45 1.5,-1 z m -2.58179,-9.60699 c 1.97328,-0.75722 2.06685,-4.74555 0.14869,-6.33749 -2.11229,-1.75305 -5.38537,3.25336 -3.56274,5.44949 1.42381,1.71559 1.32462,1.68979 3.41405,0.888 z m -20.57111,189.17076 c -0.61051,-1.33993 -0.83999,-3.13993 -0.50994,-4 0.8504,-2.21612 4.66284,-2.02297 4.66284,0.23623 0,0.99 0.50079,2.30079 1.11287,2.91287 0.61207,0.61207 0.81052,1.60207 0.44098,2.2 -1.20765,1.95402 -4.56318,1.16076 -5.70675,-1.3491 z m 110.6529,-199.56377 c -0.33992,-0.55 0.057,-1 0.88197,-1 0.825,0 1.77811,0.45 2.11803,1 0.33992,0.55 -0.057,1 -0.88197,1 -0.825,0 -1.77811,-0.45 -2.11803,-1 z"
         id="path3074"
         inkscape:connector-curvature="0" />
      <path
         style="fill:#2c6efd"
         d="m 309.58669,441.28366 c -0.67734,-0.43058 -1.40583,-4.01325 -1.6744,-8.23469 -0.44684,-7.02346 -1.26859,-10.97251 -2.28326,-10.97251 -0.24347,0 -1.83004,0.71744 -3.52571,1.5943 -2.54758,1.31741 -3.23101,1.36083 -3.93503,0.25 -1.20255,-1.89743 -1.08573,-6.24118 0.20249,-7.5294 0.78013,-0.78013 0.57135,-2.0308 -0.74285,-4.45 -1.58992,-2.92674 -1.82888,-5.87142 -1.8351,-22.61407 -0.007,-17.93371 0.11694,-19.24923 1.80859,-19.25 2.75606,-0.001 5.68426,-1.88014 5.68426,-3.6473 0,-1.25716 -0.70241,-1.44434 -3.47094,-0.92496 -3.09509,0.58064 -3.53721,0.38714 -4.08288,-1.787 -0.85346,-3.40044 -0.18651,-7.11754 1.30382,-7.26657 0.6875,-0.0687 1.65186,-0.18125 2.14301,-0.25 0.49116,-0.0687 1.16572,-0.83566 1.49902,-1.70424 0.49924,-1.301 0.0782,-1.46332 -2.38953,-0.92131 l -2.99555,0.65793 0.59024,-15.32869 c 0.32464,-8.43078 1.22682,-18.02869 2.00486,-21.32869 0.81811,-3.46997 1.46948,-11.90341 1.54472,-20 0.19107,-20.55814 0.0328,-23.31771 -1.76916,-30.84284 -2.11209,-8.82041 -1.42497,-18.39064 1.48987,-20.75094 2.13099,-1.72557 9.63119,-3.33409 11.15498,-2.39234 0.53427,0.33019 0.53163,1.52875 -0.006,2.94406 -1.1775,3.09705 0.94873,5.01871 4.55226,4.11429 2.39324,-0.60067 2.54337,-0.9521 1.93783,-4.53626 -0.86592,-5.12531 1.17506,-6.2372 10.78152,-5.8736 3.96682,0.15015 8.07126,-0.12549 9.12097,-0.61253 1.7326,-0.80387 1.84675,-0.57645 1.23812,2.46671 -0.36874,1.84372 -1.3401,4.09218 -2.15857,4.99657 -1.64284,1.81535 -2.02805,5.98688 -0.55282,5.98688 0.5144,0 1.50995,-1.58924 2.21234,-3.53165 1.06613,-2.94835 2.02653,-3.75442 5.81472,-4.88038 3.79701,-1.12858 4.49493,-1.71646 4.27584,-3.60163 -0.144,-1.2391 0.23029,-2.84588 0.83177,-3.57062 1.63884,-1.97468 9.6049,-2.8849 12.74131,-1.45586 l 2.65612,1.21021 -3.10449,2.66497 c -1.70748,1.46573 -3.33577,3.35409 -3.61842,4.19637 -0.28266,0.84227 -2.84892,2.12985 -5.7028,2.86127 -2.85387,0.73143 -6.36347,2.34022 -7.79909,3.57509 l -2.61023,2.24523 2.69551,1.76616 c 1.84383,1.20812 3.67096,1.57108 5.78274,1.14872 2.25096,-0.45019 3.77415,-0.0771 5.62317,1.37734 1.81803,1.43006 4.05483,1.99478 7.9011,1.99478 6.0154,0 6.68611,1.05094 3.36514,5.27287 -1.1,1.39842 -2,3.25911 -2,4.13486 0,1.04897 -0.88907,1.59227 -2.60564,1.59227 -1.43311,0 -3.93695,1.12022 -5.56409,2.48937 -2.56248,2.15618 -3.92022,2.48509 -10.14436,2.4574 -3.95225,-0.0176 -9.88591,0.54971 -13.18591,1.26064 l -6,1.29259 -1.11891,27.22546 c -0.9686,23.56786 -1.36607,27.59821 -2.9586,30 -1.01183,1.526 -2.22926,5.69954 -2.70541,9.27454 -1.05954,7.95532 -1.04138,5.74914 -0.27452,33.36173 l 0.63491,22.86172 4.71127,4.88288 c 5.12209,5.30867 7.78573,5.97273 15.43554,3.84819 3.00943,-0.83579 4.20128,-0.72179 6.20936,0.59396 3.29496,2.15893 8.14009,1.1195 12.06636,-2.58862 1.93777,-1.8301 5.60643,-3.55222 10.36119,-4.86369 7.49638,-2.06767 14.61184,-5.98121 19.77031,-10.87379 6.44058,-6.1086 12.42051,-10.39796 15.79514,-11.32974 2.66691,-0.73636 3.57336,-1.52558 3.57336,-3.11118 0,-2.39733 4.15502,-13.72824 6.70376,-18.28146 0.92362,-1.65 2.95606,-5.475 4.51654,-8.5 1.56049,-3.025 3.9493,-6.69709 5.30847,-8.16019 3.08823,-3.32437 3.08944,-4.20472 0.009,-6.22338 -1.8984,-1.24388 -3.38768,-4.50709 -6.5,-14.2424 -2.22096,-6.94585 -4.03777,-13.20034 -4.03777,-13.89887 0,-0.79646 1.2119,-1.21507 3.25,-1.12261 2.69592,0.12231 3.30632,-0.25017 3.58033,-2.18482 0.30016,-2.11921 -0.0196,-2.3159 -3.5,-2.15311 -5.92793,0.27728 -5.93543,0.27339 -9.19614,-4.76462 -1.69087,-2.6125 -4.66172,-5.81978 -6.60189,-7.12729 -1.94017,-1.3075 -5.10364,-4.57104 -7.02994,-7.25231 -5.2554,-7.31514 -4.53543,-12.51251 2.44859,-17.67601 l 2.9828,-2.20528 3.28312,2.0017 c 3.20416,1.95357 8.79247,2.75559 8.77375,1.25919 -0.0259,-2.07081 -6.41415,-11.548 -8.07726,-11.98291 -2.20408,-0.57638 -2.3994,-2.10624 -0.73524,-5.75868 0.81489,-1.78848 1.66275,-2.37997 2.75,-1.91845 0.86453,0.36698 2.69688,0.86167 4.07188,1.09931 5.90127,1.01993 6.84502,1.41204 9.97419,4.14411 2.25537,1.96915 3.49251,4.10092 3.92537,6.76392 0.54344,3.34333 1.05048,3.95993 3.61625,4.39772 2.43911,0.41618 4.15632,2.24402 9.40134,10.00708 6.0496,8.9539 8.66396,14.57708 13.16267,28.31135 1.04732,3.19739 2.5933,6.50252 3.43551,7.34474 4.25161,4.25161 4.73925,6.99781 4.03229,22.70852 -0.37205,8.268 -0.86206,15.33305 -1.08892,15.70012 -0.22686,0.36706 -1.11871,5.05631 -1.98191,10.42056 -1.00015,6.21535 -2.6076,11.80976 -4.43145,15.42279 -2.77849,5.50416 -11.37636,16.08982 -13.06846,16.08982 -0.46078,0 -0.98158,-1.0125 -1.15733,-2.25 -0.20831,-1.46678 -1.12406,-2.36402 -2.6307,-2.57756 -1.27113,-0.18016 -2.57703,-1.08016 -2.902,-2 -0.32497,-0.91984 -1.2568,-2.44846 -2.07074,-3.39692 -1.22544,-1.42798 -1.26804,-2.23594 -0.24773,-4.69918 0.67769,-1.63609 1.05951,-3.49266 0.8485,-4.12571 -0.46679,-1.40035 -6.41876,4.4604 -8.42855,8.29937 -0.79183,1.5125 -1.87813,2.75 -2.41401,2.75 -0.53588,0 -0.97432,0.51117 -0.97432,1.13592 0,0.76688 1.42712,0.94032 4.3927,0.53384 4.69727,-0.64383 4.61561,-0.72159 7.02371,6.68846 0.47068,1.44835 1.35894,1.77007 4.02706,1.45859 l 3.42317,-0.39964 -1.68332,2.90029 c -1.96623,3.38772 -19.95033,20.48066 -25.55666,24.29026 -5.75409,3.91001 -10.36054,4.94309 -12.68024,2.84379 -1.76768,-1.59973 -2.0285,-1.56023 -4.73476,0.71694 -5.48163,4.61248 -24.51818,11.62158 -31.71166,11.67596 -2.2,0.0166 -7.00088,0.51123 -10.66862,1.09911 -4.37027,0.70047 -7.54421,0.73596 -9.20912,0.10296 -2.11759,-0.8051 -2.84035,-0.58469 -4.34179,1.32409 -1.81867,2.31207 -7.27051,3.94196 -12.64118,3.77924 -1.57339,-0.0477 -4.13854,0.57412 -5.70034,1.38176 -3.11942,1.61312 -5.79136,1.84947 -7.63794,0.67563 z m 10.69899,-23.2072 c 0,-0.55 -0.675,-1 -1.5,-1 -0.825,0 -1.5,0.45 -1.5,1 0,0.55 0.675,1 1.5,1 0.825,0 1.5,-0.45 1.5,-1 z m -11.07992,-2.41492 c 1.56543,-1.66634 2.06356,-3.06127 1.60692,-4.5 -0.8788,-2.76887 -1.62325,-2.63783 -4.99236,0.87876 -2.37577,2.47977 -2.63132,3.21474 -1.56465,4.5 1.70668,2.05643 2.28988,1.9529 4.95009,-0.87876 z m 69.54764,-4.37252 c 0.1506,-0.15809 1.46919,0.2572 2.93018,0.92287 3.62298,1.65074 5.0545,0.0896 4.18209,-4.56073 -0.75532,-4.02623 -1.74485,-4.40984 -4.43526,-1.71943 -1.02039,1.02039 -3.0607,2.15781 -4.534,2.52758 -1.47331,0.36978 -3.18484,1.78308 -3.8034,3.14068 -0.9313,2.04397 -0.79818,2.8291 0.77429,4.56666 l 1.89895,2.09831 1.35665,-3.34425 c 0.74617,-1.83934 1.47989,-3.4736 1.6305,-3.63169 z m -62.46772,-5.59593 c 0,-0.76085 -0.9,-1.61872 -2,-1.90638 -1.93742,-0.50665 -2.78857,1.16784 -1.33333,2.62308 1.17607,1.17608 3.33333,0.71224 3.33333,-0.7167 z m -5,-9.11663 c 0,-1.375 -0.45,-2.5 -1,-2.5 -0.55,0 -1,1.125 -1,2.5 0,1.375 0.45,2.5 1,2.5 0.55,0 1,-1.125 1,-2.5 z m -1.93567,-14.07751 c 1.09957,-1.3249 0.92236,-2.28568 -1.10667,-6 -2.6915,-4.92703 -3.95766,-5.59167 -3.95766,-2.07748 0,1.28976 -0.9,3.1595 -2,4.15499 -2.55112,2.30873 -2.51386,2.94654 0.25,4.27951 3.22947,1.55751 5.31614,1.44818 6.81433,-0.35702 z m 130.18567,-7.50985 c 0.9625,-1.6911 1.73875,-4.05075 1.725,-5.24368 -0.0218,-1.89079 -0.53481,-1.62886 -4,2.04232 -4.52899,4.79819 -4.93899,6.29143 -1.725,6.2824 1.46221,-0.004 2.86272,-1.08287 4,-3.08104 z M 311.28471,357.58162 c 1.22915,-6.51429 0.70851,-13.50516 -1.0058,-13.50516 -1.42125,0 -3.18877,7.83322 -2.48773,11.02503 0.3452,1.57172 0.16875,3.71512 -0.39212,4.76312 -0.71638,1.33857 -0.67669,2.24854 0.13342,3.05865 2.00759,2.0076 2.49698,1.31091 3.75223,-5.34164 z m 138.77987,0.59705 c -0.49129,-2.53037 -2.51845,-2.27605 -3.19016,0.40023 -0.89899,3.58187 0.34213,5.31259 2.09281,2.91839 0.75694,-1.03518 1.25075,-2.52856 1.09735,-3.31862 z m -22.00626,-9.67933 c 0.26007,-2.78815 0.20246,-2.83341 -1.25,-0.98175 -1.84032,2.34613 -2.00058,4.88247 -0.27264,4.31508 0.6875,-0.22574 1.37269,-1.72574 1.52264,-3.33333 z m -116.7069,-15.45806 c 2.35793,-1.26193 2.4551,-3.24029 0.31925,-6.5 -2.08607,-3.18375 -2.87675,-3.10604 -4.33999,0.42654 -0.95145,2.29699 -0.92694,3.32483 0.11923,5 1.53078,2.45117 1.39634,2.41418 3.90151,1.07346 z m 9.51654,-42.40886 c -0.59133,-5.93552 -1.75196,-7.78312 -4.58228,-7.29449 -2.38112,0.41108 -2.34916,4.45694 0.0867,10.97026 2.08456,5.57407 2.35888,5.88396 3.67037,4.14629 1.03313,-1.36885 1.25687,-3.48957 0.82524,-7.82206 z m 3.18129,-16.44836 c 0.95504,-0.49082 2.99081,-1.38886 4.52394,-1.99565 2.29937,-0.91005 2.61481,-1.42594 1.80134,-2.94593 -0.54239,-1.01347 -0.73179,-2.81543 -0.42088,-4.00435 0.79931,-3.05655 -1.49553,-2.74543 -2.67734,0.36298 -0.52793,1.38856 -2.54179,3.45801 -4.47525,4.59878 -5.23724,3.09004 -4.09657,6.73099 1.24819,3.98417 z m -15.76357,-4.54858 c 0,-3.15493 -1.42668,-5.46567 -2.63101,-4.26134 -0.79792,0.79792 0.76389,7.70232 1.7423,7.70232 0.48879,0 0.88871,-1.54844 0.88871,-3.44098 z m 116,-1.17705 c 0,-0.825 -0.45,-1.22189 -1,-0.88197 -0.55,0.33992 -1,1.29303 -1,2.11803 0,0.825 0.45,1.22189 1,0.88197 0.55,-0.33992 1,-1.29303 1,-2.11803 z m -106.13112,-7.72398 c 1.31068,-1.57928 0.50853,-2.65799 -1.97653,-2.65799 -2.05331,0 -3.28887,1.54939 -2.39235,3 0.87256,1.41184 3.05511,1.24098 4.36888,-0.34201 z m 62.13112,14.36547 c -0.825,-0.53573 -3.8625,-1.50677 -6.75,-2.15788 -3.12761,-0.70526 -5.25,-1.72474 -5.25,-2.52183 0,-0.73589 1.62736,-3.13928 3.61636,-5.34087 2.86329,-3.16931 4.32098,-4.00288 7,-4.00288 2.71697,0 3.38364,-0.39405 3.38364,-2 0,-2.30057 0.54272,-2.40397 4.80992,-0.91642 4.12736,1.43881 5.01075,4.41395 2.19923,7.40668 -1.1988,1.27607 -2.77295,4.05028 -3.49812,6.16493 -1.37922,4.02193 -2.98913,5.00589 -5.51103,3.36827 z m -5.16537,-28.73155 c -3.59964,-0.55158 -4.65839,-3.29191 -1.27186,-3.29191 2.87788,0 4.20532,-2.36959 2.48718,-4.43982 -0.78952,-0.9513 -2.29938,-1.23168 -4.61188,-0.85642 -5.36721,0.87098 -4.12095,-1.30375 1.81193,-3.16182 4.78226,-1.49772 5.63985,-1.50601 9.62573,-0.0931 2.40665,0.85312 5.41149,1.55113 6.67742,1.55113 2.1655,0 6.44685,4.11891 6.44685,6.20225 0,1.29687 -3.90965,-0.0756 -7.24963,-2.54493 l -2.78832,-2.06149 -2.94225,3.22135 c -1.67965,1.83898 -2.69841,3.85677 -2.37403,4.70208 0.58312,1.51961 -0.23051,1.62779 -5.81114,0.77265 z"
         id="path3072"
         inkscape:connector-curvature="0" />
      <path
         style="fill:#1650fc"
         d="m 309.992,440.44944 c -0.34486,-0.34485 -0.0101,-2.10341 0.74382,-3.90789 1.22232,-2.92542 1.14294,-3.94019 -0.73263,-9.36633 l -2.10347,-6.08545 2.01051,-2.75666 c 1.10578,-1.51616 2.34183,-3.64404 2.74678,-4.72862 0.61732,-1.65342 0.88664,-1.73419 1.66715,-0.5 0.51199,0.80958 0.93779,2.42378 0.94621,3.58711 0.0164,2.26068 3.54674,7.38486 5.08789,7.38486 0.51008,0 0.92742,-0.68111 0.92742,-1.51357 0,-0.83246 0.5625,-2.42739 1.25,-3.54429 1.07063,-1.73932 0.94509,-2.27548 -0.87488,-3.73643 -3.82792,-3.07279 -4.0682,-11.20571 -0.33107,-11.20571 1.9717,0 5.95595,4.43841 5.95595,6.63486 0,1.04995 2.02023,1.3638 8.75,1.35935 12.00202,-0.008 19.30484,-1.37247 24.33296,-4.54658 2.33926,-1.47671 6.99007,-3.48673 10.33512,-4.4667 3.34506,-0.97998 7.88192,-2.55262 10.08192,-3.49477 l 4,-1.713 -1.90499,2.11342 c -1.04774,1.16238 -2.67455,2.11342 -3.61514,2.11342 -0.94058,0 -2.78334,0.80542 -4.09501,1.78982 -3.11398,2.33702 -7.50052,4.21018 -9.85933,4.21018 -3.50286,0 -8.5738,8.85173 -6.34676,11.07877 0.57645,0.57645 2.74496,0.31472 5.68098,-0.68568 5.18535,-1.76683 6.68868,-1.30153 4.92407,1.52406 -0.76817,1.23003 -0.81063,2.15605 -0.13005,2.83662 1.73311,1.73311 -1.26339,5.36354 -4.15377,5.03253 -1.91026,-0.21876 -2.57599,-0.94894 -2.82212,-3.09536 -0.43502,-3.79355 -2.2072,-4.22679 -7.0933,-1.73409 -3.48989,1.78041 -4.0196,2.45388 -3.51411,4.46789 0.53927,2.14862 0.18803,2.44393 -3.73764,3.14249 -2.38305,0.42406 -5.23283,0.82602 -6.33283,0.89323 -3.47915,0.21261 -6.46888,1.61288 -7.48084,3.50374 -0.74475,1.39158 -2.71671,2.0025 -8.24894,2.55557 -3.99862,0.39974 -8.15785,1.34633 -9.24273,2.10352 -2.05106,1.43154 -5.73449,1.83637 -6.82117,0.74969 z m -11.03965,-18.03965 c -0.36667,-0.36666 -0.66667,-1.49166 -0.66667,-2.5 0,-1.28889 0.74242,-1.83333 2.5,-1.83333 2.66325,0 3.28438,1.81562 1.3,3.8 -1.35945,1.35945 -2.16936,1.49731 -3.13333,0.53333 z m 80.75824,-4.77649 c -0.85,-3.38668 -0.008,-4.29597 3.50268,-3.78077 2.4331,0.3571 3.22433,-0.0154 4.09587,-1.92821 1.46207,-3.20891 6.3964,-5.89711 9.75433,-5.31413 3.7322,0.64795 16.05925,-6.14825 18.72221,-10.32201 2.50926,-3.93287 6.5,-4.44501 6.5,-0.83416 0,1.30765 -0.70467,2.96238 -1.56594,3.67716 -0.86126,0.71479 -2.22282,2.56989 -3.02568,4.12245 -0.86856,1.67962 -2.27545,2.82283 -3.4739,2.82283 -1.10779,0 -3.68373,0.83732 -5.72432,1.86071 -2.04059,1.02339 -5.65824,2.11034 -8.03924,2.41545 -3.44386,0.44131 -5.25328,1.49219 -8.84886,5.13929 -3.59987,3.65144 -5.20816,4.58455 -7.90187,4.58455 -2.75259,0 -3.49622,-0.45474 -3.99528,-2.44316 z m 19.03397,1.37663 c -0.92052,-1.48944 -0.2273,-1.97563 5.77147,-4.04784 6.25302,-2.16003 5.77008,-2.06495 5.76786,-1.13563 -0.002,0.94011 -8.3231,6.25 -9.79405,6.25 -0.59737,0 -1.38274,-0.47994 -1.74528,-1.06653 z M 297.69345,408.50996 c -1.16265,-2.78262 -1.33981,-5.74977 -0.80602,-13.5 l 0.68416,-9.9335 2.70206,0 c 4.48673,0 6.02415,2.79224 6.68376,12.13894 0.57036,8.08207 0.49132,8.51384 -2.12858,11.62741 -3.506,4.16665 -5.29015,4.08342 -7.13538,-0.33285 z m 16.17964,-7.61336 c -0.463,-1.51423 -2.2741,-14.09722 -3.01506,-20.94766 -0.39105,-3.61545 -0.10841,-4.98236 1.29231,-6.25 2.43851,-2.20682 2.84523,-2.08418 4.64779,1.40159 1.11151,2.14942 1.62509,6.41556 1.77568,14.75 0.20741,11.47909 0.16441,11.73267 -2.0426,12.04607 -1.23996,0.17607 -2.43611,-0.27393 -2.65812,-1 z m 83.41259,-1.35236 c 0,-0.84273 1.0125,-1.91528 2.25,-2.38344 2.85915,-1.08167 3.17944,-0.75528 1.79584,1.83001 -1.29642,2.42238 -4.04584,2.79847 -4.04584,0.55343 z m -2.81684,-10.89863 c 3.32478,-3.13451 7.47455,-5.95425 10,-6.79493 3.89594,-1.2969 4.38051,-1.81908 4.96989,-5.35562 0.96943,-5.81695 4.84049,-15.10533 9.23909,-22.1686 2.14067,-3.4375 4.10427,-6.25 4.36354,-6.25 0.25927,0 0.17372,1.9851 -0.19011,4.41133 -0.42853,2.85766 -0.26594,4.65582 0.46166,5.1055 0.76479,0.47267 0.48467,1.37844 -0.8779,2.83867 -2.33346,2.50072 -3.89256,7.6445 -2.31706,7.6445 0.57699,0 4.45163,-2.73721 8.61031,-6.0827 4.15868,-3.34548 8.12287,-5.88621 8.80933,-5.64606 0.71824,0.25127 -2.89103,4.5915 -8.50191,10.22372 -5.3625,5.3829 -9.75,10.17363 -9.75,10.64607 0,0.47243 -0.9223,0.85897 -2.04957,0.85897 -1.12726,0 -3.71476,1.62335 -5.75,3.60745 -3.01686,2.94105 -20.13997,12.4908 -22.15501,12.35609 -0.29998,-0.0201 2.012,-2.44753 5.13774,-5.39439 z m 49.49951,-14.38828 c -2.04684,-4.27562 -1.46608,-9.04047 1.19601,-9.81275 0.89173,-0.25869 2.91977,-1.1364 4.50676,-1.95046 1.587,-0.81406 3.08069,-1.28487 3.31931,-1.04624 0.82448,0.82447 -2.08795,8.8384 -3.39422,9.33966 -0.72079,0.27659 -1.31053,1.31795 -1.31053,2.31412 0,2.27754 -1.01051,4.97843 -1.85699,4.96333 -0.35365,-0.006 -1.46081,-1.71976 -2.46034,-3.80766 z m -12.68267,-0.62417 c 0,-1.49963 2.02924,-4.35394 3.49536,-4.91655 1.23485,-0.47385 1.35353,-0.22632 0.58238,1.2146 -1.0944,2.0449 -4.07774,4.75331 -4.07774,3.70195 z m 11.01531,-13.24768 c 0.008,-0.44496 0.45153,-1.48402 0.98469,-2.30902 0.8354,-1.29269 0.97149,-1.26629 0.98469,0.19098 0.008,0.93004 -0.43469,1.9691 -0.98469,2.30902 -0.55,0.33992 -0.99311,0.25398 -0.98469,-0.19098 z m 7.20467,-7.67211 c -1.25446,-1.84222 -2.55408,-5.66224 -2.8893,-8.49261 -0.56239,-4.74857 -0.44818,-5.1443 1.48472,-5.1443 3.01153,0 4.1549,-6.27034 1.64841,-9.03999 -2.53867,-2.8052 -3.0916,-2.49527 -4.33121,2.42767 -1.08121,4.29389 -3.24212,6.2807 -5.38835,4.95426 -0.5914,-0.36551 -2.10588,0.62795 -3.36551,2.20767 -1.25963,1.57973 -2.59074,2.57172 -2.95803,2.20444 -1.11492,-1.11493 0.4668,-3.91187 2.51516,-4.44753 2.47226,-0.64651 3.4344,-3.15544 1.91304,-4.98857 -1.00094,-1.20606 -1.51379,-1.01695 -3.29282,1.21417 -1.83855,2.30575 -2.57757,2.55448 -5.79603,1.95069 -2.02884,-0.38061 -4.12468,-1.21722 -4.65742,-1.85913 -1.37072,-1.65162 -8.10198,-20.74349 -8.10234,-22.98067 -1.9e-4,-1.18269 0.50908,-1.66152 1.4025,-1.31868 2.58888,0.99344 4.77882,-1.65883 4.42591,-5.36028 -0.23979,-2.51509 -0.8697,-3.54544 -2.32871,-3.8091 -1.1,-0.19878 -2.74675,-1.02283 -3.65944,-1.83122 -1.47079,-1.3027 -1.7837,-1.26254 -2.75249,0.35324 -1.01632,1.69507 -1.25079,1.6234 -3.34056,-1.0212 -1.23613,-1.56433 -3.59868,-4.3105 -5.2501,-6.10259 -13.01299,-14.12147 -14.66298,-17.65889 -10.58459,-22.6924 1.70396,-2.10301 2.24094,-2.23716 4.91787,-1.22865 1.89911,0.71549 3.35486,0.78232 3.95558,0.1816 1.49082,-1.49082 7.82154,1.63824 9.81809,4.85274 0.96796,1.55844 2.76703,3.95853 3.99794,5.33353 3.46842,3.87444 9.3977,13.04907 9.3977,14.54147 0,0.73727 0.52024,1.66202 1.1561,2.055 1.85885,1.14884 0.19711,-5.27606 -3.17701,-12.28346 -3.51343,-7.2967 -3.58068,-7.70534 -1.04483,-6.34819 2.66148,1.42438 4.06574,1.29617 4.06574,-0.3712 0,-0.91405 0.70014,-1.22329 2,-0.88337 2.39363,0.62595 2.61266,-1.31614 0.4682,-4.15138 -1.65674,-2.1904 -1.96405,-5.55887 -0.50716,-5.55887 1.58255,0 5.0614,4.19697 7.60863,9.17923 1.31576,2.57358 2.81645,4.94137 3.33485,5.26176 0.51841,0.3204 1.70729,2.93974 2.64196,5.82077 0.93467,2.88103 2.50166,7.26324 3.4822,9.73824 0.98054,2.475 2.49698,6.82464 3.36986,9.66587 0.89021,2.89764 2.96841,6.54723 4.73308,8.3119 3.09443,3.09443 3.13401,3.25573 2.4133,9.83413 -0.40299,3.67846 -0.71917,10.33035 -0.7026,14.78198 0.0309,8.30716 -1.69861,17.53063 -3.3905,18.08145 -0.5235,0.17044 -1.97783,-1.19685 -3.23184,-3.03842 z m 0.78002,-38.25935 c 0,-2.61819 -2.69758,-3.27998 -4.8,-1.17756 -1.58695,1.58696 -1.51505,2.3421 0.40595,4.26309 2.03918,2.03918 4.39405,0.38558 4.39405,-3.08553 z m -16.63837,-36.87756 c -0.31659,-0.825 -0.97746,-1.5 -1.46862,-1.5 -0.49115,0 -0.89301,0.675 -0.89301,1.5 0,0.825 0.66088,1.5 1.46862,1.5 0.89459,0 1.24363,-0.58629 0.89301,-1.5 z m -0.53713,69.82582 c 0.42673,-2.09296 0.67819,-2.34442 0.96961,-0.9696 0.2164,1.02092 -0.0429,2.29254 -0.57615,2.82582 -0.62614,0.62614 -0.76551,-0.0314 -0.39346,-1.85622 z m -119.38901,0.56979 c -1.29307,-2.09222 -1.74379,-13.58704 -0.56142,-14.31778 0.61926,-0.38273 1.11915,-1.68181 1.11087,-2.88685 -0.0195,-2.84293 -2.31999,-9.42603 -3.81707,-10.9231 -0.64233,-0.64234 -1.16787,-2.00583 -1.16787,-3.02998 0,-1.02416 -0.7268,-4.08416 -1.6151,-6.8 -1.54341,-4.7187 -3.6446,-6.35952 -4.72262,-3.6879 -0.27741,0.6875 -0.53991,-0.2125 -0.58333,-2 -0.0554,-2.28019 0.37604,-3.25 1.4458,-3.25 0.83861,0 1.96536,-1.15889 2.50388,-2.57531 0.53853,-1.41642 1.6078,-3.20398 2.37618,-3.97235 1.02658,-1.02659 1.17792,-2.36859 0.57071,-5.06089 -0.45715,-2.02692 -0.41547,-6.17198 0.0933,-9.27765 0.50579,-3.08759 0.92222,-7.98595 0.9254,-10.88524 0.005,-4.6654 -0.28373,-5.40335 -2.51255,-6.41887 -2.15322,-0.98108 -2.80669,-0.83793 -4.50715,0.98731 -1.11328,1.19495 -2.64982,1.88109 -3.49029,1.55857 -1.35258,-0.51904 -1.74627,-1.5348 -2.95715,-7.62977 -0.62765,-3.15927 1.50953,-8.70367 3.97857,-10.32145 3.20104,-2.0974 4.13079,-1.3145 4.95339,4.171 0.66138,4.41037 0.76656,4.53047 2.55238,2.91433 2.68466,-2.42959 4.14977,-0.94171 3.79553,3.85452 -0.27321,3.69916 -0.0506,4.1921 2.02553,4.48616 2.24978,0.31864 6.16754,-2.22656 6.16754,-4.00679 0,-0.47654 -1.125,-1.37903 -2.5,-2.00552 -3.01797,-1.37508 -3.28099,-4.4354 -0.45821,-5.33131 1.56867,-0.49788 1.87653,-1.15072 1.32858,-2.81739 -2.22038,-6.75366 1.93072,-9.63349 8.78037,-6.0914 l 3.05142,1.57795 -2.10108,2.2365 c -1.15559,1.23008 -2.10108,2.69777 -2.10108,3.26154 0,0.56376 -1.08961,1.52149 -2.42136,2.12827 -2.83307,1.29084 -2.56139,4.32628 0.71099,7.94361 1.66571,1.84129 1.85243,2.79145 1.08083,5.5 -0.79219,2.78084 -1.58637,3.43292 -5.27071,4.3277 -7.18775,1.74563 -7.54638,3.38319 -7.21536,32.94648 0.16485,14.72238 0.94936,19.64376 3.22631,20.2392 1.23746,0.3236 1.89979,1.40262 1.91971,3.12743 0.0286,2.4754 0.0984,2.5134 1.16454,0.63337 1.17804,-2.07745 2.77735,-3.45832 4.03592,-3.48469 1.57127,-0.0329 -0.5977,9.68546 -2.93993,13.17273 -1.85661,2.76425 -2.31542,4.42402 -1.83172,6.62629 0.8972,4.08491 -3.12512,8.1533 -5.02374,5.08128 z M 299.32086,337.1422 c -1.31533,-2.45773 -1.33345,-5.06574 -0.0352,-5.06574 0.55,0 1,0.65917 1,1.46482 0,0.80565 0.9,1.94648 2,2.53518 2.55761,1.36879 2.57675,3 0.0352,3 -1.08065,0 -2.43065,-0.87042 -3,-1.93426 z m 0.98013,-19.81574 c 0.0363,-1.77777 1.74659,-3.44427 2.41871,-2.35676 0.37621,0.60872 0.4059,1.55676 0.066,2.10676 -0.72089,1.16642 -2.50707,1.34614 -2.48469,0.25 z m 20.65136,-2.91667 c -1.33506,-1.33506 -0.62155,-11.18891 1.08333,-14.96121 l 1.75,-3.87212 0.29313,8.41641 c 0.16122,4.62903 0.0628,9.01653 -0.21861,9.75 -0.55267,1.44023 -1.83942,1.73535 -2.90785,0.66692 z m 2.02322,-24.69908 c -0.37944,-0.9888 -0.68989,-2.9156 -0.68989,-4.28178 0,-1.36617 -0.45572,-3.33548 -1.01271,-4.37622 -0.80825,-1.51022 -0.58905,-2.11901 1.08564,-3.01528 2.56261,-1.37147 2.53147,-1.40681 3.16844,3.59603 0.60389,4.74299 -1.39848,11.08191 -2.55148,8.07725 z m 53.56011,-16.9773 c -2.8875,-1.17871 -5.25,-2.51834 -5.25,-2.97695 0,-1.20053 5.65103,-6.68 6.88915,-6.68 0.57365,0 2.64693,0.76486 4.60728,1.69969 2.49683,1.19065 3.38448,2.16399 2.9639,3.25 -0.33022,0.85267 -0.85013,2.78781 -1.15536,4.30031 -0.64926,3.21723 -1.11316,3.24066 -8.05497,0.40695 z m -42.08004,-0.82691 c 0.22003,-1.55336 0.99671,-2.33004 2.33004,-2.33004 2.97814,0 2.6806,3.9036 -0.33004,4.33004 -1.93881,0.27462 -2.27462,-0.0612 -2,-2 z m 14.33004,-7.58214 c 2.37791,-2.3208 16.5,-4.30242 16.5,-2.31529 0,1.26455 -2.24539,1.82443 -10.5,2.61818 -4.55748,0.43823 -6.65107,0.33254 -6,-0.30289 z m 70.37197,-1.27091 c -0.75458,-1.11265 -2.4461,-2.22369 -3.75893,-2.46896 -3.18666,-0.59535 -6.11304,-3.36066 -6.11304,-5.77656 0,-1.76396 0.47194,-1.89194 4.75,-1.28805 7.03977,0.99372 8.25,1.507 8.25,3.49897 0,0.99418 0.28125,3.21386 0.625,4.93261 0.74372,3.71859 -1.52643,4.38517 -3.75303,1.10199 z m -32.52689,-0.52012 c -0.32569,-0.84872 -0.32244,-1.81284 0.007,-2.1425 0.86466,-0.86466 3.7309,1.74199 3.07767,2.79894 -0.85349,1.38097 -2.43195,1.04509 -3.08489,-0.65644 z m 18.65492,-12.45687 c 0,-0.55 0.64844,-1 1.44098,-1 0.79254,0 1.7191,0.45 2.05902,1 0.33992,0.55 -0.30852,1 -1.44098,1 -1.13246,0 -2.05902,-0.45 -2.05902,-1 z M 378.32086,238.1422 c -2.1087,-3.94015 -0.2568,-5.32509 4.04327,-3.02375 1.56399,0.83701 1.74084,1.42715 0.89908,3 -1.33718,2.49853 -3.61203,2.50946 -4.94235,0.0238 z"
         id="path3070"
         inkscape:connector-curvature="0" />
      <path
         style="fill:#0c37f3"
         d="m 315.28568,433.57646 c 0,-0.825 0.675,-1.5 1.5,-1.5 1,0 1.5,-1 1.5,-3 0,-2.26812 0.45805,-3 1.87755,-3 1.03266,0 2.43776,0.675 3.12245,1.5 0.68469,0.825 2.01135,1.5 2.94813,1.5 2.27018,0 7.00774,-5.11164 5.30187,-5.72051 -4.53224,-1.61767 2.45643,-8.5374 8.94002,-8.85183 2.11143,-0.1024 6.99649,-1.20146 10.8557,-2.44236 3.8592,-1.2409 7.24453,-2.02838 7.52295,-1.74997 1.37592,1.37593 -2.31715,6.00217 -6.14217,7.69416 -2.32365,1.02786 -5.19323,2.83724 -6.37682,4.02083 -1.45302,1.45302 -2.8126,1.94231 -4.18591,1.50644 -2.94176,-0.93368 -7.01446,3.09467 -6.24167,6.17369 0.88071,3.50904 -3.31418,5.16851 -7.62677,3.01711 -2.97915,-1.4862 -3.44015,-1.46128 -7.05159,0.38114 -4.6314,2.36277 -5.94374,2.46683 -5.94374,0.4713 z m 88,-26.37868 c 0,-1.09426 5.85823,-3.59642 6.625,-2.82966 0.30847,0.30848 -0.80861,1.26905 -2.48241,2.1346 -3.49516,1.80742 -4.14259,1.91605 -4.14259,0.69506 z m -105,-5.68034 c 0,-1.40746 0.40775,-2.30701 0.90612,-1.999 0.49837,0.30801 0.67088,1.45956 0.38337,2.55902 -0.71955,2.75155 -1.28949,2.50403 -1.28949,-0.56002 z M 410.7092,375.73775 c -0.31253,-0.81443 0.0594,-2.75889 0.82641,-4.32103 0.76705,-1.56214 1.99449,-4.74626 2.72764,-7.07581 1.34987,-4.28911 4.49418,-8.12604 5.68407,-6.93614 0.35716,0.35716 -0.0956,2.95607 -1.00613,5.77537 -0.91053,2.81929 -1.65551,6.16867 -1.65551,7.44306 0,2.98985 -5.69287,7.41721 -6.57648,5.11455 z m 33.24315,-3.32796 c -2.33618,-2.33618 1.01892,-8.33333 4.66207,-8.33333 2.36042,0 2.11776,3.69067 -0.32874,5 -1.1,0.5887 -2,1.72953 -2,2.53518 0,1.53151 -1.19218,1.93931 -2.33333,0.79815 z m 6.97281,-21.02718 c -0.35171,-0.35172 -0.63948,-1.74458 -0.63948,-3.09526 0,-2.06953 0.23592,-2.25998 1.5,-1.21089 0.825,0.68469 1.5,1.83823 1.5,2.56343 0,1.56961 -1.45755,2.64569 -2.36052,1.74272 z M 316.5176,335.76702 c -1.63961,-2.13499 0.0672,-5.17681 3.01808,-5.37882 2.91846,-0.1998 3.35402,0.69111 1.77778,3.63635 -1.27271,2.37808 -3.64564,3.24023 -4.79586,1.74247 z m 114.4497,-15.07785 c -0.39594,-1.03182 0.11477,-2.31418 1.33918,-3.36254 3.18877,-2.73032 2.28152,-9.11275 -2.13388,-15.01158 -1.39924,-1.86934 -1.50502,-2.87297 -0.61015,-5.78873 0.71236,-2.32107 1.61214,-3.42532 2.63117,-3.22907 1.15077,0.22162 1.81357,2.47945 2.57997,8.78872 1.21651,10.01486 1.87306,11.36769 5.12118,10.55247 2.13717,-0.5364 2.39091,-0.27016 2.39091,2.50867 0,4.27949 -3.61666,7.31126 -6.39789,5.36321 -1.66058,-1.16312 -2.10519,-1.12811 -3.10907,0.24477 -1.06973,1.46294 -1.22693,1.45722 -1.81142,-0.0659 z m -4.93162,-11.14338 c -1.85988,-2.49283 -2.36856,-6.46933 -0.82755,-6.46933 1.03106,0 3.42373,6.51337 2.90798,7.91616 -0.18174,0.4943 -1.11793,-0.15677 -2.08043,-1.44683 z m 16.6403,-11.7374 c -1.16034,-1.22756 -3.29784,-3.21038 -4.75,-4.40626 -3.26513,-2.68889 -3.44739,-6.07859 -0.3903,-7.25859 3.10621,-1.19896 4.45982,0.36897 6.69675,7.75706 2.01565,6.65722 1.72713,7.38161 -1.55645,3.90779 z m -23.09061,-6.09344 c -0.43983,-0.74883 -4.0634,-4.16485 -8.05237,-7.59115 -3.98898,-3.4263 -6.99992,-6.63862 -6.69099,-7.13849 2.52427,-4.08434 17.44367,8.92117 17.44367,15.20596 0,1.36555 -1.80555,1.04706 -2.70031,-0.47632 z m 15.47093,-15.88849 c -0.80267,-1.2375 -2.04491,-3.375 -2.76052,-4.75 -1.29088,-2.48033 -1.28474,-2.48547 0.78041,-0.65291 1.14484,1.01589 2.53691,3.15339 3.09349,4.75 1.21418,3.483 0.85782,3.69197 -1.11338,0.65291 z m -39.77062,-4.75 c 0,-0.55 0.47656,-1 1.05902,-1 0.58246,0 0.7809,0.45 0.44098,1 -0.33992,0.55 -0.81648,1 -1.05902,1 -0.24254,0 -0.44098,-0.45 -0.44098,-1 z m -82.92971,-2.69098 c -0.0387,-1.20504 0.37971,-2.4691 0.92971,-2.80902 1.18278,-0.731 1.18278,0.24752 0,3 -0.82859,1.92824 -0.86195,1.92138 -0.92971,-0.19098 z m 5.42084,-2.33698 c -0.65753,-2.07167 2.66073,-5.86758 5.19148,-5.93877 1.76115,-0.0495 2.58436,3.59937 1.33761,5.92896 -1.44743,2.70455 -5.6718,2.7109 -6.52909,0.01 z m -18.78228,-7.59652 c -1.1688,-1.1688 -0.80281,-4.86476 0.68294,-6.89664 1.20165,-1.64336 1.61847,-1.71526 3.05106,-0.52631 2.39197,1.98516 1.70546,7.45463 -0.984,7.83961 -1.12263,0.1607 -2.36013,-0.0268 -2.75,-0.41666 z m 21.50365,-9.56302 c -1.7831,-1.7831 -1.48094,-3.59847 0.80234,-4.82044 1.57225,-0.84145 2.13998,-0.75218 2.58457,0.4064 1.39042,3.62337 -1.02702,6.77393 -3.38691,4.41404 z m 58.7875,-12.37152 c 0,-0.85746 0.45,-1.2809 1,-0.94098 0.55,0.33992 1,1.04148 1,1.55902 0,0.51754 -0.45,0.94098 -1,0.94098 -0.55,0 -1,-0.70156 -1,-1.55902 z"
         id="path3068"
         inkscape:connector-curvature="0" />
    </g>
  </g>
</svg>
