<?xml version="1.0" encoding="UTF-8" standalone="no"?>
<!-- Created with Inkscape (http://www.inkscape.org/) -->

<svg
   xmlns:dc="http://purl.org/dc/elements/1.1/"
   xmlns:cc="http://creativecommons.org/ns#"
   xmlns:rdf="http://www.w3.org/1999/02/22-rdf-syntax-ns#"
   xmlns:svg="http://www.w3.org/2000/svg"
   xmlns="http://www.w3.org/2000/svg"
   xmlns:sodipodi="http://sodipodi.sourceforge.net/DTD/sodipodi-0.dtd"
   xmlns:inkscape="http://www.inkscape.org/namespaces/inkscape"
   width="189.54347"
   height="249.69162"
   id="svg2"
   version="1.1"
   inkscape:version="0.48.2 r9819"
   sodipodi:docname="2-R.svg">
  <defs
     id="defs4" />
  <sodipodi:namedview
     id="base"
     pagecolor="#ffffff"
     bordercolor="#666666"
     borderopacity="1.0"
     inkscape:pageopacity="0.0"
     inkscape:pageshadow="2"
     inkscape:zoom="0.98994949"
     inkscape:cx="14.358541"
     inkscape:cy="36.385083"
     inkscape:document-units="px"
     inkscape:current-layer="layer1"
     showgrid="false"
     fit-margin-top="5"
     fit-margin-left="5"
     fit-margin-right="5"
     fit-margin-bottom="5"
     inkscape:window-width="968"
     inkscape:window-height="702"
     inkscape:window-x="57"
     inkscape:window-y="0"
     inkscape:window-maximized="0" />
  <metadata
     id="metadata7">
    <rdf:RDF>
      <cc:Work
         rdf:about="">
        <dc:format>image/svg+xml</dc:format>
        <dc:type
           rdf:resource="http://purl.org/dc/dcmitype/StillImage" />
        <dc:title />
      </cc:Work>
    </rdf:RDF>
  </metadata>
  <g
     inkscape:label="Layer 1"
     inkscape:groupmode="layer"
     id="layer1"
     transform="translate(-329.61938,-168.92865)">
    <g
       id="g3209"
       transform="translate(-65.659917,-150.51274)">
      <path
         style="fill:#d0fdfc"
         d="m 406.04696,562.01183 c -2.14077,-2.29037 -2.30481,-3.46509 -2.77091,-19.84291 -0.27249,-9.57463 -1.16276,-33.49512 -1.97837,-53.15664 -1.95015,-47.01088 -1.2582,-71.84189 3.46248,-124.25178 2.78728,-30.94493 3.11355,-33.24339 4.94598,-34.84257 0.88897,-0.77581 4.76631,-1.66144 8.61631,-1.96806 3.85,-0.30662 12.4,-1.31213 19,-2.23446 21.40052,-2.99066 50.49936,-0.50986 62,5.28575 16.18024,8.15385 29.74489,25.12975 33.5669,42.00831 1.49855,6.61786 1.24082,22.71156 -0.46451,29.00543 -2.77221,10.2314 -12.24647,24.7196 -23.02081,35.20381 -2.51987,2.45201 -4.58158,4.94001 -4.58158,5.52888 0,0.58887 2.77595,5.33267 6.16877,10.54179 3.39282,5.20912 7.41529,12.00896 8.93882,15.11076 5.45791,11.11191 13.55997,22.15816 32.48789,44.29359 6.9974,8.18318 18.40452,24.32641 18.40452,26.04588 0,0.63849 1.575,3.00093 3.5,5.24986 1.925,2.24893 3.5,4.77837 3.5,5.62098 0,0.84261 0.45,1.81013 1,2.15005 0.55,0.33992 1,2.78688 1,5.4377 0,4.42199 -0.24977,4.92312 -3.0272,6.07357 -2.40607,0.99662 -4.20145,1.00334 -8.75,0.0327 -3.14754,-0.67165 -13.19689,-1.58791 -22.33189,-2.03611 -10.15842,-0.49843 -17.38494,-1.29945 -18.60673,-2.06247 -2.4014,-1.4997 -7.16602,-9.2988 -12.99354,-21.26885 -2.36259,-4.85289 -5.58472,-10.70289 -7.16028,-13 -1.57556,-2.2971 -5.92418,-9.35155 -9.6636,-15.67655 -3.73942,-6.325 -9.57046,-15.37325 -12.95787,-20.10722 -3.38741,-4.73398 -8.23482,-12.62652 -10.77201,-17.539 -4.88798,-9.46403 -6.65233,-11.61074 -10.85642,-13.20913 -1.91694,-0.72882 -3.33841,-0.6197 -5.32006,0.40839 -6.45499,3.34889 -9.1665,10.4929 -10.63548,28.0213 -1.13222,13.51002 -0.26998,62.24456 1.18581,67.02304 1.95792,6.42667 -0.77584,7.97678 -15.61073,8.85168 -5.5,0.32437 -13.15,0.84784 -17,1.16326 -6.50062,0.53259 -7.16233,0.39983 -9.27549,-1.86099 z M 460.34575,403.8189 c 9.53729,-1.94937 11.43545,-2.79954 15.33085,-6.86658 2.47218,-2.58111 3.66174,-5.03885 4.52395,-9.34688 1.51203,-7.55485 1.11818,-9.69482 -2.43898,-13.25197 -5.86762,-5.86762 -24.05969,-6.8804 -29.71097,-1.65406 -0.90096,0.83321 -1.33838,5.61702 -1.5,16.40458 -0.24367,16.26395 0.15944,17.6697 4.76354,16.61186 1.10457,-0.25378 5.1688,-1.10741 9.03161,-1.89695 z"
         id="path3223"
         inkscape:connector-curvature="0" />
      <path
         style="fill:#a0fbfa"
         d="m 406.82245,561.2605 c -1.1,-1.1 -2,-2.62887 -2,-3.39749 0,-11.68836 -1.29864,-52.56706 -2.02053,-63.60251 -1.21371,-18.55379 -1.21568,-72.31507 -0.003,-90.5 2.80946,-42.14057 5.66407,-69.07359 7.65775,-72.25 1.15728,-1.84384 2.31258,-2.25 6.39992,-2.25 2.74324,0 9.37037,-0.74727 14.72694,-1.6606 22.0133,-3.75341 55.0127,-1.51134 67.02825,4.55409 15.73537,7.94319 28.89172,24.17066 32.70335,40.33735 5.25958,22.30811 -2.48588,43.85247 -22.91078,63.72737 -2.51987,2.45201 -4.58158,5.38102 -4.58158,6.5089 0,1.12788 2.5466,5.8544 5.65911,10.50337 3.11251,4.64897 7.39171,11.84497 9.50933,15.9911 5.22247,10.22519 13.17199,21.45169 26.54192,37.48314 14.19684,17.02296 19.75986,24.58037 23.41191,31.80528 1.59859,3.1625 3.24475,5.75 3.65815,5.75 1.78794,0 7.21958,10.03794 7.21958,13.34213 0,2.92328 -0.45254,3.61998 -2.90718,4.47567 -1.83872,0.64098 -4.31951,0.68099 -6.75,0.10887 -2.11355,-0.49752 -11.92999,-1.3974 -21.81431,-1.99974 -10.52868,-0.6416 -18.98309,-1.62519 -20.41412,-2.37498 -2.82432,-1.47981 -5.08454,-5.11455 -11.97976,-19.2651 -2.73715,-5.61723 -6.08975,-11.69223 -7.45022,-13.5 -1.36048,-1.80777 -5.88005,-8.99479 -10.0435,-15.97116 -4.16344,-6.97636 -10.03536,-16.12045 -13.04872,-20.32018 -3.01335,-4.19974 -7.75933,-12.07558 -10.54663,-17.50187 -6.64975,-12.9457 -11.46545,-16.71921 -17.92319,-14.04433 -6.44399,2.66919 -9.77725,10.49553 -11.2588,26.43517 -1.23678,13.30618 -0.44396,65.10503 1.07769,70.4107 1.53072,5.33731 -0.40841,6.64883 -10.09943,6.83068 -4.58801,0.0861 -11.01198,0.6555 -14.27549,1.26534 -8.92288,1.66738 -13.25582,1.41932 -15.56634,-0.8912 z m 54.92723,-156.37774 c 9.79837,-2.21343 10.67858,-2.62151 14.59479,-6.76639 3.46374,-3.66599 4.37405,-5.50524 5.39024,-10.89084 0.83334,-4.41657 0.91018,-7.30186 0.2413,-9.06115 -1.32617,-3.48808 -6.40242,-7.60116 -10.93462,-8.85987 -5.97572,-1.65963 -16.19463,-1.23821 -20.8107,0.85821 l -4.09176,1.8583 -0.65824,9.27337 c -1.41741,19.96862 -0.59191,25.97533 3.56701,25.95498 1.25111,-0.006 6.967,-1.07109 12.70198,-2.36661 z"
         id="path3221"
         inkscape:connector-curvature="0" />
      <path
         style="fill:#5df8f4"
         d="m 407.39388,560.68907 c -0.86429,-0.86428 -1.58107,-1.87678 -1.59286,-2.25 -0.0118,-0.37321 -0.24244,-11.70357 -0.51258,-25.17857 -0.27014,-13.475 -0.93119,-33.05 -1.46901,-43.5 -2.08288,-40.47097 -1.24868,-75.41172 2.95429,-123.74204 3.20724,-36.88025 2.86237,-35.7452 10.87016,-35.7759 2.57321,-0.01 8.95357,-0.67328 14.17857,-1.47425 16.89504,-2.58996 28.39252,-2.87893 42.5,-1.06816 7.15,0.91774 14.59227,2.08596 16.53837,2.59604 9.82393,2.5749 23.98527,13.54444 31.41848,24.33714 7.82117,11.35598 11.13921,27.61521 8.60971,42.1897 -1.88525,10.8624 -8.71674,22.89061 -19.31656,34.01066 -6.2459,6.55244 -8.75,9.89898 -8.75,11.69369 0,1.39097 2.68013,6.59585 5.99899,11.6502 3.29945,5.02478 7.34704,11.80642 8.99464,15.0703 4.33474,8.58708 12.25957,20.46322 19.02619,28.51262 20.21075,24.04222 30.98018,38.45032 30.98018,41.44745 0,0.60348 1.6875,2.99968 3.75,5.32489 5.84414,6.58854 8.25,10.42862 8.25,13.16812 0,3.48673 -2.90448,4.01755 -14.76095,2.69774 -5.35648,-0.59627 -15.50612,-1.3683 -22.55476,-1.71564 -11.16731,-0.5503 -13.1253,-0.90749 -15.22275,-2.77704 -1.32388,-1.18004 -5.41139,-7.99552 -9.08335,-15.14552 -3.67197,-7.15 -7.65386,-14.35 -8.84866,-16 -1.19479,-1.65 -5.82824,-9.075 -10.29656,-16.5 -4.46832,-7.425 -10.34587,-16.52346 -13.06123,-20.21879 -2.71536,-3.69533 -7.07319,-10.89533 -9.68406,-16 -5.2102,-10.18676 -7.53157,-13.2139 -11.85916,-15.46472 -6.44982,-3.35462 -14.04223,1.86278 -17.93658,12.32578 -2.37105,6.37032 -3.33417,42.78222 -1.84778,69.85773 1.22809,22.37043 1.59916,21.51354 -9.2679,21.40181 -3.89194,-0.04 -9.50018,0.41571 -12.46275,1.01272 -7.71678,1.55506 -13.68775,1.36837 -15.54208,-0.48596 z m 53.94848,-154.43321 c 10.51264,-2.45123 13.61147,-3.98998 17.01096,-8.44695 3.24497,-4.25437 5.84377,-13.73786 4.99885,-18.24168 -1.52605,-8.13457 -11.43085,-13.01284 -24.63141,-12.13136 -7.51655,0.50193 -11.85062,2.35754 -13.6043,5.82463 -1.53173,3.02827 -1.78288,28.58397 -0.31876,32.4349 1.23251,3.24176 4.56163,3.35453 16.54466,0.56046 z"
         id="path3219"
         inkscape:connector-curvature="0" />
      <path
         style="fill:#02f8e8"
         d="m 408.88616,560.32104 c -1.12417,-0.71134 -1.49964,-4.23925 -1.72781,-16.23469 -0.41021,-21.56535 -0.91168,-35.48862 -2.35281,-65.32585 -1.56647,-32.432 -0.81197,-63.735 2.45852,-102 2.97142,-34.76595 3.59596,-40.53663 4.60038,-42.50692 1.31731,-2.5841 26.52629,-5.50258 46.95801,-5.4364 21.1731,0.0686 31.30133,1.85147 41,7.21734 11.90659,6.58741 22.91729,19.13028 27.29508,31.09327 2.78896,7.62126 3.51896,25.27099 1.38311,33.44026 -2.37099,9.06863 -9.23295,20.09584 -18.44034,29.63373 -4.54419,4.70729 -8.51831,9.52275 -8.83138,10.70102 -0.66601,2.50655 1.11936,6.2312 7.6012,15.8577 2.59234,3.85 6.12335,9.79421 7.84671,13.20935 4.77211,9.45681 11.72058,19.88629 19.51442,29.29065 12.79911,15.44393 15.22798,18.43816 20.32717,25.05867 5.07105,6.58397 10.30403,15.47962 10.30403,17.51601 0,0.59982 1.8,2.53711 4,4.30508 2.2,1.76797 4,3.85791 4,4.64431 0,0.7864 1.125,2.16695 2.5,3.06789 3.4742,2.27638 3.24791,5.08486 -0.4756,5.90268 -1.63658,0.35945 -3.53686,0.30668 -4.22284,-0.11728 -1.34209,-0.82946 -2.83619,-0.9398 -24.60265,-1.81692 -15.60796,-0.62896 -20.54781,-1.9281 -21.74643,-5.71915 -0.40714,-1.28771 -1.75927,-3.69129 -3.00473,-5.34129 -1.24546,-1.65 -3.87965,-6.46441 -5.85374,-10.6987 -1.9741,-4.23428 -5.54315,-10.53428 -7.93123,-14 -2.38808,-3.46571 -6.74416,-10.3513 -9.68017,-15.3013 -2.93601,-4.95 -8.39276,-13.30646 -12.12611,-18.56991 -3.73334,-5.26345 -8.64901,-13.36345 -10.92371,-18 -6.1313,-12.49752 -10.0095,-15.93009 -17.99826,-15.93009 -3.52745,0 -4.69721,0.57386 -7.644,3.75 -1.91357,2.0625 -4.59547,6.225 -5.95978,9.25 -2.46077,5.45609 -2.48026,5.73154 -2.44105,34.5 0.0217,15.95 0.44108,34.85 0.93188,42 0.49081,7.15 0.70518,13.3375 0.47638,13.75 -0.2288,0.4125 -3.20194,0.75008 -6.60698,0.75017 -3.40504,10e-5 -9.71807,0.6751 -14.02895,1.5 -8.96427,1.71535 -12.55519,1.85319 -14.59832,0.56037 z m 56.93629,-153.46776 c 7.5588,-2.19165 8.96546,-2.98873 12.70356,-7.19851 6.57454,-7.4041 8.31826,-18.95462 3.85342,-25.52522 -6.25416,-9.20383 -27.69686,-11.6709 -36.56698,-4.20718 l -2.99,2.51592 0,16.6886 c 0,20.77398 0.39513,21.6974 8.89581,20.78949 3.0823,-0.32921 9.42919,-1.7076 14.10419,-3.0631 z"
         id="path3217"
         inkscape:connector-curvature="0" />
      <path
         style="fill:#00f5d8"
         d="m 408.02245,559.0605 c -1.67627,-1.67627 -1.49814,-6.30768 0.3,-7.8 2.07965,-1.72595 1.98241,-13.79383 -0.16606,-20.60956 -1.36267,-4.3229 -1.43309,-5.56605 -0.38669,-6.82688 1.82203,-2.19541 3.05275,-0.99814 3.05275,2.96978 0,2.79418 0.55348,3.70151 3.04335,4.98908 4.75596,2.4594 5.5567,5.33264 3.05946,10.97806 -1.15654,2.61456 -2.10281,5.38755 -2.10281,6.16218 0,0.77463 2.10369,2.31016 4.67487,3.4123 4.14041,1.77478 4.84512,1.83362 6.16409,0.51465 1.21229,-1.21229 1.25383,-1.77288 0.22334,-3.01455 -1.05575,-1.27209 -0.79087,-2.00033 1.59552,-4.38672 1.57377,-1.57378 3.44793,-3.05692 4.16479,-3.29588 0.83547,-0.27849 1.45728,-2.83078 1.73208,-7.10957 0.43602,-6.78911 -0.97951,-10.17818 -2.1192,-5.07379 -0.34272,1.535 -1.20586,4.1409 -1.91808,5.7909 -0.71222,1.65 -1.60033,4.0125 -1.97357,5.25 -0.46935,1.55616 -1.45331,2.25 -3.19082,2.25 -2.49156,0 -2.5066,-0.0524 -1.82968,-6.3734 0.45736,-4.2707 0.28652,-7.11336 -0.51781,-8.61627 -0.93813,-1.75291 -0.92672,-3.2551 0.0522,-6.8766 0.68892,-2.54855 1.66976,-5.17443 2.17965,-5.83529 0.58375,-0.75659 0.44033,-2.54762 -0.38727,-4.83633 -1.27466,-3.52499 -1.21979,-3.71521 1.81689,-6.29844 1.72217,-1.46502 3.64245,-3.67617 4.26728,-4.91367 2.20222,-4.36158 5.80064,-2.31327 4.0456,2.30285 -0.88143,2.31831 -0.7173,2.94279 1.10977,4.22252 1.82745,1.28 2.05553,2.14854 1.54407,5.88006 -0.49273,3.59482 -0.22975,4.74858 1.46973,6.44805 1.9868,1.9868 2.0589,3.70383 0.34327,8.17468 -0.30897,0.80518 0.24759,2.27332 1.23681,3.26254 1.28222,1.28223 1.44228,1.91735 0.55751,2.21228 -1.69955,0.56651 -1.57412,3.24702 0.15194,3.24702 2.14657,0 2.69759,2.65929 1.98738,9.59137 -0.51208,4.9982 -0.30275,6.87818 0.98463,8.84298 2.15549,3.28968 2.06747,3.77074 -0.61502,3.36146 -1.2375,-0.18881 -2.13563,-0.90073 -1.99584,-1.58203 0.3082,-1.50212 -6.14783,-0.71393 -12.25416,1.49606 -9.00322,3.25842 -18.18622,4.20393 -20.3,2.09016 z m 26.3,-40.8 c 0.33992,-0.55 -0.0835,-1 -0.94098,-1 -0.85746,0 -1.55902,0.45 -1.55902,1 0,0.55 0.42344,1 0.94098,1 0.51754,0 1.2191,-0.45 1.55902,-1 z m 140.44935,39.90535 c -1.3434,-2.51015 -0.0803,-4.2698 2.68295,-3.73765 2.59078,0.49894 2.88459,3.4853 0.47002,4.77754 -1.66622,0.89173 -2.2163,0.71031 -3.15297,-1.03989 z m -25.94935,-2.40746 c -1.375,-0.78486 -4.075,-1.47149 -6,-1.52584 -3.11474,-0.0879 -3.25233,-0.19837 -1.25,-1.00321 3.09099,-1.24243 2.97687,-5.26256 -0.20865,-7.34979 -1.35225,-0.88603 -2.96564,-3.30318 -3.58531,-5.37144 -1.6338,-5.45315 -3.56239,-7.8192 -5.23916,-6.4276 -1.0232,0.84917 -2.17497,0.55323 -4.80664,-1.23503 -1.90355,-1.2935 -4.30135,-2.51678 -5.32844,-2.7184 -1.02709,-0.20162 -2.36567,-1.18044 -2.97462,-2.17515 -0.88885,-1.45193 -0.71279,-2.10225 0.89282,-3.29789 1.1,-0.81912 2.86025,-1.26587 3.91167,-0.99277 2.21074,0.57423 5.58833,-0.96879 5.58833,-2.55297 0,-0.59502 -1.84035,-2.86784 -4.08966,-5.05072 -3.17168,-3.07802 -4.61694,-3.83655 -6.43872,-3.37931 -1.29198,0.32426 -2.64715,0.10724 -3.01149,-0.48227 -0.36434,-0.58952 -1.33144,-0.81513 -2.14911,-0.50135 -0.84952,0.32599 -2.29749,-0.39481 -3.37853,-1.68183 -1.58383,-1.8856 -2.04731,-2.01576 -2.84659,-0.79942 -0.52511,0.7991 -0.68335,2.8241 -0.35166,4.5 0.55302,2.79421 0.4598,2.92923 -1.12322,1.62682 -0.94946,-0.78115 -2.92093,-3.48115 -4.38105,-6 -2.52592,-4.35747 -7.45967,-11.70262 -17.06151,-25.40043 -2.38235,-3.39861 -6.52455,-10.51816 -9.20489,-15.82122 -2.68034,-5.30307 -6.01865,-10.54283 -7.41846,-11.64392 -1.39981,-1.1011 -2.5583,-2.83723 -2.57442,-3.85807 -0.0161,-1.02084 -1.35222,-3.31011 -2.96909,-5.08726 -2.50837,-2.75701 -3.40412,-3.13832 -6.10397,-2.59835 -1.88197,0.3764 -3.35946,1.37955 -3.64607,2.47555 -0.29437,1.12569 -2.09076,2.30213 -4.61672,3.02342 -5.31414,1.51748 -6.63484,2.56747 -6.63484,5.27487 0,2.92582 -2.94584,11.67138 -4.56608,13.55569 -0.70938,0.825 -1.83034,5.55 -2.49103,10.5 -0.66068,4.95 -1.82849,10.0125 -2.59512,11.25 -1.5258,2.46294 -4.34777,3.04905 -4.34777,0.90301 0,-0.74084 -0.9,-2.3847 -2,-3.65301 l -2,-2.30602 0,2.55989 c 0,1.84781 -1.394,3.72702 -5.01136,6.75564 -5.32099,4.45499 -7.98864,4.69604 -7.98864,0.72187 0,-1.28226 -0.45551,-2.78689 -1.01225,-3.34363 -0.55674,-0.55674 -1.18225,-2.78424 -1.39002,-4.95 -0.20778,-2.16576 -1.1326,-9.56275 -2.05516,-16.43775 -1.93056,-14.38673 -1.40837,-23.99122 1.30562,-24.01365 0.90849,-0.008 2.6196,-0.27331 3.80245,-0.59065 3.0422,-0.81619 4.19352,4.38632 1.78436,8.06315 -1.52748,2.33124 -1.56933,3.45296 -0.42214,11.31447 2.17812,14.92631 2.27075,18.61214 0.57005,22.6825 -1.97078,4.71673 -1.98756,4.54418 0.44184,4.54418 3.21781,0 4.21968,-4.37522 4.06819,-17.76604 -0.13856,-12.24768 -0.135,-12.26747 2.38414,-13.22525 3.24164,-1.23246 3.66461,-5.54053 0.46175,-4.70296 -2.52271,0.6597 -3.50534,-1.3787 -2.0108,-4.17127 1.65005,-3.08315 2.47011,-20.52202 1.08661,-23.10712 -0.91358,-1.70705 -1.4464,-1.91392 -2.5565,-0.99262 -1.152,0.95608 -1.16985,1.39641 -0.1,2.46628 1.92338,1.92338 0.65894,9.43268 -1.85817,11.03532 -2.48683,1.58338 -6.5,0.24994 -6.5,-2.15972 0,-0.92831 1.18512,-3.2416 2.63359,-5.14065 2.12891,-2.79114 2.36845,-3.62073 1.25,-4.32908 -2.15128,-1.36246 -2.83983,-1.09703 -4.05125,1.56175 -2.87755,6.31553 -3.60127,-2.04537 -2.46424,-28.46864 1.18839,-27.61689 4.27113,-65.92089 5.58309,-69.37161 0.72016,-1.89417 1.64553,-2.23122 6.43359,-2.34332 3.07585,-0.072 5.82371,0.24325 6.10636,0.70059 0.28265,0.45734 3.41952,-0.11315 6.97081,-1.26776 5.62921,-1.83019 6.78132,-1.92567 8.98776,-0.74482 2.23502,1.19615 2.77884,1.13077 4.65224,-0.5593 1.75861,-1.5865 3.40391,-1.86935 9.62108,-1.65397 4.12483,0.14289 7.89958,0.50695 8.38833,0.80901 1.30648,0.80745 1.08229,9.14824 -0.30563,11.37065 -1.74319,2.79129 0.34059,7.09653 3.08715,6.37829 1.16057,-0.30349 3.25368,0.36247 4.96164,1.57865 2.78672,1.98432 6.14548,2.81172 6.14548,1.51388 0,-1.13834 -4.51764,-4.3441 -6.16821,-4.37702 -3.04227,-0.0607 -4.83179,-1.22371 -4.83179,-3.14026 0,-1.18519 0.70204,-1.89301 1.87756,-1.89301 1.03265,0 2.46238,-0.70467 3.17716,-1.56594 1.97049,-2.37429 6.62339,-4.49481 8.38193,-3.81999 1.5624,0.59954 1.92669,1.56383 1.65694,4.38593 -0.10822,1.13208 0.12019,1.07076 0.9312,-0.25 1.42326,-2.31782 5.85007,-2.19452 8.97521,0.25 1.375,1.07554 3.52364,1.96553 4.77475,1.97776 1.49462,0.0146 2.60073,0.87962 3.22525,2.52224 0.52277,1.375 1.3394,2.5 1.81473,2.5 0.47533,0 1.37682,-1.125 2.00332,-2.5 0.62848,-1.37936 1.98385,-2.5 3.02367,-2.5 2.24035,0 11.15828,9.2126 11.15828,11.52698 0,0.88697 1.33242,3.54928 2.96094,5.91625 3.50949,5.10087 8.32149,17.37838 7.57434,19.32543 -0.32245,0.8403 -1.27577,1.13109 -2.46781,0.75275 -1.0683,-0.33906 -2.85929,-0.0439 -3.97996,0.65601 -1.60786,1.00413 -2.29594,1.01415 -3.26255,0.0475 -0.67373,-0.67372 -2.25996,-1.22495 -3.52496,-1.22495 -1.265,0 -2.31618,-0.5625 -2.33596,-1.25 -0.0198,-0.6875 -1.06713,-2.51001 -2.32745,-4.05002 l -2.29148,-2.80002 -2.41385,1.95461 -2.41384,1.95461 4.60581,4.34541 c 2.5332,2.38998 4.85853,5.02041 5.1674,5.84541 0.44788,1.19628 0.96273,1.00337 2.54274,-0.95277 1.75471,-2.17244 2.27773,-2.31764 4.57618,-1.2704 3.75225,1.70964 6.79595,7.0424 6.10842,10.70234 -0.3078,1.63855 -2.23666,4.6966 -4.28635,6.79568 -3.25986,3.3384 -3.74725,4.46844 -3.89067,9.02082 -0.0902,2.86238 -0.20378,5.91937 -0.25246,6.7933 -0.1321,2.37205 -5.35317,8.83273 -7.17182,8.87459 -2.42675,0.0558 -2.88815,-0.93206 -1.6769,-3.59046 0.79682,-1.74881 0.8019,-2.73143 0.0182,-3.51513 -0.7837,-0.7837 -1.52927,-0.23401 -2.66716,1.96642 -0.86866,1.67981 -2.5421,3.72851 -3.71876,4.55267 -1.97945,1.38647 -2.01726,1.62059 -0.50571,3.13214 1.97725,1.97724 2.00286,3.22098 0.13366,6.4908 -2.15624,3.77195 -1.78523,9.2678 1,14.81307 3.42904,6.82706 3.15468,7.22885 -1.49618,2.19107 -3.65198,-3.95581 -4.21185,-4.23039 -6.5,-3.18783 -2.91917,1.33006 -3.24219,2.98587 -0.75382,3.86409 0.9625,0.33969 2.65,1.39497 3.75,2.34506 1.1,0.9501 3.63465,2.01852 5.63256,2.37427 3.10755,0.55335 4.29993,1.64152 8.25,7.52901 5.46323,8.1428 6.03875,11.12921 1.11069,5.76346 -3.30319,-3.59657 -5.49325,-4.12294 -5.49325,-1.32027 0,0.68964 1.39121,2.57558 3.09158,4.19098 1.70037,1.6154 3.99905,4.73709 5.10817,6.93709 1.10912,2.2 3.70372,6.02961 5.76578,8.51025 2.06206,2.48064 4.70653,6.38676 5.87659,8.68029 3.17886,6.23107 10.79904,16.96247 17.38688,24.48568 4.88575,5.57946 5.74002,7.09903 5.20016,9.25 -0.35529,1.41558 -1.24563,2.57378 -1.97855,2.57378 -3.30372,0 -2.19748,2.5863 3.44661,8.05791 3.35653,3.25396 6.10278,6.3721 6.10278,6.92919 0,0.5571 0.9,1.0129 2,1.0129 2.38203,0 2.60692,-2.61349 0.4682,-5.44113 -1.85423,-2.45151 -1.90074,-5.55887 -0.0832,-5.55887 0.76174,0 2.0647,1.0125 2.89545,2.25 2.86787,4.27203 5.72835,6.68386 7.23945,6.10399 1.99467,-0.76542 4.48011,1.38992 4.48011,3.88509 0,1.58102 -0.46617,1.86857 -2.25,1.38789 -1.7206,-0.46363 -2.89994,0.15597 -5.0123,2.63337 l -2.7623,3.23966 -2.27526,-2.75 c -2.73691,-3.30796 -5.86329,-3.55272 -7.21301,-0.56469 -1.26627,2.80327 -2.40032,3.07455 -5.48713,1.31258 z M 505.36516,505.3296 c -0.31644,-0.512 -0.11799,-1.21356 0.44098,-1.55902 1.34829,-0.83329 1.30625,-3.51008 -0.0551,-3.51008 -0.58928,0 -1.75897,0.68755 -2.59931,1.52788 -1.21898,1.21899 -1.28087,1.8255 -0.30612,3 1.3283,1.60051 3.45682,2.05773 2.51957,0.54122 z m 10.8684,-7.14583 c 5.14229,-6.11126 2.61233,-8.01338 -3.08308,-2.31797 -2.83726,2.83726 -3.30948,3.79264 -2.21667,4.48469 2.09611,1.3274 2.49784,1.16316 5.29975,-2.16672 z m -11.08554,-0.32931 c 0.29675,-0.77333 -0.3301,-2.19307 -1.39301,-3.15499 -2.90748,-2.63124 -2.37986,-6.05834 1.53551,-9.97371 2.09727,-2.09727 3.24078,-4.06042 2.89302,-4.96667 -0.78253,-2.03922 -0.87458,-2.00481 -5.92063,2.21317 -4.74394,3.96544 -5.282,5.86717 -3.45873,12.22453 1.34534,4.69092 5.11361,6.86359 6.34384,3.65767 z m -20.75191,-24.36777 c -1.72775,-1.65022 -1.75457,-1.6234 -0.60945,0.60946 0.6588,1.2846 1.47209,2.06139 1.80729,1.72619 0.3352,-0.3352 -0.20383,-1.38624 -1.19784,-2.33565 z m 9.66382,-2.47619 c -0.3164,-1.2375 -1.59688,-3.825 -2.84551,-5.75 -1.24863,-1.925 -2.58306,-4.85 -2.96541,-6.5 -0.38235,-1.65 -1.36513,-3.77164 -2.18396,-4.71475 -1.38331,-1.59328 -3.47707,-8.49234 -5.09408,-16.78525 -0.37534,-1.925 -1.23731,-3.455 -1.91548,-3.4 -0.67817,0.055 -1.90804,0.1675 -2.73304,0.25 -0.825,0.0825 -1.5,1.05 -1.5,2.15 0,3.25019 -3.18313,2.34073 -7,-2 -2.1192,-2.41006 -4.38765,-3.98424 -5.75,-3.99018 -3.04478,-0.0133 -2.84745,0.95714 1.24029,6.09945 1.91967,2.4149 3.49467,5.34698 3.5,6.51573 0.025,5.47396 1.24202,8.375 3.51339,8.375 1.56128,0 2.63546,0.92169 3.49632,3 1.40814,3.39956 1.7418,3.50986 4.44113,1.4682 3.19265,-2.4148 5.55705,-1.87082 5.57132,1.2818 0.007,1.5125 1.91934,5.77457 4.25,9.47127 4.2355,6.71804 7.08748,8.87966 5.97503,4.52873 z m -61.24584,-1.72367 c 1.21395,-0.76748 1.25273,-1.18195 0.20836,-2.22633 -1.04438,-1.04438 -1.45885,-1.00559 -2.22633,0.20836 -1.82476,2.88627 -0.8683,3.84273 2.01797,2.01797 z m 0.99305,-27.19454 c 0.0289,-6.92097 -2.30219,-9.29531 -3.51653,-3.58179 -0.37991,1.7875 -1.33652,3.98348 -2.12581,4.87996 -1.27523,1.44843 -1.15147,1.70113 1.1113,2.26905 1.40049,0.3515 2.55324,1.19302 2.56166,1.87004 0.01,0.79532 0.35838,0.7001 0.98469,-0.26905 0.53316,-0.825 0.97627,-3.1507 0.98469,-5.16821 z m 56.63038,-5.39253 c -0.30377,-0.79159 -1.01642,-1.43926 -1.58369,-1.43926 -1.1519,0 -1.42059,4.27745 -0.33677,5.36128 1.00097,1.00096 2.57559,-2.21477 1.92046,-3.92202 z m -46.61507,1.61976 c 0,-0.51754 -0.45,-1.2191 -1,-1.55902 -0.55,-0.33992 -1,0.0835 -1,0.94098 0,0.85746 0.45,1.55902 1,1.55902 0.55,0 1,-0.42344 1,-0.94098 z m 42.87149,-7.59718 c 0.95992,-0.95992 -1.01534,-3.46184 -2.73312,-3.46184 -1.79365,0 -3.13837,1.7954 -3.13837,4.1902 0,0.91444 4.82755,0.31559 5.87149,-0.72836 z M 455.0033,427.7605 c -0.36296,-2.27451 -3.04843,-4.69987 -4.32817,-3.90895 -1.03103,0.63721 -1.13439,4.79391 -0.14383,5.78447 0.38987,0.38986 1.62737,0.57736 2.75,0.41666 1.41336,-0.20231 1.94299,-0.90732 1.722,-2.29218 z m -18.11511,0.46482 c 2.52097,-1.34918 2.45798,-3.48458 -0.1568,-5.31604 -2.74527,-1.92287 -2.11712,-5.05074 1.10128,-5.4838 1.36938,-0.18427 3.61478,-1.37121 4.98978,-2.63766 3.31624,-3.05443 6.2337,-3.83359 9.23465,-2.46627 2.04633,0.93237 3.63524,0.64991 9.36491,-1.66482 5.47566,-2.21211 8.39739,-2.76974 14.15044,-2.7007 5.56763,0.0668 7.25,-0.23585 7.25,-1.30427 0,-0.76519 0.58846,-1.39126 1.30769,-1.39126 0.90283,0 1.30769,1.55038 1.30769,5.00769 0,6.4126 1.75616,8.43517 4.4556,5.13153 2.63737,-3.22768 2.42208,-6.60622 -0.57098,-8.96056 -1.375,-1.08158 -2.5,-2.71882 -2.5,-3.63832 0,-2.1248 -1.80432,-5.54034 -2.92678,-5.54034 -0.47102,0 -1.13876,1.125 -1.48386,2.5 -0.34511,1.375 -1.29389,2.5 -2.10841,2.5 -1.92819,0 -1.88877,-1.41665 0.085,-3.05472 2.54159,-2.10935 4.11767,-6.0811 4.74015,-11.94528 0.67812,-6.38838 -0.56271,-10.61343 -5.00651,-17.04724 -3.54393,-5.13095 -7.94174,-6.95276 -16.78384,-6.95276 -4.04525,0 -5.51575,-0.371 -5.51575,-1.39159 0,-0.76538 1.06488,-1.65886 2.36639,-1.98552 1.89169,-0.47478 2.48061,-1.44554 2.93581,-4.83927 0.31318,-2.33493 0.43083,-4.38393 0.26144,-4.55332 -0.16939,-0.16938 -1.93833,0.722 -3.93099,1.98086 -2.93752,1.85579 -3.59641,2.85644 -3.48246,5.28884 0.0773,1.65 0.0751,3.73291 -0.005,4.62868 -0.15065,1.68784 -3.85765,3.55967 -8.06982,4.07481 -1.47288,0.18013 -3.07665,1.47402 -4.08603,3.29651 -1.30548,2.35708 -2.23247,2.93109 -4.32555,2.67843 -2.51472,-0.30354 -2.66399,-0.0855 -2.66399,3.89219 0,2.31757 0.89369,7.21461 1.98599,10.88232 1.95334,6.55895 2.05625,10.48122 0.53173,20.26484 -0.7526,4.82981 -2.61595,7.45758 -4.47391,6.30929 -0.5741,-0.35481 -1.04381,-1.69476 -1.04381,-2.97768 0,-3.10609 -3.97283,-4.13192 -7.97899,-2.06026 -3.69656,1.91157 -4.57286,3.5985 -5.45277,10.49696 l -0.69976,5.4861 2.54577,-2.39163 c 1.87339,-1.75996 2.38769,-3.0215 1.94724,-4.77639 -0.39037,-1.55538 0.0183,-3.06631 1.17498,-4.34447 3.67717,-4.06323 5.80318,-1.90048 6.92073,7.0403 0.77825,6.22628 1.44885,9 2.17593,9 0.27409,0 1.36877,-0.46583 2.43261,-1.03518 z m 38.43426,0.0352 c 0.33992,-0.55 -0.0835,-1 -0.94098,-1 -0.85746,0 -1.55902,0.45 -1.55902,1 0,0.55 0.42344,1 0.94098,1 0.51754,0 1.2191,-0.45 1.55902,-1 z m 19.54584,-1.08565 c 0.61391,-1.1471 0.86562,-2.33623 0.55935,-2.6425 -0.82594,-0.82593 -3.60519,1.75705 -3.60519,3.35059 0,2.07032 1.78039,1.65642 3.04584,-0.70809 z m -83.04584,-1.35533 c 0,-0.24254 -0.45,-0.7191 -1,-1.05902 -0.55,-0.33992 -1,-0.14148 -1,0.44098 0,0.58246 0.45,1.05902 1,1.05902 0.55,0 1,-0.19844 1,-0.44098 z m 67.37734,-6.49739 c -1.01326,-1.7153 -2.48789,-2.99339 -3.27695,-2.84018 -2.03025,0.39419 -2.59857,2.77855 -0.66229,2.77855 0.88263,0 2.12292,1.13721 2.75621,2.52713 0.71596,1.57135 1.50579,2.17277 2.08838,1.59018 0.58258,-0.58258 0.24017,-2.11646 -0.90535,-4.05568 z m 30.62266,-4.43919 c 0,-1.85725 -2.6489,-3.99955 -3.41422,-2.76124 -0.88757,1.43613 0.43229,4.1388 2.02121,4.1388 0.76615,0 1.39301,-0.6199 1.39301,-1.37756 z m -89.23,-16.81466 c 0.45496,-1.75572 0.61981,-4.56822 0.36635,-6.25 l -0.46083,-3.05778 -1.29266,3 c -1.53311,3.55806 -1.79046,9.5 -0.41145,9.5 0.53427,0 1.34364,-1.4365 1.79859,-3.19222 z m 8.86882,-1.53715 c 2.06202,-4.5182 2.14888,-7.27063 0.22944,-7.27063 -1.12907,0 -2.38381,3.27751 -3.15838,8.25 -0.78908,5.06563 0.34287,4.68713 2.92894,-0.97937 z m 63.73618,0.60437 c 1.08576,-5.42883 0.70934,-7.7595 -1.43892,-8.90921 -2.92009,-1.56278 -4.93608,0.40903 -4.93608,4.82791 0,3.58085 2.27901,7.2063 4.52999,7.2063 0.671,0 1.50126,-1.40625 1.84501,-3.125 z m 17.625,-0.43402 c 0,-0.79254 -0.45,-1.44098 -1,-1.44098 -0.55,0 -1,0.92656 -1,2.05902 0,1.13246 0.45,1.7809 1,1.44098 0.55,-0.33992 1,-1.26648 1,-2.05902 z m -7.25,-8.23309 c 1.7169,-2.18411 1.57175,-5.20789 -0.25,-5.20789 -2.17963,0 -5.5,3.6629 -5.5,6.06739 0,1.67532 0.42669,1.94064 2.25,1.39902 1.2375,-0.3676 2.8125,-1.38393 3.5,-2.25852 z m -80.1178,-10.54087 c 0.0727,-1.19186 0.46647,-3.62952 0.875,-5.41702 0.65826,-2.88009 0.50094,-3.25 -1.3822,-3.25 -1.67391,0 -2.125,0.61029 -2.125,2.875 0,6.78771 2.26711,11.77636 2.6322,5.79202 z m -1.04936,-18.21104 c 1.66263,-3.97924 1.05964,-6.23408 -1.17187,-4.38209 -1.32181,1.097 -2.06273,7.92611 -0.85994,7.92611 0.30306,0 1.21738,-1.59481 2.03181,-3.54402 z m 63.63842,-4.54495 c -0.33293,-2.82901 -1.66753,-4.37129 -3.04563,-3.51957 -1.30777,0.80824 0.87964,6.767 2.29705,6.25742 0.56502,-0.20314 0.90189,-1.43517 0.74858,-2.73785 z m -43.22126,-4.41103 c 0,-0.825 -0.45,-1.5 -1,-1.5 -0.55,0 -1,0.675 -1,1.5 0,0.825 0.45,1.5 1,1.5 0.55,0 1,-0.675 1,-1.5 z m 46.96123,-0.42756 c 2.05674,-3.84306 -1.71938,-6.91429 -4.76123,-3.87244 -2.16622,2.16622 -0.81634,4.36774 3.51482,5.73232 0.11815,0.0372 0.67903,-0.79972 1.24641,-1.85988 z m -62.56206,-5.37505 c 1.59626,-1.16722 1.62068,-1.43602 0.23493,-2.58609 -1.90245,-1.5789 -3.6341,-0.65082 -3.6341,1.94772 0,2.26908 0.93014,2.44377 3.39917,0.63837 z m 123.99815,189.80284 c 1.91078,-1.44635 3.60268,-1.18393 3.60268,0.55879 0,0.51754 -1.2375,0.92667 -2.75,0.90918 -2.60563,-0.0301 -2.6504,-0.1072 -0.85268,-1.46797 z M 413.07245,518.5371 c -3.16671,-0.39298 -3.25,-0.52816 -3.25,-5.27486 0,-7.12072 1.43128,-10.30682 4.25078,-9.46238 3.39347,1.01634 5.43022,4.18371 5.01,7.79111 -0.61617,5.28962 -1.26166,7.67768 -2.02983,7.50949 -0.40202,-0.088 -2.19345,-0.34153 -3.98095,-0.56336 z m 6.44385,-10.91608 c -0.79893,-0.79893 0.10419,-2.36052 1.36517,-2.36052 0.51754,0 0.94098,0.675 0.94098,1.5 0,1.54641 -1.17996,1.9867 -2.30615,0.86052 z"
         id="path3215"
         inkscape:connector-curvature="0" />
      <path
         style="fill:#00eac8"
         d="m 408.57245,558.1804 c -4.00676,-2.33372 -1.22604,-7.11824 3.64583,-6.27303 8.39538,1.4565 11.93907,3.69326 7.85417,4.95751 -0.9625,0.29789 -2.53139,0.95877 -3.48643,1.46862 -2.25127,1.20185 -5.80379,1.13398 -8.01357,-0.1531 z m 166.61419,-0.41321 c -0.34636,-0.90262 -0.15025,-2.12063 0.43581,-2.70669 1.52361,-1.52361 4.41041,-0.13109 4.01242,1.93549 -0.4433,2.30188 -3.64766,2.85743 -4.44823,0.7712 z m -12.7572,-3.08848 c -0.92336,-2.40624 -0.74048,-3.24062 0.78795,-3.59489 1.09999,-0.25496 0.88855,-1.36709 -1,-5.25975 -3.03977,-6.26555 -3.01665,-6.34125 0.65845,-2.15555 2.2688,2.58403 4.0011,3.55655 6.74168,3.7848 2.64879,0.2206 3.78718,0.82852 4.03915,2.15696 0.30091,1.58643 -0.0895,1.75305 -2.74249,1.17037 -2.72915,-0.59942 -3.29929,-0.31758 -4.84254,2.39389 -1.97209,3.46495 -2.76424,3.79209 -3.6422,1.50417 z m -14.41843,-1.45717 c -2.1751,-2.02641 -2.77024,-4.04603 -1.55144,-5.26483 1.09923,-1.09923 6.36288,3.34462 6.36288,5.37188 0,2.50668 -2.05501,2.46096 -4.81144,-0.10705 z m -112.80243,-4.55872 c -0.54317,-2.16414 -0.19627,-3.13764 1.65112,-4.63357 l 2.33876,-1.89381 -2.93801,-2.36283 c -2.33046,-1.87423 -2.6844,-2.62153 -1.71163,-3.61384 0.98006,-0.99975 1.59841,-0.91432 3.07874,0.42536 1.0188,0.922 2.37944,1.67637 3.02363,1.67637 1.38646,0 1.52752,2.32604 0.28889,4.76357 -0.48531,0.95504 -1.27281,3.04966 -1.75,4.65472 -1.15587,3.88778 -3.13024,4.37575 -3.9815,0.98403 z m -23.69169,-2.04121 c -1.49395,-1.49395 -0.56271,-4.64668 2.18376,-7.39316 3.38866,-3.38866 4.27868,-3.00177 3.03892,1.32103 -1.00093,3.49005 -4.14699,7.14781 -5.22268,6.07213 z m 133.97443,-4.61111 c -5.24623,-3.97542 -7.12085,-6.75 -4.56058,-6.75 0.60956,0 3.54406,2.475 6.52111,5.5 2.97705,3.025 5.01575,5.5 4.53044,5.5 -0.48532,0 -3.40626,-1.9125 -6.49097,-4.25 z m -122.11004,-8 c 0.38295,-4.5375 0.89044,-8.5875 1.12774,-9 0.81585,-1.41818 2.27042,-0.74528 3.95868,1.83133 1.59399,2.43274 1.58679,2.87885 -0.12509,7.75 -3.7467,10.66128 -5.88899,10.41026 -4.96133,-0.58133 z m 104.1235,-4.21053 c -2.40709,-2.40709 -2.08528,-3.80299 1.32399,-5.74296 3.50903,-1.99674 3.73261,-3.58739 0.99368,-7.06938 -1.1,-1.39842 -2,-2.87001 -2,-3.27019 0,-0.40018 -1.125,-1.77021 -2.5,-3.04452 -2.82111,-2.61452 -3.22858,-4.41242 -1,-4.41242 0.825,0 1.5,-0.675 1.5,-1.5 0,-3.77167 5.16159,0.74862 9.7059,8.5 1.45099,2.475 3.43587,5.07059 4.41084,5.76797 2.37008,1.6953 6.24232,7.2063 5.54993,7.8987 -0.30334,0.30333 -1.8844,-0.39758 -3.51347,-1.55758 -3.90755,-2.78243 -4.1532,-2.70324 -4.1532,1.33889 0,3.41046 -0.0332,3.4364 -3.05437,2.38322 -2.54099,-0.88579 -3.2667,-0.77437 -4.31767,0.66292 -1.18379,1.61893 -1.3692,1.62178 -2.94563,0.0453 z m -92.66702,-4.78947 c 0.008,-0.6875 0.45153,-1.925 0.98469,-2.75 0.75538,-1.16887 0.97275,-0.89294 0.98469,1.25 0.008,1.5125 -0.43469,2.75 -0.98469,2.75 -0.55,0 -0.99311,-0.5625 -0.98469,-1.25 z m -9.34646,-2.41448 c -1.16221,-1.16221 -0.72552,-4.61541 0.7963,-6.29701 1.28279,-1.41746 1.28438,-1.9674 0.0128,-4.41839 -1.67015,-3.21921 -1.05453,-4.89164 3.17308,-8.62012 2.13029,-1.87878 2.38541,-1.96557 1.02668,-0.34928 -1.79768,2.13846 -1.14026,3.55283 1.8223,3.92053 0.55,0.0683 1.5625,0.19266 2.25,0.27644 0.73936,0.0901 1.25,1.61758 1.25,3.73917 0,3.0671 -0.43473,3.75096 -3,4.71924 -1.65,0.62281 -3,1.86397 -3,2.75815 0,1.91962 -3.36466,5.23776 -4.33116,4.27127 z m -14.33169,-8.89929 c -0.71669,-1.86766 1.18051,-6.43623 2.67279,-6.43623 1.72498,0 2.33188,2.95434 1.14295,5.56377 -1.26756,2.78198 -2.93655,3.16359 -3.81574,0.87246 z M 517.19536,501.7899 c -0.31038,-0.80883 0.37874,-2.66952 1.53138,-4.13486 1.15264,-1.46534 2.09571,-3.27857 2.09571,-4.0294 0,-0.75083 0.36665,-1.36514 0.81479,-1.36514 0.96769,0 4.18521,6.47848 4.18521,8.42694 0,2.69433 -7.64151,3.67084 -8.62709,1.10246 z m -23.22442,-6.00896 c -2.13891,-3.12944 -2.22986,-3.71534 -1.00589,-6.48047 0.74009,-1.67198 1.86069,-3.03997 2.49022,-3.03997 1.53436,0 2.46251,5.71999 1.57892,9.73046 l -0.71174,3.23047 -2.35151,-3.44049 z m 13.10151,-3.69534 c -3.88523,-2.40191 -4.10917,-4.21604 -0.78899,-6.39151 2.79212,-1.82946 3.8851,-4.36807 2.94048,-6.8297 -0.76656,-1.99764 -5.48147,-4.60389 -8.32878,-4.60389 -2.09663,0 -4.34584,-2.7669 -5.56731,-6.84872 -0.61378,-2.05111 -0.43691,-2.26432 1.39588,-1.68261 3.60186,1.14318 2.37414,-3.72352 -2.32559,-9.21867 -1.05838,-1.2375 -1.43626,-2.25 -0.83975,-2.25 2.15084,0 9.26406,5.39323 9.26406,7.02399 0,2.54561 2.92323,7.97919 6.98101,12.97601 8.0398,9.90035 9.91613,15 5.51899,15 -2,0 -2.5,0.5 -2.5,2.5 0,2.9651 -1.35568,3.04175 -5.75,0.3251 z m -77.78634,-2.3251 c -0.44978,-1.1 -1.25132,-2.29063 -1.78121,-2.64584 -0.52988,-0.35522 -1.24655,-2.38022 -1.59258,-4.5 l -0.62915,-3.85416 -3.24477,5.5 -3.24477,5.5 0.50058,-6.83783 c 0.48055,-6.5641 0.99559,-9.10638 4.08465,-20.16217 0.76837,-2.75 1.63823,-6.60932 1.93303,-8.57627 0.64577,-4.30866 2.7769,-7.49519 4.35886,-6.51749 1.43535,0.8871 1.52704,9.24375 0.11102,10.1189 -0.57237,0.35375 -0.79543,1.41586 -0.49569,2.36026 0.29974,0.94439 -0.34637,5.06902 -1.43579,9.16584 -2.62296,9.86374 -2.55969,10.11104 1.39386,5.44876 1.86558,-2.2 3.71206,-3.68432 4.1033,-3.29849 0.67059,0.66131 -0.76244,10.7078 -2.46746,17.29849 -0.69975,2.70485 -0.85656,2.80324 -1.59388,1 z m 58.24764,-2.81186 c -1.48986,-1.95331 -3.18846,-4.81297 -3.77467,-6.3548 l -1.06582,-2.80334 2.65961,2.485 c 3.0293,2.83042 5.76076,7.61147 5.24038,9.17259 -0.19287,0.57861 -1.56964,-0.54615 -3.0595,-2.49945 z m -78.4837,-4.93814 c -2.76081,-17.10118 -3.2276,-20.62412 -3.2276,-24.35941 0,-4.20739 2.46722,-8.8379 4.15365,-7.79563 0.61943,0.38283 0.77146,2.83188 0.38903,6.26673 -0.4414,3.96443 -0.0214,8.43769 1.41477,15.06776 1.1234,5.1862 2.02824,10.5862 2.01075,12 -0.0284,2.29436 -1.97505,6.07055 -3.12942,6.07055 -0.24241,0 -0.96744,-3.2625 -1.61118,-7.25 z m 76.30311,-12.82351 c -2.04436,-3.89043 -3.53789,-7.25265 -3.31894,-7.47159 0.51733,-0.51734 7.513,10.10256 8.31089,12.61649 1.41682,4.46402 -1.54867,1.40766 -4.99195,-5.1449 z m -9.41161,-1.98757 c -1.85949,-3.85575 -3.0602,-7.33116 -2.66823,-7.72312 0.93516,-0.93516 3.49217,2.61137 4.17036,5.7842 0.45322,2.12039 1.35639,4.49289 3.14063,8.25 0.1959,0.4125 -0.008,0.73861 -0.45284,0.72469 -0.44496,-0.0139 -2.33042,-3.18001 -4.18992,-7.03577 z m -40.83071,-0.19993 c -0.51602,-0.68144 -1.4949,-3.18428 -2.17528,-5.56185 -1.00293,-3.50474 -0.98875,-4.62286 0.0749,-5.90794 0.91095,-1.10058 1.31197,-5.02379 1.31197,-12.8352 0,-11.08147 0.0412,-11.28258 2.75,-13.41465 3.30851,-2.60411 3.52193,-5.26286 0.57931,-7.21669 -2.59042,-1.71997 -1.70606,-3.80266 1.6147,-3.80266 1.3455,0 2.98254,-1.00205 3.88356,-2.37718 1.86768,-2.85045 5.95933,-4.07483 8.70562,-2.60506 1.55196,0.83059 3.59136,0.47782 9.22948,-1.59646 7.89132,-2.90324 16.73393,-3.56386 20.52753,-1.53358 1.25485,0.67158 2.54464,2.53648 2.86619,4.14424 0.68995,3.44973 1.94416,4.65199 5.34361,5.12222 3.18033,0.43993 3.65977,3.53777 1.03012,6.65603 l -1.94822,2.31022 -2.95172,-2.1823 c -1.62344,-1.20027 -3.68304,-4.09725 -4.57689,-6.43775 -0.89384,-2.3405 -2.41505,-4.97029 -3.38047,-5.84398 -1.60897,-1.4561 -2.02279,-1.42585 -4.96406,0.36284 -4.04777,2.46159 -4.03077,4.07872 0.0629,5.98076 1.7756,0.825 3.36643,2.24894 3.53518,3.16432 0.25262,1.37031 -0.89564,1.7802 -6.5,2.32027 -3.74375,0.36077 -7.99802,1.03478 -9.45393,1.49779 -2.21219,0.70353 -3.10551,0.36338 -5.43709,-2.07027 -3.74551,-3.90947 -6.4158,-3.87289 -6.4158,0.0879 0,2.99795 -0.56948,3.37277 -4.63952,3.0536 -1.76486,-0.1384 -2.22655,0.49889 -2.63648,3.63931 -0.27333,2.0939 -0.8093,4.75753 -1.19105,5.91918 -0.4817,1.46582 -0.21045,2.29769 0.88648,2.71862 2.99339,1.14867 4.51029,-0.32653 4.29007,-4.17216 -0.18954,-3.30999 0.0176,-3.6336 2.17379,-3.39672 1.3108,0.144 2.8858,-0.13145 3.5,-0.61212 0.61419,-0.48066 2.36533,-1.17235 3.89142,-1.53708 2.54958,-0.60933 2.92993,-0.30102 4.6878,3.79992 1.0522,2.45468 2.84108,5.39104 3.97529,6.52525 2.11376,2.11376 2.68279,4.56062 1.26445,5.4372 -1.12326,0.69421 -2.72625,-0.54543 -3.53575,-2.73431 -0.57179,-1.54609 -1.31757,-1.74241 -4.42706,-1.16539 -2.05669,0.38166 -4.44987,1.33085 -5.31818,2.10931 -0.86831,0.77847 -2.77043,1.41539 -4.22695,1.41539 -3.37136,0 -5.24234,2.85989 -6.54212,10 -1.7202,9.44955 -3.86532,13.37813 -5.8638,10.73899 z m 32.44078,-48.34316 c -0.33229,-0.33229 -1.19479,-0.36782 -1.91667,-0.079 -0.79773,0.31923 -0.56078,0.55619 0.60417,0.60417 1.05416,0.0434 1.64479,-0.19293 1.3125,-0.52522 z m 19.5,31.41667 c 0.21771,-0.65313 0.93051,-1.36573 1.58401,-1.58356 0.73075,-0.24358 0.95424,0.21359 0.58051,1.1875 -0.69752,1.81771 -2.76448,2.19592 -2.16452,0.39606 z m 9.27083,-4.45972 c -4.19024,-2.18891 -5.23379,-3.8065 -4.7189,-7.3147 0.31598,-2.15291 0.99555,-3.03808 2.3324,-3.03808 1.42944,0 1.8865,-0.72683 1.8865,-3 0,-2.51399 0.39545,-3 2.44098,-3 3.37965,0 3.92124,1.39887 1.98857,5.13624 -1.13104,2.18719 -1.50566,4.71986 -1.18766,8.02936 0.25549,2.65892 0.41808,4.81638 0.36132,4.79436 -0.0568,-0.022 -1.45321,-0.74525 -3.10321,-1.60718 z m -11.48469,-4.10278 c 0.0119,-2.14294 0.22931,-2.41887 0.98469,-1.25 1.26441,1.95653 1.26441,4 0,4 -0.55,0 -0.99311,-1.2375 -0.98469,-2.75 z m -74.01531,-0.29966 c 0,-2.17468 3.10965,-6.95034 4.52568,-6.95034 1.55351,0 1.84776,2.00461 0.84403,5.75 -0.41144,1.53531 -1.36003,2.25 -2.98634,2.25 -1.31085,0 -2.38337,-0.47235 -2.38337,-1.04966 z m 11.45049,-6.56801 c -0.55408,-5.17401 -0.35128,-7.36717 0.92965,-10.05331 2.71167,-5.68642 3.88857,-3.17218 3.29704,7.04356 -0.62657,10.82099 -0.36652,9.62742 -2.09759,9.62742 -1.01272,0 -1.62381,-1.8994 -2.1291,-6.61767 z m 8.25976,-5.38233 c -0.28766,-1.1 -0.11514,-2 0.38337,-2 0.49851,0 0.90638,0.1882 0.90638,0.41821 0,0.23002 0.27314,1.13002 0.60699,2 0.33384,0.86999 0.16133,1.58179 -0.38337,1.58179 -0.5447,0 -1.22571,-0.9 -1.51337,-2 z m -16.02692,-2.65 c -1.28732,-1.28733 -0.6925,-8.0975 0.81667,-9.35 0.825,-0.68469 1.5,-2.00378 1.5,-2.93132 0,-0.92753 0.66069,-2.55993 1.4682,-3.62755 0.80751,-1.06762 1.48251,-3.15207 1.5,-4.63211 0.0175,-1.48004 0.41655,-2.92878 0.88681,-3.21941 0.47026,-0.29064 1.09878,-4.08493 1.39672,-8.43178 0.29794,-4.34684 1.10966,-8.96458 1.80383,-10.26164 0.69417,-1.29706 1.42189,-5.57878 1.61716,-9.51493 0.28266,-5.69766 0.0464,-7.27506 -1.15884,-7.73756 -0.83263,-0.31951 -1.51388,-1.55535 -1.51388,-2.7463 0,-3.26535 2.18709,-9.8974 3.26393,-9.8974 1.90093,0 6.26396,-4.54644 5.94237,-6.19216 -0.20878,-1.06842 0.79807,-2.27586 2.73151,-3.27568 3.74382,-1.936 3.82124,-2.97519 0.43844,-5.88495 -2.49044,-2.14219 -2.53558,-2.34503 -0.88828,-3.99233 1.19496,-1.19496 3.05839,-1.66699 5.9831,-1.51559 2.33619,0.12093 5.58854,-0.33556 7.22745,-1.01441 1.6389,-0.67886 5.63969,-1.09717 8.89065,-0.92958 5.70282,0.29398 5.92252,0.40719 6.24292,3.21706 0.18265,1.60179 -0.21234,3.92962 -0.87775,5.17295 -0.6654,1.24333 -0.92232,3.40611 -0.57093,4.80619 0.54129,2.15665 0.14062,2.79894 -2.62225,4.20364 -1.79364,0.91192 -4.69567,3.20207 -6.44895,5.08922 l -3.18779,3.43119 -1.42377,-2.71736 c -1.30282,-2.48651 -1.22315,-3.01301 0.93779,-6.19733 1.29886,-1.91397 2.36156,-4.12174 2.36156,-4.90615 0,-2.34669 -1.96834,-5.29471 -3.53518,-5.29471 -1.73112,0 -1.89655,1.16827 -0.38016,2.68466 0.59657,0.59657 0.93407,2.14907 0.75,3.45 -0.28347,2.00358 -0.98467,2.41237 -4.58466,2.67284 -3.48707,0.2523 -4.25,0.668 -4.25,2.31574 0,3.31701 1.87388,5.79722 5.53607,7.32738 4.03217,1.68475 4.68757,5.13202 1.52061,7.99808 -1.06883,0.96728 -2.22958,3.06202 -2.57946,4.65499 -0.66924,3.04707 -2.27918,3.69435 -4.26055,1.71298 -1.79953,-1.79953 -2.4617,-0.43685 -3.11842,6.41736 -0.65615,6.84838 -1.7562,6.62669 -3.59825,-0.72514 -0.62446,-2.49231 -1.65719,-4.11587 -2.75,-4.32332 -1.44555,-0.27442 -1.75376,0.41991 -1.7716,3.99111 -0.0335,6.70783 -2.4502,21.0463 -4.01532,23.82332 -0.77495,1.375 -1.50054,3.4 -1.61242,4.5 -0.3356,3.2997 -5.35268,20.90202 -6.19871,21.74805 -0.4319,0.43191 -1.09278,0.47778 -1.46862,0.10195 z m 28.32581,-64.83899 c -1.24904,-1.50499 -3.00914,-1.18445 -3.00914,0.54801 0,0.51754 0.9551,0.94098 2.12244,0.94098 1.76626,0 1.91507,-0.24988 0.8867,-1.48899 z m 55.14436,59.73899 c -1.72908,-3.30023 -2.35972,-8.2966 -1.22046,-9.66932 0.78008,-0.93993 0.80636,-2.1359 0.0885,-4.02414 -0.56187,-1.47771 -1.02154,-4.46709 -1.02154,-6.64308 0,-3.22206 0.45215,-4.16235 2.43623,-5.06636 3.79337,-1.72837 5.30904,-0.51777 5.71315,4.56322 0.41026,5.15832 0.12301,6.58968 -1.32242,6.58968 -0.55351,0 -1.82347,1.00907 -2.82214,2.24237 -1.92067,2.37194 -1.28414,5.0727 1.71752,7.28735 1.07401,0.79241 1.1573,1.65666 0.36141,3.75 -1.19022,3.13053 -2.61425,3.48208 -3.93025,0.97028 z m -71.9535,-2.45 c -1.77541,-1.77541 -1.45678,-4.59221 0.6468,-5.71801 2.42214,-1.29629 4.1532,0.42011 4.1532,4.11801 0,3.02819 -2.52886,3.87114 -4.8,1.6 z m 84.83596,0.45 c 0.0198,-0.4125 1.18188,-2.1 2.58245,-3.75 2.46032,-2.89849 2.52263,-2.91541 1.84165,-0.5 -0.38766,1.375 -1.15486,3.0625 -1.70489,3.75 -1.09996,1.37487 -2.77593,1.68304 -2.71921,0.5 z m 0.77637,-13 c -0.10321,-0.9625 -0.21571,-4.45 -0.25,-7.75 -0.0354,-3.41083 -0.49386,-5.92808 -1.06233,-5.83333 -0.55,0.0917 -1.62398,0.31666 -2.38663,0.5 -1.97197,0.47404 -3.25045,-4.7717 -1.89043,-7.75663 1.41157,-3.09805 2.32082,-3.03722 4.50401,0.30133 0.97518,1.49125 3.46055,4.43443 5.52305,6.5404 2.0625,2.10597 3.75,4.20016 3.75,4.65377 0,0.45361 -0.9,1.96891 -2,3.36733 -1.1,1.39842 -2,3.16911 -2,3.93486 0,1.51679 -1.9201,3.79227 -3.2,3.79227 -0.44,0 -0.88445,-0.7875 -0.98767,-1.75 z m -98.78625,-4.00944 c -1.51338,-5.10634 -2.20385,-21.92905 -1.07352,-26.15567 0.77595,-2.90154 3.40547,-3.86257 5.59548,-2.04502 1.72779,1.43394 1.89178,10.19638 0.31741,16.96013 -0.5761,2.475 -1.13679,6.3 -1.24598,8.5 -0.10918,2.2 -0.64624,4.78325 -1.19347,5.74056 -0.82649,1.44587 -1.23282,0.93795 -2.39992,-3 z m 20.23831,-0.76793 c -1.19934,-0.84005 -2.00528,-2.07755 -1.79097,-2.75 0.21431,-0.67245 1.10803,-3.81013 1.98605,-6.97263 0.87802,-3.1625 1.9842,-5.75 2.45817,-5.75 1.32469,0 2.99234,13.20687 1.92565,15.25 -1.11905,2.14341 -1.79003,2.17603 -4.5789,0.22263 z m 84.28866,-12.11728 c -1.07874,-4.29806 1.09908,-5.31214 3.94045,-1.83482 3.15836,3.86525 3.10555,4.47947 -0.38509,4.47947 -2.29255,0 -3.0291,-0.54788 -3.55536,-2.64465 z m -33.81533,-14.63223 c -3.26883,-7.36434 -3.35941,-8.12621 -0.80346,-6.7583 1.06384,0.56935 2.79161,1.03518 3.83948,1.03518 1.8137,0 4.26532,3.68185 4.19299,6.29705 -0.0311,1.12642 -3.38203,5.73502 -4.12702,5.67607 -0.18684,-0.0148 -1.58274,-2.82729 -3.10199,-6.25 z m 32.9909,2.36473 c -0.97425,-0.34596 -2.65514,-2.08226 -3.7353,-3.85843 -1.46205,-2.40415 -2.68029,-3.22942 -4.76718,-3.22942 -1.54179,0 -4.53498,-0.88288 -6.65152,-1.96196 -2.90579,-1.48145 -4.31894,-1.71006 -5.7701,-0.93343 -4.4258,2.36863 -12.51637,-2.41062 -10.01009,-5.91315 0.66569,-0.9303 1.6248,-2.64259 2.13135,-3.80508 0.50656,-1.16248 1.60485,-2.37602 2.44065,-2.69675 0.99989,-0.38369 1.62463,-2.22596 1.8266,-5.38639 0.28167,-4.40742 0.53359,-4.82932 3.05697,-5.11966 1.5125,-0.17404 2.75,0.13132 2.75,0.67857 0,1.52779 2.95712,4.13785 4.68806,4.13785 1.04323,0 1.37842,-0.63778 1.03181,-1.96323 -0.708,-2.70737 1.58823,-4.47743 4.07906,-3.14438 2.93949,1.57317 8.20107,7.95465 8.20107,9.94663 0,0.97318 1.38363,3.95117 3.07472,6.61775 3.1304,4.93612 6.92528,13.61999 6.92528,15.84718 0,1.3279 -6.25106,1.85643 -9.27138,0.7839 z m 2.27138,-7.58785 c 0,-0.825 -0.43588,-1.5 -0.96862,-1.5 -0.53273,0 -0.70959,0.675 -0.39301,1.5 0.31659,0.825 0.75246,1.5 0.96862,1.5 0.21615,0 0.39301,-0.675 0.39301,-1.5 z m -15.34508,-7.95687 c -0.32568,-0.84872 -1.07211,-1.54313 -1.65872,-1.54313 -0.73956,0 -0.72434,0.63946 0.0496,2.08565 1.2413,2.31939 2.53936,1.88174 1.60908,-0.54252 z m 8.34508,0.45687 c 0,-0.55 -0.675,-1 -1.5,-1 -0.825,0 -1.5,0.45 -1.5,1 0,0.55 0.675,1 1.5,1 0.825,0 1.5,-0.45 1.5,-1 z m -102.81336,7.82701 c 0.34499,-3.49321 2.81336,-5.24106 2.81336,-1.99213 0,2.74258 -1.01794,5.16512 -2.17035,5.16512 -0.526,0 -0.81536,-1.42785 -0.64301,-3.17299 z m 3.48003,-3.49368 c -0.36667,-0.36666 -0.66667,-1.71666 -0.66667,-3 0,-1.28333 -0.42737,-2.33333 -0.94971,-2.33333 -0.56976,0 -0.74448,-3.90073 -0.43672,-9.75 0.64578,-12.27369 0.76106,-12.6575 3.32139,-11.05855 1.68366,1.05146 2.34542,0.89378 4.41719,-1.05256 3.12501,-2.93579 3.89576,-1.77916 4.33913,6.51159 0.29142,5.44933 0.0729,6.40534 -1.67812,7.34247 -1.10724,0.59258 -2.01316,1.90438 -2.01316,2.91512 0,2.35498 -3.844,11.09193 -4.88013,11.09193 -0.43259,0 -1.08654,-0.3 -1.4532,-0.66667 z m 60.40572,-3.9241 c -2.98519,-0.80253 -6.02269,-1.95302 -6.75,-2.55663 -1.58805,-1.31797 -1.765,-4.8526 -0.24294,-4.8526 0.67916,0 0.83511,-1.11251 0.42055,-3 -0.80103,-3.64707 -0.29904,-3.71124 3.91111,-0.5 2.03481,1.55202 4.58801,2.5 6.73328,2.5 3.99121,0 5.85561,1.47042 5.85561,4.61821 0,5.71175 -1.14981,6.15083 -9.92761,3.79102 z m 2.92761,-3.19362 c 0,-1.16203 -5.61379,-4.26848 -6.36187,-3.52041 -1.00352,1.00352 2.46037,4.3048 4.51686,4.3048 1.01475,0 1.84501,-0.35298 1.84501,-0.78439 z m 1.24377,-12.87997 c -2.11007,-0.8507 -0.30447,-2.33564 2.84,-2.33564 2.24331,0 3.19726,-0.60897 3.91623,-2.5 1.03836,-2.7311 2.11692,-3.04298 5.06574,-1.46482 2.91239,1.55867 2.42301,3.95852 -0.81574,4.00025 -1.5125,0.0195 -3.875,0.67855 -5.25,1.46457 -2.63538,1.50652 -3.7065,1.66201 -5.75623,0.83564 z"
         id="path3213"
         inkscape:connector-curvature="0" />
      <path
         style="fill:#00e2b8"
         d="m 576.05162,557.073 c 0.61807,-1.85422 2.77083,-2.16176 2.77083,-0.39583 0,0.87083 -0.7125,1.58333 -1.58333,1.58333 -0.87084,0 -1.40521,-0.53438 -1.1875,-1.1875 z m -168.011,-1.967 c 0.51903,-1.5571 2.75625,-1.82979 2.83465,-0.3455 0.029,0.55 -0.69777,1.15548 -1.61517,1.3455 -1.04271,0.21599 -1.49986,-0.15888 -1.21948,-1 z m 16.31443,-20.5955 c 0.87476,-5.26348 1.25927,-6.25 2.43601,-6.25 1.38364,0 1.30921,4.29615 -0.12913,7.45295 -1.71728,3.76902 -3.02027,3.08957 -2.30688,-1.20295 z m 5.6674,-20.45 c -2.53132,-2.53132 -0.25431,-6.8 3.62727,-6.8 1.57677,0 2.18124,2.84741 1.16943,5.50868 -1.02486,2.6956 -2.89025,3.19777 -4.7967,1.29132 z m 63.96585,-21.93862 c 0.18378,-1.29876 0.78415,-2.24888 1.33415,-2.11138 1.47618,0.36905 1.2155,3.5115 -0.33415,4.02805 -0.91466,0.30489 -1.22908,-0.29775 -1,-1.91667 z m 17.86933,-7.79564 c -1.29112,-2.41248 -1.36094,-6.3851 -0.0985,-5.60488 0.81723,0.50508 4.06332,6.25122 4.06332,7.19278 0,1.24364 -3.11766,-0.005 -3.96482,-1.5879 z m -83.85648,-2.98873 c 0.17672,-1.88264 0.94731,-3.62881 1.71243,-3.88038 1.07332,-0.35289 1.22849,0.20065 0.67924,2.42299 -1.10727,4.48012 -2.77053,5.49364 -2.39167,1.45739 z m -6.86762,-2.57701 c 1.29872,-7.16569 2.92089,-12.5 3.80129,-12.5 2.0546,0 2.01439,3.28126 -0.10136,8.26985 -2.74341,6.46853 -4.46165,8.43301 -3.69993,4.23015 z m -11.70409,-0.0818 c -0.93556,-2.43802 -0.7194,-5.4182 0.39301,-5.4182 0.55,0 1.00614,0.5625 1.01365,1.25 0.008,0.6875 0.285,2.2625 0.61664,3.5 0.68002,2.53751 -1.0826,3.11963 -2.0233,0.66821 z M 435.446,464.72187 c -0.75362,-1.9639 0.37657,-13.42419 1.54943,-15.71138 0.49356,-0.9625 1.58893,-1.75 2.43416,-1.75 1.27964,0 1.42789,0.96209 0.886,5.75 -1.09209,9.64941 -3.46808,15.36365 -4.86959,11.71138 z m -28.62355,-8.46137 c 0,-0.55 0.45,-1 1,-1 0.55,0 1,0.45 1,1 0,0.55 -0.45,1 -1,1 -0.55,0 -1,-0.45 -1,-1 z m 36,-13 c 0,-0.55 0.45,-1 1,-1 0.55,0 1,0.45 1,1 0,0.55 -0.45,1 -1,1 -0.55,0 -1,-0.45 -1,-1 z m -7.54356,-4.44191 c -0.75266,-5.01908 1.23048,-9.55809 4.17602,-9.55809 1.23176,0 1.46791,0.72646 1.05645,3.25 -1.78709,10.96056 -4.1141,13.76592 -5.23247,6.30809 z m 57.88864,1.89878 c -0.32569,-0.84872 -0.3415,-1.79378 -0.0352,-2.10013 0.87571,-0.87571 2.69007,0.60965 2.69007,2.20228 0,1.91885 -1.90756,1.84546 -2.65492,-0.10215 z m -42.09375,-1.18017 c -2.94991,-0.36614 -6.22175,-3.63962 -4.92945,-4.93191 0.52953,-0.52954 10.59699,3.47041 12.12812,4.81867 0.95691,0.84262 -1.06587,0.87444 -7.19867,0.11324 z m -27.17238,-5.86003 c 0.048,-1.16495 0.28494,-1.4019 0.60416,-0.60417 0.28888,0.72187 0.25335,1.58437 -0.079,1.91667 -0.33229,0.33229 -0.56864,-0.25834 -0.52522,-1.3125 z m 30.37993,0.5168 c -0.92034,-1.48915 0.14672,-2.29879 2.06137,-1.56407 0.88359,0.33906 1.32643,1.06965 0.98411,1.62354 -0.81057,1.31154 -2.2151,1.28411 -3.04548,-0.0595 z m -30.30099,-5.93347 c 0,-1.375 0.22698,-1.9375 0.50439,-1.25 0.27741,0.6875 0.27741,1.8125 0,2.5 -0.27741,0.6875 -0.50439,0.125 -0.50439,-1.25 z m 18.09211,-1.66228 c -2.02466,-0.81697 -1.43231,-6.11068 1,-8.93682 2.98539,-3.46877 6.16579,-4.62421 9.07711,-3.29772 1.84452,0.84042 3.56801,0.54925 8.42088,-1.42265 7.50606,-3.04998 13.79838,-4.22354 14.71277,-2.74403 0.3663,0.5927 -0.15002,1.37604 -1.14738,1.74078 -0.99736,0.36473 -2.88657,1.48656 -4.19824,2.49294 -1.31167,1.00638 -3.17949,1.82978 -4.1507,1.82978 -0.97122,0 -4.17303,1.11755 -7.11514,2.48344 -2.94212,1.36589 -6.15839,2.22872 -7.14729,1.91738 -2.41099,-0.75905 -4.70201,1.2979 -4.70201,4.22162 0,2.34169 -1.68745,2.95105 -4.75,1.71528 z m 14.75,-2.25265 c 0,-2.48691 16.07243,-4.39493 17.50436,-2.07801 0.83893,1.35741 -0.65868,1.72526 -9.75436,2.39596 -4.28599,0.31604 -7.75,0.17393 -7.75,-0.31795 z m 31,-0.0118 c 0,-0.59027 -0.79376,-1.07327 -1.76392,-1.07327 -1.48107,0 -4.64275,-4.98806 -7.06941,-11.15315 -0.18334,-0.46577 0.55602,-0.84685 1.64301,-0.84685 2.07395,0 3.19032,1.80639 3.19032,5.16223 0,1.40661 1.19704,2.46887 4.04101,3.58601 2.66672,1.04752 3.93814,2.12153 3.73852,3.15808 -0.34083,1.76975 -3.77953,2.83153 -3.77953,1.167 z m -61.55385,-7.1604 c -1.03052,-1.66742 1.28721,-3.57951 2.66672,-2.2 1.15392,1.15392 0.43172,3.28713 -1.11287,3.28713 -0.48508,0 -1.18431,-0.48921 -1.55385,-1.08713 z m 72.22052,-13.57954 c -1.04656,-1.04655 -0.77996,-4.14528 0.42046,-4.88718 1.67419,-1.0347 3.18979,1.106 2.44482,3.45319 -0.67864,2.13821 -1.66662,2.63266 -2.86528,1.43399 z m 15.33333,-6.39235 c 0,-1.13246 0.45,-1.7809 1,-1.44098 0.55,0.33992 1,1.26648 1,2.05902 0,0.79254 -0.45,1.44098 -1,1.44098 -0.55,0 -1,-0.92656 -1,-2.05902 z m -100.58652,-6.55049 c -0.47519,-2.53295 -0.27925,-3.85541 0.65694,-4.43401 1.86905,-1.15514 2.92958,-0.24261 2.92958,2.52075 0,5.99318 -2.56448,7.36122 -3.58652,1.91326 z m 93.58652,-2.97382 c 0,-1.76593 2.15276,-1.45839 2.77083,0.39583 0.21771,0.65312 -0.31666,1.1875 -1.1875,1.1875 -0.87083,0 -1.58333,-0.7125 -1.58333,-1.58333 z m -91,-4.97569 c 0,-0.85746 0.45734,-1.27636 1.01631,-0.9309 0.55897,0.34546 0.75742,1.04702 0.44098,1.55902 -0.85724,1.38704 -1.45729,1.12841 -1.45729,-0.62812 z m 17.62621,-9.54178 c -0.39913,-0.88044 -0.5908,-2.22551 -0.42594,-2.98906 0.21037,-0.97438 -0.52011,-1.29565 -2.45027,-1.07763 -2.37027,0.26773 -2.75,-0.046 -2.75,-2.27184 0,-4.08505 3.92832,-11.56067 6.07494,-11.56067 2.28996,0 4.2459,3.41377 3.42957,5.98578 -0.45494,1.4334 0.15528,2.30405 2.4446,3.48791 1.7901,0.92569 3.05089,2.36917 3.05089,3.49297 0,2.5231 -1.72688,3.5049 -3.53107,2.00755 -1.97348,-1.63784 -4.23013,-0.57798 -4.71542,2.21464 -0.32343,1.86114 -0.54293,1.99945 -1.1273,0.71035 z m 70.85662,-4.92699 c -0.99389,-1.60813 2.0077,-4.38169 3.93963,-3.64034 1.67226,0.64171 2.21625,3.66813 0.65933,3.66813 -0.50502,0 -1.5845,0.25568 -2.39885,0.56817 -0.81435,0.3125 -1.8044,0.0443 -2.20011,-0.59596 z m -80.00334,-7.71459 c 0.79376,-4.23112 1.27651,-5.25762 2.47254,-5.25762 1.76409,0 1.89913,3.09837 0.26052,5.97788 -2.34196,4.11554 -3.57909,3.78951 -2.73306,-0.72026 z m 63.02051,2.74238 c -0.33992,-0.55 0.0835,-1 0.94098,-1 0.85746,0 1.55902,0.45 1.55902,1 0,0.55 -0.42344,1 -0.94098,1 -0.51754,0 -1.2191,-0.45 -1.55902,-1 z m -73.99732,-8.97692 c -0.72709,-6.2646 0.22667,-9.02308 3.11976,-9.02308 0.99073,0 1.34957,1.33385 1.27788,4.75 -0.22434,10.69037 -3.30537,13.68413 -4.39764,4.27308 z m 91.48502,3.46374 c -2.46824,-1.27528 -5.3877,-2.75488 -6.4877,-3.288 -3.10552,-1.50508 -5.71136,-4.86279 -5.32617,-6.86293 0.50412,-2.61767 3.84534,-2.97857 4.49723,-0.48577 0.54899,2.09937 5.83033,4.57607 7.52484,3.52881 0.53138,-0.32842 0.69612,-1.67303 0.36608,-2.98802 -0.90878,-3.62084 1.38358,-2.97688 5.68802,1.59786 4.48228,4.76374 4.7634,7.43582 0.9877,9.38831 -2.51334,1.2997 -3.16678,1.21946 -7.25,-0.89026 z m -53.1852,-12.54839 c 1.27842,-3.99773 1.99473,-4.96321 3.40806,-4.59362 3.14891,0.82346 2.0898,-2.97776 -1.21056,-4.34481 -4.54442,-1.88236 -3.61305,-3 2.5,-3 5.21818,0 5.5,0.12971 5.5,2.53138 0,1.39227 -0.6856,2.79448 -1.52355,3.11603 -1.12311,0.43098 -1.36316,1.43958 -0.91331,3.83744 0.57466,3.0632 0.35361,3.37704 -3.79218,5.38398 -2.42132,1.17214 -4.66896,2.13117 -4.99475,2.13117 -0.32578,0 0.13605,-2.27771 1.02629,-5.06157 z m -32.72355,0.47824 c 0.048,-1.16495 0.28494,-1.4019 0.60416,-0.60417 0.28888,0.72187 0.25335,1.58437 -0.079,1.91667 -0.33229,0.33229 -0.56864,-0.25834 -0.52522,-1.3125 z m 23.17105,-0.19166 c -2.71165,-0.43882 -2.83947,-1.38157 -0.47716,-3.51943 1.90719,-1.72599 3.50483,-1.20555 4.48696,1.46166 0.69299,1.882 -0.69485,2.59422 -4.0098,2.05777 z"
         id="path3211"
         inkscape:connector-curvature="0" />
    </g>
  </g>
</svg>
