<?xml version="1.0" encoding="UTF-8" standalone="no"?>
<!-- Created with Inkscape (http://www.inkscape.org/) -->

<svg
   xmlns:dc="http://purl.org/dc/elements/1.1/"
   xmlns:cc="http://creativecommons.org/ns#"
   xmlns:rdf="http://www.w3.org/1999/02/22-rdf-syntax-ns#"
   xmlns:svg="http://www.w3.org/2000/svg"
   xmlns="http://www.w3.org/2000/svg"
   xmlns:sodipodi="http://sodipodi.sourceforge.net/DTD/sodipodi-0.dtd"
   xmlns:inkscape="http://www.inkscape.org/namespaces/inkscape"
   width="170.87703"
   height="241.03912"
   id="svg2"
   version="1.1"
   inkscape:version="0.48.2 r9819"
   sodipodi:docname="4-W.svg">
  <defs
     id="defs4" />
  <sodipodi:namedview
     id="base"
     pagecolor="#ffffff"
     bordercolor="#666666"
     borderopacity="1.0"
     inkscape:pageopacity="0.0"
     inkscape:pageshadow="2"
     inkscape:zoom="0.98994949"
     inkscape:cx="168.60159"
     inkscape:cy="72.121217"
     inkscape:document-units="px"
     inkscape:current-layer="layer1"
     showgrid="false"
     fit-margin-top="5"
     fit-margin-left="5"
     fit-margin-right="5"
     fit-margin-bottom="5"
     inkscape:window-width="968"
     inkscape:window-height="702"
     inkscape:window-x="611"
     inkscape:window-y="0"
     inkscape:window-maximized="0" />
  <metadata
     id="metadata7">
    <rdf:RDF>
      <cc:Work
         rdf:about="">
        <dc:format>image/svg+xml</dc:format>
        <dc:type
           rdf:resource="http://purl.org/dc/dcmitype/StillImage" />
        <dc:title></dc:title>
      </cc:Work>
    </rdf:RDF>
  </metadata>
  <g
     inkscape:label="Layer 1"
     inkscape:groupmode="layer"
     id="layer1"
     transform="translate(-287.88957,-120.05245)">
    <g
       id="g3306"
       transform="translate(-104.04571,-225.26402)">
      <path
         style="fill:#fec9b1"
         d="m 398.01232,580.20265 c -1.64271,-1.64271 -1.5592,-2.16456 1.32044,-8.25162 1.38624,-2.93027 3.39971,-8.68475 4.47439,-12.78774 4.49736,-17.17044 19.02244,-63.75765 30.79184,-98.76064 13.07883,-38.89733 18.37859,-55.09458 24.70373,-75.5 4.2083,-13.57636 9.96177,-28.89434 12.11317,-32.25 3.61261,-5.63479 7.86438,-1.27555 14.87399,15.25 2.56622,6.05 6.40059,14.6 8.52083,19 2.12023,4.4 5.64792,13.175 7.83932,19.5 2.1914,6.325 5.31833,14.425 6.94874,18 3.78596,8.30146 5.60055,14.70756 8.21454,29 5.6603,30.94863 6.96099,36.71324 11.94986,52.96155 5.19197,16.90976 11.61634,32.03829 16.92451,39.85491 5.56802,8.19927 9.10272,15.90652 9.11487,19.87452 0.005,1.75504 0.45977,3.4691 1.00977,3.80902 0.55,0.33992 1,1.92564 1,3.52383 0,3.76333 -2.77411,5.39275 -6.66358,3.91398 -2.8912,-1.09924 -9.51179,-0.62655 -17.33642,1.23776 -3.31852,0.79068 -6.03499,0.75323 -10.34645,-0.14262 -5.45347,-1.13314 -5.97814,-1.49435 -7.80569,-5.37387 -1.07758,-2.28749 -3.2658,-5.95908 -4.86271,-8.15908 -1.5969,-2.2 -4.77778,-8.725 -7.06862,-14.5 -2.29083,-5.775 -6.0753,-14.1 -8.40993,-18.5 -2.33462,-4.4 -5.25263,-10.50582 -6.48446,-13.56848 -3.71216,-9.22943 -4.83201,-10.20372 -12.66771,-11.02121 -8.52232,-0.88911 -12.75471,0.56222 -13.79979,4.73208 -0.39391,1.57169 -2.25484,5.39147 -4.13542,8.48842 -1.88057,3.09695 -3.41922,5.88552 -3.41922,6.19682 0,0.31131 -3.1361,7.27138 -6.9691,15.46683 -3.83301,8.19545 -8.16216,19.13188 -9.62035,24.30318 -1.45818,5.1713 -3.26791,10.05712 -4.02162,10.85737 -0.79213,0.84105 -2.82367,1.35714 -4.81446,1.22307 -1.89424,-0.12757 -6.73591,0.4548 -10.75927,1.29417 -8.7726,1.83016 -18.95097,1.99198 -20.6152,0.32775 z m 84.45619,-103.34644 c 0.32638,-0.85053 -1.77915,-6.58803 -4.67897,-12.75 -2.89982,-6.16196 -5.66672,-13.00356 -6.14868,-15.20356 -3.25965,-14.8794 -5.14777,-12.90608 -11.31463,11.82525 -2.03321,8.15389 -3.3936,15.12889 -3.0231,15.5 0.7719,0.77316 10.29667,1.79823 18.79057,2.02226 4.39297,0.11587 5.9239,-0.21889 6.37481,-1.39395 z"
         id="path3320"
         inkscape:connector-curvature="0" />
      <path
         style="fill:#feb191"
         d="m 402.81232,579.68179 c -1.375,-0.24667 -2.8822,-0.81509 -3.34934,-1.26315 -1.24419,-1.1934 0.17918,-4.8224 2.15049,-5.48286 2.25075,-0.75409 5.511,-7.97427 4.72252,-10.45854 -0.34268,-1.07969 0.54681,-5.92567 1.97664,-10.76883 8.03408,-27.21325 9.92238,-33.54081 12.17744,-40.80576 1.36577,-4.4 4.52155,-14.75 7.01284,-23 2.49128,-8.25 5.56729,-17.7 6.83558,-21 2.31359,-6.01985 19.38803,-58.3579 27.89297,-85.5 6.35401,-20.27773 9.81056,-28.43186 12.20453,-28.79094 2.40238,-0.36034 5.38135,3.5024 8.37079,10.85418 6.52307,16.04181 8.58079,20.66702 10.20442,22.93676 0.98359,1.375 3.84425,8.33844 6.35702,15.47432 2.51278,7.13587 5.94141,16.10194 7.61918,19.92459 3.47433,7.91594 8.31263,26.19712 9.28985,35.10109 0.63156,5.75441 1.96464,12.86331 5.25062,28 0.83578,3.85 3.2667,12.20522 5.40203,18.56715 2.13533,6.36193 3.88242,12.92317 3.88242,14.58052 0,1.65736 1.08147,5.14955 2.40326,7.76042 1.32179,2.61088 2.69516,6.30302 3.05193,8.20476 0.36766,1.95979 2.15881,5.01275 4.13456,7.04723 7.57145,7.79651 15.10512,21.57521 13.88993,25.40395 -0.41765,1.3159 -0.044,2.75995 1.01784,3.93323 0.92278,1.01966 1.52125,2.67491 1.32992,3.67834 -0.51386,2.69492 -4.34646,2.84919 -6.16821,0.24828 -1.04122,-1.48656 -2.19637,-2.01668 -3.59655,-1.65052 -1.51432,0.396 -2.06268,0.0651 -2.06268,-1.24453 0,-2.86597 -2.47485,-4.36653 -4.05716,-2.45996 -1.03328,1.24503 -1.06451,2.00666 -0.14279,3.48256 1.3835,2.21534 0.39993,2.91236 -6.88361,4.87819 -8.21794,2.21802 -15.91644,-1.48372 -15.91644,-7.65324 0,-1.34213 -1.63278,-3.86316 -3.97285,-6.13412 -2.70335,-2.62351 -4.97572,-6.37778 -7.11134,-11.74889 -1.72617,-4.34135 -5.98339,-13.51837 -9.46049,-20.39337 -3.4771,-6.875 -7.04847,-14.29386 -7.93639,-16.48635 -3.23418,-7.98605 -6.83801,-10.40636 -17.8696,-12.00111 -9.07072,-1.31127 -9.11355,-1.28201 -12.4989,8.54095 -2.30634,6.6921 -10.29814,25.16925 -14.68267,33.94651 -1.78582,3.575 -4.69707,11 -6.46943,16.5 -1.77237,5.5 -3.62396,11.03787 -4.11466,12.30639 -1.03527,2.6763 -3.25111,1.92668 -2.38367,-0.80639 1.2991,-4.09312 -3.91558,-3.10224 -8,1.52013 -3.54107,4.00746 -12.75987,6.14757 -20.5,4.75901 z m 91,-67.72012 c 0,-0.24254 -0.45,-0.7191 -1,-1.05902 -0.55,-0.33992 -1,-0.14148 -1,0.44098 0,0.58246 0.45,1.05902 1,1.05902 0.55,0 1,-0.19844 1,-0.44098 z m -43,-30.05902 c 0,-0.825 -0.675,-1.5 -1.5,-1.5 -0.825,0 -1.5,0.675 -1.5,1.5 0,0.825 0.675,1.5 1.5,1.5 0.825,0 1.5,-0.675 1.5,-1.5 z m 34.40812,-4.25 c -0.34649,-1.5125 -2.31084,-6.575 -4.36521,-11.25 -6.78666,-15.44393 -7.20931,-16.66399 -6.78776,-19.5939 l 0.41812,-2.9061 1.3826,3.25 c 1.50505,3.53781 2.42534,4.04432 3.28377,1.8073 0.56171,-1.46379 -0.43578,-5.89147 -2.41242,-10.70834 -0.95189,-2.31964 -1.60913,-2.62896 -5.25755,-2.47437 -4.01213,0.16999 -4.26895,0.3835 -6.79731,5.65104 -1.44519,3.0109 -3.85599,10.19937 -5.35731,15.97437 -1.50133,5.775 -3.3564,11.71515 -4.12237,13.20034 -1.89654,3.6773 -1.74952,5.53832 0.53408,6.76046 2.11029,1.1294 15.23658,2.69659 24.34229,2.90632 l 5.76905,0.13288 -0.62998,-2.75 z"
         id="path3318"
         inkscape:connector-curvature="0" />
      <path
         style="fill:#fea577"
         d="m 403.85215,577.95064 c -1.46075,-1.7601 -0.77354,-4.18772 2.58749,-9.14047 2.16504,-3.19036 2.37261,-4.11225 1.4044,-6.23724 -1.19846,-2.63035 -1.34046,-2.06933 6.87717,-27.17028 1.71057,-5.225 4.19411,-13.325 5.51897,-18 1.32486,-4.675 3.30727,-11.2 4.40536,-14.5 1.0981,-3.3 3.4188,-10.64924 5.15712,-16.33165 1.73831,-5.6824 4.92662,-13.9836 7.08512,-18.4471 2.15849,-4.4635 3.93442,-9.03926 3.9465,-10.16835 0.0121,-1.1291 0.85583,-3.8889 1.875,-6.13291 1.01917,-2.244 1.86965,-5.169 1.88994,-6.5 0.0426,-2.79611 10.62542,-37.85425 12.61356,-41.78561 0.73273,-1.44891 1.64817,-4.37728 2.0343,-6.50749 0.95569,-5.27234 2.63248,-7.74032 4.79302,-7.0546 2.88499,0.91566 4.39074,-3.66813 2.79414,-8.50588 -1.60535,-4.86424 -0.91354,-9.42679 2.81517,-18.56641 3.04268,-7.45803 4.71406,-8.67934 8.49108,-6.20455 2.14565,1.40589 5.67183,10.24256 5.67183,14.2137 0,1.00835 0.61341,2.5438 1.36314,3.41211 0.74973,0.86831 2.16086,3.71624 3.13586,6.32874 0.97499,2.6125 2.15243,4.75 2.61653,4.75 1.35521,0 4.4179,6.77674 7.68301,17 1.66875,5.225 4.40001,12.4508 6.06945,16.05733 3.50767,7.5777 5.07296,13.64005 5.10756,19.78156 0.0305,5.41186 7.37637,42.33267 10.03236,50.42321 1.08191,3.29566 3.05491,8.29741 4.38445,11.115 3.3641,7.12927 5.90876,16.37253 5.21846,18.95561 -0.35239,1.31865 0.83816,5.6811 3.04049,11.14104 3.85275,9.55162 6.93003,14.52625 8.98586,14.52625 1.67895,0 5.39925,5.07913 9.37062,12.79321 2.46503,4.78814 3.10874,7.10127 2.69157,9.67199 -0.38778,2.3896 -0.13127,3.53882 0.87617,3.92541 2.24832,0.86276 1.78051,4.60939 -0.57553,4.60939 -1.33333,0 -2,-0.66667 -2,-2 0,-1.50844 -0.66667,-2 -2.71244,-2 -1.75366,0 -3.47923,-0.96165 -4.88175,-2.72058 -1.83141,-2.29681 -2.41137,-2.5197 -3.72328,-1.4309 -0.85469,0.70932 -1.84537,2.6164 -2.20152,4.23796 -0.85834,3.90797 -5.45819,6.31405 -10.72137,5.60811 -4.88075,-0.65465 -7.48014,-2.94288 -8.76546,-7.71621 -0.54857,-2.03721 -2.1187,-5.35636 -3.4892,-7.3759 -3.21272,-4.73421 -13.78431,-26.47992 -16.33571,-33.60248 -1.0836,-3.025 -2.23777,-8.35742 -2.56483,-11.84982 -0.44436,-4.74508 -1.22769,-7.10216 -3.09954,-9.32673 -1.3777,-1.63729 -2.5049,-3.39237 -2.5049,-3.90018 0,-1.33188 -3.38709,-1.13618 -4.80065,0.27738 -0.92017,0.92017 -1.95975,0.931 -4.45,0.0464 -6.57067,-2.33413 -18.05013,-4.24229 -19.29686,-3.20759 -0.66444,0.55144 -2.42573,4.48065 -3.91397,8.73159 -2.28734,6.53341 -7.18953,17.12381 -20.88438,45.11735 -1.18077,2.4136 -3.20066,5.07884 -4.48864,5.92276 -1.7942,1.17561 -2.24181,2.21556 -1.91424,4.44744 0.35185,2.39735 -0.0241,3.08475 -2.1235,3.88295 -1.78451,0.67848 -3.2447,0.59867 -4.85961,-0.2656 -3.12982,-1.67503 -4.93321,0.0129 -3.2914,3.08064 0.8567,1.60075 0.86895,2.52443 0.0466,3.51525 -3.32893,4.01111 -14.52468,6.03896 -16.98357,3.07618 z M 527.556,555.87837 c 3.79877,-2.31383 4.46519,-5.03295 1.00632,-4.10601 -1.2375,0.33164 -2.98504,0.60913 -3.88342,0.61664 -1.57537,0.0132 -3.18275,4.36415 -2.03592,5.51098 0.61545,0.61544 0.51724,0.65585 4.91302,-2.02161 z M 427.64737,514.8825 c 0.29423,-2.51679 0.14196,-2.70566 -1.25,-1.55043 -1.88292,1.56268 -2.15088,5.42304 -0.33505,4.82679 0.6875,-0.22574 1.40077,-1.70011 1.58505,-3.27636 z m 77.51003,-1.02298 c -0.32569,-0.84872 -0.80663,-1.32866 -1.06875,-1.06653 -0.26213,0.26213 -0.17998,0.95654 0.18255,1.54313 0.98605,1.59546 1.56238,1.28551 0.8862,-0.4766 z m -60.34508,-10.56386 c 0,-0.49115 -0.675,-0.89301 -1.5,-0.89301 -0.825,0 -1.5,0.66088 -1.5,1.46862 0,0.89459 0.58629,1.24363 1.5,0.89301 0.825,-0.31659 1.5,-0.97746 1.5,-1.46862 z m 62.5884,-14.63795 c -1.0924,-1.0924 -1.84148,0.64486 -1.05718,2.45181 0.74368,1.71337 0.79759,1.71181 1.21194,-0.0351 0.2385,-1.00555 0.16886,-2.09305 -0.15476,-2.41667 z m -50.5884,-1.25506 c 0,-0.55 -0.19844,-1 -0.44098,-1 -0.24254,0 -0.7191,0.45 -1.05902,1 -0.33992,0.55 -0.14148,1 0.44098,1 0.58246,0 1.05902,-0.45 1.05902,-1 z m -4.5,-5 c 1.81473,-3.50931 0.70949,-3.4291 19.79655,-1.43656 8.62632,0.90052 15.34981,1.1902 15.85684,0.68317 0.50702,-0.50702 -1.286,-5.47275 -4.22871,-11.71128 -4.3344,-9.18894 -5.00387,-11.37714 -4.4157,-14.43318 1.8875,-9.80717 -0.17517,-18.35849 -5.89227,-24.42798 -2.8287,-3.00306 -5.32565,-3.11877 -4.80038,-0.22246 0.17399,0.95932 -0.35727,2.48853 -1.18055,3.39826 -0.82329,0.90972 -2.85932,4.69064 -4.52451,8.40204 -3.12674,6.96891 -3.83541,7.62225 -5.96357,5.49799 -1.00294,-1.0011 -1.12145,0.0443 -0.59517,5.25 0.53576,5.29949 0.25685,7.60816 -1.51016,12.5 -1.19201,3.3 -2.41813,7.02027 -2.72471,8.26727 -0.30658,1.24699 -1.85347,3.19014 -3.43754,4.31809 -2.71051,1.93006 -3.71002,4.7514 -2.21345,6.24797 1.57509,1.5751 4.39562,0.44688 5.83333,-2.33333 z m -8.5,-2.44098 c 0,-1.05548 -1.91911,-1.49891 -2.48992,-0.57533 -0.34546,0.55897 0.0734,1.01631 0.9309,1.01631 0.85746,0 1.55902,-0.19844 1.55902,-0.44098 z m 20.66228,-64.80902 c -0.27741,-0.6875 -0.50439,-0.125 -0.50439,1.25 0,1.375 0.22698,1.9375 0.50439,1.25 0.27741,-0.6875 0.27741,-1.8125 0,-2.5 z m 13.75761,0.12038 c -0.7889,-1.27647 -2.41989,-0.0558 -2.41989,1.81108 0,1.27119 0.27832,1.33244 1.48899,0.32768 0.81894,-0.67967 1.23785,-1.64211 0.9309,-2.13876 z"
         id="path3316"
         inkscape:connector-curvature="0" />
      <path
         style="fill:#fe9568"
         d="m 406.64746,578.73915 c -0.91567,-0.2477 -1.92507,-1.12847 -2.24311,-1.95727 -0.82322,-2.14527 3.4281,-9.06719 6.40177,-10.42325 l 2.5062,-1.14289 -3,-2.39693 -3,-2.39692 2.36015,-6.25962 c 1.29808,-3.44279 2.72511,-8.28462 3.17118,-10.75962 0.44607,-2.475 1.76129,-6.62331 2.9227,-9.21847 1.16142,-2.59516 2.9701,-8.07491 4.01929,-12.17723 2.90415,-11.35511 15.96843,-49.68564 18.1579,-53.27519 1.06376,-1.74399 3.04453,-6.43566 4.40171,-10.42593 1.35718,-3.99027 3.21149,-8.39037 4.1207,-9.77799 1.14505,-1.74757 1.29863,-2.6411 0.49973,-2.9074 -0.63435,-0.21145 -1.15336,-0.93724 -1.15336,-1.61287 0,-1.91402 8.79717,-29.40169 11.57271,-36.1601 1.3677,-3.33034 3.03585,-8.28034 3.70701,-11 0.96083,-3.89347 1.6943,-5.01219 3.44974,-5.26168 3.10327,-0.44105 4.91347,-7.09387 3.35005,-12.31209 -0.69389,-2.31601 -0.77694,-4.58323 -0.22124,-6.03951 0.48934,-1.28235 1.68807,-4.80654 2.66385,-7.83154 2.20718,-6.84243 3.09726,-8 6.15135,-8 1.82602,0 2.78809,0.86043 3.87756,3.46788 1.95036,4.66789 1.82471,7.1957 -0.52149,10.49063 -2.17656,3.05669 -1.80747,4.04149 1.51468,4.04149 2.9414,0 4.23056,1.73934 5.03973,6.79961 0.57508,3.59634 1.02089,4.20039 3.10009,4.20039 2.93811,0 4.85689,3.90039 8.85503,18 1.48161,5.225 3.28088,10.175 3.99837,11 3.031,3.48519 5.64936,12.78606 6.47303,22.99333 0.4663,5.77867 2.64739,18.60667 4.84686,28.50667 5.58283,25.12875 5.96298,26.4979 8.61838,31.03945 3.59989,6.15695 6.79701,16.94236 6.04167,20.38142 -0.46611,2.1222 0.17964,4.85629 2.30599,9.76339 1.62437,3.74865 3.29337,7.94074 3.7089,9.31574 1.13702,3.76246 5.43556,8.94957 6.93853,8.37283 1.63532,-0.62753 5.24759,4.08888 9.58852,12.51939 3.06122,5.94519 3.18939,6.5746 1.83262,9 -2.10589,3.76458 -5.31532,3.83824 -8.94819,0.20537 -2.50826,-2.50825 -2.85869,-3.38801 -1.99348,-5.00466 1.81382,-3.38917 1.23216,-4.07507 -2.20027,-2.59457 -3.00002,1.294 -3.86947,3.54417 -1.675,4.33497 1.77578,0.63992 0.90858,3.16667 -1.08682,3.16667 -1.77536,0 -1.93917,0.45429 -1.39375,3.86514 0.58623,3.66609 0.45198,3.92303 -2.60672,4.9893 -6.17956,2.15421 -12.27652,-1.24995 -13.45094,-7.51014 -0.35972,-1.91748 -0.89357,-4.11053 -1.18633,-4.87344 -0.34897,-0.90943 0.44607,-1.61992 2.30864,-2.06312 1.56251,-0.37181 4.7524,-1.85315 7.08865,-3.29188 3.6302,-2.23556 4.21172,-3.052 4,-5.61586 -0.2366,-2.8652 -0.46469,-3.00562 -5.07606,-3.12515 -4.33277,-0.1123 -4.9357,0.14429 -5.87451,2.5 -2.24605,5.63592 -3.18608,7.12515 -4.49752,7.12515 -1.9667,0 -2.80829,-2.95587 -1.45746,-5.1189 0.6368,-1.01968 1.15782,-2.5509 1.15782,-3.40271 0,-1.22133 -0.40892,-1.32991 -1.93426,-0.51357 -1.06384,0.56935 -2.17107,1.03518 -2.4605,1.03518 -0.89305,0 -9.0817,-17.12123 -11.58677,-24.2262 -2.30404,-6.5348 -2.31941,-6.78378 -0.54001,-8.75 2.38044,-2.63036 3.3182,-2.55202 5.7002,0.4762 2.19033,2.78456 4.82134,3.31831 4.82134,0.97811 0,-2.60822 -8.33059,-18.54752 -9.22586,-17.65225 -0.46665,0.46665 -0.38174,2.07603 0.1887,3.5764 0.57044,1.50037 1.03716,4.09679 1.03716,5.76983 0,2.36296 -0.35304,2.90641 -1.58179,2.4349 -0.86998,-0.33385 -1.76998,-0.60699 -2,-0.60699 -0.23001,0 -0.41821,-0.91005 -0.41821,-2.02234 0,-1.11229 -1.85229,-4.03184 -4.1162,-6.4879 -4.07804,-4.42414 -4.14158,-4.45056 -6.85346,-2.84861 -2.499,1.4762 -3.16344,1.48097 -7.6338,0.0548 -2.6931,-0.85917 -7.54091,-2.12658 -10.77292,-2.81645 -5.46108,-1.16568 -5.97652,-1.1174 -7.29343,0.68309 -0.77938,1.06557 -1.67543,3.06241 -1.99122,4.43741 -0.56088,2.44213 -3.41163,8.79497 -11.66715,26 -7.67367,15.99241 -10.67182,19.19008 -10.67182,11.38197 0,-4.11388 -1.49652,-3.70422 -3.61695,0.99011 -0.77709,1.72035 -1.95275,3.89384 -2.6126,4.82996 -1.73885,2.46691 -0.12967,3.43303 2.20257,1.32238 1.7786,-1.60962 2.04899,-1.63062 2.59729,-0.20178 0.95165,2.47995 -1.42053,8.37091 -4.38706,10.89463 -1.8166,1.54544 -2.57523,3.04612 -2.34882,4.64627 0.32198,2.27554 0.15146,2.34126 -4.57944,1.76504 -5.60068,-0.68214 -8.78524,0.82603 -7.70243,3.6478 0.36378,0.94799 1.06327,1.72362 1.55443,1.72362 1.8244,0 0.81432,4.00373 -1.35699,5.37879 -2.59668,1.64444 -7.49642,2.6119 -9.91486,1.95771 z m 32.63771,-49.29257 c 0.68798,-1.11317 -4.22849,-4.62163 -5.16459,-3.68552 -0.69248,0.69247 2.53016,4.64159 3.78771,4.64159 0.4323,0 1.05189,-0.43023 1.37688,-0.95607 z m -9.95716,-15.11537 c 0.33708,-1.5347 1.25894,-3.32656 2.04859,-3.98191 0.78964,-0.65535 1.43572,-2.31654 1.43572,-3.69154 0,-2.12834 -0.22698,-2.31162 -1.5268,-1.23287 -2.96649,2.46197 -7.38232,9.97847 -8.051,13.7042 l -0.67727,3.77356 3.07895,-2.89054 c 1.69342,-1.5898 3.35473,-4.14621 3.69181,-5.6809 z m 16.03206,-9.57458 c 3.05567,-3.29713 3.09263,-4.35398 0.15225,-4.35398 -1.265,0 -2.84,-0.54 -3.5,-1.2 -1.9275,-1.9275 -3.21439,0.33649 -2.54299,4.47383 0.7225,4.45225 2.46882,4.77246 5.89074,1.08015 z m 63.2633,-18.49192 c -2.02121,-1.2818 -5.43996,-1.01412 -6.71816,0.52602 -1.69132,2.03791 0.35164,5.76943 4.22089,7.70957 l 3.18622,1.59766 0.31105,-4.50091 c 0.20155,-2.91642 -0.15049,-4.7936 -1,-5.33234 z m -59.81776,2.88794 c 1.71848,-4.09689 5.50358,-7.69937 8.77769,-8.3542 2.38576,-0.47715 3.22961,-0.28672 3.23127,0.7292 0.002,1.10066 2.77761,1.375 13.9124,1.375 7.65059,0 14.25972,-0.34765 14.68698,-0.77256 0.42725,-0.4249 -0.84033,-4.2499 -2.81685,-8.5 -6.812,-14.64777 -7.05927,-15.49435 -5.84392,-20.00781 1.36806,-5.08059 0.46913,-11.33173 -2.4776,-17.22917 -3.3173,-6.63908 -5.52708,-8.81195 -9.71326,-9.551 -4.00067,-0.7063 -4.60831,0.0883 -2.73884,3.58138 0.77455,1.44727 0.37561,3.1852 -1.70496,7.4274 -2.28971,4.66864 -3.2322,5.63485 -6.00362,6.15477 -1.80814,0.33921 -3.96591,0.35642 -4.79505,0.0383 -0.82914,-0.31817 -2.29503,-0.27583 -3.25753,0.0941 -1.47634,0.56739 -1.36572,0.76344 0.7074,1.25364 2.10781,0.4984 2.66156,1.53853 3.89259,7.31156 1.40514,6.58959 1.37566,6.90965 -1.40812,15.28721 -3.12436,9.40255 -4.58947,10.85038 -9.9603,9.84281 -2.44584,-0.45885 -4.23724,-0.16546 -5.98598,0.98036 -3.25234,2.13102 -3.17474,3.51331 0.18398,3.27733 2.08816,-0.14671 2.83027,0.36352 3.36235,2.31174 0.5861,2.146 0.78822,2.2522 1.42742,0.75 1.22618,-2.88169 2.45585,-1.97594 1.55968,1.14882 -1.36699,4.76641 3.08771,7.32492 4.96427,2.85118 z m 9.90888,-1.89922 c 1.39933,-4.0141 1.4347,-3.85078 -0.83408,-3.85078 -2.02726,0 -6.47111,5.26365 -5.37188,6.36288 0.35042,0.35042 1.6431,0.63712 2.87263,0.63712 1.60837,0 2.54349,-0.88347 3.33333,-3.14922 z m 33.09783,2.14922 c 0,-0.55 -0.19844,-1 -0.44098,-1 -0.24254,0 -0.7191,0.45 -1.05902,1 -0.33992,0.55 -0.14148,1 0.44098,1 0.58246,0 1.05902,-0.45 1.05902,-1 z m 7.04182,-20.07814 c 1.30962,-2.44705 0.60879,-4.92186 -1.3938,-4.92186 -1.31203,0 -2.60232,2.81631 -2.63437,5.75 -0.022,2.01739 2.81774,1.43357 4.02817,-0.82814 z m 3.96899,-20.40165 c -1.68228,-3.14339 -3.01081,-3.24055 -3.01081,-0.22021 0,2.87436 2.01152,5.08848 3.37979,3.72021 0.63973,-0.63973 0.51166,-1.85452 -0.36898,-3.5 z m -8.66148,-10.46293 c 3.09823,-1.17794 4.03069,-3.93653 2.59437,-7.6752 l -1.10724,-2.88208 -1.36182,3.92868 c -0.749,2.16077 -2.07167,4.32593 -2.93926,4.81146 -0.8676,0.48553 -1.31642,1.30512 -0.9974,1.82132 0.7144,1.15592 0.7602,1.15587 3.81135,-0.004 z m 1.65067,-16.55728 c 0,-0.825 -0.45,-1.5 -1,-1.5 -0.55,0 -1,0.675 -1,1.5 0,0.825 0.45,1.5 1,1.5 0.55,0 1,-0.675 1,-1.5 z m -29,-5.61009 c 0,-2.73526 -2.89498,-8.87173 -4.19098,-8.88359 -1.54722,-0.0142 -1.76874,2.09987 -0.75027,7.16011 1.67955,8.34478 1.84896,8.65307 3.51267,6.39244 0.78572,-1.06762 1.42858,-3.16865 1.42858,-4.66896 z m 17.36287,2.07537 c 1.26278,-1.15763 -0.18331,-2.96528 -2.3722,-2.96528 -1.04021,0 -2.35813,-0.7875 -2.92872,-1.75 -0.95326,-1.60803 -1.19886,-1.54719 -3.02745,0.75 -3.48342,4.37609 -2.73333,5.82774 2.7155,5.25531 2.6125,-0.27445 5.13829,-0.85497 5.61287,-1.29003 z m 68.08328,155.94759 c -1.03052,-1.66742 1.28721,-3.57951 2.66672,-2.2 1.15392,1.15392 0.43172,3.28713 -1.11287,3.28713 -0.48508,0 -1.18431,-0.48921 -1.55385,-1.08713 z"
         id="path3314"
         inkscape:connector-curvature="0" />
      <path
         style="fill:#fe8857"
         d="m 407.06232,577.74037 c -1.91354,-0.77213 -1.49144,-4.09214 0.93806,-7.37821 2.86087,-3.86954 5.32331,-3.79996 6.71411,0.18971 1.64422,4.7166 1.39006,5.55326 -2.05139,6.75295 -3.38478,1.17994 -3.696,1.20415 -5.60078,0.43555 z m 118.75,-2.04716 c -3.02527,-1.11237 -5,-3.67191 -5,-6.48073 0,-2.57032 0.21518,-2.76504 2,-1.80983 1.67387,0.89583 2,0.76049 2,-0.82996 0,-2.65406 3.77227,-7.17004 5.98925,-7.17004 2.33074,0 2.92714,1.70629 1.88534,5.39398 -0.59302,2.09916 -0.34476,3.69876 0.90392,5.82425 1.65039,2.80924 1.64132,2.98915 -0.21964,4.35602 -1.96899,1.44622 -4.83511,1.71782 -7.55887,0.71631 z m 18.98368,-8.5265 c -2.04493,-2.76592 -2.14901,-3.41795 -1.03662,-6.4942 1.44029,-3.98305 0.75476,-5.18925 -1.97897,-3.48201 -2.5287,1.57921 -6.92469,1.55677 -7.41595,-0.0378 -0.2118,-0.6875 -0.63298,-2.39479 -0.93596,-3.79397 -0.30298,-1.39919 -2.14739,-4.59319 -4.0987,-7.09778 -1.95132,-2.5046 -3.45035,-5.40981 -3.33119,-6.45603 0.32658,-2.86732 -2.21471,-11.18091 -3.82671,-12.51875 -1.12458,-0.93333 -1.94643,-0.68078 -3.96949,1.21976 -2.40372,2.25816 -2.62616,2.29435 -3.84622,0.62585 -0.71222,-0.974 -1.56614,-3.449 -1.89761,-5.5 -0.33146,-2.05104 -2.63529,-8.22913 -5.11962,-13.72913 -2.48433,-5.5 -4.51914,-10.7875 -4.5218,-11.75 -0.007,-2.38726 3.24224,-2.23945 5.49516,0.25 2.76597,3.05636 4.91244,2.64122 3.87786,-0.75 -0.46143,-1.5125 -0.80217,-4.8875 -0.75721,-7.5 0.0535,-3.10804 -0.33871,-4.75 -1.13459,-4.75 -2.3216,0 -6.48606,-4.14139 -6.48606,-6.45014 0,-1.26773 -0.68635,-2.87459 -1.52523,-3.5708 -1.36697,-1.13448 -1.36697,-1.4407 0,-2.95118 0.83888,-0.92695 1.52523,-2.62745 1.52523,-3.77888 0,-2.24797 -5.85307,-10.58421 -7.50356,-10.68697 -0.54804,-0.0341 -1.25843,2.41297 -1.57864,5.43797 -0.7343,6.93674 -1.51265,8.66079 -4.23105,9.37167 -2.83637,0.74172 -3.94394,-0.6153 -6.42471,-7.87167 -1.5821,-4.62772 -2.04639,-8.48446 -2.03002,-16.86273 0.012,-6.11546 -0.41243,-11.14123 -0.97106,-11.5 -0.54576,-0.3505 -1.9377,-2.50236 -3.0932,-4.78191 -1.68452,-3.32319 -2.94987,-4.41328 -6.38433,-5.5 -3.81426,-1.2069 -4.27753,-1.68396 -4.22957,-4.35536 0.0296,-1.65 0.39065,-4.40683 0.80229,-6.12629 0.56047,-2.3412 0.32094,-3.55376 -0.95381,-4.82852 -0.93623,-0.93622 -1.66362,-3.06052 -1.61641,-4.72066 0.0802,-2.82237 -0.0288,-2.91471 -1.6788,-1.42148 -1.8027,1.63142 -4.10713,2.14344 -4.10713,0.91255 0,-0.37641 0.72745,-3.27699 1.61655,-6.44572 1.24441,-4.43506 2.09823,-5.83137 3.709,-6.0656 2.5917,-0.37688 3.4443,-3.23781 3.57477,-11.99526 0.0548,-3.68004 0.58299,-6.98969 1.17371,-7.35477 1.35111,-0.83504 5.9156,3.35678 5.95638,5.47006 0.0256,1.32603 0.19191,1.29841 1.04969,-0.17431 1.2927,-2.21943 6.48,-2.33875 7.31291,-0.16821 1.17993,3.07485 0.57347,5.00225 -2.39301,7.6053 -4.18948,3.6762 -3.7821,5.23598 0.73519,2.81485 3.91461,-2.09811 6.93302,-2.49981 8.98537,-1.19581 1.46298,0.92954 3.38272,6.18369 6.35278,17.38696 1.21122,4.5688 2.76278,8.98191 3.44792,9.80691 4.55306,5.48248 7.79515,19.97377 6.48554,28.98865 -0.6778,4.66572 -3.36252,5.15793 -5.50762,1.00976 -1.98355,-3.83576 -3.89172,-3.4383 -4.31782,0.89938 -0.64812,6.59797 5.25682,10.82545 7.68305,5.50045 2.4384,-5.35169 4.34982,-0.40998 9.12905,23.60176 2.96629,14.90322 3.91937,18.10392 6.99041,23.47572 1.5798,2.76335 3.66841,7.89046 4.64136,11.39356 1.7129,6.16732 1.70981,6.41256 -0.0975,7.7341 -1.68588,1.23275 -1.71877,1.53569 -0.33989,3.13072 1.64841,1.90679 6.10668,11.20401 7.32043,15.2659 0.41086,1.375 1.86562,4.42663 3.2328,6.78139 1.91428,3.29709 2.9178,4.14427 4.36497,3.68496 1.50569,-0.47789 2.87442,0.95685 6.88644,7.21861 4.97258,7.76093 6.1559,12.18157 3.75752,14.03736 -2.96694,2.29572 -4.52353,2.07527 -6.76632,-0.95826 z m -23.99959,-54.95843 c -1.77175,-4.48917 -2.73992,-5.4498 -4.11087,-4.07885 -1.38779,1.38779 -0.43932,5.56427 1.764,7.76758 2.54244,2.54244 3.9395,0.3466 2.34687,-3.68873 z m -24.09636,-71.55563 c 0.59586,-1.5125 1.64286,-3.52605 2.32666,-4.47456 0.99864,-1.38522 0.96846,-2.36908 -0.15336,-5 -0.76816,-1.80149 -1.44507,-4.95187 -1.50425,-7.00085 -0.0592,-2.04897 -0.62841,-4.24622 -1.26497,-4.88278 -1.58522,-1.58522 -4.41048,-0.36463 -3.66325,1.58262 0.32716,0.85257 0.29512,3.54882 -0.0712,5.99165 -0.64169,4.27909 -0.75549,4.40077 -3.1117,3.32721 -1.34512,-0.61288 -2.44566,-1.88699 -2.44566,-2.83136 0,-2.5392 -2.46255,-4.3176 -3.7723,-2.72426 -0.57071,0.69428 -1.1556,1.93733 -1.29976,2.76233 -0.40396,2.31189 1.18958,9 2.1444,9 0.46736,0 1.74319,0.95899 2.83517,2.13109 2.14688,2.30441 5.89525,4.61348 7.74466,4.77086 0.6337,0.0539 1.6397,-1.13945 2.23556,-2.65195 z m -11.70442,-21.61307 c 0.54843,-0.97999 0.73342,-2.83257 0.41109,-4.11684 -0.45018,-1.79367 -1.08003,-2.20586 -2.7167,-1.77786 -1.37916,0.36066 -2.45626,-0.0247 -3.05386,-1.09253 -1.3736,-2.45449 -2.19739,-2.0639 -5.14621,2.44004 -4.0268,6.15043 -3.68415,6.80756 3.41545,6.55002 4.65142,-0.16873 6.32901,-0.64261 7.09023,-2.00283 z m -4.64601,-15.69729 c 0.73847,-1.19486 -1.36589,-6.93964 -2.54204,-6.93964 -0.41916,0 -0.96896,1.0821 -1.22179,2.40467 -0.75101,3.92866 2.05158,7.30545 3.76383,4.53497 z m -4.76466,-17.51676 c 0.26007,-2.78815 0.20246,-2.83341 -1.25,-0.98175 -1.84032,2.34613 -2.00058,4.88247 -0.27264,4.31508 0.6875,-0.22574 1.37269,-1.72574 1.52264,-3.33333 z m -62.30759,177.16413 c -0.9261,-1.41341 -2.0535,-2.34136 -2.50534,-2.06211 -2.68298,1.65817 -0.81564,-8.70327 2.15512,-11.95823 1.56663,-1.71651 2.12848,0.29507 1.01453,3.63228 -1.03099,3.08867 -1.00139,3.17238 0.46012,1.30105 2.84946,-3.64849 6.66183,-10.58203 6.11766,-11.12619 -0.29472,-0.29472 -1.4448,-0.0494 -2.55575,0.54517 -4.88729,2.6156 -5.27895,0.69972 -1.62949,-7.97101 1.38705,-3.29547 4.29668,-7.76655 6.46585,-9.93572 2.16917,-2.16917 5.046,-6.09681 6.39295,-8.7281 1.34695,-2.63128 3.38732,-5.35046 4.53415,-6.04262 1.14683,-0.69216 2.08515,-2.12811 2.08515,-3.19099 0,-2.96445 1.70818,-3.34939 2.41238,-0.54363 0.34415,1.3712 1.29972,2.49309 2.1235,2.49309 2.01473,0 9.72621,-8.16408 12.07455,-12.78324 1.03926,-2.04422 2.00384,-3.90603 2.14351,-4.13737 0.13967,-0.23134 1.37717,0.63461 2.75,1.92431 2.72766,2.56251 3.17018,4.92218 1.27795,6.81441 -0.66996,0.66996 -1.27021,2.71833 -1.33388,4.55193 -0.0735,2.11675 -1.26352,4.76203 -3.25972,7.24603 -1.72917,2.15173 -3.44553,5.48086 -3.81413,7.39808 -0.71149,3.70068 -8.1225,19.12499 -10.80392,22.48585 -1.52224,1.90796 -1.58358,1.81592 -1.33295,-2 0.38969,-5.93333 -2.00282,-5.14329 -6.05669,2 -5.96318,10.50766 -6.71966,15.23395 -1.6806,10.5 3.12651,-2.93721 3.71498,-2.4128 1.96376,1.75 -1.01749,2.41868 -1.99812,3.25 -3.8337,3.25 -5.37675,0 -7.16018,2.11799 -3.88006,4.60795 1.54515,1.17294 1.26209,1.33217 -2.41821,1.36025 -2.29252,0.0175 -4.84652,0.29209 -5.67556,0.61022 -0.93546,0.35897 -2.1462,-0.39657 -3.19118,-1.99141 z m 16.64888,-30.4272 c 2.81591,-4.03448 3.15304,-4.22818 4.78641,-2.75 2.25212,2.03814 4.99065,2.03784 5.77288,-6.3e-4 0.38028,-0.99098 -0.38568,-2.51449 -2.03138,-4.04047 -3.20578,-2.97256 -3.33129,-4.66699 -0.48566,-6.55641 1.68481,-1.11868 2.00856,-2.01978 1.48094,-4.12198 -0.78066,-3.11042 -4.36407,-3.75181 -5.25353,-0.94032 -0.3045,0.9625 -2.09037,5.14499 -3.96861,9.29442 -1.87824,4.14942 -3.41498,8.70682 -3.41498,10.12755 0,1.42073 -0.675,3.14334 -1.5,3.82803 -0.825,0.68469 -1.47996,1.75229 -1.45546,2.37244 0.0465,1.17682 1.02802,0.0104 6.06939,-7.21263 z m 77.32819,8.59019 c -3.75594,-7.59509 -7.44212,-17.60955 -7.44212,-20.21845 0,-4.78583 7.31687,3.03671 10.08476,10.78171 1.95566,5.47227 3.47393,6.40709 5.16476,3.18003 1.21189,-2.31296 1.5414,-2.45014 2.65687,-1.10608 0.70037,0.84389 1.5172,3.352 1.81518,5.57357 0.44489,3.31694 0.24439,4.03922 -1.12129,4.03922 -0.91468,0 -1.9536,0.7875 -2.30872,1.75 -0.74041,2.00677 -2.24188,3.21257 -4.02785,3.23469 -0.67997,0.008 -2.84968,-3.24719 -4.82159,-7.23469 z m -83.11714,-30.5 c 0.30703,-0.9625 1.67145,-5.42096 3.03204,-9.90769 1.36059,-4.48672 3.0181,-9.21172 3.68335,-10.5 2.7608,-5.34632 7.95963,-8.94465 7.95963,-5.50919 0,0.73321 -1.4625,4.68539 -3.25,8.78261 -4.37551,10.02933 -13.54554,23.78177 -11.42502,17.13427 z m 71.34169,-7.91667 c -0.36667,-0.36666 -0.66667,-1.50024 -0.66667,-2.51905 0,-1.51289 -0.504,-1.73235 -2.75,-1.19744 -1.5125,0.36022 -3.98919,1.36681 -5.50375,2.23687 -2.35693,1.35398 -3.22153,1.39264 -6,0.2683 -1.78544,-0.7225 -5.04625,-1.70725 -7.24625,-2.18834 -8.4885,-1.85623 -9.99643,-2.54397 -10.31336,-4.70371 -0.17234,-1.17447 -1.21739,-2.42233 -2.32232,-2.77302 -1.25781,-0.39922 -1.79497,-1.19527 -1.43664,-2.12907 0.31477,-0.82029 0.57232,-1.8986 0.57232,-2.39624 0,-0.49763 1.54156,-1.54889 3.42568,-2.33613 2.51714,-1.05173 6.47,-1.32824 14.9042,-1.04257 12.63572,0.42797 13.1671,0.18196 12.01793,-5.56387 -0.50942,-2.54712 -0.29235,-2.98906 1.46817,-2.98906 1.13629,0 2.3441,-0.45 2.68402,-1 0.33992,-0.55 1.63854,-1 2.88582,-1 1.98638,0 2.21062,0.4033 1.80706,3.25 -0.60123,4.2411 -3.71675,8.59239 -6.68568,9.33755 -1.298,0.32578 -3.14352,1.4581 -4.10115,2.51627 -1.33528,1.47547 -2.51795,1.77821 -5.0736,1.29877 -2.1971,-0.41218 -3.33245,-0.23587 -3.33245,0.5175 0,0.62848 0.5625,1.29001 1.25,1.47008 0.6875,0.18007 2.92268,0.86472 4.96706,1.52143 3.77878,1.21386 7.27657,0.33635 8.95672,-2.247 1.01261,-1.55696 3.58821,0.97526 4.30324,4.23077 0.98873,4.50165 -1.63163,9.61669 -3.81035,7.43796 z m -30.66667,-12.89235 c 0,-0.85746 -0.45,-1.2809 -1,-0.94098 -0.55,0.33992 -1,1.04148 -1,1.55902 0,0.51754 0.45,0.94098 1,0.94098 0.55,0 1,-0.70156 1,-1.55902 z m -22.85534,7.70303 c -2.42519,-1.86526 -2.69082,-5.73085 -0.38097,-5.54401 0.67997,0.055 2.60043,0.1675 4.26769,0.25 3.71841,0.184 4.82648,2.54459 2.43491,5.18725 -2.18218,2.41128 -3.30073,2.43017 -6.32163,0.10676 z m -1.44402,-20.88107 c -4.40805,-0.34585 -4.74527,-0.55537 -4.13598,-2.56975 0.36486,-1.20625 1.46717,-3.54319 2.44958,-5.19319 0.98242,-1.65 3.00188,-6.45206 4.48769,-10.67124 2.76875,-7.86223 6.68939,-13.03745 8.50297,-11.22386 0.53812,0.53812 1.487,3.51091 2.10862,6.60619 0.99695,4.96413 0.86914,6.49222 -1.08381,12.95834 -2.22757,7.37538 -4.4078,10.98397 -6.4347,10.65032 -0.60225,-0.0991 -3.25472,-0.3497 -5.89437,-0.55681 z m 5.69237,-7.84473 c 0.33384,-0.86998 0.59268,-2.33248 0.57519,-3.25 -0.0274,-1.43904 -0.2335,-1.40155 -1.5,0.27292 -1.63909,2.16706 -1.94086,4.55887 -0.57519,4.55887 0.49116,0 1.16616,-0.7118 1.5,-1.58179 z m 1.60894,-28.05705 c -0.001,-1.17637 1.76364,-7.25137 3.92158,-13.5 6.20847,-17.97755 5.94462,-17.42611 7.55233,-15.78435 2.16007,2.20583 2.75216,20.89772 0.83974,26.51036 -0.82698,2.42706 -2.0238,4.47546 -2.6596,4.55202 -0.6358,0.0765 -3.06762,0.18905 -5.40405,0.25 -3.70728,0.0967 -4.24829,-0.16146 -4.25,-2.02803 z m 24.65577,-69.4929 c -3.68807,-2.14389 0.40252,-13.2849 4.65548,-12.67953 3.79586,0.5403 3.20097,10.10266 -0.81161,13.04596 -1.29506,0.94995 -1.6351,0.91753 -3.84387,-0.36643 z"
         id="path3312"
         inkscape:connector-curvature="0" />
      <path
         style="fill:#fe7949"
         d="m 407.26824,575.33133 c -0.92771,-1.50108 3.65345,-6.21931 4.86362,-5.00914 1.28779,1.28779 0.21956,3.72157 -2.20237,5.01775 -1.41886,0.75935 -2.18816,0.75686 -2.66125,-0.009 z m 121.74408,-2.12868 c -1.47148,-1.47148 -1.55093,-3.46508 -0.17206,-4.31727 1.1522,-0.7121 5.04928,3.58331 4.32064,4.76227 -0.7007,1.13376 -2.7944,0.90918 -4.14858,-0.445 z m 16.33024,-6.39419 c -1.81038,-2.76299 -1.50301,-5.62367 0.94606,-8.80472 1.42054,-1.84511 1.51773,-1.83094 3.43047,0.5 2.94238,3.58569 3.47554,6.81898 1.48681,9.0165 -2.31077,2.55337 -3.84605,2.36699 -5.86334,-0.71178 z m -131.13515,-4.8186 c -0.80247,-2.09121 4.43803,-12.11969 9.06523,-17.3477 2.22182,-2.51031 5.16468,-6.62534 6.53968,-9.14452 4.69693,-8.60539 6.74955,-4.35275 2.2349,4.63029 -1.59622,3.1761 -4.2885,8.51476 -5.98285,11.8637 -2.84668,5.6266 -8.09841,11.41102 -10.36016,11.41102 -0.52506,0 -1.19862,-0.63576 -1.4968,-1.41279 z m 122.32821,-7.34046 c -1.9628,-2.16887 -6.69788,-12.20731 -6.72012,-14.24675 -0.009,-0.825 -0.91043,-2.85 -2.00318,-4.5 -1.09275,-1.65 -1.99256,-3.9 -1.99957,-5 -0.007,-1.1 -0.65829,-3.2375 -1.44729,-4.75 -1.29464,-2.48182 -1.26949,-2.75 0.25788,-2.75 1.95932,0 4.67814,4.91219 9.27085,16.75 2.74315,7.0705 3.53525,8.25 5.54039,8.25 2.79903,0 4.31357,4.16746 2.36696,6.51299 -1.63003,1.96407 -3.32507,1.87837 -5.26592,-0.26624 z m -120.7233,-14.18165 c 0,-2.24928 2.34148,-6.7996 4.92196,-9.5651 1.53961,-1.65 3.6257,-4.44839 4.63575,-6.21864 2.38701,-4.18356 5.115,-5.51199 3.08956,-1.5045 -0.75698,1.49773 -2.14403,5.07236 -3.08236,7.94362 -1.02899,3.14874 -2.89903,6.22432 -4.7122,7.75 -3.12492,2.62945 -4.85271,3.19721 -4.85271,1.59462 z m 24,-5.10559 c 0,-1.12227 1.01182,-3.40905 2.24848,-5.08173 2.11607,-2.86214 2.14552,-3.11651 0.5,-4.31975 -2.14917,-1.57151 -2.27817,-4.41754 -0.23574,-5.20129 2.41712,-0.92754 4.54201,1.52139 3.91123,4.50768 -0.8149,3.85799 -4.63115,12.13558 -5.59491,12.13558 -0.45598,0 -0.82906,-0.91822 -0.82906,-2.04049 z m 2,-20.85548 c 0,-1.96011 0.974,-4.03472 2.75,-5.85747 1.5125,-1.55232 4.6151,-5.00917 6.89467,-7.68188 3.20362,-3.75613 4.56594,-4.69336 6,-4.12779 1.65707,0.6535 1.47573,1.06998 -1.69697,3.8974 -4.70299,4.19118 -8.10074,9.17447 -8.88448,13.03039 -0.45195,2.22355 -1.28082,3.22825 -2.85025,3.45487 -1.86806,0.26975 -2.21297,-0.15349 -2.21297,-2.71552 z m 68.20714,-4.01619 c -0.66889,-1.87668 -1.02559,-3.60273 -0.79267,-3.83564 0.76857,-0.76857 2.71916,3.81801 2.36041,5.55021 -0.2331,1.12545 -0.76147,0.54759 -1.56774,-1.71457 z m 11.8616,-3.58784 c -1.25296,-2.75 -3.78738,-6.42251 -5.63206,-8.16113 -4.24401,-4 -5.29665,-7.73113 -2.92155,-10.35558 2.12181,-2.34459 3.23487,-1.85331 3.23487,1.42779 0,1.34615 1.24289,4.61686 2.76198,7.26824 4.95672,8.65131 5.63409,10.2781 5.23176,12.56482 -0.32792,1.86374 -0.79289,1.38675 -2.675,-2.74414 z m -94.06874,-3.60421 c 0,-3.59676 3.23645,-11.65859 5.97996,-14.89579 3.79472,-4.47756 3.77684,-3.00792 -0.0748,6.14529 -3.25115,7.72624 -5.90519,11.65908 -5.90519,8.7505 z m 50.72713,-3.89579 c -1.39842,-1.1 -3.59661,-2.03163 -4.88486,-2.07029 -1.28825,-0.0387 -3.24227,-0.42496 -4.34227,-0.85846 -1.72127,-0.67833 -1.51221,-0.8989 1.5,-1.58265 3.66908,-0.83285 13.25645,-0.75704 16.25,0.1285 2.26249,0.66928 2.22968,2.63882 -0.0787,4.72791 -2.43875,2.20704 -5.351,2.08805 -8.44413,-0.34501 z m -35.68172,-3.44528 c -1.04578,-1.26009 -0.98526,-1.64057 0.34197,-2.14988 2.18128,-0.83703 4.87651,0.30315 4.36291,1.84569 -0.62299,1.87105 -3.26284,2.04173 -4.70488,0.30419 z m 25.15459,-6.75472 c -2.91069,-2.91069 -1.33227,-3.80175 6.55,-3.69764 5.88761,0.0778 6.97502,0.28649 4.52505,0.86858 -1.77373,0.42142 -4.34539,1.50036 -5.71482,2.39764 -2.97311,1.94806 -3.77875,2.0129 -5.36023,0.43142 z m 43.05,-5.32626 c -1.92226,-0.81456 -3.26261,-2.11185 -3.28088,-3.17547 -0.017,-0.98905 -0.47269,-5.17327 -1.01268,-9.29827 -0.97333,-7.43522 -0.35589,-19 1.0144,-19 1.62294,0 7.6903,27.68975 6.86812,31.34425 -0.29528,1.31253 -0.75775,1.32921 -3.58896,0.12949 z m -19.17105,-2.05707 c 0.048,-1.16495 0.28494,-1.4019 0.60416,-0.60417 0.28887,0.72187 0.25335,1.58437 -0.0789,1.91667 -0.3323,0.33229 -0.56864,-0.25834 -0.52522,-1.3125 z m -54.07895,-8.12461 c 0,-2.18709 2.68599,-6.29206 4.11707,-6.29206 0.55201,0 0.864,1.6875 0.69329,3.75 -0.2493,3.01222 -0.75303,3.81287 -2.56036,4.06955 -1.63656,0.23243 -2.25,-0.18402 -2.25,-1.52749 z m 8,1.16548 c 0,-0.37901 0.77653,-2.87548 1.72562,-5.54771 1.34374,-3.78337 1.45962,-5.12459 0.52363,-6.06058 -0.93599,-0.93599 -1.61193,-0.83101 -3.05436,0.47438 -1.01881,0.922 -2.12352,1.67637 -2.45492,1.67637 -1.25129,0 4.45838,-14.86953 6.37606,-16.60501 2.60759,-2.35983 3.43504,-1.07965 4.31195,6.67121 0.53057,4.68964 0.20508,7.14332 -1.67428,12.6215 -1.51084,4.40396 -2.93559,6.91623 -4.04329,7.12955 -0.94073,0.18117 -1.71041,0.0193 -1.71041,-0.35971 z m 41.17097,-5.20754 c -1.71052,-3.32822 -3.63837,-23.85935 -2.57641,-27.43811 0.45768,-1.54238 0.80117,-1.51095 3.97902,0.36403 1.91295,1.12866 3.86616,2.78831 4.34046,3.6881 0.4743,0.89979 0.78464,6.29611 0.68965,11.99183 -0.14864,8.91254 -0.43844,10.55015 -2.07933,11.75 -2.49182,1.82206 -3.26662,1.75872 -4.35339,-0.35585 z m 16.43602,-24.83179 c -0.33385,-0.86998 -0.60699,-4.43545 -0.60699,-7.92327 0,-5.34239 -0.40271,-6.82008 -2.55606,-9.3792 -2.1288,-2.52993 -2.36897,-3.38731 -1.43677,-5.12913 1.6662,-3.11333 0.86801,-5.00727 -2.74954,-6.52411 -2.97961,-1.24936 -3.32995,-1.19589 -4.32312,0.65986 -0.70449,1.31637 -0.76041,2.9521 -0.16061,4.69852 1.06897,3.11247 0.59143,5.17912 -1.19672,5.17912 -1.80056,0 -3.57718,-4.45262 -3.57718,-8.96527 0,-5.08962 0.82416,-7.03473 2.98069,-7.03473 1.46726,0 1.65044,-0.55087 1.08074,-3.25 -0.58115,-2.75336 -1.07976,-3.20867 -3.26285,-2.97953 -2.03292,0.21338 -3.02245,-0.48473 -4.68773,-3.30716 -2.51678,-4.26563 -2.63682,-6.26737 -0.55415,-9.2408 1.15961,-1.65557 2.55918,-2.22251 5.48658,-2.22251 3.56438,0 4.0693,0.33368 5.42894,3.58777 0.82449,1.97327 2.48955,7.71077 3.70015,12.75 1.3699,5.70236 3.0506,10.10629 4.45073,11.66223 3.11718,3.46406 4.15129,6.63712 5.37659,16.49752 0.74804,6.0197 0.74645,9.10831 -0.005,10.51318 -1.28271,2.39678 -2.56474,2.55101 -3.38728,0.40751 z m -54.60699,-4.86549 c 0,-2.77094 9.16368,-26.55272 10.23139,-26.55272 0.64932,0 0.76941,1.38663 0.32476,3.75 -0.90749,4.82336 -2.55618,16.8783 -2.83788,20.75 -0.19631,2.69818 -0.59554,3.03122 -3.96827,3.31037 -2.87092,0.2376 -3.75,-0.0572 -3.75,-1.25765 z m 24.56476,-15.44794 c -0.3043,-0.49236 0.0752,-1.13636 0.84322,-1.43109 1.46629,-0.56268 2.59202,0.0857 2.59202,1.49298 0,1.11676 -2.73727,1.06745 -3.43524,-0.0619 z m -5.22893,-1.672 c -1.0728,-2.79567 1.2263,-3.68922 2.46986,-0.95991 0.95475,2.09545 0.8935,2.52713 -0.35851,2.52713 -0.83047,0 -1.78058,-0.70525 -2.11135,-1.56722 z m 1.65801,-8.18278 c -0.003,-0.9625 -0.65048,-2.98514 -1.43798,-4.49476 -0.85445,-1.63796 -1.21076,-4.10697 -0.88363,-6.12287 0.71884,-4.42967 -1.29226,-5.77113 -3.78721,-2.52619 -2.09674,2.72703 -2.38768,1.63419 -0.7872,-2.95696 0.60381,-1.73207 1.71843,-3.14922 2.47695,-3.14922 0.75852,0 2.12004,-1.13078 3.0256,-2.51284 l 1.64648,-2.51285 2.37658,2.56437 c 2.46145,2.65595 3.01475,5.90422 1.43186,8.4061 -0.62161,0.98249 -0.28385,2.32986 1.05557,4.21092 1.96309,2.75689 1.96279,2.77962 -0.0909,6.80521 -2.10221,4.12068 -5.01498,5.44727 -5.0261,2.28909 z m 0.0682,-32.08333 c -0.0628,-6.41039 0.98085,-7.63111 3.33433,-3.90008 0.7755,1.22943 0.49214,2.73703 -1.11653,5.94048 l -2.15577,4.29293 -0.062,-6.33333 z m 9.11085,-0.82586 c 0.19497,-1.01244 1.02334,-1.84081 1.8408,-1.84081 2.14351,0 1.83391,2.90567 -0.3545,3.32712 -1.3364,0.25736 -1.74367,-0.14991 -1.48631,-1.48631 z m -6.17289,-15.76938 c 0,-3.55782 2.09642,-6.57143 4.57143,-6.57143 1.6312,0 1.86405,2.21141 0.50157,4.76357 -0.50985,0.95504 -1.17073,2.52393 -1.46862,3.48643 -1.00621,3.25115 -3.60438,2.04117 -3.60438,-1.67857 z"
         id="path3310"
         inkscape:connector-curvature="0" />
      <path
         style="fill:#fe6d39"
         d="m 546.23233,564.82795 c -0.73508,-3.9183 0.51118,-6.04942 2.98297,-5.1009 2.11262,0.81068 3.11382,5.34797 1.58624,7.18859 -2.07071,2.49505 -3.86312,1.67609 -4.56921,-2.08769 z m -129.42001,-6.42391 c 0,-3.03947 9.11877,-15.21596 10.42029,-13.91443 0.92807,0.92806 -7.01571,14.42867 -8.67029,14.73534 -0.9625,0.17839 -1.75,-0.19102 -1.75,-0.82091 z m 119.97994,-6.52556 c -0.69572,-0.83829 -1.04022,-1.74888 -0.76557,-2.02353 0.90557,-0.90557 3.78563,0.73369 3.78563,2.15469 0,1.83458 -1.44056,1.77202 -3.02006,-0.13116 z m -8.97994,-20.03485 c 0,-0.85746 0.45,-1.2809 1,-0.94098 0.55,0.33992 1,1.04148 1,1.55902 0,0.51754 -0.45,0.94098 -1,0.94098 -0.55,0 -1,-0.70156 -1,-1.55902 z m -46.6771,-33.0419 c -0.66812,-1.74108 1.18188,-3.35944 3.86808,-3.38377 2.32725,-0.0211 3.22895,1.77378 1.77267,3.52849 -1.60845,1.93806 -4.87366,1.85429 -5.64075,-0.14472 z m 29.30064,-24.93774 c -0.34295,-0.8937 -0.57424,-3.05061 -0.51397,-4.79313 0.0954,-2.75992 0.2217,-2.59643 0.97976,1.2687 0.89242,4.55025 0.64532,6.41995 -0.46579,3.52443 z m -71.44619,-1.13198 c 0.17746,-0.915 0.88515,-1.85092 1.57265,-2.07983 1.83866,-0.6122 1.526,2.43058 -0.32265,3.13997 -1.09668,0.42084 -1.475,0.1 -1.25,-1.06014 z m 48.82265,-5.56868 c 0,-1.30813 0.58618,-3.18006 1.30261,-4.15985 1.16266,-1.59003 1.43951,-1.61648 2.57677,-0.24617 1.95237,2.35247 1.01039,6.08998 -1.62938,6.46489 -1.79223,0.25454 -2.25,-0.16434 -2.25,-2.05887 z m -40.07983,-5.58378 c -2.08283,-1.35385 -2.44649,-2.16976 -1.88772,-4.2353 0.90956,-3.36224 2.85149,-6.9416 3.76608,-6.9416 1.05416,0 3.22074,9.7862 2.55226,11.52825 -0.69342,1.80701 -1.168,1.76937 -4.43062,-0.35135 z m 40.29865,-4.4269 c -1.57537,-1.91918 -2.62849,-12.37878 -1.32732,-13.18294 1.63712,-1.0118 6.1085,3.98215 6.1085,6.82239 0,3.14936 -1.67227,7.61055 -2.8528,7.61055 -0.49627,0 -1.36404,-0.5625 -1.92838,-1.25 z m 14.44172,-31.57261 c -1.86444,-2.06018 -2.18667,-4.17739 -0.63579,-4.17739 1.02355,0 3.35916,4.94943 2.66376,5.64482 -0.20209,0.20209 -1.11468,-0.45825 -2.02797,-1.46743 z m -12.93137,-1.78156 c -0.40104,-0.40104 -0.71549,-1.66666 -0.69876,-2.8125 0.0281,-1.92359 0.11018,-1.94626 1.07077,-0.29565 1.11861,1.92211 0.83248,4.31265 -0.37201,3.10815 z m -0.99796,-7.47599 c 0.35361,-1.3522 0.8069,-1.8055 1.05655,-1.05655 0.24048,0.72144 -0.0382,1.78716 -0.61931,2.36826 -0.74207,0.74207 -0.87221,0.35164 -0.43724,-1.31171 z m -17.59957,-3.67388 c -0.6224,-1.16296 -1.13164,-3.07536 -1.13164,-4.24977 0,-1.64239 0.51938,-2.06153 2.25,-1.81574 2.70471,0.38413 3.41717,3.52488 1.41938,6.25703 -1.37796,1.88447 -1.42876,1.88063 -2.53774,-0.19152 z m 22.41845,-5.49596 c -3.08393,-8.77543 -3.40015,-9.19567 -5.49373,-7.30101 -1.65955,1.50187 -1.90492,1.43109 -3.50518,-1.01122 -3.45468,-5.27252 0.55286,-10.21436 5.39932,-6.65809 3.79983,2.78826 9.18544,20.22032 6.24704,20.22032 -0.44135,0 -1.6327,-2.3625 -2.64745,-5.25 z m -23.99432,-8.65976 c -0.30924,-0.50037 -0.28325,-1.63685 0.0578,-2.52552 0.466,-1.21437 0.94889,-1.34284 1.94381,-0.51713 0.72807,0.60425 1.07738,1.74073 0.77622,2.52552 -0.62182,1.62045 -1.9438,1.86656 -2.77779,0.51713 z"
         id="path3308"
         inkscape:connector-curvature="0" />
    </g>
  </g>
</svg>
