<?xml version="1.0" encoding="UTF-8" standalone="no"?>
<!-- Created with Inkscape (http://www.inkscape.org/) -->

<svg
   xmlns:dc="http://purl.org/dc/elements/1.1/"
   xmlns:cc="http://creativecommons.org/ns#"
   xmlns:rdf="http://www.w3.org/1999/02/22-rdf-syntax-ns#"
   xmlns:svg="http://www.w3.org/2000/svg"
   xmlns="http://www.w3.org/2000/svg"
   xmlns:sodipodi="http://sodipodi.sourceforge.net/DTD/sodipodi-0.dtd"
   xmlns:inkscape="http://www.inkscape.org/namespaces/inkscape"
   width="324.83459"
   height="234.47639"
   id="svg2"
   version="1.1"
   inkscape:version="0.48.2 r9819"
   sodipodi:docname="3-Asvg.svg">
  <defs
     id="defs4" />
  <sodipodi:namedview
     id="base"
     pagecolor="#ffffff"
     bordercolor="#666666"
     borderopacity="1.0"
     inkscape:pageopacity="0.0"
     inkscape:pageshadow="2"
     inkscape:zoom="0.98994949"
     inkscape:cx="254.46065"
     inkscape:cy="76.488094"
     inkscape:document-units="px"
     inkscape:current-layer="layer1"
     showgrid="false"
     fit-margin-top="5"
     fit-margin-left="5"
     fit-margin-right="5"
     fit-margin-bottom="5"
     inkscape:window-width="968"
     inkscape:window-height="702"
     inkscape:window-x="516"
     inkscape:window-y="49"
     inkscape:window-maximized="0" />
  <metadata
     id="metadata7">
    <rdf:RDF>
      <cc:Work
         rdf:about="">
        <dc:format>image/svg+xml</dc:format>
        <dc:type
           rdf:resource="http://purl.org/dc/dcmitype/StillImage" />
        <dc:title></dc:title>
      </cc:Work>
    </rdf:RDF>
  </metadata>
  <g
     inkscape:label="Layer 1"
     inkscape:groupmode="layer"
     id="layer1"
     transform="translate(-165.28261,-406.4006)">
    <g
       id="g3387"
       transform="matrix(-1,0,0,-1,668.53179,1028.0847)">
      <path
         style="fill:#f997a3"
         d="m 443.3674,615.36111 c -3.79609,-2.06682 -15.0124,-25.43397 -20.51538,-42.74009 -9.96094,-31.32578 -14.88745,-45.68038 -18.52275,-53.97063 -2.09308,-4.77326 -5.86902,-14.44826 -8.39098,-21.5 -2.52195,-7.05174 -5.52483,-15.40885 -6.67306,-18.57135 -1.14823,-3.1625 -2.61407,-5.75 -3.25742,-5.75 -0.64335,0 -1.8718,1.4625 -2.7299,3.25 -0.85809,1.7875 -3.84412,7.525 -6.63561,12.75 -2.7915,5.225 -7.37669,15.125 -10.18932,22 -2.81263,6.875 -5.88286,13.27263 -6.82273,14.21697 -1.35647,1.3629 -4.69894,1.90932 -16.20886,2.6498 -7.975,0.51306 -15.86866,0.71562 -17.54147,0.45014 -1.67281,-0.26548 -8.38813,0.489 -14.92294,1.67662 -14.1413,2.57002 -14.54995,2.44388 -20.70157,-6.38992 -2.33771,-3.35699 -5.9353,-8.25445 -7.99464,-10.88324 -2.05935,-2.6288 -6.34444,-9.7841 -9.52244,-15.90066 -6.47396,-12.46016 -14.33401,-24.42967 -15.83037,-24.10691 -0.54262,0.11704 -1.95185,7.54204 -3.13164,16.5 -2.90587,22.06394 -4.50286,31.09661 -9.33283,52.7872 -5.12147,22.99969 -9.3816,43.59575 -11.58315,56 -0.92736,5.225 -2.04198,10.16275 -2.47695,10.97277 -1.13537,2.11438 -40.63983,1.58423 -43.05854,-0.57785 -1.87303,-1.67429 -3.90058,-7.90221 -3.91025,-12.01094 -0.007,-3.03412 10.35927,-62.0184 14.65464,-83.38398 10.18871,-50.67971 10.49815,-52.02641 16.31433,-71 3.9876,-13.00839 12.32688,-34.69012 16.54176,-43.00777 l 2.44065,-4.8164 7.2777,-0.60079 c 4.00274,-0.33044 11.77771,-0.4825 17.27771,-0.33792 5.5,0.14458 12.0496,-0.089 14.55466,-0.5191 3.87981,-0.66612 5.04905,-0.44386 7.89134,1.5 2.90234,1.98493 3.95908,4.05589 8.11818,15.9096 4.75883,13.56301 12.8957,28.71307 24.16741,44.99739 2.42697,3.50624 5.89075,8.98875 7.69731,12.18335 3.1581,5.58456 3.3576,5.74234 5.17788,4.09501 1.04127,-0.94234 1.89322,-2.30871 1.89322,-3.03637 0,-3.59804 27.47976,-54.4722 32.91679,-60.9399 1.42076,-1.69009 3.99651,-5.12094 5.72387,-7.62411 l 3.14065,-4.55121 10.32285,-1.26454 c 7.23866,-0.88673 11.13345,-0.95857 13.03595,-0.24046 1.49221,0.56325 4.65864,0.81009 7.0365,0.54854 7.00116,-0.77009 11.52526,3.24271 17.36203,15.39982 2.58908,5.39267 9.10764,18.80486 14.48568,29.80486 12.79061,26.16134 18.57376,40.25442 27.5741,67.19599 6.85211,20.51105 20.98016,56.84409 33.36476,85.80401 3.63549,8.50116 4.97706,12.81365 4.60117,14.7906 -0.29182,1.53483 -0.0172,3.61272 0.61035,4.61753 0.62752,1.00482 0.84036,2.61025 0.47298,3.56763 -0.52986,1.38078 -1.44122,1.62335 -4.40782,1.1732 -13.07355,-1.98376 -22.71189,-2.65574 -25.58582,-1.78385 -5.83402,1.76994 -21.88637,2.20325 -24.70803,0.66696 z"
         id="path3401"
         inkscape:connector-curvature="0" />
      <path
         style="fill:#fa7587"
         d="m 444.67395,613.17098 c -3.26515,-2.73861 -10.52208,-17.9174 -9.74173,-20.37607 0.46415,-1.46241 -0.18286,-2.79122 -2.34045,-4.80672 -1.72745,-1.61367 -3.61395,-4.91371 -4.4842,-7.84417 -0.82624,-2.78224 -2.16909,-6.3538 -2.98413,-7.9368 -0.81503,-1.583 -2.952,-8.05318 -4.74881,-14.37818 -3.43994,-12.10902 -9.79495,-29.46281 -17.21155,-47 -2.44229,-5.775 -6.58804,-16.8 -9.21278,-24.5 -4.94743,-14.51389 -6.38103,-17.15446 -8.80781,-16.22322 -1.80631,0.69315 -12.8093,22.27677 -19.74047,38.72322 -2.8974,6.875 -5.64781,12.98944 -6.11202,13.58765 -1.42811,1.84034 -13.64498,3.43348 -29.36861,3.82983 -8.25,0.20795 -16.26057,0.87173 -17.80126,1.47505 -7.86851,3.08123 -16.69874,1.6003 -16.69874,-2.80057 0,-1.02407 -1.12654,-2.60008 -2.50342,-3.50225 -1.37689,-0.90217 -3.68117,-3.54142 -5.12063,-5.86501 -1.43947,-2.32358 -3.65319,-5.3497 -4.91939,-6.7247 -1.2662,-1.375 -4.83581,-7 -7.93247,-12.5 -8.84492,-15.70955 -16.83855,-27.46687 -18.68619,-27.48431 -1.80452,-0.017 -1.97472,0.73065 -3.86629,16.98431 -2.03396,17.47715 -9.47136,57.22345 -14.03414,75 -2.32091,9.04222 -6.63448,30.85754 -7.9996,40.45689 -0.54413,3.82628 -1.50269,7.27415 -2.13013,7.66193 -0.62744,0.38778 -2.30336,0.21976 -3.72427,-0.37337 -1.46991,-0.61359 -9.86142,-1.11443 -19.46837,-1.16194 -18.60814,-0.092 -17.42977,0.33421 -19.58265,-7.08351 -1.24885,-4.30291 -1.66631,-1.50849 7.99242,-53.5 6.69829,-36.05592 7.08023,-38.00938 10.4602,-53.5 1.8001,-8.25 4.25274,-19.725 5.4503,-25.5 2.56907,-12.3889 10.29843,-37.59279 13.4998,-44.02017 1.23828,-2.4861 3.03444,-6.87762 3.99146,-9.75894 0.95702,-2.88132 3.19559,-7.37224 4.97459,-9.97982 1.77901,-2.60759 3.50235,-5.46334 3.82966,-6.34611 0.65042,-1.75426 5.61205,-2.86658 12.86413,-2.88395 3.31503,-0.008 5.09277,0.539 6.38189,1.96346 2.88747,3.19062 5.40774,3.48253 8.1143,0.93986 3.16928,-2.9774 11.78151,-4.23165 15.62916,-2.27618 3.37819,1.71688 3.60225,2.15759 8.57256,16.86185 5.9474,17.59487 8.5754,22.70308 18.5208,36 4.93645,6.6 10.74941,15.2625 12.91769,19.25 4.63926,8.53168 6.87431,9.35965 9.44809,3.5 5.61989,-12.79465 19.2811,-39.50053 23.8205,-46.56597 1.65,-2.56817 4.35944,-6.81019 6.02098,-9.42672 2.17496,-3.42504 3.666,-4.75731 5.32424,-4.75731 1.2668,0 2.96442,-0.9 3.7725,-2 1.01084,-1.37601 2.62563,-2 5.17575,-2 3.08246,0 3.76033,-0.37883 4.02608,-2.25 0.28018,-1.97279 -0.12023,-2.25 -3.25,-2.25 -2.86671,0 -3.56955,-0.38218 -3.56955,-1.94098 0,-2.62089 0.31869,-2.74871 10.35263,-4.15239 7.78055,-1.08845 9.15134,-1.03673 12.29846,0.46403 2.98907,1.42539 4.07144,1.49752 6.93466,0.46217 3.13694,-1.13433 3.70229,-1.00462 7.49755,1.72017 4.62021,3.31706 4.5464,3.18788 20.25266,35.447 14.4488,29.67644 21.7632,47.27797 30.1277,72.5 6.99276,21.08576 7.61653,22.75337 20.94654,56 4.6309,11.55 9.84145,24.6 11.579,29 1.73756,4.4 3.84438,9.41183 4.68183,11.1374 1.37875,2.84093 1.36669,3.37539 -0.12756,5.65592 -1.57524,2.40411 -1.54831,2.58988 0.59283,4.0896 2.5178,1.76353 1.9184,3.26803 -0.84317,2.11636 -1.81341,-0.75625 -18.26563,-1.90788 -23.79313,-1.66548 -9.28559,0.40721 -15.4515,0.92402 -19.02568,1.59469 -3.206,0.60158 -4.47282,0.38035 -6.22176,-1.08655 z M 237.17125,401.24557 c -0.95295,-0.95296 -2.86349,0.5906 -2.1533,1.7397 0.42211,0.683 0.98146,0.66575 1.69964,-0.0524 0.58876,-0.58876 0.79291,-1.34803 0.45366,-1.68727 z"
         id="path3399"
         inkscape:connector-curvature="0" />
      <path
         style="fill:#fc6775"
         d="m 477.42139,611.9215 c -3.025,-0.33743 -6.06512,-0.97445 -6.75583,-1.4156 -0.69071,-0.44116 -2.8119,-0.23942 -4.71376,0.4483 -2.98487,1.07935 -3.71307,1.01951 -5.32291,-0.43738 -2.30223,-2.08349 -3.49485,-2.10767 -7.28502,-0.14769 -1.93069,0.99839 -4.16037,1.31831 -6.33925,0.90955 -4.04078,-0.75806 -5.32861,-3.27597 -9.13523,-17.86081 -1.65526,-6.34203 -4.72477,-14.08445 -8.52376,-21.5 -3.63811,-7.1015 -6.90844,-15.26734 -8.44585,-21.08883 -1.37988,-5.225 -3.81261,-12.2 -5.40606,-15.5 -13.92938,-28.84746 -22.71909,-51.74343 -21.59488,-56.25167 0.32559,-1.30567 -0.2955,-3.93151 -1.4783,-6.25 -1.91532,-3.75432 -2.30972,-3.99833 -6.46277,-3.99833 -4.60951,0 -7.53638,2.36968 -7.53638,6.10166 0,0.91116 -1.15992,4.29853 -2.57761,7.5275 -6.31583,14.38515 -8.4542,19.36605 -11.47256,26.72301 -4.2341,10.3202 -6.57152,12.98681 -11.56355,13.19207 -2.13745,0.0879 -5.1916,0.5172 -6.787,0.95402 -2.0996,0.57487 -3.84545,0.28544 -6.32143,-1.04796 -2.7704,-1.49196 -3.78477,-1.61482 -5.33571,-0.64624 -2.86738,1.79071 -6.40607,1.44577 -8.46085,-0.82474 -1.8272,-2.01903 -1.83101,-2.01845 -4.68877,0.71946 -2.37576,2.27612 -3.1723,2.54514 -4.70385,1.58867 -1.51727,-0.94755 -1.82119,-0.86014 -1.71623,0.49362 0.16203,2.08969 -6.64683,5.44033 -10.21213,5.02539 -1.68295,-0.19586 -3.35995,-1.46566 -4.6468,-3.51851 -1.12126,-1.78869 -3.46684,-3.71071 -5.29321,-4.33735 -2.5748,-0.88345 -3.93869,-2.43075 -6.34578,-7.19918 -1.68634,-3.34062 -5.26634,-8.94455 -7.95555,-12.45316 -2.6892,-3.50862 -7.19784,-10.29857 -10.01919,-15.08878 -7.39617,-12.55755 -11.74661,-18.20948 -14.01633,-18.20948 -1.07042,0 -2.14843,0.5625 -2.39558,1.25 -0.75962,2.11306 -3.45729,19.96957 -3.77898,25.01398 -0.22708,3.56089 -0.86044,5.15387 -2.50795,6.30783 -2.01606,1.4121 -2.15317,2.11495 -1.60671,8.23602 0.58677,6.57251 0.294,8.64497 -5.18328,36.69217 -0.85927,4.4 -2.62606,12.05 -3.9262,17 -3.96553,15.09786 -5.48475,22.25244 -5.48475,25.82979 0,1.88032 -0.62751,5.19732 -1.39447,7.37111 -0.76696,2.17379 -1.17414,5.10494 -0.90485,6.51367 0.2693,1.40872 -0.004,3.48407 -0.60781,4.6119 -1.05844,1.97771 -1.26615,1.9951 -5.84515,0.48949 -2.92481,-0.9617 -5.92937,-2.92145 -7.82529,-5.10411 -3.5489,-4.08563 -5.96565,-3.67793 -5.05936,0.85353 0.70096,3.50476 0.15963,3.6594 -12.36307,3.53158 l -9.5,-0.097 -0.32695,-3 c -0.17982,-1.65 -0.74232,-3.4275 -1.25,-3.95 -1.53959,-1.58454 -1.09156,-5.48397 3.12529,-27.2009 4.87305,-25.09644 7.80219,-36.57534 9.60708,-37.64879 0.73952,-0.43983 1.33769,-1.33983 1.32927,-2 -0.009,-0.73417 -0.39174,-0.61779 -0.98469,0.29973 -1.50682,2.33164 -1.22055,-6.43662 0.44077,-13.5 0.77616,-3.3 1.73465,-8.87451 2.12997,-12.3878 0.84048,-7.46944 4.54302,-18.70899 6.72682,-20.42016 0.8367,-0.65562 1.73621,-2.99204 1.9989,-5.19204 0.26269,-2.2 1.27889,-7.03862 2.25822,-10.7525 1.47877,-5.60787 1.56581,-7.15384 0.51348,-9.12015 -1.07046,-2.00017 -0.92345,-3.5131 0.94714,-9.7475 1.21785,-4.05892 2.95012,-8.91936 3.84949,-10.80099 4.31302,-9.02357 6.52815,-12.81966 9.09071,-15.57886 1.53242,-1.65 3.56795,-5.10474 4.52341,-7.6772 0.95546,-2.57246 2.81357,-5.6884 4.12914,-6.92431 1.31557,-1.23592 2.39195,-2.80329 2.39195,-3.48306 0,-2.33985 5.39878,-9.47741 7.58335,-10.0257 1.26049,-0.31637 4.46215,0.49449 7.55236,1.91271 4.7274,2.16959 5.66976,2.30561 7.93712,1.14566 1.41506,-0.72392 3.15766,-2.0209 3.87245,-2.88216 1.68615,-2.0317 8.77136,-2.05288 12.80968,-0.0383 2.5736,1.28388 3.49715,2.83969 5.78774,9.75 1.49902,4.52229 2.8037,10.35132 2.89928,12.9534 0.11819,3.21741 0.83903,5.45698 2.25306,7 1.14359,1.24792 3.01831,4.14053 4.16604,6.42801 1.14773,2.28748 3.78601,6.18149 5.86285,8.65335 11.31947,13.47248 15.20141,18.71408 19.30063,26.06072 2.48851,4.45992 5.18851,8.23339 6,8.38549 1.88455,0.35323 6.56844,-7.04561 8.48022,-13.39564 0.80524,-2.67464 3.70901,-8.46298 6.45283,-12.86298 2.74382,-4.4 6.3048,-10.7011 7.91328,-14.00244 1.60849,-3.30134 3.91662,-6.90028 5.12919,-7.99764 1.21258,-1.09736 2.88169,-3.34626 3.70914,-4.99756 2.14581,-4.28225 13.85256,-15.50236 16.17473,-15.50236 4.85884,0 6.59942,-3.35978 4.13052,-7.97296 -0.82642,-1.54419 -0.47945,-2.0179 2.14922,-2.93426 4.66525,-1.62631 8.92039,-1.33157 13.09749,0.90722 3.96741,2.1264 8.31078,2.55657 10.67969,1.05771 0.93421,-0.5911 2.44604,-0.39187 4.29945,0.56657 2.29417,1.18636 5.03422,5.86131 13.87738,23.67697 6.06034,12.20931 12.28483,25.12375 13.83221,28.69875 1.54737,3.575 5.38389,12.35 8.5256,19.5 3.14172,7.15 9.22704,23.575 13.52294,36.5 6.95983,20.93991 11.48232,33.80325 14.85425,42.25 0.91238,2.28554 0.83742,2.75 -0.44387,2.75 -2.42674,0 -1.41609,5.39593 1.09117,5.82581 2.63556,0.45188 4.5,2.95888 4.5,6.05087 0,1.37193 0.86891,3.42342 1.9309,4.55887 1.062,1.13545 3.12109,5.21445 4.57577,9.06445 5.99533,15.86752 7.45218,20.07786 7.47224,21.59501 0.0116,0.87726 0.92109,2.4095 2.02109,3.40499 2.56918,2.32508 2.5501,2.45199 -0.94363,6.27714 -3.12157,3.41768 -3.5464,3.48766 -14.05637,2.31532 z m -15.17668,-5.73528 c -0.37323,-1.89638 -3.42091,-4.09293 -4.36666,-3.14717 -0.3516,0.3516 -0.34286,1.57318 0.0194,2.71463 0.80004,2.52069 4.83727,2.92239 4.34724,0.43254 z M 203.89209,525.48255 c 1.39112,-2.94057 2.5293,-6.09057 2.5293,-7 0,-2.45279 -2.92055,-2.0036 -3.87829,0.59649 -1.00881,2.73873 -2.26033,11.75 -1.63188,11.75 0.24837,0 1.58976,-2.40592 2.98087,-5.34649 z m 69.5293,-91.09449 c 0,-2.98835 -1.59604,-4.13917 -3.52279,-2.5401 -1.05923,0.87908 -1.16952,1.68749 -0.42101,3.08609 1.46347,2.73453 3.9438,2.39115 3.9438,-0.54599 z"
         id="path3397"
         inkscape:connector-curvature="0" />
      <path
         style="fill:#fd5766"
         d="m 472.56805,610.21921 c -1.48262,-1.03847 -3.3362,-1.40226 -5.22251,-1.025 -2.55434,0.51087 -2.92415,0.29387 -2.92415,-1.71586 0,-1.26537 -1.10785,-3.34145 -2.46188,-4.6135 -1.35403,-1.27205 -3.92411,-4.72549 -5.71129,-7.67431 -3.21849,-5.31049 -6.2819,-6.94513 -7.42636,-3.96273 -0.51725,1.34795 2.95435,8.82466 6.14531,13.235 1.39655,1.93023 1.38964,2.28795 -0.0724,3.75 -1.97482,1.97483 -9.76029,2.18037 -11.32177,0.2989 -0.60131,-0.72453 -2.65746,-7.13703 -4.56923,-14.25 -2.93996,-10.93844 -7.42027,-21.94685 -10.55433,-25.93267 -1.27356,-1.61968 -7.73946,-21.61683 -8.52026,-26.35068 -0.67731,-4.10647 -0.59944,-4.31319 1.38731,-3.68262 2.20125,0.69865 2.63699,-0.0799 1.25965,-2.25057 -0.44805,-0.70613 -1.53574,-1.00716 -2.4171,-0.66895 -1.11144,0.4265 -2.08278,-0.31393 -3.17005,-2.41647 -2.014,-3.89463 -1.98317,-4.13071 0.53939,-4.13071 1.62267,0 1.93642,-0.40226 1.36494,-1.75 -2.13785,-5.04177 -3.38918,-8.96155 -3.43178,-10.75 -0.0585,-2.45459 -3.63268,-8.5 -5.02545,-8.5 -1.61588,0 -1.14067,4.12554 1.02503,8.8989 1.0977,2.41939 1.73204,4.66267 1.40965,4.98506 -1.0826,1.08259 -4.03217,-3.94937 -9.20647,-15.70622 -6.8346,-15.52932 -8.2063,-24.21472 -2.8979,-18.349 0.95183,1.05176 1.65499,3.50646 1.65499,5.77749 0,4.27002 2.23865,8.39377 4.5567,8.39377 1.90302,0 1.82613,-0.95471 -0.56562,-7.02263 -1.44518,-3.66646 -1.95552,-7.08464 -1.81862,-12.18094 0.17168,-6.39134 -0.0445,-7.27443 -2.21058,-9.02839 -2.38884,-1.93436 -2.40982,-1.93308 -4.18138,0.25471 -0.97928,1.20935 -1.7805,1.78024 -1.7805,1.26864 0,-0.5116 -1.76545,-3.29642 -3.92323,-6.18849 -3.71873,-4.98423 -3.98197,-5.14856 -5.05017,-3.1526 -1.269,2.37115 -2.76266,1.8849 -4.00135,-1.30263 -0.71532,-1.84072 -1.42402,-0.903 -4.95871,6.5611 -2.26826,4.78982 -4.56115,8.97888 -5.09532,9.30902 -0.53417,0.33013 -0.97122,1.86648 -0.97122,3.41411 0,2.53666 -1.3107,6.22769 -5.58197,15.71923 -0.77992,1.73312 -1.41803,3.81016 -1.41803,4.61564 0,0.80549 -1.59397,4.65067 -3.54215,8.54486 -3.6671,7.33009 -5.43449,8.70283 -10.73942,8.34133 -1.52986,-0.10424 -3.66736,0.28452 -4.75,0.86393 -2.35265,1.2591 -5.96843,-0.28699 -5.96843,-2.55207 0,-1.82977 -1.75926,-1.81739 -5,0.0352 -3.52057,2.01254 -6.31099,1.83293 -7.76793,-0.5 -1.31583,-2.10699 -4.68468,-2.69471 -5.73207,-1 -0.33992,0.55 -2.07648,1 -3.85902,1 -3.80511,-2e-5 -5.64098,1.51815 -5.64098,4.6648 0,2.66769 -2.66238,4.33518 -6.92171,4.33518 -2.45607,0 -3.52974,-0.75488 -5.48979,-3.85981 -1.637,-2.59316 -3.39928,-4.05235 -5.37016,-4.44652 -2.35096,-0.47019 -3.44633,-1.6697 -5.51551,-6.03988 -1.42007,-2.99924 -5.87165,-10.26511 -9.89239,-16.14638 -9.87311,-14.44172 -11.77264,-17.66085 -11.80584,-20.00741 -0.0307,-2.16894 -8.44141,-11.50969 -10.3412,-11.48469 -3.24078,0.0427 -5.6634,4.9971 -5.6634,11.58207 0,1.96109 -0.95751,4.14374 -2.59108,5.9064 -2.26184,2.44056 -2.50755,3.35282 -1.93373,7.17934 0.48192,3.21365 0.0946,6.00963 -1.45125,10.47651 -1.47881,4.27312 -1.92868,7.32465 -1.50621,10.21667 0.35485,2.42906 -0.0535,6.92253 -0.99356,10.9343 -0.87778,3.74583 -1.79369,10.04583 -2.03535,14 -0.43163,7.0623 -1.21939,10.65165 -7.39388,33.6894 -1.6952,6.325 -3.08506,13.80592 -3.08856,16.62427 -0.004,2.81835 -0.69576,7.07818 -1.53833,9.46629 -0.85521,2.42391 -1.26178,5.57209 -0.92036,7.12655 0.78226,3.56164 -1.28699,4.47718 -6.55311,2.89941 -2.65602,-0.79576 -4.53436,-2.25384 -6.03831,-4.68728 -2.95383,-4.77939 -5.50873,-4.14671 -7.35273,1.82076 -0.66754,2.16024 -4.19644,2.29987 -5.36472,0.21227 -0.7468,-1.33446 -1.10433,-1.26836 -2.70468,0.5 -2.03114,2.24439 -4.54358,2.62829 -6.22127,0.9506 -0.78285,-0.78285 -1.2752,-0.78285 -1.75902,0 -1.43474,2.32146 -3.55385,1.0975 -3.55385,-2.05263 0,-1.73587 -0.72198,-3.66768 -1.6147,-4.32045 -1.48449,-1.08549 -1.47637,-1.90075 0.10068,-10.11024 2.97429,-15.48287 6.39579,-27.62261 8.14592,-28.90234 0.9205,-0.67309 1.34975,-1.74789 0.95386,-2.38844 -0.39588,-0.64055 0.24049,-3.73118 1.41415,-6.86807 1.17366,-3.13689 2.56011,-7.96857 3.08099,-10.73707 0.52089,-2.76849 2.09168,-7.38143 3.49066,-10.25097 3.57622,-7.33547 4.23344,-12.04408 1.80641,-12.942 -3.0369,-1.12354 -3.33899,-2.49675 -1.38977,-6.31753 1.69405,-3.32062 1.71428,-3.80576 0.2587,-6.20467 -1.87763,-3.09451 -0.79029,-6.60135 3.86199,-12.45547 1.56201,-1.96554 3.08381,-5.21379 3.38179,-7.21835 0.29798,-2.00455 1.48454,-7.63067 2.63681,-12.50249 1.79088,-7.57186 1.90343,-9.21585 0.77528,-11.32383 -1.12114,-2.09486 -1.06263,-3.18995 0.38873,-7.27637 0.93968,-2.64571 1.7085,-5.7018 1.7085,-6.7913 0,-1.08951 0.83998,-3.05412 1.86662,-4.36579 1.02664,-1.31167 3.23766,-5.08486 4.91337,-8.38486 1.67571,-3.3 3.98573,-6.56631 5.13338,-7.25847 1.14764,-0.69216 2.08663,-1.94759 2.08663,-2.78984 0,-2.40712 3.54849,-8.71193 6.40268,-11.376 1.42853,-1.33338 2.59732,-3.41912 2.59732,-4.63499 0,-1.30901 1.12165,-2.94421 2.75,-4.0091 1.5125,-0.98912 3.36473,-2.41097 4.11607,-3.15965 0.75134,-0.74868 1.65134,-1.20492 2,-1.01386 7.6341,4.18327 11.39468,4.22216 15.21341,0.1573 2.40081,-2.55554 6.64492,-3.16844 9.89516,-1.42896 1.04732,0.56051 2.76856,3.85087 3.98639,7.62048 5.49064,16.99536 14.10122,30.96084 30.5414,49.53501 2.75134,3.10847 6.89321,9.20036 9.20415,13.53753 2.31094,4.33717 5.40003,8.99609 6.86465,10.35316 2.54779,2.36071 2.71192,2.38651 3.79585,0.59681 1.09949,-1.81539 3.70477,-5.56725 7.33663,-10.56546 1.14495,-1.57569 1.80754,-4.40112 1.8761,-8 0.11838,-6.21438 0.73529,-8.20862 3.88661,-12.56396 1.19386,-1.65 3.69146,-5.7 5.55021,-9 8.72138,-15.48379 21.28131,-30.5 25.51094,-30.5 3.92175,0 5.89857,-2.40467 5.63594,-6.85573 -0.21425,-3.63115 0.0416,-4.15765 2.29544,-4.72332 1.44085,-0.36163 4.15744,0.0208 6.28881,0.88537 3.35311,1.36011 3.72347,1.86333 3.48177,4.73072 -0.14876,1.76479 0.24637,3.83146 0.87807,4.5926 0.86673,1.04436 0.84529,2.46696 -0.0874,5.79813 -0.67975,2.42783 -0.97808,4.8314 -0.66295,5.34129 0.31512,0.50988 2.24585,0.82549 4.29051,0.70135 2.88749,-0.17531 3.91443,-0.75541 4.59928,-2.59806 0.74552,-2.00589 0.34536,-2.83576 -2.59058,-5.37235 -2.72042,-2.35039 -3.30126,-3.43307 -2.68242,-5 1.22336,-3.09759 4.17568,-5.26579 8.18223,-6.0091 2.95053,-0.54739 4.06043,-0.27418 5.75,1.41539 1.16,1.16 2.09371,3.38388 2.09371,4.98672 0,1.59116 0.61723,3.12987 1.37163,3.41936 0.7544,0.28949 3.46121,4.95013 6.01515,10.35699 2.55393,5.40685 6.8867,14.17796 9.62837,19.49135 4.91866,9.53243 5.80987,12.98766 4.06206,15.74861 -1.36328,2.15353 -0.14042,4.09068 2.58234,4.09068 2.57184,0 2.16391,-0.7176 11.36934,20 1.58848,3.575 4.02364,10.325 5.41147,15 1.38783,4.675 3.82314,12.775 5.4118,18 5.39596,17.747 5.71317,19.57755 3.73527,21.55545 -1.12805,1.12805 -1.51307,2.4837 -1.09162,3.84363 0.35809,1.1555 1.36368,4.74902 2.23463,7.98559 1.12482,4.17995 2.14537,6.03159 3.5229,6.39183 1.06664,0.27893 2.80732,2.35582 3.86818,4.61532 1.06086,2.2595 2.56335,5.23318 3.33886,6.60818 0.77552,1.375 1.92122,3.90803 2.54601,5.62895 0.62479,1.72092 2.09004,3.55465 3.2561,4.07496 1.43266,0.63928 2.50726,2.54296 3.31412,5.87106 1.32485,5.46473 4.27863,13.08018 8.31667,21.44212 2.49145,5.15928 2.56509,5.69423 1.13549,8.24822 -1.71462,3.06318 -7.02875,3.99668 -7.02875,1.23469 0,-0.825 -0.3949,-1.5 -0.87756,-1.5 -0.48265,0 -1.43775,0.675 -2.12244,1.5 -1.62283,1.95539 -4.97169,1.90856 -7.85334,-0.10983 z M 216.2526,571.97986 c 0.25642,-1.80292 -0.0823,-2.2499 -1.5,-1.97957 -1.01731,0.19398 -1.97842,1.38422 -2.16242,2.67793 -0.25642,1.80292 0.0823,2.2499 1.5,1.97957 1.01731,-0.19398 1.97842,-1.38422 2.16242,-2.67793 z m -5.96405,-39.40082 c 0.72862,-3.4375 1.56822,-7.81875 1.86577,-9.73612 0.48399,-3.11867 0.37126,-3.34524 -1.0695,-2.14952 -0.88578,0.73513 -1.82502,2.75389 -2.0872,4.48612 -2.08308,13.76306 -1.16876,19.00391 1.29093,7.39952 z m 20.03501,-12.89922 c 1.32208,-3.79251 1.42041,-6.85078 0.22027,-6.85078 -1.53264,0 -2.92136,2.38169 -3.64425,6.25 -0.55878,2.99018 -0.39412,3.75 0.81269,3.75 0.83241,0 2.00749,-1.41715 2.61129,-3.14922 z m 127.90813,-35.14885 c 1.18741,-1.26395 2.44324,-3.71963 2.79073,-5.45708 l 0.6318,-3.15901 -3.02864,1.14319 c -2.14923,0.81124 -3.1993,1.99652 -3.61641,4.08207 -1.25684,6.28419 -0.37116,7.21613 3.22252,3.39083 z m 6.581,-12.27925 c 0.31936,-0.83225 -0.0636,-1.42268 -0.92268,-1.42268 -0.80774,0 -1.46862,0.1882 -1.46862,0.41821 0,0.23002 -0.2751,1.13512 -0.61134,2.01134 -0.43824,1.14204 -0.17698,1.42645 0.92268,1.00447 0.84371,-0.32376 1.77969,-1.22886 2.07996,-2.01134 z m -90.3913,-36.98842 c 0,-1.41116 -0.48581,-3.47349 -1.07958,-4.58297 -1.029,-1.92269 -1.16958,-1.93578 -3,-0.27927 -3.23606,2.92859 -1.85523,7.42798 2.27958,7.42798 1.26563,0 1.8,-0.76169 1.8,-2.56574 z M 409.3511,410.52002 c 0.0387,-0.44496 -0.37971,-0.5309 -0.92971,-0.19098 -0.55,0.33992 -0.96837,1.60398 -0.92971,2.80902 0.0678,2.11236 0.10112,2.11922 0.92971,0.19098 0.47269,-1.1 0.89106,-2.36406 0.92971,-2.80902 z m -153.42971,-0.69098 c 0,-1.754 -4.27208,-2.62792 -5.7282,-1.1718 -1.59381,1.59381 0.18022,3.31383 3.07264,2.97911 1.55725,-0.18021 2.65556,-0.92769 2.65556,-1.80731 z"
         id="path3395"
         inkscape:connector-curvature="0" />
      <path
         style="fill:#fd4853"
         d="m 485.42139,608.88574 c 0,-1.06881 -0.98713,-2.6347 -2.19362,-3.47976 -1.98924,-1.39332 -2.36955,-1.37725 -4.08199,0.17248 -1.78171,1.61243 -1.94302,1.61129 -2.85607,-0.0202 -1.19057,-2.12743 -3.21387,-2.22268 -4.86832,-0.22919 -0.68469,0.825 -1.93412,1.5 -2.77652,1.5 -1.95989,0 -7.86114,-6.84875 -11.72348,-13.6058 -2.71511,-4.75001 -9.61128,-10.94959 -10.82727,-9.7336 -0.26947,0.26947 -0.1222,1.7722 0.32727,3.3394 0.44947,1.5672 0.58849,3.07818 0.30894,3.35773 -0.93052,0.93052 1.75449,7.42975 4.81467,11.65421 1.66134,2.29341 2.77729,4.80394 2.47989,5.57895 -0.8336,2.17232 -4.70813,1.725 -5.31984,-0.61419 -0.50127,-1.91685 -0.60156,-1.93 -1.90638,-0.25 -1.3148,1.69285 -1.44292,1.68854 -2.82404,-0.095 -1.64199,-2.12049 -4.55324,-13.98709 -4.55324,-18.55963 0,-1.82644 -2.18806,-6.91703 -5.5,-12.79589 -6.20696,-11.0177 -7.0237,-14.11019 -2.60969,-9.8813 3.7953,3.63613 4.80107,1.88062 2.03212,-3.54697 -2.81625,-5.52029 -5.67083,-14.29906 -6.46623,-19.88571 -0.94543,-6.64055 -2.41572,-10.82894 -5.51928,-15.72274 -1.5331,-2.41746 -3.09648,-6.22442 -3.47416,-8.4599 -0.37768,-2.23549 -2.68572,-8.19937 -5.12898,-13.25307 -3.65131,-7.55247 -4.6742,-10.97191 -5.74479,-19.20428 -0.97601,-7.50511 -1.90242,-10.86882 -3.69575,-13.41899 -3.21554,-4.57258 -3.95004,-5.03819 -7.05602,-4.47283 -3.17094,0.57719 -4.35171,-0.68179 -5.23329,-5.57994 -0.78729,-4.37423 -2.75637,-6.25426 -5.60393,-5.35048 -2.61517,0.83002 -5.22904,-1.20299 -4.5,-3.5 0.30338,-0.95587 -0.1988,-2.33462 -1.13233,-3.10882 -0.92261,-0.76515 -2.31355,-2.9129 -3.09098,-4.77278 -1.77578,-4.24831 -2.66157,-3.2454 -4.04165,4.57603 -1.19988,6.80019 -4.55531,12.30557 -7.50002,12.30557 -1.03888,0 -3.23887,1.35 -4.88887,3 -1.65,1.65 -3.53053,3 -4.17896,3 -1.23406,0 -3.10641,3.63924 -4.19595,8.15552 -0.35234,1.46053 -1.50252,2.8809 -2.55593,3.15638 -1.10599,0.28922 -1.91531,1.37226 -1.91531,2.5631 0,1.41707 0.46663,1.88317 1.49157,1.48986 2.21006,-0.84808 3.00182,2.33464 1.74871,7.02944 -0.60015,2.24847 -0.92052,4.2588 -0.71192,4.46739 0.20859,0.20859 2.53754,0.78269 5.17545,1.27578 5.29532,0.98981 7.29619,-0.30998 7.29619,-4.73971 0,-2.82149 5.8299,-7.96786 7.3285,-6.46926 0.72155,0.72155 0.37047,2.3841 -1.14367,5.41586 -1.20166,2.40609 -2.18483,4.83648 -2.18483,5.40086 0,0.56439 -0.6792,2.3151 -1.50933,3.89047 -0.83013,1.57537 -1.78923,4.56178 -2.13135,6.63647 -0.78346,4.75118 -2.10043,5.64685 -2.96826,2.01874 -0.36717,-1.535 -0.86624,-3.14348 -1.10904,-3.57441 -0.41458,-0.73577 -4.28202,3.46116 -4.28202,4.64683 0,0.5305 -4.60804,7.57806 -5.61012,8.58013 -0.27257,0.27257 -0.22092,-0.22017 0.11478,-1.09499 0.87546,-2.28143 -2.24291,-5.04915 -4.86003,-4.31355 -1.17955,0.33154 -4.22516,1.69389 -6.76803,3.02745 l -4.62339,2.42465 -2.53434,-1.9935 c -2.98367,-2.34696 -5.48068,-2.48824 -8.16,-0.46171 -1.06762,0.80751 -2.69443,1.4682 -3.61514,1.4682 -2.49858,0 -6.94373,3.87271 -6.94373,6.04953 0,2.86019 -4.34219,5.37288 -6.91002,3.99862 -2.7651,-1.47983 -4.342,-4.67875 -3.54469,-7.19083 0.61119,-1.92569 0.37854,-2.02025 -3.40003,-1.38186 l -4.0561,0.68527 -2.79458,-5.13638 c -1.53702,-2.82501 -4.94383,-8.82368 -7.57069,-13.33037 -3.14928,-5.40296 -4.60021,-8.9214 -4.25967,-10.32956 0.58433,-2.41628 -0.76518,-3.80291 -4.58763,-4.71381 -2.67488,-0.63744 -4.3859,-3.53502 -5.2968,-8.97005 -0.25989,-1.55069 -2.07166,-4.58949 -4.02616,-6.75288 -1.9545,-2.16339 -3.55363,-4.39328 -3.55363,-4.95531 0,-0.56203 -1.2262,-1.48807 -2.72489,-2.05787 -2.51743,-0.95713 -3.07701,-0.65502 -7.34976,3.96799 -2.54368,2.7522 -5.83708,5.30824 -7.31867,5.68009 -3.42906,0.86064 -2.81336,2.93742 0.87085,2.93742 4.35755,0 5.44948,2.75488 2.61273,6.59178 -1.83616,2.48354 -2.32011,4.34915 -2.22283,8.56895 0.0684,2.96682 -0.72328,8.45304 -1.7593,12.19161 -1.31592,4.74866 -1.58932,7.32334 -0.90711,8.54238 0.67674,1.20927 0.33528,4.93117 -1.11224,12.12328 -1.14883,5.70806 -2.10838,12.31413 -2.13233,14.68015 -0.0669,6.6078 -2.50078,16.50538 -6.8087,27.68816 -1.33937,3.47682 -2.29537,8.97168 -2.69671,15.5 -0.34196,5.56253 -1.2184,12.13869 -1.94765,14.61369 -0.72924,2.475 -1.61042,5.78137 -1.95816,7.34749 -0.55362,2.49328 -0.96893,2.76986 -3.33875,2.22344 -1.48856,-0.34323 -4.34611,-2.47289 -6.35011,-4.73259 -3.04915,-3.43822 -4.06639,-4.00245 -6.23477,-3.45822 -1.63664,0.41077 -2.82087,1.56566 -3.21478,3.13511 -0.343,1.36662 -1.05518,2.48477 -1.58262,2.48477 -0.52744,0 -0.68535,-0.86213 -0.35091,-1.91584 1.39591,-4.39813 -3.70669,-3.46728 -6.07255,1.10778 -1.2419,2.40157 -1.79241,2.7279 -2.96301,1.75638 -0.79075,-0.65627 -1.43773,-1.81311 -1.43773,-2.57076 0,-0.75766 -0.7875,-1.39253 -1.75,-1.41083 -2.30702,-0.0439 -6.25,-3.38629 -6.25,-5.29807 0,-3.93919 4.41908,-19.62609 6.57689,-23.34673 1.33271,-2.29794 2.42311,-5.08472 2.42311,-6.19284 0,-1.10812 0.85928,-3.50299 1.90951,-5.32193 1.05023,-1.81894 2.43051,-5.88681 3.06728,-9.03972 0.63677,-3.15291 1.5246,-5.95928 1.97295,-6.23638 0.44835,-0.27709 2.00631,0.43313 3.46212,1.57827 1.45582,1.14515 3.28069,1.83889 4.05527,1.54166 2.03093,-0.77934 3.69837,-7.47323 2.44497,-9.81524 -0.94277,-1.76157 -0.62016,-4.60965 1.70736,-15.07331 0.70813,-3.1835 -1.68877,-4.77973 -4.1322,-2.75187 -1.25426,1.04095 -1.48726,0.80882 -1.48726,-1.48174 0,-1.87507 -0.61928,-2.87801 -2,-3.23908 -2.45276,-0.64141 -2.52353,-2.21548 -0.27569,-6.13211 1.63242,-2.84432 1.63242,-3.10598 0,-4.90978 -2.61251,-2.88679 -2.10998,-5.22779 2.39894,-11.17531 3.29034,-4.34013 4.2791,-6.644 4.93549,-11.5 0.91531,-6.77152 2.71821,-13.64122 3.90995,-14.89831 0.43056,-0.45417 1.26533,0.55833 1.85505,2.25 0.71353,2.04683 1.73893,3.07576 3.06522,3.07576 3.72424,0 3.29847,-2.08403 -1.30079,-6.36707 -5.08764,-4.73783 -5.53295,-6.70369 -3.08817,-13.63293 0.825,-2.3383 1.5,-5.1362 1.5,-6.21757 0,-2.32325 2.73527,-6.11317 9.25,-12.81655 2.79246,-2.87333 4.75,-5.8088 4.75,-7.12297 0,-1.22947 1.1862,-3.9471 2.636,-6.03916 2.21345,-3.194 3.21533,-3.81054 6.25,-3.84612 5.41747,-0.0635 13.85721,-2.27227 15.69155,-4.10661 1.49327,-1.49327 1.4908,-1.81707 -0.0316,-4.14052 -1.63612,-2.49704 -1.61853,-2.53145 1.88562,-3.68792 1.94542,-0.64205 4.39644,-2.25979 5.4467,-3.59497 3.86402,-4.91232 9.3356,-2.62327 11.5192,4.81908 0.84773,2.88932 3.35509,8.78546 5.57192,13.10253 2.21682,4.31707 4.03059,8.41095 4.03059,9.09751 0,1.7469 12.17522,17.70085 18.21789,23.87205 6.90119,7.04797 9.25357,10.29501 13.25247,18.29267 3.73195,7.4638 7.62975,12.38855 9.80516,12.38855 1.1197,0 7.2562,-8.12357 11.33091,-15 0.48887,-0.825 0.89365,-4.2 0.89952,-7.5 0.009,-5.1154 0.49368,-6.7152 3.28671,-10.85103 1.80182,-2.66806 4.34965,-6.9697 5.66184,-9.55919 1.3122,-2.58949 4.25998,-7.07917 6.55063,-9.97706 3.86192,-4.88569 4.29164,-5.15412 5.90859,-3.6908 2.91628,2.63919 3.8249,1.82569 4.56349,-4.08578 0.79045,-6.32655 2.05954,-8.08692 6.78547,-9.41216 1.78053,-0.49929 4.57204,-1.9816 6.20336,-3.29402 2.75121,-2.21339 2.87417,-2.58786 1.69766,-5.17003 -1.06194,-2.3307 -1.02548,-3.02672 0.22398,-4.27618 1.32316,-1.32316 1.76076,-1.31651 3.85953,0.0587 2.13004,1.39566 2.39142,2.36921 2.60936,9.71911 0.27242,9.18691 1.29535,12.80267 3.87842,13.70909 0.97076,0.34064 2.48662,1.51335 3.3686,2.606 2.66182,3.29768 5.07284,0.94984 6.57204,-6.39981 1.28734,-6.31104 1.28366,-6.33413 -1.34422,-8.42953 -2.07491,-1.65447 -2.4978,-2.64816 -1.98928,-4.67428 0.78997,-3.14748 5.8276,-5.2877 8.75654,-3.72018 2.27129,1.21556 2.5017,5.20405 0.40133,6.9472 -2.0859,1.73114 -1.86569,5.88793 0.51914,9.79949 2.39464,3.92766 3.98086,3.38635 3.98086,-1.35851 0,-1.89254 0.38833,-3.44098 0.86296,-3.44098 0.47463,0 2.53645,4.1625 4.58182,9.25 2.04537,5.0875 5.48203,12.75537 7.63704,17.0397 4.37611,8.70011 4.6164,9.7103 2.30977,9.7103 -1.16135,0 -1.45828,0.62539 -1.06827,2.25 1.6628,6.92665 1.83106,9.85906 0.64753,11.28513 -1.52672,1.83957 -1.35337,2.00936 2.87433,2.81527 2.79695,0.53317 3.43064,0.31088 3.86663,-1.35636 0.90269,-3.4519 2.84123,-2.18449 5.13932,3.36008 1.67243,4.03503 2.05648,6.37144 1.55887,9.48336 -0.55923,3.4972 -0.37327,4.21937 1.21485,4.71803 1.03133,0.32384 2.52171,0.92493 3.31195,1.33577 2.31952,1.20588 4.90203,10.0885 4.9857,17.14848 0.0504,4.25315 1.10983,9.8475 3.03,16 1.62388,5.20313 3.23661,11.48524 3.58384,13.96024 0.34723,2.475 1.44593,7.425 2.44156,11 0.99562,3.575 2.21041,8.075 2.69953,10 0.60821,2.39367 1.53811,3.59421 2.94184,3.79805 1.41399,0.20532 2.72579,1.92239 4.21663,5.51932 2.50769,6.05025 2.58667,7.41686 0.81971,14.18263 -1.13873,4.36025 -1.60068,4.95716 -3.61041,4.66517 -2.01814,-0.29321 -2.22534,-0.019 -1.66692,2.2059 2.03644,8.1138 7.24993,14.62893 11.70626,14.62893 2.32619,0 2.99278,-0.52677 3.47993,-2.75 1.25834,-5.74273 1.44389,-5.92191 3.50982,-3.38922 1.05914,1.29844 1.92868,3.32344 1.9323,4.5 0.004,1.17657 0.90066,3.48922 1.99341,5.13922 2.40949,3.63821 2.73624,10.5 0.5,10.5 -0.825,0 -1.5,-0.87448 -1.5,-1.9433 z M 220.26096,577.11053 c 2.01816,-2.24392 2.24519,-3.23184 1.65262,-7.19138 -0.87703,-5.86036 -1.1869,-6.29771 -3.45735,-4.8798 -1.46078,0.91228 -2.23205,0.87091 -3.50816,-0.18817 -1.40354,-1.16483 -1.93048,-1.06279 -3.71209,0.71883 -1.72631,1.72631 -2.05183,3.20768 -1.93086,8.78685 0.08,3.69076 0.37376,7.0798 0.65273,7.53118 0.80204,1.29772 7.72719,-1.91345 10.30311,-4.77751 z m 239.07992,-3.247 c -2.44222,-5.67711 -5.91949,-8.63176 -5.91949,-5.02984 0,2.35842 3.42079,9.56698 5.86651,12.36239 1.5886,1.81574 1.642,1.81091 1.94329,-0.1756 0.17039,-1.12346 -0.68025,-4.34409 -1.89031,-7.15695 z m -252.91949,-1.16256 c 0,-0.96464 -0.41397,-2.00974 -0.91993,-2.32244 -1.40601,-0.86897 -5.08007,4.39069 -5.08007,7.27246 l 0,2.55223 3,-2.87418 c 1.65,-1.5808 3,-3.66343 3,-4.62807 z m 14.46829,-18.83689 c 1.16734,-1.28989 1.59987,-2.89814 1.25901,-4.68125 -0.28559,-1.49396 -0.0456,-3.75589 0.53335,-5.0265 0.71403,-1.56714 0.72936,-3.03462 0.0477,-4.56239 -0.99256,-2.2244 -1.02524,-2.21295 -2.64955,0.92811 -0.90453,1.74917 -1.35326,3.93951 -0.99718,4.86743 0.40242,1.04869 0.0213,2.03752 -1.00708,2.61304 -1.04074,0.58243 -1.65449,2.20583 -1.65449,4.37621 0,3.95296 1.71823,4.52413 4.46829,1.48535 z m 2.21482,-20.22254 c -0.31922,-0.79773 -0.55618,-0.56078 -0.60416,0.60417 -0.0434,1.05416 0.19292,1.64479 0.52522,1.3125 0.33229,-0.3323 0.36781,-1.1948 0.0789,-1.91667 z m 6.8256,-9.85708 c 1.47487,-1.16942 3.80598,-9.69297 3.13158,-11.45043 -0.70278,-1.83142 -2.70141,-1.93601 -4.87228,-0.25499 -1.79422,1.38936 -4.72679,10.5234 -4.02513,12.53702 0.44957,1.29018 3.67691,0.8247 5.76583,-0.8316 z m 72.74129,-15.34747 c 3.52312,-2.67443 0.99177,-6.45423 -3.39088,-5.06324 -2.11255,0.6705 -2.30869,1.74674 -0.82394,4.52103 1.20968,2.26031 1.84402,2.34191 4.21482,0.54221 z m 46.41557,-0.93971 c 0.4572,-0.45747 -0.0472,-1.47409 -1.12081,-2.25917 -1.07364,-0.78507 -1.97294,-2.64395 -1.99842,-4.13084 -0.0392,-2.28942 -0.62456,-2.84018 -3.82188,-3.59622 -3.67148,-0.86816 -3.7595,-0.99323 -3.19321,-4.53739 l 0.58233,-3.64462 -3.53116,3.88696 c -3.61191,3.97585 -3.8186,5.61304 -0.70862,5.61304 1.69142,0 5.1262,5.59233 5.1262,8.3462 0,1.43978 7.27813,1.71026 8.66557,0.32204 z m -81.49431,-53.32323 c 2.27774,-2.06133 2.34116,-3.9344 0.16152,-4.7708 -2.44998,-0.94015 -3.8342,1.13574 -3.45126,5.17579 0.16005,1.68858 1.1049,1.57226 3.28974,-0.40499 z m -22.17126,-6.38019 c 0,-3.6385 -1.28583,-3.82768 -2.83949,-0.41777 -1.85361,4.06825 -1.54092,5.7269 0.83949,4.45295 1.3096,-0.70088 2,-2.09382 2,-4.03518 z m 51,3.6623 c 0,-0.87342 -4.13429,-9.62712 -4.54679,-9.62712 -1.19637,0 -0.26115,7.04921 1.11822,8.42857 1.42595,1.42595 3.42857,2.12602 3.42857,1.19855 z M 274.9578,436.54001 c 0.63515,-2.53067 -0.78593,-7.12911 -2.53774,-8.21179 -1.55249,-0.95949 -4.99867,2.36838 -4.99867,4.82707 0,4.82261 6.44862,7.71879 7.53641,3.38472 z m 198.97367,172.27272 c 0.34546,-0.55897 1.04702,-0.75742 1.55902,-0.44098 1.38704,0.85723 1.12841,1.45729 -0.62812,1.45729 -0.85746,0 -1.27636,-0.45734 -0.9309,-1.01631 z m -270.8908,-73.73369 c 0.36156,-1.5125 1.13795,-3.65 1.72531,-4.75 0.99925,-1.87139 1.0925,-1.88238 1.45022,-0.1709 0.45354,2.1699 -1.65136,7.6709 -2.93518,7.6709 -0.49376,0 -0.60191,-1.2375 -0.24035,-2.75 z m 151.78571,-17.10449 c 1.04774,-1.18003 2.3118,-2.14551 2.80901,-2.14551 1.40774,0 -0.089,1.86524 -2.51969,3.14013 -2.17907,1.1429 -2.18108,1.13599 -0.28932,-0.99462 z m 8.12221,-34.10149 c -1.34166,-2.17086 5.07977,-13.15978 10.30213,-17.62992 4.02863,-3.44837 6.17067,-4.27484 6.17067,-2.38086 0,2.45843 -5.53345,11.62275 -9.72098,16.09955 -4.65372,4.97521 -5.71447,5.58968 -6.75182,3.91123 z"
         id="path3393"
         inkscape:connector-curvature="0" />
      <path
         style="fill:#fd3b45"
         d="m 219.27423,602.57904 c -1.88768,-1.54281 -5.85284,-8.40757 -5.85284,-10.13285 0,-0.69769 1.16588,-2.35946 2.59085,-3.69284 2.78952,-2.6102 7.5872,-9.33886 8.66853,-12.15745 0.40151,-1.04657 1.27412,-1.49937 2.20277,-1.14301 2.41066,0.92506 2.07415,14.39972 -0.55395,22.18198 -2.16448,6.40936 -3.83248,7.57824 -7.05536,4.94417 z m 245.42661,-0.96634 c -2.40557,-2.57617 -5.73668,-11.16908 -3.90667,-10.07764 4.56706,2.72387 9.66792,8.02092 9.41489,9.77702 -0.40842,2.83458 -3.00952,2.97654 -5.50822,0.30062 z m -275.62446,-4.6124 c -2.16985,-2.39766 -2.06064,-5.6805 0.36697,-11.03046 1.08792,-2.39757 1.97804,-4.95577 1.97804,-5.6849 0,-0.72914 0.44575,-2.4981 0.99055,-3.93104 0.85543,-2.24995 1.27173,-2.45486 3.05184,-1.50218 1.79723,0.96185 1.97671,1.70359 1.40105,5.79025 -0.36313,2.57789 -1.31584,5.72858 -2.11713,7.00154 -0.89398,1.4202 -1.21828,3.4009 -0.83932,5.12629 0.42108,1.91719 0.10097,3.32842 -1.00614,4.43553 -1.99821,1.99821 -1.82348,2.00758 -3.82586,-0.20503 z m 11.01168,-0.83793 c -1.68756,-1.68756 -0.57536,-8.76426 1.88422,-11.98894 1.40299,-1.83941 2.94356,-3.34439 3.42349,-3.34439 0.47993,0 1.99934,2.3625 3.37646,5.25 l 2.50387,5.25 -2.92736,0.31336 c -1.69488,0.18143 -2.92735,0.9034 -2.92735,1.71481 0,0.77081 -0.87042,1.8673 -1.93426,2.43665 -2.27822,1.21926 -2.52191,1.24568 -3.39907,0.36851 z m 238.98388,-19.55121 c -1.85133,-4.17014 -2.06652,-5.78212 -0.77187,-5.78212 1.29703,0 3.36764,5.55281 2.86043,7.6709 -0.33411,1.39523 -0.82953,0.9472 -2.08856,-1.88878 z m 3.59945,-3.75691 c -1.8621,-1.14351 -3.25,-2.82342 -3.25,-3.93379 0,-1.06588 -1.06169,-3.21 -2.35931,-4.76469 -4.03142,-4.83013 -5.61928,-8.97134 -6.04711,-15.77123 -0.32518,-5.16834 -0.11422,-6.5555 0.99698,-6.5555 0.77519,0 1.40944,0.47716 1.40944,1.06037 0,0.61382 1.57921,0.92966 3.75,0.75 3.50629,-0.2902 3.7291,-0.5031 3.42835,-3.27602 -0.3236,-2.98352 -5.89464,-13.79991 -9.00629,-17.48604 -1.40433,-1.66361 -3.33112,-2.34891 -8.33935,-2.96608 -0.36701,-0.0452 -1.47325,-2.21973 -2.45832,-4.83223 -0.98506,-2.6125 -2.64064,-6.21066 -3.67907,-7.99591 -4.09735,-7.04412 -6.42056,-23.25409 -3.33276,-23.25409 2.08338,0 0.72002,-6.88543 -1.61031,-8.13259 -2.17443,-1.16372 -2.16955,-1.43431 -0.10842,6.01647 1.16727,4.2196 -1.98307,1.85392 -3.27582,-2.45989 -0.64675,-2.1582 -2.26502,-5.94899 -3.59614,-8.42399 -2.24505,-4.17429 -2.74056,-4.52266 -6.84604,-4.81313 -5.84102,-0.41326 -6.87378,-1.6453 -3.04073,-3.62745 3.76185,-1.94533 3.88385,-2.80993 0.64136,-4.54526 -1.38835,-0.74302 -2.97687,-2.90108 -3.62081,-4.91898 -1.59556,-5.00005 -2.5282,-5.74674 -4.71076,-3.77155 -2.40985,2.18088 -3.15238,2.11392 -6.41667,-0.5786 -1.66889,-1.37656 -3.19805,-4.0761 -3.95297,-6.97845 -1.19796,-4.60566 -1.15301,-4.81504 1.66519,-7.7566 2.14728,-2.24127 2.6051,-3.31444 1.77018,-4.14936 -1.77024,-1.77024 -3.9914,-0.30865 -6.2455,4.10975 -1.82953,3.58617 -2.31419,3.93994 -4.09324,2.98782 -2.29889,-1.23033 -1.8904,-3.8657 1.21568,-7.84305 1.12905,-1.44575 1.86244,-4.00659 1.86244,-6.50325 0,-3.25185 0.61232,-4.69632 2.91019,-6.86514 1.63107,-1.53946 4.0485,-2.74675 5.5,-2.74675 2.31918,0 2.58981,0.38614 2.58981,3.69528 0,2.64773 0.76175,4.49038 2.68709,6.5 1.4779,1.5426 3.11579,2.80472 3.63976,2.80472 0.52397,0 1.50443,0.75459 2.17882,1.67686 1.0733,1.46783 1.6216,1.51306 4.39846,0.36285 3.70188,-1.53337 5.09587,-3.71467 5.09587,-7.97397 0,-3.26024 1.38242,-4.11751 2.39301,-1.48395 0.33385,0.86998 0.60699,3.31842 0.60699,5.44098 0,2.12256 0.39149,4.10115 0.86997,4.39687 2.72288,1.68283 8.64994,18.25355 7.96824,22.27742 -0.18595,1.09763 0.22669,2.67621 0.91697,3.50795 1.02932,1.24025 0.87302,1.99794 -0.869,4.21256 l -2.12407,2.70031 2.29326,2.44106 c 1.26129,1.34258 3.07801,2.44106 4.03716,2.44106 2.78112,0 4.90747,1.10401 4.90747,2.54797 0,2.43016 -1.97406,2.60669 -5.00614,0.44766 -1.94164,-1.38257 -3.71782,-1.90063 -5.05802,-1.47527 -1.91361,0.60736 -1.78494,0.90348 1.74931,4.02598 2.09817,1.85372 4.39318,3.38914 5.10003,3.41203 1.59453,0.0516 6.43626,-2.96657 7.51451,-4.68436 1.3153,-2.09544 4.54102,-1.44675 6.32197,1.27133 1.35059,2.06125 1.44387,2.96463 0.4905,4.75 -1.37441,2.57383 0.26923,6.44078 7.20289,16.94609 2.04204,3.09394 13.66653,40.04237 13.67772,43.47464 0.004,1.21884 0.63018,3.69384 1.39156,5.5 2.48464,5.89412 3.5203,12.30789 2.92256,18.09936 -0.67437,6.53405 -1.91314,7.12966 -5.63328,2.70852 -3.70476,-4.40285 -5.03047,-12.78081 -1.45694,-9.20728 2.24445,2.24445 3.04344,1.21203 2.37332,-3.06667 -0.5648,-3.60619 -11.30859,-26.71826 -13.48387,-29.00652 -1.04512,-1.09941 3.39448,16.08928 5.28826,20.4744 2.24427,5.19671 2.00707,8.05635 -0.89438,10.78212 -3.22179,3.02671 -3.21428,6.99767 0.0205,10.84197 2.9659,3.52477 3.90046,10.39726 1.47952,10.87997 -0.825,0.1645 -2.9625,-0.59903 -4.75,-1.69673 z m -9.26082,-71.27521 c -0.10231,-2.36277 -3.4797,-10.55834 -4.89415,-11.87609 -1.04003,-0.96893 -2.07636,-2.31791 -2.30297,-2.99772 -0.7355,-2.20651 -3.9615,-0.0905 -3.6122,2.36934 0.24654,1.73618 0.89487,2.19784 2.82014,2.00814 2.11069,-0.20796 2.51501,0.18925 2.5964,2.55077 0.10111,2.93373 3.00221,8.19556 4.51861,8.19556 0.48674,0 0.88012,-0.1125 0.87417,-0.25 z m -11.48918,-20.76369 c 0,-2.14351 -2.90567,-1.83391 -3.32712,0.3545 -0.25736,1.3364 0.14991,1.74367 1.48631,1.48631 1.01244,-0.19498 1.84081,-1.02335 1.84081,-1.84081 z m -14.72917,-22.79881 c 0.46107,-1.38321 -3.37832,-1.63162 -4.21804,-0.27291 -0.59736,0.96654 1.29895,2.07721 2.88471,1.68958 0.51562,-0.12604 1.11562,-0.76355 1.33333,-1.41667 z m -7.19047,-20.09871 c -0.8692,-0.96045 -1.58036,-2.18334 -1.58036,-2.71753 0,-1.6385 -2.1659,-3.24483 -3.62186,-2.68613 -2.48587,0.95392 -1.4464,4.51419 2.37186,8.12376 3.60899,3.41175 3.76242,3.46009 4.08036,1.28562 0.18169,-1.24269 -0.38081,-3.04526 -1.25,-4.00572 z m -13.08036,-5.08879 c 0,-0.73333 -0.5625,-1.52083 -1.25,-1.75 -0.74359,-0.24786 -1.25,0.46111 -1.25,1.75 0,1.28889 0.50641,1.99786 1.25,1.75 0.6875,-0.22917 1.25,-1.01667 1.25,-1.75 z m -160.5,134.18882 c 0,-1.03485 0.72431,-3.33345 1.60957,-5.10801 1.37285,-2.75193 1.42701,-3.87849 0.3683,-7.65984 -1.16899,-4.17523 -1.08803,-4.65451 1.39043,-8.23093 1.44743,-2.08865 2.6317,-4.56714 2.6317,-5.50776 0,-0.94061 1.07691,-6.31643 2.39314,-11.94624 1.31622,-5.62982 2.98078,-13.72354 3.69902,-17.98604 0.71823,-4.2625 1.7164,-7.75 2.21815,-7.75 0.50175,0 0.61798,1.56869 0.2583,3.48599 -0.35969,1.91729 -0.2198,4.29725 0.31087,5.28881 0.64962,1.21383 0.48639,4.07709 -0.49963,8.76401 -0.80546,3.82866 -1.88421,11.34232 -2.39722,16.69703 -0.97207,10.14635 -2.6656,16.92695 -6.26633,25.08929 -2.33203,5.28637 -5.7163,8.16587 -5.7163,4.86369 z m -10.83992,-30.42874 c -1.78174,-1.78174 -1.4081,-4.11485 1.58992,-9.92792 l 2.75,-5.33216 0.32737,3.43784 c 0.33177,3.48407 -1.51604,11.75171 -2.80446,12.548 -0.38651,0.23888 -1.22478,-0.0877 -1.86283,-0.72576 z m 89.91469,-12.16998 c -0.92861,-1.11891 -0.69589,-1.74374 1.12756,-3.02734 2.08844,-1.47015 2.32814,-1.47303 2.63224,-0.0317 0.79239,3.75559 -1.57986,5.68568 -3.7598,3.05902 z m -91.47209,-6.08987 c -1.04353,-0.78989 -2.25845,-1.21298 -2.69983,-0.94019 -0.44138,0.27279 -1.29091,-0.41663 -1.88786,-1.53203 -0.59695,-1.11541 -1.74453,-2.02801 -2.55017,-2.02801 -1.79445,0 -1.79434,0.0102 -0.0444,-4.13519 1.28406,-3.04176 1.23894,-3.65949 -0.46989,-6.43412 l -1.89032,-3.06932 4.96988,-6.90319 c 3.53415,-4.90896 4.96989,-7.84588 4.96989,-10.16634 0,-4.55214 2.22082,-12.3849 3.40005,-11.99183 0.53804,0.17935 1.86177,1.50946 2.94162,2.9558 1.84877,2.47623 1.86691,2.77691 0.31084,5.15177 -2.25579,3.44277 -2.07854,5.62641 0.77011,9.48754 2.81859,3.82039 2.56537,9.38061 -0.56444,12.39384 -2.08085,2.00332 -2.34284,3.29347 -0.85548,4.21271 0.62507,0.38631 0.66071,1.25874 0.0946,2.31646 -0.49944,0.93321 -1.06315,3.7184 -1.2527,6.18931 -0.45272,5.90165 -1.82588,7.07856 -5.24195,4.49279 z m 91.85187,-1.95478 c -2.67351,-2.6735 -3.24813,-5.54545 -1.10954,-5.54545 1.74756,0 4.22609,2.89646 4.92034,5.75 0.714,2.93474 -0.75011,2.85615 -3.8108,-0.20455 z m 8.93411,-2.1159 c 0.33624,-0.87622 0.61134,-1.80788 0.61134,-2.07035 0,-0.26248 0.45,-0.19912 1,0.1408 1.48419,0.91728 1.21331,2.20417 -0.61134,2.90435 -1.17937,0.45257 -1.44745,0.19124 -1,-0.9748 z m -22.63866,-3.65525 c -2.94216,-3.42885 -3.40894,-4.7743 -1.65638,-4.7743 0.60149,0 1.31809,0.8584 1.59245,1.90755 0.27436,1.04915 1.35723,2.13202 2.40638,2.40638 1.04915,0.27436 1.90755,1.21596 1.90755,2.09245 0,2.38669 -1.19564,1.92754 -4.25,-1.63208 z m 20.73257,-0.99096 c -4.36173,-2.32429 -6.48257,-5.11971 -6.48257,-8.54452 0,-2.87342 -0.47396,-3.59145 -3,-4.54492 -1.65,-0.62281 -3,-1.75175 -3,-2.50877 0,-0.75701 -0.96834,-2.73629 -2.15186,-4.3984 -2.13404,-2.99698 -2.16142,-3.00413 -3.30742,-0.86282 l -1.15555,2.15918 -1.85125,-2.04561 c -1.54782,-1.71033 -1.66124,-2.46263 -0.69195,-4.58998 0.92545,-2.03115 0.85142,-3.13974 -0.36702,-5.49594 -1.71972,-3.32558 -4.47495,-3.95543 -4.47495,-1.02299 0,3.28759 -2.76872,5.07143 -7.87143,5.07143 -5.23681,0 -7.12857,-1.24728 -7.12857,-4.7 0,-1.71485 0.57243,-2.30315 2.25,-2.31238 1.46355,-0.008 3.03966,-1.23142 4.50919,-3.5 1.24256,-1.91819 3.04256,-3.50193 4,-3.51942 0.95745,-0.0175 2.57532,-0.66398 3.59527,-1.43663 2.76366,-2.09358 0.91709,-7.09742 -2.53445,-6.86785 -2.15235,0.14316 -2.67249,-0.52128 -4.14078,-5.2896 -2.17785,-7.07262 -2.11703,-9.08376 0.32077,-10.60619 2.86058,-1.78646 2.46789,-2.91631 -0.75,-2.15787 -3.77217,0.88908 -4.80376,2.01777 -3.39529,3.71488 0.90528,1.0908 0.8476,1.67723 -0.255,2.59231 -1.1075,0.91914 -2.25138,0.83731 -5.13446,-0.36732 -5.33774,-2.23025 -6.39174,-1.9701 -8.04453,1.98556 -0.84097,2.01274 -2.54181,3.94025 -3.94897,4.47525 -1.35946,0.51687 -2.47175,1.61006 -2.47175,2.42933 0,2.03132 -3.90325,4.13632 -4.36322,2.35305 -0.18346,-0.71121 -0.90002,-2.86812 -1.59237,-4.79312 -0.69234,-1.925 -1.60014,-5.3 -2.01732,-7.5 -1.11376,-5.87336 -1.94997,-7.34798 -4.36164,-7.69153 -3.0543,-0.43509 -3.17783,-3.40346 -0.50714,-12.1858 2.00716,-6.60037 2.72154,-7.74889 5.94758,-9.56203 2.01653,-1.13335 4.32513,-2.06064 5.13023,-2.06064 2.79085,0 9.55988,-5.79471 10.20614,-8.73709 0.71036,-3.23425 4.95568,-8.26291 6.97576,-8.26291 2.06159,0 3.18647,1.86081 6.35296,10.50926 1.60913,4.39491 4.05083,9.64067 5.42599,11.65725 1.80677,2.64948 2.67988,5.59856 3.14767,10.63186 0.35605,3.83095 1.53928,8.93103 2.6294,11.3335 1.09012,2.40247 1.99192,5.10901 2.004,6.01454 0.0297,2.22513 6.58751,7.85359 9.15038,7.85359 1.21782,0 2.27246,-0.81698 2.58183,-2 0.28766,-1.1 1.09421,-2 1.79234,-2 2.54111,0 8.69756,7.69045 12.4472,15.54867 6.38408,13.37929 10.64421,16.90331 15.35437,12.70133 1.88729,-1.68367 1.93678,-1.67 1.30559,0.36062 -0.42714,1.37417 0.0169,2.94169 1.27257,4.49238 1.49684,1.84852 1.69793,2.83121 0.89819,4.38937 -2.11258,4.11601 -5.02781,6.48366 -7.28548,5.91703 -1.72845,-0.43382 -2.44834,0.0637 -3.39328,2.34496 -0.65967,1.59257 -3.09777,4.96331 -5.418,7.49052 -3.60575,3.92741 -4.50662,4.44145 -6.20118,3.53846 z m -37.6728,-74.23343 c 0.24892,-3.85202 -0.12912,-5.26094 -1.92431,-7.17184 -1.22875,-1.30794 -2.49315,-2.37523 -2.80977,-2.37175 -0.98743,0.0109 -4.07569,6.06192 -4.07569,7.98583 0,2.09572 5.68574,7.27667 7.37589,6.72105 0.61826,-0.20325 1.26351,-2.52673 1.43388,-5.16329 z m -43.80977,66.88435 c 0,-0.86116 0.47238,-2.44839 1.04973,-3.52719 0.86712,-1.62022 0.50538,-2.50581 -2.07932,-5.09051 -5.45655,-5.45654 -6.27084,-7.31626 -5.50158,-12.56474 0.43208,-2.94799 1.62066,-5.72845 3.13107,-7.32454 l 2.43459,-2.57272 -2.26724,-2.19194 c -1.24699,-1.20557 -4.2814,-3.97742 -6.74313,-6.15967 -4.40295,-3.90309 -4.45451,-4.02098 -3.16422,-7.23535 1.33523,-3.32629 1.57612,-4.16211 2.59892,-9.0176 0.92909,-4.41061 2.81951,-3.35693 2.05852,1.14738 -0.76471,4.52625 0.69419,6.12615 3.37441,3.70058 2.57275,-2.3283 3.85773,-1.9831 5.67107,1.52352 1.06626,2.06192 1.39993,4.26354 0.983,6.48599 -0.34716,1.85048 -0.14615,4.27081 0.44668,5.37852 1.45086,2.71095 4.84219,2.57571 5.91749,-0.23599 0.47327,-1.2375 1.80274,-3.09875 2.9544,-4.13612 1.89367,-1.70575 2.15403,-1.72944 2.72261,-0.24776 1.09468,2.85269 -0.51359,6.54456 -3.53062,8.10472 -3.97603,2.05609 -4.80318,5.10532 -2.15077,7.92869 1.15192,1.22615 2.10128,3.10037 2.1097,4.16492 0.008,1.06455 0.42703,2.5863 0.93023,3.38167 1.13739,1.79777 0.0277,3.97082 -4.6997,9.20352 -3.20292,3.54526 -3.85984,5.06037 -4.16251,9.60036 -0.12188,1.82817 -2.08333,1.5309 -2.08333,-0.31574 z m 110.34979,-42.96512 c -1.0421,-2.71567 0.49481,-7.26932 4.7917,-14.19708 2.31017,-3.72463 4.91091,-7.61124 5.77941,-8.63691 1.50239,-1.77426 1.60339,-1.70195 2.0791,1.48865 0.61911,4.15235 3.2623,4.91786 6.49486,1.88103 1.87626,-1.76266 2.70155,-1.97008 4.34307,-1.09157 1.11464,0.59654 2.3139,1.98974 2.66501,3.09601 0.73123,2.30389 -0.30461,12.05179 -1.48331,13.95897 -1.1698,1.89278 -3.28423,0.76831 -3.70193,-1.9687 -0.46368,-3.03835 -3.11125,-5.99954 -5.36411,-5.99954 -1.06639,0 -2.33004,1.44702 -3.27478,3.75 -3.04439,7.42123 -10.62263,12.16593 -12.32902,7.71914 z m 61.63015,-52.99331 c -0.69572,-0.83829 -0.99522,-1.79388 -0.66557,-2.12354 1.02406,-1.02405 3.68563,0.50425 3.68563,2.11633 0,1.95861 -1.39777,1.96195 -3.02006,0.007 z m -20.97994,-5.53485 c 0,-0.58246 0.45,-0.7809 1,-0.44098 0.55,0.33992 1,0.81648 1,1.05902 0,0.24254 -0.45,0.44098 -1,0.44098 -0.55,0 -1,-0.47656 -1,-1.05902 z"
         id="path3391"
         inkscape:connector-curvature="0" />
      <path
         style="fill:#fd3239"
         d="m 220.02838,597.24725 c -1.00707,-2.62439 -0.7017,-3.25574 1.31914,-2.72728 1.54425,0.40383 2.13792,-0.25907 2.99442,-3.34362 0.58756,-2.11602 1.07081,-4.40981 1.07387,-5.09731 0.003,-0.6875 0.5141,-1.25 1.13563,-1.25 1.62416,0 0.50952,8.37495 -1.52864,11.48557 -1.87095,2.85544 -4.09706,3.27113 -4.99442,0.93264 z m -30.94032,-1.08488 c -0.36667,-0.36666 -0.66667,-1.50959 -0.66667,-2.53983 0,-2.59714 4.21528,-10.58872 4.7524,-9.00988 0.24017,0.70599 -0.098,1.92793 -0.7516,2.71542 -0.76434,0.92097 -0.9451,2.8712 -0.50664,5.46637 0.53049,3.14 0.3665,4.03459 -0.7396,4.03459 -0.78167,0 -1.72123,-0.3 -2.08789,-0.66667 z m 252.71303,-28.08333 c -0.91652,-1.5125 -2.54152,-4.02287 -3.61111,-5.57861 -1.06959,-1.55574 -1.6783,-3.09501 -1.3527,-3.42061 1.38356,-1.38356 8.58411,7.59147 8.58411,10.69956 0,1.97063 -1.95111,1.05426 -3.6203,-1.70034 z M 231.4367,557.13806 c -0.008,-1.20504 0.43469,-2.4691 0.98469,-2.80902 1.27319,-0.78687 1.27319,1.52988 0,3.5 -0.78809,1.21948 -0.97224,1.09025 -0.98469,-0.69098 z m 201.60811,-2.01893 c -1.06945,-1.06946 -0.68221,-5.8313 0.57658,-7.09009 1.39092,-1.39092 6.6657,-1.57113 8.67812,-0.29649 1.47914,0.93687 0.71701,3.09649 -1.09275,3.09649 -0.60312,0 -2.54602,1.10554 -4.31756,2.45675 -1.77153,1.35122 -3.50151,2.17622 -3.84439,1.83334 z m 18.12278,-19.79009 c -0.96459,-2.2 -2.40959,-5.125 -3.21111,-6.5 -2.60346,-4.4662 -10.19747,-21.51607 -10.93368,-24.54803 -1.50492,-6.1977 -5.90369,-16.1041 -8.75899,-19.72597 -3.42301,-4.34198 -3.50649,-8.06009 -0.19157,-8.53256 1.78505,-0.25442 2.43329,0.5438 3.81157,4.69342 0.9134,2.74999 2.47354,6.03794 3.46697,7.30656 5.24588,6.69902 16.07061,34.1362 16.07061,40.73379 0,1.47004 0.48518,3.15797 1.07818,3.75097 0.593,0.593 0.9305,2.3705 0.75,3.95 -0.32696,2.86112 -0.33472,2.85691 -2.08198,-1.12818 z M 213.75722,513.26182 c -0.33077,-0.86197 -0.0916,-2.07697 0.53139,-2.7 0.84371,-0.84371 1.13278,-0.44377 1.13278,1.56722 0,3.0087 -0.74874,3.51836 -1.66417,1.13278 z m -4.33583,-5.24139 c 0,-1.05692 -0.97569,-3.16206 -2.1682,-4.6781 -1.43386,-1.82285 -1.85722,-3.1721 -1.25,-3.98374 0.50501,-0.67503 1.98664,-2.75994 3.29252,-4.63314 1.30587,-1.8732 3.34453,-4.13765 4.53035,-5.03212 2.02082,-1.5243 2.33082,-1.48694 4.9428,0.59579 l 2.78677,2.22209 -3.11805,6.9734 c -2.12687,4.75663 -4.05553,7.52717 -6.06713,8.71545 -2.84668,1.68158 -2.94906,1.67534 -2.94906,-0.17963 z m 101.25,-2.85367 c -1.74117,-0.70258 -1.56631,-2.33772 0.25,-2.33772 0.825,0 1.5,0.675 1.5,1.5 0,0.825 -0.1125,1.46447 -0.25,1.42105 -0.1375,-0.0434 -0.8125,-0.30592 -1.5,-0.58333 z m 6.05114,-7.34996 c -4.67413,-1.88226 -12.25266,-11.78546 -12.28294,-16.05067 -0.0109,-1.5395 -1.24411,-3.73573 -3.08825,-5.5 -4.51081,-4.31545 -7.18352,-9.06281 -6.4332,-11.42687 0.43098,-1.35787 0.11773,-2.22093 -0.95558,-2.63279 -1.94578,-0.74667 -3.84807,-4.07184 -3.05944,-5.34787 0.851,-1.37695 7.53215,2.9068 8.76966,5.62283 1.57393,3.4544 2.61104,2.89067 3.95985,-2.15239 0.66196,-2.475 1.70105,-4.5 2.30907,-4.5 1.29897,0 5.48018,4.33266 7.9729,8.26168 1.20164,1.89403 1.55491,3.7477 1.12443,5.90012 -0.56026,2.80129 -0.064,3.71314 4.61964,8.48832 3.66818,3.73987 6.02707,5.34988 7.83835,5.34988 3.58916,0 4.0728,0.81228 2.40451,4.0384 -1.02312,1.97849 -1.9923,2.64043 -3.34726,2.2861 -2.16277,-0.56558 -2.82306,0.18263 -3.51148,3.97908 -0.87956,4.85048 -1.91917,5.45648 -6.32026,3.68418 z m -2.30114,-5.92874 c 0,-0.51754 -0.45,-1.2191 -1,-1.55902 -0.55,-0.33992 -1,0.0835 -1,0.94098 0,0.85746 0.45,1.55902 1,1.55902 0.55,0 1,-0.42344 1,-0.94098 z m -84.5078,-1.7671 c -4.95288,-5.39272 -4.47714,-10.66408 1.23241,-13.65562 2.40799,-1.26167 2.95325,-1.19501 5.47486,0.6693 2.32557,1.71937 2.80053,2.81295 2.80053,6.4482 0,5.01347 -1.18813,7.74133 -4.0355,9.2652 -1.68639,0.90253 -2.5205,0.48686 -5.4723,-2.72708 z m 175.0078,-24.26217 c -1.65,-0.43282 -4.09398,-1.21916 -5.43107,-1.74741 l -2.43107,-0.96045 2.97487,-1.03704 c 1.63618,-0.57038 4.75516,-0.74767 6.93107,-0.39398 3.05131,0.49597 3.9562,1.0935 3.9562,2.6124 0,2.23805 -1.66884,2.66263 -6,1.52648 z M 250.43831,453.36398 c -2.62044,-5.41309 -2.37433,-8.91284 0.65712,-9.34454 3.44533,-0.49063 5.68909,-4.70996 4.42817,-8.32705 -0.74327,-2.13212 -0.71865,-3.50467 0.086,-4.79305 1.70738,-2.73395 0.30918,-5.0703 -3.03434,-5.0703 -7.30851,0 -5.41121,-5.40042 3.35412,-9.54709 2.96985,-1.40496 6.55228,-3.99412 7.96096,-5.75369 1.40868,-1.75957 2.95828,-3.6933 3.44356,-4.29717 0.48528,-0.60388 1.04715,-1.95388 1.24862,-3 0.21339,-1.10807 1.19545,-1.90205 2.35261,-1.90205 1.57803,0 2.54504,1.5969 4.7047,7.76931 1.49512,4.27313 4.14692,9.54693 5.89289,11.71956 2.91595,3.6285 3.12487,4.36934 2.56507,9.09597 -0.97591,8.24 -6.58671,10.83402 -7.76426,3.58962 -1.22422,-7.53156 -8.01366,-12.6155 -8.71849,-6.52841 -0.16852,1.45532 -1.18114,3.43768 -2.25028,4.40524 -1.92035,1.73789 -1.91554,1.79666 0.39784,4.85395 1.28795,1.70212 2.64665,4.33226 3.01933,5.84476 0.9468,3.84251 -1.70281,3.66557 -5.46807,-0.36516 -2.40296,-2.57237 -3.16982,-2.89951 -4.40121,-1.87755 -0.82017,0.68068 -1.49122,2.47181 -1.49122,3.9803 0,1.50848 -0.9144,3.90516 -2.032,5.32596 -1.37578,1.74902 -1.83403,3.37206 -1.41897,5.02577 1.09002,4.34298 -1.30428,3.79772 -3.53211,-0.80438 z m 95.68785,-0.29898 c -0.28541,-1.49307 -0.0656,-3.56179 0.48853,-4.59715 0.97824,-1.82785 1.06663,-1.82332 3.04603,0.15608 2.26978,2.26978 1.8722,4.53987 -1.07098,6.11501 -1.67106,0.89433 -2.01764,0.65884 -2.46358,-1.67394 z m 45.5048,-6.48596 c -2.44816,-4.62706 -3.29789,-9.96367 -1.70957,-10.73669 1.00819,-0.49068 2.85946,4.1807 4.43402,11.18853 1.12128,4.99049 0.0621,4.81483 -2.72445,-0.45184 z m -10.58568,-0.78513 c -3.75708,-4.46504 -4.3449,-7.6883 -1.856,-10.17721 2.68612,-2.68611 3.85951,-1.75802 4.678,3.70004 0.37216,2.48177 1.13038,4.5123 1.68493,4.5123 1.35265,0 0.6714,4.24395 -0.75664,4.71361 -0.6192,0.20365 -2.30683,-1.03329 -3.75029,-2.74874 z m 2.88619,-18.98118 c 0.34546,-0.55897 1.04702,-0.75742 1.55902,-0.44098 1.38704,0.85724 1.12841,1.45729 -0.62812,1.45729 -0.85746,0 -1.27636,-0.45734 -0.9309,-1.01631 z m -7.75799,-3.23943 c -0.59456,-1.61712 0.16172,-3.74426 1.33124,-3.74426 1.18063,0 1.19856,3.70775 0.0215,4.43524 -0.49236,0.3043 -1.10108,-0.007 -1.35269,-0.69098 z"
         id="path3389"
         inkscape:connector-curvature="0" />
    </g>
  </g>
</svg>
