<?xml version="1.0" encoding="UTF-8" standalone="no"?>
<!-- Created with Inkscape (http://www.inkscape.org/) -->

<svg
   xmlns:dc="http://purl.org/dc/elements/1.1/"
   xmlns:cc="http://creativecommons.org/ns#"
   xmlns:rdf="http://www.w3.org/1999/02/22-rdf-syntax-ns#"
   xmlns:svg="http://www.w3.org/2000/svg"
   xmlns="http://www.w3.org/2000/svg"
   xmlns:sodipodi="http://sodipodi.sourceforge.net/DTD/sodipodi-0.dtd"
   xmlns:inkscape="http://www.inkscape.org/namespaces/inkscape"
   width="191.35625"
   height="257.04022"
   id="svg2"
   version="1.1"
   inkscape:version="0.48.2 r9819"
   sodipodi:docname="5-M.svg">
  <defs
     id="defs4" />
  <sodipodi:namedview
     id="base"
     pagecolor="#ffffff"
     bordercolor="#666666"
     borderopacity="1.0"
     inkscape:pageopacity="0.0"
     inkscape:pageshadow="2"
     inkscape:zoom="0.98994949"
     inkscape:cx="-144.49855"
     inkscape:cy="142.89251"
     inkscape:document-units="px"
     inkscape:current-layer="layer1"
     showgrid="false"
     fit-margin-top="5"
     fit-margin-left="5"
     fit-margin-right="5"
     fit-margin-bottom="5"
     inkscape:window-width="968"
     inkscape:window-height="702"
     inkscape:window-x="611"
     inkscape:window-y="0"
     inkscape:window-maximized="0" />
  <metadata
     id="metadata7">
    <rdf:RDF>
      <cc:Work
         rdf:about="">
        <dc:format>image/svg+xml</dc:format>
        <dc:type
           rdf:resource="http://purl.org/dc/dcmitype/StillImage" />
        <dc:title></dc:title>
      </cc:Work>
    </rdf:RDF>
  </metadata>
  <g
     inkscape:label="Layer 1"
     inkscape:groupmode="layer"
     id="layer1"
     transform="translate(-269.02446,-80.723508)">
    <g
       id="g3795"
       transform="translate(140.4112,-52.527932)">
      <path
         style="fill:#fdd4cc"
         d="m 159.56429,384.46752 c -15.14421,-0.96694 -16.47314,-2.67312 -16.77307,-21.53448 -0.10495,-6.6 -0.93496,-22.35 -1.84445,-35 -0.9095,-12.65 -1.66856,-28.175 -1.6868,-34.5 -0.0182,-6.325 -0.52044,-16.9 -1.11599,-23.5 -0.59556,-6.6 -1.20838,-25.95 -1.36183,-43 -0.20022,-22.24701 -0.74003,-34.1059 -1.9118,-42 -2.73029,-18.39373 -0.79558,-38.5 3.70463,-38.5 0.69009,0 1.97064,-0.83614 2.84566,-1.8581 1.4103,-1.6471 3.84856,-1.93682 21.47224,-2.55138 10.93471,-0.38131 26.45991,-0.60722 34.50044,-0.50202 8.04053,0.1052 15.01553,-0.0454 15.5,-0.33477 1.43802,-0.85879 40.19065,-2.93149 54.88085,-2.93533 4.95916,-0.001 15.14245,1.63045 18.5411,2.97097 4.68643,1.84846 5.24184,3.5264 6.02668,18.20719 0.40872,7.64524 1.26329,15.47658 1.89906,17.40297 1.29454,3.92249 0.31367,6.84479 -2.86921,8.54822 -1.02109,0.54647 -7.87328,1.64963 -15.22708,2.45146 -7.3538,0.80183 -18.54555,2.15861 -24.87055,3.01507 -19.82045,2.68383 -57.34307,6.57428 -61,6.32464 l -3.5,-0.23892 -0.63312,6.5 c -0.34821,3.575 -0.68571,10.88012 -0.75,16.2336 l -0.11688,9.7336 26.25,-0.55459 c 28.39762,-0.59997 30.04602,-0.36494 32.43877,4.62505 0.65382,1.36353 1.72822,9.32238 2.38755,17.68634 1.07787,13.67342 1.03391,15.45882 -0.43588,17.702 -2.60235,3.97169 -14.97437,6.88915 -42.43445,10.0065 -6.7617,0.76761 -12.9492,1.93942 -13.75,2.60402 -1.17442,0.97469 -1.43229,4.32724 -1.33345,17.33592 0.0674,8.87016 0.40489,20.78641 0.75,26.48055 l 0.62746,10.35299 38.5,0.28563 c 38.57572,0.28619 70.02824,1.12803 75.32984,2.01623 5.46777,0.91604 9.53346,3.54276 10.57719,6.83362 0.55098,1.7372 0.89274,9.99264 0.75948,18.34542 -0.31365,19.65958 0.33314,18.86166 -15.9614,19.69105 -48.25131,2.45599 -114.55527,3.24382 -139.41499,1.65655 z"
         id="path3809"
         inkscape:connector-curvature="0" />
      <path
         style="fill:#fdc6b5"
         d="m 160.48432,383.42549 c -9.24357,-0.55481 -10.5471,-0.87485 -12.8198,-3.14755 -3.33549,-3.33549 -4.60024,-9.12401 -3.20469,-14.66722 0.79239,-3.14739 0.77593,-7.08889 -0.0606,-14.5 -1.66936,-14.79029 -2.92798,-33.66756 -3.61223,-54.17768 -0.33028,-9.9 -1.03351,-23.85 -1.56273,-31 -0.52923,-7.15 -1.14516,-26.95 -1.36875,-44 -0.26329,-20.07844 -0.84569,-32.76154 -1.65308,-36 -1.35103,-5.41902 -1.50418,-32.65784 -0.19662,-34.97181 0.42257,-0.74783 2.51769,-2.74759 4.65581,-4.44393 l 3.88751,-3.08426 21.11249,-0.14554 c 11.61188,-0.08 26.2875,-0.20826 32.6125,-0.28493 13.37613,-0.16215 34.09584,-1.29418 42,-2.29469 3.025,-0.3829 6.175,-0.59161 7,-0.46378 6.92341,1.0727 12.66306,0.89742 15.30214,-0.4673 1.86998,-0.96701 4.11213,-1.30081 6.08014,-0.90518 1.71475,0.34471 5.47509,1.02253 8.35632,1.50628 2.88124,0.48374 6.93124,1.70655 9,2.71734 l 3.7614,1.8378 0.72226,14 c 0.39724,7.7 1.18474,15.03367 1.75,16.29705 0.56526,1.26338 1.02774,3.58186 1.02774,5.15218 0,3.78187 -2.81447,4.73309 -19.5,6.59056 -7.15,0.79595 -17.9295,2.12525 -23.95443,2.954 -6.02494,0.82876 -12.09994,1.4568 -13.5,1.39565 -1.40007,-0.0611 -9.74557,0.86243 -18.54557,2.05238 -8.8,1.18995 -19.2518,2.03914 -23.22623,1.88709 -4.84651,-0.18541 -7.6457,0.14293 -8.5,0.99703 -0.87542,0.87522 -1.43014,6.16215 -1.77377,16.90564 -0.55029,17.20449 -0.0942,18.8714 4.87371,17.814 2.10901,-0.44889 34.68322,-0.83137 47.57482,-0.55861 3.58196,0.0758 6.24897,2.31411 6.99036,5.86672 0.30373,1.45547 0.9968,8.6523 1.54014,15.99296 1.04212,14.07935 0.68835,16.19063 -3.04805,18.19029 -3.22852,1.72785 -24.48674,5.75504 -36.97379,7.00437 -12.50261,1.25088 -16.62822,2.37434 -17.79512,4.84584 -0.80137,1.69731 0.36286,51.43247 1.25861,53.76674 0.42161,1.0987 3.505,1.23454 16.29965,0.7181 13.94698,-0.56296 57.24042,0.5333 88.77967,2.24805 13.42685,0.73 18.02798,2.32627 19.3679,6.71931 0.53022,1.73836 0.85786,9.76692 0.7281,17.84126 -0.2936,18.26877 -0.31799,18.31093 -10.06685,17.399 -9.2487,-0.86515 -12.33732,-0.75264 -14.74744,0.53721 -4.20924,2.25272 -99.20092,3.63848 -128.57156,1.87563 z m 19.95747,-76.90215 c -0.18592,-3.97523 -0.7367,-6.85662 -1.25,-6.53939 -1.02935,0.63618 -1.27448,12.75889 -0.27814,13.75524 1.43904,1.43904 1.84359,-0.47123 1.52814,-7.21585 z m -2.16762,-115.5903 c 0,-0.83333 -0.88889,-1.5 -2,-1.5 -1.11111,0 -2,0.66667 -2,1.5 0,0.83333 0.88889,1.5 2,1.5 1.11111,0 2,-0.66667 2,-1.5 z m 21.17244,-13.07679 c 0.91984,-4.90142 1.49293,-9.09118 1.27353,-9.31057 -0.21939,-0.21939 -0.58593,0.22801 -0.81453,0.99423 -0.2286,0.76622 -1.36419,4.44008 -2.52354,8.16413 -2.41857,7.76893 -2.62666,10.06827 -0.8579,9.47977 0.68923,-0.22932 2.00028,-4.41378 2.92244,-9.32756 z m 2.51067,-15.61071 c -0.31922,-0.79773 -0.55618,-0.56078 -0.60416,0.60417 -0.0434,1.05416 0.19292,1.64479 0.52522,1.3125 0.33229,-0.3323 0.36781,-1.19479 0.0789,-1.91667 z m 2.31689,-6.3125 c 0,-0.825 -0.17686,-1.5 -0.39301,-1.5 -0.21616,0 -0.65203,0.675 -0.96862,1.5 -0.31658,0.825 -0.13972,1.5 0.39301,1.5 0.53274,0 0.96862,-0.675 0.96862,-1.5 z"
         id="path3807"
         inkscape:connector-curvature="0" />
      <path
         style="fill:#fdad94"
         d="m 157.4356,382.60111 c -6.28899,-0.57252 -7.66949,-1.05312 -9.65234,-3.3603 -3.58694,-4.17364 -4.07462,-9.6224 -1.41466,-15.80565 1.86949,-4.34574 2.05718,-5.71552 1.14416,-8.35031 -1.72002,-4.96367 -4.06758,-30.83657 -5.32172,-58.65181 -0.63237,-14.025 -1.28418,-26.85 -1.44848,-28.5 -1.15273,-11.57688 -2.39229,-42.22097 -2.3767,-58.75624 0.0103,-10.86592 -0.21028,-20.12663 -0.49008,-20.57934 -2.91657,-4.71912 -2.8457,-36.09258 0.087,-38.50732 0.77292,-0.63641 2.41137,-2.17203 3.64101,-3.41249 l 2.23571,-2.25539 44.96734,-0.32428 c 24.73203,-0.17835 46.04772,0.0637 47.36819,0.53799 1.8404,0.66099 2.90591,0.38779 4.56445,-1.17033 2.96159,-2.78227 9.1556,-2.80239 10.0347,-0.0326 0.45773,1.44217 1.59218,2.04184 4.06739,2.15 1.88793,0.0825 3.98895,0.195 4.66891,0.25 0.67997,0.055 1.39293,-0.8 1.58436,-1.9 0.79465,-4.56622 5.62814,-5.63973 12.89591,-2.86414 3.24252,1.23833 4.28343,2.168 4.28343,3.82568 0,1.20441 1.125,3.24672 2.5,4.53846 1.375,1.29174 2.5,1.82019 2.5,1.17431 0,-0.64587 -0.41968,-1.17431 -0.93261,-1.17431 -1.2383,0 -2.371,-3.69973 -1.54291,-5.03961 0.45354,-0.73385 1.07201,-0.71024 2.02074,0.0771 0.75194,0.62406 1.85659,0.83217 2.45478,0.46247 0.59819,-0.3697 1.7429,-0.12834 2.5438,0.53635 1.14578,0.95091 1.4562,4.14074 1.4562,14.96365 0,11.00681 0.2997,14.00384 1.5,15 2.2023,1.82774 1.90543,6.71265 -0.48571,7.99235 -1.09215,0.5845 -6.82965,1.53831 -12.75,2.11958 -5.92036,0.58127 -14.26093,1.69388 -18.5346,2.47246 -10.28721,1.87414 -19.62342,1.8142 -23.56332,-0.15128 -3.34031,-1.66637 -5.64435,-1.12109 -4.78004,1.13126 0.56251,1.46588 -2.00791,2.15014 -10.88633,2.898 -2.75,0.23164 -7.22015,0.83857 -9.93366,1.34873 -3.04953,0.57334 -7.25035,0.56858 -11,-0.0125 -10.92526,-1.69297 -13.81266,-1.5507 -14.23421,0.70136 -1.16116,6.20337 -2.31357,35.91856 -1.42735,36.80478 0.54637,0.54637 4.05382,0.91982 7.79431,0.82987 3.7405,-0.0899 13.91421,-0.33553 22.60825,-0.54574 15.04601,-0.36379 15.90192,-0.28067 17.77114,1.7257 1.74721,1.87541 2.31648,1.97479 5.16129,0.90099 2.55794,-0.96551 3.4588,-0.9456 4.50395,0.0996 1.73959,1.73959 3.06533,10.84042 3.4456,23.65304 l 0.31068,10.46819 -2.90627,1.41127 c -4.81622,2.33875 -24.29366,6.20233 -37.63919,7.4662 -12.47278,1.18121 -17.89749,2.97771 -17.99443,5.9592 -0.0219,0.67482 0.0689,9.77695 0.20192,20.22695 0.133,10.45 0.26345,22.01493 0.28989,25.69984 0.0264,3.68491 0.51574,7.16758 1.08733,7.73926 0.66239,0.66248 14.6239,1.23235 38.5,1.57147 33.96114,0.48236 57.64597,1.49618 68.46075,2.93045 2.2,0.29176 6.60508,0.80456 9.78907,1.13955 8.31643,0.87496 8.57681,1.51433 8.32311,20.43797 -0.11443,8.5352 -0.51696,16.01838 -0.89453,16.62929 -1.34552,2.1771 -4.66094,2.09714 -9.40406,-0.22681 -6.84898,-3.35574 -14.64223,-3.0963 -15.58763,0.51893 -0.29422,1.1251 -1.85287,1.99324 -4.34246,2.41868 -5.36704,0.91716 -116.17098,1.6334 -125.22207,0.80944 z m 100.34294,-34.17513 c 0.34231,-0.55389 -0.10054,-1.28448 -0.98412,-1.62354 -1.91464,-0.73472 -2.98171,0.0749 -2.06137,1.56407 0.83038,1.34358 2.23491,1.37101 3.04549,0.0595 z m -75.84209,-26.24294 c -0.27741,-0.6875 -0.50439,-0.125 -0.50439,1.25 0,1.375 0.22698,1.9375 0.50439,1.25 0.27741,-0.6875 0.27741,-1.8125 0,-2.5 z m -0.25022,-16.6278 c -0.7388,-12.69766 -1.65814,-15.17336 -3.26494,-8.79218 -1.63962,6.51151 -1.4164,14.9565 0.52347,19.80473 1.55864,3.89542 1.72719,4.02225 2.51506,1.89244 0.46445,-1.25554 0.56634,-7.06278 0.22641,-12.90499 z m 51.58794,-56.75431 c 0,-3.30286 -1.56321,-5.29867 -2.9221,-3.73076 -0.41131,0.47458 -0.54461,3.09069 -0.29621,5.81358 0.41088,4.50407 0.57642,4.78003 1.83497,3.05887 0.76084,-1.04051 1.38334,-3.35427 1.38334,-5.14169 z m -54.09632,-53.44076 c 0.94109,-3.14105 0.94929,-4.39937 0.0358,-5.5 -1.49373,-1.79984 -4.3531,-1.83866 -5.81355,-0.0789 -0.85368,1.02862 -0.64566,1.77649 0.87756,3.15498 1.09806,0.99373 1.99647,2.86204 1.99647,4.1518 0,3.67898 1.56229,2.74933 2.90368,-1.72786 z m 18.99378,-7.17713 c 0.47002,-1.2375 2.08514,-8.55 3.58916,-16.25 1.50402,-7.7 2.96227,-15.0125 3.24056,-16.25 0.35594,-1.58282 0.0466,-2.25 -1.04322,-2.25 -1.66176,0 -2.19685,1.2351 -3.24927,7.5 -0.64647,3.84828 -1.48562,7.2158 -4.93711,19.81258 -1.55808,5.6865 -1.3139,9.68742 0.59125,9.68742 0.52472,0 1.33861,-1.0125 1.80863,-2.25 z"
         id="path3805"
         inkscape:connector-curvature="0" />
      <path
         style="fill:#fd916b"
         d="m 155.50881,381.373 c -5.53606,-1.09143 -6.16867,-1.53783 -7.83667,-5.52992 -2.0975,-5.02001 -1.80198,-10.01365 0.69613,-11.7634 1.72305,-1.20687 2.11631,-2.59012 2.21941,-7.8067 0.0718,-3.6346 0.67176,-6.90381 1.4059,-7.66137 1.41898,-1.46423 1.73116,-4.17857 0.48059,-4.17857 -0.44,0 -1.3325,0.5325 -1.98333,1.18333 -1.69377,1.69377 -2.45754,0.49662 -3.4756,-5.4478 -1.47449,-8.60943 -1.80561,-44.44628 -0.42071,-45.53359 2.36997,-1.86072 6.41558,-2.22503 7.68766,-0.69227 1.61026,1.94024 4.40662,1.90058 6.05523,-0.0859 1.08399,-1.30612 1.06213,-1.74194 -0.12755,-2.54336 -1.486,-1.00104 -8.1276,-0.63794 -11.1718,0.61076 -2.41859,0.99208 -3.68607,-2.78455 -4.31761,-12.86493 -0.28002,-4.46943 -1.43839,-14.42624 -2.57415,-22.12624 -1.64017,-11.11958 -2.05403,-18.73213 -2.01154,-37 0.0354,-15.2043 -0.44036,-26.3644 -1.40355,-32.92613 -2.35833,-16.06611 -1.83431,-21.57387 2.05259,-21.57387 2.59528,0 3.49036,-1.68786 3.49036,-6.58179 0,-3.89596 -1.1238,-4.29441 -4,-1.41821 l -2,2 0,-3.1061 c 0,-3.81205 5.29796,-10.8939 8.14977,-10.8939 1.08994,0 2.85213,0.46583 3.91597,1.03518 1.37549,0.73614 2.58424,0.68534 4.18426,-0.17585 2.8623,-1.54061 18.32424,-1.26756 25.75,0.45472 3.94198,0.91428 8.75769,1.05657 17,0.50231 6.325,-0.42534 12.14956,-0.53873 12.94347,-0.25199 0.79391,0.28674 8.66891,0.43811 17.5,0.33637 8.83109,-0.10173 20.3214,-0.23352 25.53401,-0.29285 8.63949,-0.0984 9.51109,-0.28473 9.85761,-2.10789 0.56473,-2.97128 2.13842,-4.5 4.63237,-4.5 2.47425,0 5.53254,2.84927 5.53254,5.15443 0,1.99161 3.53182,5.16064 8.75724,7.8577 2.66549,1.37578 4.48322,3.09777 4.86166,4.60559 0.79998,3.18736 -1.21031,5.52293 -4.12423,4.79159 -2.89955,-0.72775 -3.7814,0.70632 -2.50262,4.06977 0.73152,1.92404 1.59876,2.56143 3.17558,2.33391 1.61635,-0.23321 2.348,0.34624 2.87058,2.27344 0.38573,1.42253 1.43874,3.71185 2.34001,5.08737 1.5282,2.33232 1.52012,2.60436 -0.11977,4.03507 -3.25031,2.83569 -5.71841,3.48207 -14.07663,3.68658 l -8.31819,0.20353 -1.15105,-3.04949 c -0.63308,-1.67722 -1.67925,-3.04949 -2.32483,-3.04949 -1.62787,0 -2.54643,2.77952 -1.08157,3.27277 0.90623,0.30515 0.88589,0.77517 -0.0845,1.95114 -2.018,2.44563 -12.43934,3.05658 -22.22173,1.30274 -9.55748,-1.71351 -31.5031,-2.04627 -35.47058,-0.53784 -3.58715,1.36384 -4.02841,-0.31876 -2.13571,-8.14376 1.59602,-6.59844 3.37251,-15.10742 4.27003,-20.45247 0.37925,-2.25857 0.0872,-3.27416 -1.06899,-3.71785 -2.04377,-0.78427 -4.22774,2.54602 -5.13174,7.82527 -0.85678,5.0035 -4.05369,17.50527 -6.0465,23.64529 -1.55763,4.79918 -3.04129,5.8125 -8.5522,5.84105 -1.44963,0.008 -3.841,-0.61166 -5.31416,-1.37594 -2.92432,-1.51716 -5.85669,-1.15089 -7.59964,0.94923 -0.82394,0.99279 -0.78627,2.25258 0.14433,4.8261 1.01334,2.80233 1.01259,3.77991 -0.004,5.00463 -1.52493,1.83744 -0.6348,3.60964 1.81304,3.60964 4.76638,0 6.47872,7.9699 4.65242,21.65422 -0.45174,3.38483 -0.53883,7.27985 -0.19354,8.6556 0.59833,2.38394 0.89795,2.4781 6.38245,2.00586 3.16505,-0.27253 6.86211,-0.0725 8.21568,0.44454 1.81068,0.69164 3.92477,0.41584 8,-1.04367 4.94613,-1.77142 6.36969,-1.86625 13.3007,-0.88603 4.26895,0.60374 8.37625,0.86189 9.12731,0.57368 0.75107,-0.28821 2.79455,0.34498 4.54106,1.4071 2.31936,1.41049 4.33932,1.79994 7.49237,1.44455 2.68004,-0.30208 4.58749,-0.0487 5.03055,0.66815 0.39251,0.6351 0.92473,4.84951 1.18271,9.36536 0.25799,4.51585 0.66516,10.73654 0.90484,13.82376 l 0.43578,5.61311 -6.60634,0.67684 c -3.63348,0.37226 -8.33524,1.55886 -10.44834,2.63689 -2.1131,1.07802 -4.65992,1.96004 -5.6596,1.96004 -0.99968,0 -2.62168,0.9391 -3.60446,2.0869 -1.6557,1.93372 -2.63836,2.06217 -13.38835,1.75 -9.00898,-0.26162 -11.70093,-0.039 -12.04643,0.99624 -0.24471,0.73322 -2.47092,2.20157 -4.94712,3.263 -3.91963,1.68015 -4.40934,2.21931 -3.78468,4.16686 0.39462,1.23035 0.89374,3.812 1.10915,5.737 l 0.39166,3.5 -1.33515,-3.5 c -2.80883,-7.36318 -5.49404,-1.93421 -6.26975,12.67619 -0.45187,8.51093 -0.23409,11.75883 1.01919,15.19954 0.87662,2.40665 1.61257,5.55665 1.63545,7 0.0229,1.44335 0.82421,4.82869 1.78075,7.52297 1.5754,4.43746 2.15997,5.02921 6.20841,6.28477 3.09734,0.96058 8.76678,1.31542 18.46925,1.15593 12.53952,-0.20611 31.99598,1.23108 36.64602,2.70694 0.96342,0.30578 2.03002,1.43295 2.37022,2.50481 0.34484,1.08652 1.51451,1.94885 2.64342,1.94885 1.11368,0 3.16905,0.9 4.56747,2 4.6504,3.65801 10.58492,1.49078 7.17352,-2.61971 -0.99753,-1.20195 -2.37842,-1.44959 -5.61187,-1.00639 -4.72319,0.64738 -5.50018,-0.41199 -2.06627,-2.8172 2.5108,-1.75863 5.96649,-2.00918 8.54106,-0.61925 1.78638,0.96441 31.42108,3.38336 43.55027,3.55481 8.25926,0.11674 9.04051,0.9385 8.08841,8.50774 -0.9197,7.31167 -0.92078,8.23934 -0.0198,17.17302 0.73008,7.23947 0.65175,7.73833 -1.38639,8.82911 -1.81484,0.97127 -2.75518,0.74377 -5.88186,-1.42301 -3.17015,-2.19689 -4.80385,-2.57912 -11.02359,-2.57912 -6.32974,0 -7.69746,0.33285 -10.27298,2.5 -4.13408,3.4786 -6.51932,3.13912 -10.99397,-1.56471 l -3.86666,-4.06471 -5.5745,1.62055 c -3.06597,0.89131 -6.5438,2.69133 -7.7285,4.00005 l -2.154,2.37949 -13.65445,-1.33762 c -7.50995,-0.73569 -14.60451,-1.63916 -15.7657,-2.00771 -1.16119,-0.36854 -3.79168,-0.1091 -5.84555,0.57655 -4.93835,1.64859 -18.0714,1.23007 -20.97291,-0.66836 -2.32396,-1.52055 -4.15862,-1.00379 -8.39254,2.3639 -1.35214,1.0755 -1.89582,1.03274 -3.17857,-0.25 -2.18789,-2.1879 -4.17678,-1.92783 -7.28478,0.95257 -2.41443,2.23762 -3.49559,2.4885 -10.30152,2.39043 -4.18219,-0.0603 -9.52339,-0.48797 -11.86934,-0.95047 z m 2.12699,-13.43996 c 0.31658,-0.825 0.13972,-1.5 -0.39302,-1.5 -0.53273,0 -0.96861,0.675 -0.96861,1.5 0,0.825 0.17686,1.5 0.39301,1.5 0.21616,0 0.65203,-0.675 0.96862,-1.5 z m 39.4092,-2.3125 c 0.22111,-0.66333 -0.52375,-1.1875 -1.6875,-1.1875 -2.07732,0 -2.69993,1.05007 -1.39583,2.35417 0.92647,0.92647 2.59622,0.29467 3.08333,-1.16667 z m 57.25375,-0.71711 c 0.97068,-1.16961 1.00455,-2.11105 0.14388,-4 -0.61907,-1.35872 -1.58394,-2.47039 -2.14415,-2.47039 -1.16089,0 -3.96354,6.10966 -3.32575,7.25 0.72486,1.29601 4.00145,0.81639 5.32602,-0.77961 z m -87.46571,-1.99979 c 1.87978,-1.48106 1.8646,-1.52057 -0.48054,-1.25 -1.33192,0.15367 -2.60692,0.8419 -2.83334,1.5294 -0.56018,1.701 0.96337,1.57255 3.31388,-0.2794 z m 138.24113,-0.6706 c 1.64091,-1.64091 1.53582,-10.2764 -0.14201,-11.66888 -1.61158,-1.33749 -2.65799,-0.49848 -2.65799,2.13118 0,1.06093 -0.94909,3.26183 -2.10909,4.8909 -1.16,1.62907 -1.9475,3.09468 -1.75,3.2569 0.79811,0.65554 4.3954,2.53109 4.90909,2.55949 0.3025,0.0167 1.09,-0.50959 1.75,-1.16959 z m -133.42162,-23.55 c -0.81727,-3.40669 -0.98608,-3.61049 -2.31185,-2.79112 -0.58659,0.36254 -1.06653,1.7576 -1.06653,3.10014 0,1.78199 0.54508,2.44098 2.01905,2.44098 1.69587,0 1.91345,-0.44018 1.35933,-2.75 z m -21.37838,-18.25 c 0,-0.55 -0.45,-1 -1,-1 -0.55,0 -1,0.45 -1,1 0,0.55 0.45,1 1,1 0.55,0 1,-0.45 1,-1 z m 11.75573,-46.57833 c 0.33375,-2.50797 -1.22827,-4.86569 -2.64393,-3.99077 -1.22262,0.75562 -1.51468,4.83288 -0.4243,5.92327 1.14623,1.14623 2.79688,0.10658 3.06823,-1.9325 z m 71.63569,-19.44191 c 2.09999,-5.24838 2.13009,-11.84241 0.0577,-12.63766 -0.88124,-0.33816 -2.54361,0.33749 -3.85,1.56478 -1.98277,1.86272 -2.23356,2.87768 -1.82264,7.37652 0.77548,8.49009 3.0878,10.01231 5.61494,3.69636 z m -62.95332,-11.50272 c -0.0461,-4.45554 -0.42185,-5.97704 -1.47592,-5.97704 -2.0411,0 -3.3541,4.59735 -2.5449,8.91075 0.51812,2.76183 1.13076,3.62798 2.38973,3.37863 1.37314,-0.27196 1.68129,-1.46453 1.63109,-6.31234 z m -10.01231,-42.80982 c -0.35187,-0.91697 -1.04162,-1.66722 -1.53278,-1.66722 -1.04564,0 -1.20723,3.35245 -0.20968,4.35 1.12469,1.12468 2.43146,-0.88729 1.74246,-2.68278 z m 97.57421,-17.66722 c 0,-0.55 -0.45,-1 -1,-1 -0.55,0 -1,0.45 -1,1 0,0.55 0.45,1 1,1 0.55,0 1,-0.45 1,-1 z m -48,-11 c 0,-0.55 -0.9,-1 -2,-1 -1.1,0 -2,0.45 -2,1 0,0.55 0.9,1 2,1 1.1,0 2,-0.45 2,-1 z m -58,-19.58333 c 0,-0.87084 -0.53438,-1.40521 -1.1875,-1.1875 -1.85422,0.61807 -2.16176,2.77083 -0.39583,2.77083 0.87083,0 1.58333,-0.7125 1.58333,-1.58333 z"
         id="path3803"
         inkscape:connector-curvature="0" />
      <path
         style="fill:#fe8657"
         d="m 154.41762,379.25053 c -3.69976,-2.36853 -7.89465,-10.46629 -6.26572,-12.09522 1.42215,-1.42215 3.12227,0.0826 3.12227,2.76351 0,1.66966 0.9535,2.8434 3.23407,3.98111 3.00915,1.50116 3.32212,1.49296 4.5,-0.11789 0.69626,-0.95219 1.26593,-2.51869 1.26593,-3.48111 0,-2.03232 1.02575,-2.80507 6.49942,-4.89636 4.64894,-1.77619 5.16973,-4.0122 1.25512,-5.38889 -2.31282,-0.81338 -3.17952,-0.56821 -5.5,1.55585 -3.35917,3.07483 -8.80464,3.71849 -9.46155,1.11837 -0.24412,-0.96627 -0.17144,-4.53701 0.16153,-7.93497 0.74696,-7.62284 2.8938,-10.40299 7.97741,-10.33071 4.96096,0.0705 10.59513,-0.58085 11.87708,-1.37314 0.59186,-0.36579 1.05917,-2.85135 1.03847,-5.52346 -0.0317,-4.08726 -0.41934,-5.06267 -2.44255,-6.14546 -2.03042,-1.08665 -2.40493,-2.0394 -2.40493,-6.1181 0,-3.46267 -0.39456,-4.83102 -1.39301,-4.83102 -2.11149,0 -2.77133,2.83653 -2.03352,8.74177 0.55094,4.40953 0.34404,5.6919 -1.19223,7.38946 -3.24634,3.58716 -5.32814,4.2268 -7.46443,2.29349 -1.05424,-0.95408 -1.91681,-2.2448 -1.91681,-2.86827 0,-0.62346 -0.92286,-2.91622 -2.05079,-5.09501 -1.50199,-2.90134 -1.89753,-5.03186 -1.47806,-7.96144 0.41338,-2.88713 0.0245,-5.07399 -1.39763,-7.86026 -1.96295,-3.84575 -1.96285,-3.87042 0.0256,-6.55992 1.64973,-2.23138 1.81136,-3.1851 0.93184,-5.49842 -0.8843,-2.3259 -1.31473,-2.59077 -2.54752,-1.56765 -1.24785,1.03563 -1.48342,0.80971 -1.48342,-1.42269 0,-3.22091 2.2934,-4.30718 5.4861,-2.5985 1.29316,0.69208 3.8503,1.03806 5.68254,0.76885 1.83225,-0.26921 4.33053,-0.0345 5.55175,0.52158 1.61779,0.73666 2.65295,0.65205 3.81428,-0.31177 3.42363,-2.84135 -1.0931,-9.97122 -6.31671,-9.97122 -1.40827,0 -3.3221,-0.68926 -4.25297,-1.53169 -1.52372,-1.37895 -2.00091,-1.35468 -4.78536,0.24338 -2.48578,1.42664 -3.33995,1.52799 -4.35164,0.5163 -1.01168,-1.01168 -0.66892,-1.8486 1.74621,-4.26373 l 3.00498,-3.00497 2.22335,2.07137 c 2.36186,2.20041 5.1373,1.8067 3.2547,-0.4617 -1.16746,-1.4067 -0.41948,-2.56896 1.65327,-2.56896 0.75745,0 1.30413,0.5625 1.21485,1.25 -0.4109,3.16432 0.21999,3.75 4.03947,3.75 2.94136,0 4.24111,0.51627 5.03518,2 0.5887,1.1 1.95453,2 3.03518,2 1.7294,0 1.96057,0.68896 1.92939,5.75 -0.0195,3.1625 -0.67855,6.875 -1.46457,8.25 -2.06887,3.6191 -1.83068,6.08404 1.121,11.60106 1.73466,3.24229 3.06768,8.06591 3.9419,14.2641 1.41983,10.06651 2.94412,12.38664 8.4371,12.84216 4.42789,0.36719 15.15855,2.27264 16.10997,2.86065 0.50746,0.31362 0.68618,0.95285 0.39715,1.42051 -0.57643,0.93268 2.11388,4.01152 3.50529,4.01152 1.67084,0 1.95332,-1.78355 0.47658,-3.00914 -2.18809,-1.81595 -1.8719,-2.59109 2.04419,-5.01137 3.41449,-2.11027 3.74203,-2.13272 9.75,-0.66834 3.41925,0.83341 8.69182,2.05386 11.71682,2.71211 3.025,0.65825 7.38013,2.2723 9.67807,3.58678 2.29794,1.31448 5.13279,2.38996 6.29966,2.38996 1.16687,0 3.47173,0.69819 5.12191,1.55153 4.73937,2.45082 11.23025,-0.57401 10.14415,-4.72729 -0.52893,-2.02263 -0.32095,-2.04891 10.85847,-1.37179 6.26876,0.37969 12.29774,0.95639 13.39774,1.28155 3.52218,1.04117 -3.39116,2.32766 -8.75,1.62827 l -4.75,-0.61993 0,4.06981 c 0,5.22707 1.47444,6.06555 4.89812,2.78546 2.1964,-2.10429 3.34919,-2.49815 5.84869,-1.99825 4.24687,0.84938 7.24273,4.24745 6.97148,7.90747 -0.21035,2.83831 -0.0183,2.97673 5.28171,3.80612 7.19106,1.12532 9.14613,1.17064 11.20813,0.25976 1.33557,-0.58998 1.83546,-0.13493 2.29194,2.08637 0.3211,1.56251 0.99395,4.37224 1.49521,6.24385 0.95721,3.57403 -0.12797,7.09707 -2.18607,7.09707 -0.61624,0 -2.7379,-1.2375 -4.71482,-2.75 -3.18612,-2.43764 -4.44868,-2.75 -11.11554,-2.75 -6.28454,0 -7.992,0.36994 -10.38486,2.25 -1.57504,1.2375 -3.72839,2.25 -4.78522,2.25 -2.67792,0 -7.30349,-5.37016 -8.73178,-10.13735 -1.34444,-4.48736 -3.75491,-4.74941 -3.26519,-0.35497 0.38472,3.45219 -1.08842,4.45729 -6.5618,4.47701 -4.01466,0.0145 -4.25,-0.14334 -4.25,-2.84983 0,-1.57583 0.93362,-4.05205 2.07471,-5.50272 1.77279,-2.25372 1.85226,-2.72293 0.54609,-3.22416 -0.84075,-0.32262 -2.43419,-2.1214 -3.54099,-3.99728 -2.20606,-3.739 -4.07981,-4.45543 -4.07981,-1.55992 0,3.47064 -2.16308,8.0662 -4.08358,8.67575 -3.02396,0.95976 -2.25214,2.30598 1.9746,3.44412 4.9895,1.34354 7.79247,5.23384 6.23455,8.65309 -1.32881,2.91642 -4.6062,3.05505 -21.02611,0.88938 -7.75409,-1.02271 -14.96043,-1.28863 -23.08412,-0.85183 l -11.81073,0.63506 -1.63473,-3.16121 c -1.57687,-3.04933 -1.55194,-3.24399 0.70452,-5.50045 1.28658,-1.28658 2.91229,-2.53025 3.6127,-2.76372 2.41688,-0.80563 -0.71449,-5.56218 -3.73008,-5.66598 -1.46136,-0.0503 -4.34452,-0.39123 -6.40702,-0.75763 -2.0625,-0.36639 -3.75,-0.43122 -3.75,-0.14405 0,0.28717 1.575,2.91364 3.5,5.8366 1.925,2.92297 3.5,5.5925 3.5,5.9323 0,1.81793 -4.46593,4.16525 -9.16066,4.8149 -2.93664,0.40637 -6.32226,1.27301 -7.5236,1.92587 -1.20134,0.65286 -3.45134,1.20133 -5,1.21882 -1.54866,0.0175 -3.68925,0.6925 -4.75687,1.5 -2.84911,2.15496 -9.48544,1.80161 -13.41542,-0.71431 z m 65.71331,-14.7078 c 0.99005,-0.62733 1.04468,-1.05257 0.20212,-1.5733 -1.43263,-0.88541 -4.05888,0.0413 -4.05888,1.43223 0,1.24728 1.99573,1.32028 3.85676,0.14107 z m -54.50742,-13.64172 c -0.30983,-0.80738 -0.96517,-1.46797 -1.45633,-1.46797 -1.0261,0 -1.20655,2.35313 -0.25353,3.30615 1.06676,1.06675 2.31121,-0.27108 1.70986,-1.83818 z m 10.62154,-65.96797 c -0.10574,-0.55 -0.12046,-1.93459 -0.0327,-3.07687 0.13168,-1.71389 -0.89763,-2.39697 -5.88931,-3.90833 -4.6208,-1.39907 -6.04887,-2.27798 -6.04887,-3.72279 0,-1.04023 -0.68656,-3.21898 -1.52568,-4.84167 -1.99207,-3.85224 -5.22381,-3.95988 -6.01483,-0.20034 -0.87083,4.13885 -1.95453,5.71857 -4.14912,6.04826 -5.19376,0.78024 -7.56629,-8.49172 -7.75768,-30.31736 -0.0821,-9.3605 -0.48372,-17.56029 -0.89253,-18.22175 -0.4088,-0.66146 -0.0108,-2.32058 0.88447,-3.68693 0.89527,-1.36635 1.35684,-2.92263 1.02571,-3.45841 -0.33113,-0.53578 -0.80595,-6.68013 -1.05516,-13.65411 -0.2663,-7.45254 -0.92946,-13.25396 -1.60861,-14.07227 -1.53895,-1.85433 -3.82756,-12.75362 -3.87144,-18.43743 -0.0377,-4.88854 1.23128,-6.95 4.27837,-6.95 1.63125,0 1.81348,0.47939 1.23541,3.25 -1.77801,8.52186 -1.79044,11.72009 -0.0481,12.38868 2.50776,0.96231 3.32935,-1.23406 2.13518,-5.70801 -0.88714,-3.32368 -0.75534,-4.46652 0.82932,-7.19118 2.54197,-4.37065 3.20667,-4.70648 9.35045,-4.72418 5.37295,-0.0155 9.18426,-1.28138 9.18426,-3.05049 0,-0.53065 -1.30338,-0.96482 -2.89641,-0.96482 -3.8784,0 -9.35119,-6.04504 -8.91041,-9.84212 0.5425,-4.67339 3.93457,-5.38779 16.42399,-3.45905 20.66035,3.19058 82.88562,3.02891 95.76382,-0.2488 2.16776,-0.55174 3.10844,-0.32685 3.79971,0.90837 0.50529,0.90291 2.35884,2.36701 4.119,3.25357 1.76017,0.88657 4.67174,3.0085 6.47018,4.71541 l 3.26987,3.10348 -3.25026,1.5347 c -2.98171,1.4079 -3.22584,1.87281 -2.95479,5.62691 0.24822,3.4378 -0.1051,4.35468 -2.2094,5.73348 -2.09787,1.37457 -2.41551,2.19196 -1.95488,5.03052 0.78443,4.83386 -0.98992,5.23132 -4.89161,1.09573 -3.83395,-4.06378 -9.4807,-5.87681 -17.25361,-5.53971 -5.73371,0.24867 -7.5252,1.36995 -7.5252,4.70995 0,2.79791 -2.42819,3.1668 -5.7108,0.86757 -2.98425,-2.09025 -10.64834,-2.98966 -14.01271,-1.64444 -1.52707,0.61059 -6.93899,1.2749 -12.02649,1.47625 -8.21104,0.32497 -9.25,0.17358 -9.25,-1.34781 0,-2.10435 5.37721,-3.12122 18.86901,-3.56826 5.15296,-0.17074 9.579,-0.52042 9.83565,-0.77707 1.40949,-1.4095 -5.52967,-3.02715 -15.1942,-3.54206 l -11.01046,-0.58662 0.2555,-3.5 c 0.14053,-1.925 0.77701,-4.50866 1.41441,-5.74146 0.87725,-1.6967 0.87801,-2.85794 0.003,-4.77806 -1.76984,-3.88438 -4.13941,-4.26044 -6.68996,-1.06174 -1.21038,1.51796 -3.04725,2.6646 -4.0901,2.55319 -3.74483,-0.40008 -4.53242,0.0258 -4.21255,2.27807 0.20894,1.47118 1.12416,2.36399 2.64405,2.57931 2.13033,0.30181 2.27169,0.6777 1.69228,4.5 -0.34768,2.29388 -1.3937,7.28124 -2.32445,11.08302 -1.39658,5.70449 -2.21649,7.23278 -4.69228,8.74626 -3.29101,2.01183 -7.03338,2.40544 -8,0.84141 -1.21125,-1.95985 -6.05426,-1.00002 -9.13031,1.80953 -1.69182,1.54523 -3.26855,3.38704 -3.50384,4.0929 -0.23528,0.70586 -2.21385,1.43992 -4.39682,1.63124 -2.18297,0.19132 -5.20653,0.65197 -6.71903,1.02367 -2.44558,0.601 -2.75,0.39972 -2.75,-1.81832 0,-1.37177 0.67004,-3.05022 1.48899,-3.72988 2.23856,-1.85784 0.84272,-3.02322 -2.77776,-2.31914 -6.23078,1.21171 -7.01335,5.45536 -2.29742,12.45812 1.9724,2.92885 3.5793,6.23119 3.57088,7.33853 -0.0261,3.43313 -1.52362,4.84589 -4.37736,4.12964 -2.27184,-0.57019 -2.60733,-0.34297 -2.60733,1.76588 0,1.63811 1.05031,3.0911 3.25,4.49603 1.7875,1.14166 3.925,2.51272 4.75,3.0468 0.825,0.53408 2.85,1.56315 4.5,2.28681 l 3,1.31575 0.0964,13.08322 c 0.053,7.19577 0.41709,13.60207 0.80902,14.23622 0.96161,1.55593 4.79439,1.45858 7.03341,-0.17863 1.52419,-1.11452 1.85934,-2.98958 2.05549,-11.5 0.18525,-8.03711 -0.0516,-10.16837 -1.12998,-10.16837 -2.06707,0 -1.63375,-3.08434 0.79679,-5.67153 l 2.16114,-2.30044 -2.76358,-2.5612 c -2.40541,-2.22926 -2.67395,-3.04111 -2.07196,-6.26402 0.82597,-4.42208 0.98034,-4.62128 2.98513,-3.85197 3.02671,1.16145 3.75471,5.57583 2.65889,16.12263 -1.31955,12.69995 -0.60111,13.89497 7.80059,12.97516 6.47959,-0.70938 12.55005,1.28507 12.56155,4.1271 0.009,2.18239 5.17735,4.15401 6.75467,2.57669 0.76344,-0.76344 0.37795,-1.65467 -1.3375,-3.09219 -2.83024,-2.37168 -1.96742,-3.3536 4.52415,-5.14865 5.31723,-1.47031 9.1965,-0.5184 12.55975,3.08197 1.54464,1.65355 3.64254,3.00645 4.662,3.00645 1.65417,0 1.88288,1.01255 2.12606,9.41249 l 0.27249,9.41249 -3.02341,2.15286 c -1.66287,1.18407 -4.21389,4.18426 -5.66892,6.66709 -2.21578,3.78094 -2.98801,4.39434 -4.75386,3.77613 -5.52626,-1.93468 -18.89928,-0.12056 -22.76554,3.08828 -1.46146,1.21295 -4.4999,2.50002 -6.75209,2.86016 -3.37799,0.54017 -4.34285,1.22166 -5.51123,3.89265 -0.77898,1.78082 -1.50285,2.78785 -1.6086,2.23785 z m 12.79978,-17.31197 c 0.55973,-1.6792 -2.66755,-2.69115 -4.07952,-1.27917 -0.89923,0.89923 -0.8249,1.39518 0.31722,2.11652 1.77339,1.12006 3.21692,0.79878 3.7623,-0.83735 z m 37.86771,-4.68803 c 0.31659,-0.825 0.97746,-1.5 1.46862,-1.5 0.49115,0 0.89301,0.675 0.89301,1.5 0,0.825 -0.66088,1.5 -1.46862,1.5 -0.89459,0 -1.24363,-0.58629 -0.89301,-1.5 z m 8.95402,-3.98792 c -0.57773,-2.30184 1.05357,-6.51208 2.52316,-6.51208 1.25195,0 1.88275,6.29712 0.76564,7.64316 -1.65174,1.99023 -2.58605,1.6689 -3.2888,-1.13108 z m 13.6314,-77.68829 c -1.51317,-1.51317 0.23841,-3.82379 2.89865,-3.82379 2.12243,0 2.47882,1.99874 0.67756,3.8 -1.49921,1.49921 -2.09682,1.50318 -3.57621,0.0238 z m -46.22379,-0.82379 c 0,-0.55 0.42344,-1 0.94098,-1 0.51754,0 1.2191,0.45 1.55902,1 0.33992,0.55 -0.0835,1 -0.94098,1 -0.85746,0 -1.55902,-0.45 -1.55902,-1 z"
         id="path3801"
         inkscape:connector-curvature="0" />
      <path
         style="fill:#fd7949"
         d="m 155.01902,378.3142 c -3.3439,-2.49471 -2.61449,-4.68099 0.81257,-2.4355 1.30471,0.85489 2.5729,1.55434 2.81819,1.55434 0.24529,0 1.44069,-2.05481 2.65646,-4.56624 1.80787,-3.73456 3.14461,-4.98323 7.3392,-6.85562 2.8208,-1.25915 6.00409,-3.27436 7.07397,-4.47823 l 1.94523,-2.18886 -3.44523,0.18065 c -1.89488,0.0993 -4.61149,-0.13654 -6.03691,-0.5242 -1.99299,-0.54202 -3.31664,-0.0948 -5.73011,1.93599 -1.87679,1.57922 -4.05093,2.51132 -5.40833,2.31867 -1.99378,-0.28297 -2.30731,-0.97947 -2.57749,-5.72601 -0.16917,-2.97211 0.22292,-6.68461 0.87132,-8.25 0.96369,-2.32655 1.79002,-2.84615 4.52622,-2.84615 2.56674,0 3.21287,0.3503 2.77083,1.50224 -0.89551,2.33366 0.50774,6.49776 2.18967,6.49776 2.39727,0 2.86613,-2.88221 0.83412,-5.12756 -1.81206,-2.0023 -1.81033,-2.08794 0.0699,-3.46276 2.24734,-1.6433 5.16114,-1.84075 6.04559,-0.40968 0.91955,1.48787 2.5,1.20909 2.5,-0.44098 0,-0.79254 0.46906,-1.73088 1.04236,-2.0852 1.12543,-0.69556 9.69375,1.85593 14.28461,4.25369 1.95304,1.02005 4.18252,1.27322 7.21192,0.81893 2.7799,-0.41687 5.22247,-0.20642 6.67303,0.57494 2.48577,1.339 12.78808,2.06199 12.78808,0.89744 0,-0.39349 -1.8,-1.4225 -4,-2.28668 -2.2,-0.86419 -4,-1.98771 -4,-2.49671 0,-1.9828 3.95684,-4.4753 6.21496,-3.91494 11.26553,2.79561 15.32406,3.8852 15.63689,4.19802 0.20148,0.20149 -0.62477,1.75822 -1.83613,3.45941 -2.31024,3.24444 -2.10964,6.37909 0.34788,5.43605 0.79163,-0.30378 1.66653,-1.42119 1.94424,-2.48314 0.71943,-2.75112 9.15604,-2.8011 10.62146,-0.0629 0.54982,1.02734 2.37627,2.14321 4.05879,2.47972 1.68251,0.3365 3.34872,1.36652 3.70268,2.28892 0.91626,2.38773 -1.78754,6.6781 -4.63166,7.34951 -4.02017,0.94903 -3.36582,2.56777 1.66841,4.12731 3.42939,1.06238 5.14781,2.25655 6.10616,4.24329 2.97121,6.15958 0.0219,6.75003 -20.36299,4.07667 -6.57043,-0.86168 -13.39364,-1.29516 -15.16268,-0.96328 -5.76673,1.08185 -16.32703,0.75906 -17.90093,-0.54716 -0.82951,-0.68843 -1.37295,-2.41521 -1.20764,-3.83728 0.23726,-2.0411 1.19557,-2.89499 4.55056,-4.05477 4.6357,-1.60249 5.28388,-2.56791 2.34941,-3.49928 -1.04532,-0.33177 -2.17889,-1.71209 -2.51905,-3.06738 -0.66283,-2.64093 -2.46178,-3.18275 -4.33798,-1.30655 -0.80187,0.80187 -1.55477,0.84194 -2.45,0.13039 -2.32669,-1.84936 -8.15159,-2.29248 -10.79238,-0.82103 -2.47645,1.37987 -2.47992,1.40072 -0.36792,2.21299 2.11162,0.81213 9.36792,8.78435 9.36792,10.29217 0,1.57128 -2.61184,2.79175 -7.48682,3.49847 -2.74276,0.39761 -6.20791,1.35438 -7.70035,2.12615 -1.49243,0.77176 -4.25576,1.40321 -6.14072,1.40321 -1.88497,0 -3.98742,0.675 -4.67211,1.5 -1.84222,2.21974 -8.93007,1.86183 -12.25515,-0.61884 z m 67.65728,-13.96239 c 0.50776,-0.46325 -0.27338,-1.35862 -1.78694,-2.04824 -2.24549,-1.02311 -2.94993,-0.96436 -4.27045,0.35616 -0.86977,0.86976 -1.27556,2.07622 -0.90178,2.68102 0.70703,1.14399 5.3434,0.48513 6.95917,-0.98894 z m 82.84787,12.54728 c -2.98089,-2.09253 -2.84554,-4.23758 0.35955,-5.69792 2.24998,-1.02516 2.80633,-0.91986 4.03774,0.76419 1.74815,2.39074 1.38916,5.84605 -0.64729,6.23021 -0.825,0.15563 -2.5125,-0.42779 -3.75,-1.29648 z M 274.9288,375.6039 c -0.95426,-1.05445 -2.95443,-4.33067 -4.44483,-7.2805 -1.49039,-2.94983 -3.4973,-5.51491 -4.4598,-5.70017 -1.46067,-0.28115 -1.75,0.41929 -1.75,4.23649 0,4.40274 -0.11058,4.57332 -2.96482,4.57332 -1.96261,0 -3.33458,-0.69092 -4.0587,-2.04395 -0.92456,-1.72756 -0.62042,-2.48624 1.96481,-4.90121 3.82215,-3.57042 3.85775,-4.94503 0.14729,-5.68712 -1.82363,-0.36473 -3.11652,-1.36656 -3.46034,-2.68133 -0.3019,-1.15448 -0.45426,-2.13205 -0.33858,-2.17237 0.11569,-0.0403 1.91311,-0.84749 3.99427,-1.79368 2.08116,-0.94618 5.32254,-1.72034 7.20308,-1.72034 2.93865,0 3.65771,0.50272 5.11667,3.57725 1.78332,3.75807 1.93663,3.78194 8.18462,1.27484 2.8095,-1.12735 3.68314,-1.09396 6,0.22933 2.09442,1.19625 2.64278,2.18162 2.40895,4.32872 -0.16651,1.52895 0.37953,3.82119 1.21341,5.09385 1.4063,2.14629 1.35578,2.41378 -0.69725,3.69177 -1.21738,0.7578 -3.41628,1.89834 -4.88645,2.53453 -1.57387,0.68106 -2.8075,2.10516 -3,3.46321 -0.42183,2.97578 -3.8697,3.52174 -6.17233,0.97736 z m -9.65463,-29.17086 c -1.17323,-0.7582 -0.91378,-0.97271 1.19098,-0.98469 1.48004,-0.008 2.9691,0.43469 3.30902,0.98469 0.78917,1.2769 -2.52414,1.2769 -4.5,0 z M 156.30554,333.54953 c -0.57515,-2.13593 -1.68367,-4.41296 -2.46338,-5.06006 -2.19271,-1.81979 -1.84823,-13.49756 0.48184,-16.33455 2.62871,-3.2006 5.26791,-1.29654 6.07446,4.38244 0.34336,2.41762 1.19678,7.00209 1.89649,10.1877 1.04174,4.74276 1.0339,6.2373 -0.0433,8.25 -2.02741,3.78825 -4.71577,3.14375 -5.94615,-1.42553 z m 17.46863,-2.31144 c -3.10063,-1.75825 -3.46827,-2.81909 -3.48469,-10.05505 -0.0164,-7.23969 1.09732,-8.493 4.35167,-4.89699 1.97605,2.18352 4.25613,12.08079 3.33569,14.47943 -0.7452,1.94197 -1.46814,2.02327 -4.20267,0.47261 z m -10.77586,-16.05505 c -0.87494,-1.7875 -2.13758,-5.41715 -2.80587,-8.06588 -1.03328,-4.09533 -0.98767,-5.0433 0.30489,-6.33585 1.35995,-1.35996 1.94484,-1.30321 5.55597,0.53905 3.47591,1.77328 4.13505,2.64525 4.7497,6.2833 0.64023,3.78953 0.44391,4.43938 -1.90757,6.31439 -1.4417,1.14957 -2.62126,2.63572 -2.62126,3.30255 0,2.2677 -1.68002,1.22273 -3.27586,-2.03756 z m 8.89228,-17 c -1.41595,-4.01983 -1.47943,-4.71663 -0.48561,-5.33084 1.95433,-1.20785 3.1575,1.2255 2.09811,4.24334 -0.81469,2.3208 -1.10832,2.51883 -1.6125,1.0875 z m 6.44886,-20.84864 c -1.33909,-0.53546 -3.09527,-0.72009 -3.90262,-0.41028 -0.80735,0.3098 -2.94689,0.0752 -4.75454,-0.5214 -2.62736,-0.86711 -3.63954,-2.02595 -5.04603,-5.77718 -2.11158,-5.63177 -2.85963,-6.23364 -6.815,-5.48328 -3.93952,0.74736 -3.89376,0.68931 -3.74122,4.74703 0.1493,3.97136 -1.1921,5.29803 -3.45661,3.41865 -1.1535,-0.95732 -1.44377,-2.53952 -1.10765,-6.03755 0.26072,-2.71338 -0.0107,-5.20641 -0.63471,-5.83045 -0.78691,-0.78691 -0.73492,-1.30975 0.18689,-1.87945 0.70239,-0.43411 2.17614,-2.46675 3.27501,-4.517 1.78837,-3.33672 1.88196,-4.36732 0.89223,-9.82537 -1.08353,-5.97531 -0.48787,-15.78508 0.95849,-15.78508 0.40252,0 1.79639,1.13315 3.09749,2.51811 2.08907,2.22371 2.37251,3.50443 2.42432,10.95428 l 0.0587,8.43616 3.63056,0.61344 c 3.3161,0.56031 8.53535,0.0857 13.19176,-1.19965 1.13752,-0.31399 1.60279,-1.07512 1.23812,-2.02543 -0.32131,-0.83732 0.35333,-3.03935 1.4992,-4.89341 1.70128,-2.75273 2.61014,-3.31334 4.95537,-3.05659 1.57958,0.17292 3.4599,0.77683 4.17848,1.34203 3.31857,2.61018 11.54463,4.31106 20.84979,4.31106 8.28588,0 10.06811,0.29978 12.32186,2.07258 2.66172,2.09371 3.47479,5.29028 1.63486,6.42742 -0.55,0.33992 -1,1.85148 -1,3.35902 0,5.4992 -5.37366,7.26918 -6.5,2.14098 -0.81181,-3.69617 -1.81256,-3.80417 -3.37967,-0.36475 -1.14169,2.50573 -1.48417,2.60954 -6.9688,2.11221 -3.86169,-0.35017 -6.5751,-0.0761 -8.20981,0.82932 -1.34295,0.74379 -4.69172,1.37519 -7.44172,1.4031 -6.27243,0.0637 -8.45388,1.25287 -6.86358,3.74165 0.91818,1.43694 2.28018,1.72545 7.09231,1.50236 3.27574,-0.15186 7.03935,0.14448 8.36358,0.65853 2.21634,0.86036 2.06162,0.99314 -1.94671,1.67061 -2.39492,0.40479 -5.49813,1.79595 -6.89602,3.09147 -1.3979,1.29553 -3.33911,2.3555 -4.31382,2.3555 -0.9747,0 -2.37149,0.19686 -3.10397,0.43747 -0.73249,0.24061 -2.42741,-6.4e-4 -3.76651,-0.53611 z m 13.93472,-28.38231 c 0,-1.82569 -4.75991,-3.15914 -6.18608,-1.73297 -1.61494,1.61494 -4.4e-4,3.21392 3.2451,3.21392 1.93072,0 2.94098,-0.50872 2.94098,-1.48095 z m 20,20.58794 c 0,-0.49116 0.7118,-1.16616 1.58179,-1.5 2.44628,-0.93873 2.7695,-0.7352 1.41821,0.89301 -1.37965,1.66238 -3,1.99022 -3,0.60699 z m -25.1875,-30.7901 c 0.72187,-0.28887 1.58437,-0.25335 1.91667,0.0789 0.33229,0.3323 -0.25834,0.56864 -1.3125,0.52522 -1.16495,-0.048 -1.4019,-0.28494 -0.60417,-0.60416 z m -29.47783,-54.05509 c -6.74674,-0.38611 -7.37176,-0.84608 -9.24617,-6.80446 -1.16891,-3.7157 -1.08238,-4.33906 1.06987,-7.70767 1.87668,-2.93729 2.97402,-3.67342 5.52653,-3.70734 1.7517,-0.0233 4.26522,0.3684 5.5856,0.87041 1.98867,0.75609 2.858,0.42824 5.0651,-1.91019 4.08876,-4.33205 3.16687,-7.00255 -2.41739,-7.00255 -1.05501,0 -1.91821,-0.46114 -1.91821,-1.02475 0,-0.56361 -1.11243,-1.4477 -2.47207,-1.96463 -2.90041,-1.10274 -4.32132,-5.34972 -2.51715,-7.52361 1.56725,-1.88842 5.13949,-1.85241 16.98922,0.17123 5.225,0.89231 13.325,1.89674 18,2.23207 8.81204,0.63207 11.00156,2.22174 4.28312,3.10969 -3.57954,0.47309 -3.77921,0.68835 -3.71038,4 0.04,1.925 0.41241,4.25299 0.82756,5.17331 0.91235,2.02254 -1.57866,3.56864 -7.69684,4.77721 l -4.20346,0.83035 3.5,0.12488 c 5.38702,0.1922 6.69742,1.38091 4.76815,4.32535 -1.3702,2.09118 -1.3851,2.52251 -0.11521,3.33534 1.26553,0.81005 1.23493,1.37967 -0.23129,4.30548 -1.66697,3.32641 -1.75986,3.36369 -6.88076,2.76183 -3.7666,-0.44269 -5.71918,-0.21048 -7.11594,0.84627 -1.89349,1.43257 -4.01944,1.52982 -17.09028,0.78178 z m 21.1143,-6.20541 c 0.96742,-1.06898 2.94966,-2.08148 4.40498,-2.25 3.45823,-0.40043 2.4982,-2.229 -1.35395,-2.57885 -8.62295,-0.78315 -8.94145,-0.74562 -9.31019,1.09686 -0.34427,1.72023 2.31109,5.6756 3.81019,5.6756 0.37951,0 1.48155,-0.87462 2.44897,-1.94361 z m -38.15266,-5.47822 c 0.11971,-2.8927 0.71903,-5.09148 1.45369,-5.33333 1.67796,-0.55239 1.54094,3.4434 -0.24879,7.25516 l -1.40859,3 0.20369,-4.92183 z m 73.51619,1.73872 c 0.72187,-0.28888 1.58437,-0.25335 1.91667,0.0789 0.33229,0.33229 -0.25834,0.56864 -1.3125,0.52522 -1.16495,-0.048 -1.4019,-0.28495 -0.60417,-0.60417 z m 48.6875,-2.09808 c -2.98971,-0.90228 -9.42264,-1.55838 -16,-1.63188 -7.10069,-0.0793 -11.8413,-0.59549 -13.37331,-1.45609 -1.33309,-0.74886 -6.81182,-1.54296 -12.5,-1.81179 -5.56968,-0.26323 -10.63416,-0.63246 -11.25441,-0.82052 -0.80275,-0.24339 -0.86321,-1.79722 -0.20981,-5.39216 0.72428,-3.9849 0.58754,-5.68912 -0.64824,-8.07885 l -1.56615,-3.0286 8.77596,0.50233 c 10.19917,0.58381 21.28186,0.5476 26.27596,-0.0858 1.925,-0.24416 7.55,-0.86105 12.5,-1.37087 4.95,-0.50983 10.2319,-1.2298 11.73756,-1.59994 2.05594,-0.50543 2.89754,-0.2561 3.38007,1.00134 0.35338,0.92089 2.3971,2.37639 4.54161,3.23445 5.62316,2.24995 7.68782,6.5986 3.72938,7.85496 -1.80842,0.57398 -2.02591,1.20465 -1.51569,4.39534 0.50859,3.18056 0.19591,4.09944 -2.13863,6.28491 -3.6597,3.42603 -5.8058,3.79239 -11.7343,2.00321 z"
         id="path3799"
         inkscape:connector-curvature="0" />
      <path
         style="fill:#fe662c"
         d="m 161.27417,377.43304 c 0,-0.55 0.9,-1.9 2,-3 1.1,-1.1 2,-2.6199 2,-3.37756 0,-1.68248 1.72473,-3.13962 4.85312,-4.10017 1.29422,-0.39738 3.94451,-1.80245 5.88955,-3.12239 4.81731,-3.26911 6.65152,-3.03721 11.46102,1.44904 5.22676,4.87546 4.76944,7.15108 -1.43711,7.15108 -2.38568,0 -5.95563,0.8894 -8.02776,2 -2.05237,1.1 -5.28165,2 -7.17618,2 -1.89453,0 -3.72272,0.45 -4.06264,1 -0.33992,0.55 -1.71648,1 -3.05902,1 -1.34254,0 -2.44098,-0.45 -2.44098,-1 z m 83.2075,-2.25 c -0.78083,-0.94086 -5.44819,-1.15837 -18.87244,-0.87949 -24.0111,0.49881 -24.41477,0.47836 -26.22203,-1.32891 -2.33741,-2.33741 -0.32431,-4.77378 5.2439,-6.34646 5.34387,-1.50932 5.781,-2.48116 1.84866,-4.10998 -1.62559,-0.67334 -3.2817,-2.44844 -3.9594,-4.24389 -0.92377,-2.44735 -1.53575,-2.92003 -2.95559,-2.2829 -0.98483,0.44193 -3.1406,0.67982 -4.7906,0.52863 -5.74993,-0.52686 -10.04804,-0.33861 -17.24221,0.75514 -9.07382,1.37953 -10.07694,1.01057 -9.94855,-3.65922 0.0557,-2.02561 -0.2628,-4.46663 -0.70775,-5.42449 -1.20805,-2.60062 2.00599,-3.42363 4.5123,-1.15545 1.99197,1.80271 2.08125,1.78991 3.84738,-0.5515 l 1.80808,-2.39703 5.36538,2.35509 c 3.81823,1.67598 7.57928,2.42538 13.04304,2.59888 4.22272,0.13408 8.51726,0.69313 9.54343,1.24232 2.61223,1.39802 12.51483,0.95114 13.02604,-0.58784 0.22601,-0.6804 -1.19964,-2.18735 -3.16811,-3.34877 -1.96847,-1.16143 -3.57903,-2.57611 -3.57903,-3.14375 0,-1.42033 6.23891,-0.30849 10.81177,1.92677 3.20926,1.56873 3.6502,2.20439 3.39542,4.89487 -0.17449,1.84254 0.31562,3.59698 1.21284,4.34161 1.24426,1.03264 1.92266,0.79964 3.90749,-1.34202 2.85954,-3.0855 3.65638,-3.17203 6.78762,-0.73704 1.31167,1.02002 4.07236,2.40491 6.13486,3.07755 2.49149,0.81255 3.75,1.82707 3.75,3.02299 0,2.28064 -1.43482,3.34874 -6.75,5.02482 -5.08938,1.60488 -5.38066,2.63098 -1,3.52279 9.34667,1.90278 10.75,2.53405 10.75,4.83582 0,3.93696 -3.59786,6.05589 -5.7925,3.41146 z m -19.32477,-9.61708 c 1.93166,-0.54132 2.12097,-0.87359 1,-1.75523 -2.46871,-1.94162 -7.34115,-3.12218 -9.53559,-2.3104 -2.54159,0.94019 -3.70416,2.54603 -2.84714,3.93271 0.68092,1.10175 7.63571,1.18296 11.38273,0.13292 z m 81.11727,8.86708 c 0,-0.55 0.675,-1 1.5,-1 0.825,0 1.5,0.45 1.5,1 0,0.55 -0.675,1 -1.5,1 -0.825,0 -1.5,-0.45 -1.5,-1 z m -33.81111,-5.487 c -1.15855,-1.47286 -2.37324,-3.51847 -2.6993,-4.54581 -0.32607,-1.02734 -2.16912,-2.84208 -4.09567,-4.03275 -2.51857,-1.55656 -3.41728,-2.76472 -3.19837,-4.29965 0.46008,-3.22605 4.30552,-3.25272 8.49284,-0.0589 3.28303,2.5041 3.85666,2.6288 6.94894,1.51061 4.00565,-1.44846 7.76908,-0.58798 6.93499,1.58563 -0.31478,0.82029 -0.57232,2.75479 -0.57232,4.29887 0,3.69901 -2.75499,6.87925 -6.60233,7.62145 -2.56109,0.49407 -3.46982,0.13128 -5.20878,-2.07945 z m -13.18889,-1.90601 c 0,-1.69554 2.70442,-2.89426 3.52699,-1.56332 0.32508,0.52598 0.31293,1.40633 -0.027,1.95633 -0.92405,1.49514 -3.5,1.20589 -3.5,-0.39301 z m -102.63341,-5.82286 c -1.26323,-2.04395 -1.18569,-9.64927 0.11654,-11.43017 1.48395,-2.02942 4.51687,-1.15637 4.51687,1.3002 0,0.94432 0.92282,2.69924 2.05071,3.89982 l 2.05072,2.18289 -3.12744,2.63156 c -3.4885,2.93538 -4.50896,3.19302 -5.6074,1.4157 z m 1.05435,-29.24311 c -0.33944,-1.35244 -1.24802,-2.98254 -2.01905,-3.62245 -1.43667,-1.19233 -1.97692,-10.2565 -0.7949,-13.33678 0.91855,-2.39371 3.39422,-1.90495 3.38461,0.66821 -0.005,1.2375 0.74936,5.20716 1.6755,8.82147 1.64333,6.41318 1.42499,9.92853 -0.61666,9.92853 -0.55679,0 -1.29006,-1.10654 -1.6295,-2.45898 z m 15.97646,-2.30728 c -1.48513,-0.98829 -2.72924,-10.91062 -1.46593,-11.69139 1.53895,-0.95112 4.33542,4.15583 4.45774,8.14079 0.11162,3.63632 -0.95709,4.90464 -2.99181,3.5506 z m -10.24492,-16.55002 c -0.62477,-0.75279 -1.25216,-3.57709 -1.39421,-6.27622 -0.23219,-4.41194 -0.0563,-4.87654 1.74173,-4.60087 5.11795,0.78467 7.06857,8.10142 2.89421,10.85616 -1.78093,1.17527 -2.28104,1.1785 -3.24173,0.0209 z m 3.29236,-42.85752 c -0.48348,-1.52331 -0.14184,-2.57459 1.1417,-3.51314 1.57378,-1.15077 2.10333,-1.06764 3.76149,0.59053 2.43091,2.43091 1.51602,5.09641 -1.74926,5.09641 -1.65141,0 -2.69153,-0.71689 -3.15393,-2.1738 z m 6.23433,-3.37076 c -1.55145,-1.36475 -2.67459,-3.24071 -2.49586,-4.1688 0.17874,-0.92809 -0.74783,-2.76025 -2.05904,-4.07146 -2.03012,-2.03012 -2.1786,-2.58942 -1.00024,-3.76778 1.84298,-1.84298 3.97347,-2.02297 12.87597,-1.0878 4.83396,0.5078 9.63283,0.37555 13.5,-0.37202 3.3,-0.63793 8.475,-1.23361 11.5,-1.32373 5.24101,-0.15613 5.51433,-0.0403 5.80429,2.46043 0.44332,3.82327 -2.35705,6.20998 -6.49785,5.53802 -1.84003,-0.29859 -5.47422,0.0677 -8.07597,0.81402 -2.60176,0.7463 -7.06219,1.65743 -9.91208,2.02473 -4.56701,0.5886 -5.30216,1.01363 -6.19798,3.58338 -1.25436,3.59827 -3.6374,3.71708 -7.44124,0.37101 z m -17.84403,-3.12837 c -2.32591,-0.616 -2.87266,-2.62282 -1.77154,-6.50247 1.45854,-5.13903 2.60434,-6.55666 4.09476,-5.06624 0.6829,0.6829 2.29076,1.24164 3.57302,1.24164 1.28227,0 2.59351,0.68308 2.91389,1.51796 0.9176,2.39124 -1.71642,7.55859 -4.36654,8.56617 -1.32491,0.50373 -2.49213,0.86367 -2.59383,0.79987 -0.1017,-0.0638 -0.93409,-0.31442 -1.84976,-0.55693 z m 63.16486,-5.26805 c 0,-1.13246 0.45,-2.05902 1,-2.05902 0.55,0 1,0.64844 1,1.44098 0,0.79254 -0.45,1.7191 -1,2.05902 -0.55,0.33992 -1,-0.30852 -1,-1.44098 z m -62.90009,-12.88524 c -1.35225,-4.80287 -1.14245,-9.77641 0.40009,-9.48461 1.67404,0.31667 2.82468,7.20409 1.7788,10.64744 l -0.96085,3.16339 -1.21804,-4.32622 z m -2.91436,-63.45021 c -0.72898,-0.87837 -0.9436,-2.7567 -0.55192,-4.83041 1.45443,-7.70034 7.00006,-9.23212 11.77196,-3.25157 3.43619,4.30653 2.76308,6.36351 -2.50103,7.64291 -1.87251,0.4551 -4.33193,1.06345 -5.46538,1.35189 -1.15215,0.2932 -2.58676,-0.10929 -3.25363,-0.91282 z m 111.96783,-11.44615 c -2.02583,-0.98114 -3.05301,-2.09659 -2.72289,-2.95686 0.31382,-0.81783 -0.46509,-1.83483 -1.90924,-2.49283 -1.93938,-0.88364 -2.95023,-0.77667 -4.93213,0.52192 -2.89546,1.89718 -15.6925,2.13088 -21.82301,0.39854 -4.88431,-1.38019 -7.5661,-4.25245 -6.12194,-6.55673 1.27675,-2.03717 5.16612,-2.78117 6.67117,-1.27613 0.59656,0.59657 2.37703,1.08467 3.95659,1.08467 3.30287,0 11.26166,-4.34218 12.13626,-6.62134 0.42113,-1.09744 1.38191,-1.36404 3.35448,-0.93079 1.63487,0.35908 5.02406,-0.17032 8.29508,-1.29571 5.53062,-1.90282 5.53082,-1.90281 8.09982,0.22249 1.41298,1.16894 3.98057,2.89192 5.70574,3.82884 3.78998,2.05828 3.93531,3.1116 0.63669,4.61456 -1.38912,0.63292 -2.5,1.98289 -2.5,3.03807 0,1.04444 -0.70629,2.48515 -1.56952,3.20158 -0.86324,0.71642 -1.35383,2.12741 -1.0902,3.13553 0.75289,2.87907 -2.37205,3.93178 -6.1869,2.08419 z m -85.0542,-9.52742 c -1.64901,-4.43613 0.79955,-6.46243 2.71887,-2.25 1.33796,2.9365 2.6754,3.17929 4.13152,0.75 0.98996,-1.65157 1.13157,-1.64328 2.51766,0.14732 2.08678,2.69577 1.06513,3.60268 -4.05847,3.60268 -3.7244,0 -4.61322,-0.37665 -5.30958,-2.25 z m 36.33172,-0.8618 c -0.75088,-1.21495 1.46395,-3.04729 3.0691,-2.53908 0.55,0.17414 1.1455,1.06682 1.32332,1.98375 0.37137,1.91487 -3.26782,2.37497 -4.39242,0.55533 z m -48.68713,-3.05256 c -3.12457,-1.14096 -2.75687,-2.83564 0.61525,-2.83564 2.22476,0 4.64098,1.666 4.64098,3.2 0,1.02671 -1.78573,0.90293 -5.25623,-0.36436 z m -9.36812,-6.2991 c -0.99662,-2.59715 1.05819,-3.86533 5.04965,-3.11653 4.12545,0.77394 4.64508,2.09452 1.1676,2.96732 -1.3239,0.33228 -3.12011,0.87775 -3.99157,1.21216 -0.96897,0.37183 -1.83356,-0.0411 -2.22568,-1.06295 z"
         id="path3797"
         inkscape:connector-curvature="0" />
    </g>
  </g>
</svg>
