<?xml version="1.0" encoding="UTF-8" standalone="no"?>
<!-- Created with Inkscape (http://www.inkscape.org/) -->

<svg
   xmlns:dc="http://purl.org/dc/elements/1.1/"
   xmlns:cc="http://creativecommons.org/ns#"
   xmlns:rdf="http://www.w3.org/1999/02/22-rdf-syntax-ns#"
   xmlns:svg="http://www.w3.org/2000/svg"
   xmlns="http://www.w3.org/2000/svg"
   xmlns:sodipodi="http://sodipodi.sourceforge.net/DTD/sodipodi-0.dtd"
   xmlns:inkscape="http://www.inkscape.org/namespaces/inkscape"
   width="279.39371"
   height="239.69914"
   id="svg2"
   version="1.1"
   inkscape:version="0.48.2 r9819"
   sodipodi:docname="7-W.svg">
  <defs
     id="defs4" />
  <sodipodi:namedview
     id="base"
     pagecolor="#ffffff"
     bordercolor="#666666"
     borderopacity="1.0"
     inkscape:pageopacity="0.0"
     inkscape:pageshadow="2"
     inkscape:zoom="0.98994949"
     inkscape:cx="328.37097"
     inkscape:cy="61.617507"
     inkscape:document-units="px"
     inkscape:current-layer="layer1"
     showgrid="false"
     fit-margin-top="5"
     fit-margin-left="5"
     fit-margin-right="5"
     fit-margin-bottom="5"
     inkscape:window-width="968"
     inkscape:window-height="702"
     inkscape:window-x="611"
     inkscape:window-y="0"
     inkscape:window-maximized="0" />
  <metadata
     id="metadata7">
    <rdf:RDF>
      <cc:Work
         rdf:about="">
        <dc:format>image/svg+xml</dc:format>
        <dc:type
           rdf:resource="http://purl.org/dc/dcmitype/StillImage" />
        <dc:title></dc:title>
      </cc:Work>
    </rdf:RDF>
  </metadata>
  <g
     inkscape:label="Layer 1"
     inkscape:groupmode="layer"
     id="layer1"
     transform="translate(-92.815913,-327.32702)">
    <g
       id="g4039"
       transform="translate(36.365492,-226.27417)">
      <path
         style="fill:#fcb5c8"
         d="m 120.61807,787.05254 c -1.5125,-0.86439 -2.75,-2.05198 -2.75,-2.63908 0,-0.58711 -1.86178,-5.63524 -4.13728,-11.21807 -9.65727,-23.69359 -14.133008,-35.94916 -17.850015,-48.87731 -2.170634,-7.5497 -5.734133,-18.47025 -7.918886,-24.26789 -2.184754,-5.79764 -5.151443,-15.14561 -6.592641,-20.77328 -1.441199,-5.62766 -3.520977,-13.15711 -4.621729,-16.73211 -1.100751,-3.575 -3.506943,-13.475 -5.347092,-22 -1.840148,-8.525 -4.955614,-20.7902 -6.923257,-27.25601 -3.577386,-11.75553 -3.577471,-11.75627 -2.086052,-18.18714 0.820313,-3.53713 1.744382,-7.09019 2.053484,-7.8957 0.777665,-2.02656 5.78326,-2.7208 13.082468,-1.81445 3.38745,0.42062 7.20501,0.37783 8.483466,-0.0951 6.603354,-2.44274 10.76222,5.17285 15.369804,28.14473 6.23545,31.0879 12.68299,55.02871 19.01437,70.60367 1.78865,4.4 5.29194,14.075 7.7851,21.5 5.49,16.35002 8.27865,23 9.64501,23 1.13953,0 11.43317,-20.04106 16.68827,-32.49098 1.85514,-4.39504 5.86848,-12.11562 8.91853,-17.15685 l 5.54555,-9.16586 6.69545,-1.13106 c 3.6825,-0.62209 11.05612,-2.09846 16.38582,-3.28084 11.08622,-2.45944 13.70969,-1.93616 16.60595,3.31219 7.67803,13.91346 13.18837,22.24526 17.87942,27.03418 3.02825,3.09143 8.07465,9.34134 11.21422,13.88869 3.13956,4.54734 6.06728,8.31799 6.50605,8.37921 0.43876,0.0612 2.13284,-5.06368 3.76463,-11.38868 1.63179,-6.325 4.5012,-15.35081 6.37647,-20.05736 1.87527,-4.70654 5.01578,-13.93154 6.97893,-20.5 1.96314,-6.56845 5.77396,-18.91764 8.46848,-27.44264 2.69452,-8.525 5.53918,-17.75 6.32147,-20.5 0.78229,-2.75 2.59125,-9.05 4.0199,-14 1.42865,-4.95 3.91617,-13.95 5.52781,-20 3.09514,-11.61894 6.74818,-22.16375 8.40093,-24.25 0.69138,-0.87272 4.34879,-1.23201 12.11781,-1.19039 14.65239,0.0785 20.51775,1.08655 22.81273,3.92074 2.22844,2.752 2.42713,8.84746 0.31483,9.65802 -0.94101,0.3611 -1.5,1.88999 -1.5,4.1026 0,1.93985 -0.48371,5.3792 -1.0749,7.64301 -0.5912,2.26381 -1.52903,5.91602 -2.08407,8.11602 -0.55505,2.2 -1.87226,4.67763 -2.92715,5.50584 -1.19567,0.93876 -3.38204,6.39938 -5.80562,14.5 -5.72741,19.14342 -6.83381,23.46407 -7.42464,28.99416 -0.29381,2.75 -3.53646,14.675 -7.20589,26.5 -8.99367,28.98269 -12.15316,41.81379 -14.52796,59 -2.28218,16.51581 -4.47814,29.35559 -6.75562,39.5 -0.86434,3.85 -1.59912,9.475 -1.63284,12.5 -0.0337,3.025 -0.43035,6.07056 -0.8814,6.76792 -0.56387,0.87179 -3.21949,1.20945 -8.5,1.08077 -4.22395,-0.10292 -12.85689,0.17544 -19.1843,0.61859 l -11.50439,0.80574 -10.10765,-15.88651 c -5.55921,-8.73758 -12.61473,-20.16151 -15.67895,-25.38651 -4.68122,-7.98228 -9.10372,-14.59867 -21.04059,-31.47827 -1.32367,-1.87177 -1.54001,-1.69999 -4.01825,3.19059 -1.44059,2.84287 -4.01059,8.68309 -5.7111,12.97827 -6.54124,16.52197 -15.44635,35.84153 -20.05595,43.51119 -2.64431,4.39971 -5.06591,8.81263 -5.38135,9.80647 -0.84087,2.64936 -2.10883,2.89289 -18.2718,3.50942 -12.28334,0.46854 -15.18167,0.30104 -17.47558,-1.00993 z"
         id="path4053"
         inkscape:connector-curvature="0" />
      <path
         style="fill:#fc95a6"
         d="m 122.96623,786.28006 c -2.8766,-1.47942 -2.70472,-1.16901 -8.98944,-16.23526 -8.02593,-19.24041 -11.74132,-29.32201 -15.500009,-42.05872 -4.10211,-13.90044 -8.566336,-27.05737 -11.346825,-33.44128 -1.077977,-2.475 -2.289385,-6.27333 -2.692016,-8.44072 -0.402631,-2.1674 -2.523539,-10.18466 -4.713128,-17.81613 -2.189589,-7.63147 -5.510629,-20.80658 -7.380088,-29.27802 -1.86946,-8.47144 -4.821511,-19.98133 -6.560115,-25.57752 -3.292905,-10.59915 -3.435155,-14.34956 -0.880715,-23.21985 l 1.103599,-3.83224 6.680288,0.58927 c 7.949795,0.70126 11.647456,0.79103 15.667354,0.38037 4.679557,-0.47806 7.652658,6.14665 11.531573,25.69484 4.588672,23.12506 12.392852,53.51605 16.563132,64.5 1.98377,5.225 6.22435,17.15 9.42351,26.5 6.35968,18.58708 9.31943,25.96461 10.77831,26.86625 1.68642,1.04227 3.93731,-2.57326 11.74824,-18.87076 4.2164,-8.79752 8.95936,-18.69549 10.53992,-21.99549 1.58056,-3.3 4.79851,-8.90994 7.151,-12.46652 3.51424,-5.31298 4.90161,-6.59684 7.77725,-7.19702 25.75888,-5.37616 27.14117,-5.59075 29.51832,-4.58256 2.23099,0.94621 3.70215,3.03232 11.45698,16.2461 2.90502,4.95 8.2615,12.1908 11.90328,16.09066 3.64178,3.89986 8.87142,10.75001 11.62142,15.22254 5.12009,8.32721 7.7136,9.94214 8.31334,5.17658 0.69981,-5.56074 6.5878,-25.9979 9.64847,-33.48978 1.79754,-4.4 6.08826,-17.45 9.53493,-29 3.44667,-11.55 6.65354,-21.75068 7.12637,-22.66819 0.47283,-0.9175 1.52498,-4.0675 2.33812,-7 0.81313,-2.93249 2.8746,-10.05681 4.58103,-15.83181 2.97625,-10.0724 4.8423,-16.87328 8.50588,-31 0.92714,-3.575 2.53308,-7.69447 3.56878,-9.15437 1.03569,-1.4599 1.88308,-3.79026 1.88308,-5.17857 0,-4.28066 2.40195,-5.66692 9.82143,-5.66834 3.67321,-7e-4 10.42884,0.52278 15.0125,1.16329 6.85005,0.9572 8.60081,1.57186 9.8328,3.4521 1.867,2.84941 1.43898,5.33621 -1.16673,6.77871 -1.1,0.60895 -2.18818,1.22036 -2.41817,1.35869 -0.23,0.13832 0.16415,1.33959 0.87589,2.66949 1.02338,1.91221 1.04488,3.11462 0.10277,5.74849 -0.65522,1.83178 -1.60068,5.76921 -2.10103,8.74983 -0.56732,3.37958 -1.81011,6.39066 -3.30191,8 -2.93934,3.17094 -11.2958,30.33429 -13.21059,42.94208 -0.72158,4.75123 -2.04243,10.6636 -2.93521,13.1386 -2.59574,7.19596 -12.55881,40.75237 -14.69682,49.5 -1.07541,4.4 -3.02412,15.2 -4.33049,24 -3.60493,24.28374 -6.43658,40.43684 -8.10006,46.20668 -1.16503,4.04098 -1.24342,5.68819 -0.35011,7.35736 1.85461,3.46537 -0.0695,4.20446 -12.23621,4.70019 -24.42679,0.99527 -25.96579,0.92369 -27.18425,-1.26423 -0.6126,-1.1 -4.74682,-7.625 -9.18717,-14.5 -4.44034,-6.875 -10.69889,-17 -13.90788,-22.5 -3.20898,-5.5 -8.62166,-13.83064 -12.02816,-18.51254 -3.40651,-4.6819 -6.99825,-10.0819 -7.98166,-12 -2.08625,-4.06918 -3.52565,-5.21848 -5.00158,-3.99357 -1.45772,1.2098 -6.23751,11.54666 -14.10609,30.50611 -7.3994,17.82895 -12.31625,28.02487 -16.39607,34 -1.50216,2.2 -3.01961,4.92248 -3.3721,6.04997 -0.56075,1.7936 -1.99055,2.20004 -11.43307,3.25 -13.55745,1.50751 -18.07174,1.49367 -21.10187,-0.0647 z"
         id="path4051"
         inkscape:connector-curvature="0" />
      <path
         style="fill:#fd728a"
         d="m 123.24648,785.0973 c -1.13663,-0.79613 -2.878,-3.60863 -3.86971,-6.25 -0.99172,-2.64138 -3.35595,-7.91628 -5.25385,-11.72201 -1.8979,-3.80573 -4.47121,-9.88073 -5.71848,-13.5 -4.92383,-14.2878 -9.483942,-28.12883 -13.040322,-39.58049 -2.049669,-6.6 -4.81948,-14.16141 -6.155136,-16.80314 -1.335655,-2.64173 -2.889123,-7.29508 -3.452151,-10.34078 -0.563028,-3.0457 -2.562464,-10.54957 -4.44319,-16.67526 -1.880726,-6.12569 -5.036976,-18.34734 -7.013889,-27.15922 -1.976913,-8.81188 -5.132779,-21.11024 -7.013035,-27.32968 -3.748479,-12.39909 -4.010817,-15.24767 -2.089797,-22.69192 1.125397,-4.36108 1.649505,-5.04192 4.10154,-5.32808 1.546197,-0.18045 3.887935,-0.0579 5.203863,0.27242 1.962718,0.49261 2.280871,1.04565 1.770763,3.07808 -0.560764,2.23426 -0.319979,2.47758 2.451779,2.47758 2.014019,0 4.295997,-1.07327 6.619446,-3.11328 2.997374,-2.63173 3.787448,-2.91277 5.107884,-1.8169 3.134534,2.60143 5.353137,8.91422 7.916052,22.52424 1.440252,7.64827 3.667503,18.18094 4.949443,23.40594 1.28195,5.225 3.35553,13.775 4.60797,19 1.25243,5.225 4.26621,15.125 6.69727,22 2.43107,6.875 6.7894,19.7 9.68517,28.5 6.23687,18.95333 10.86826,28.77986 13.33999,28.30385 1.99782,-0.38475 7.14223,-9.43598 15.51857,-27.30385 6.8628,-14.63931 13.45232,-26.5 14.72276,-26.5 0.46665,0 2.06214,-0.46144 3.54553,-1.02543 2.60392,-0.99001 2.636,-1.0929 0.92898,-2.97915 -1.42824,-1.57818 -1.50166,-2.05174 -0.38198,-2.46365 2.81963,-1.0373 21.54057,-4.80909 26.08829,-5.25613 5.44802,-0.53553 7.37421,0.94884 12.06588,9.29826 5.6995,10.143 9.07662,15.01367 15.16619,21.87346 3.44341,3.87895 9.04098,11.21514 12.43905,16.30264 3.39806,5.0875 6.62634,9.25 7.17394,9.25 1.31111,0 2.13266,-2.36848 5.34036,-15.39606 1.47558,-5.99284 4.26005,-14.99284 6.1877,-20 1.92766,-5.00717 5.33329,-15.17894 7.56808,-22.60394 2.23478,-7.425 6.04194,-19.575 8.46034,-27 2.4184,-7.425 5.29246,-16.425 6.3868,-20 1.09434,-3.575 3.11916,-9.95059 4.4996,-14.16797 1.38044,-4.21739 2.51531,-8.71739 2.52194,-10 0.007,-1.28262 1.13162,-4.29046 2.5,-6.6841 1.57325,-2.75204 2.48795,-5.9082 2.48795,-8.58471 0,-3.50455 0.55675,-4.7341 3.23666,-7.14792 1.78016,-1.60342 4.1403,-3.16003 5.24475,-3.45915 3.06905,-0.83118 3.12416,-3.76606 0.085,-4.52883 -2.75102,-0.69046 -3.34902,-1.91346 -1.31644,-2.69234 0.6875,-0.26345 5.60185,-0.19758 10.92077,0.14638 7.66656,0.49577 10.27165,1.06962 12.57012,2.76895 2.62098,1.93778 2.99764,1.98776 3.92309,0.52062 0.90148,-1.42915 1.17688,-1.3368 2.30619,0.77333 1.15735,2.16254 1.02627,2.5829 -1.34386,4.30942 -2.78922,2.0318 -3.37139,4.60124 -1.47273,6.4999 0.87145,0.87145 0.77229,2.20439 -0.40543,5.45 -0.85742,2.36303 -1.84422,6.32142 -2.19285,8.79642 -0.39354,2.79387 -1.40535,5.09154 -2.66868,6.0602 -2.48363,1.90434 -11.43702,30.72228 -13.03019,41.9398 -0.58585,4.125 -3.66065,15.825 -6.83289,26 -9.78055,31.37129 -12.88589,43.78621 -15.50805,62 -3.24795,22.56057 -6.53658,41.92529 -7.58964,44.69069 -0.58839,1.54512 -0.9249,5.05931 -0.7478,7.80931 l 0.32198,5 -6.17184,-0.33945 c -3.39451,-0.18669 -10.81951,0.41578 -16.5,1.33882 -12.25118,1.99075 -15.26473,1.34239 -16.3313,-3.51368 -0.37862,-1.72384 -1.90432,-4.56332 -3.39044,-6.30997 -3.03077,-3.56207 -14.68437,-21.51423 -20.8868,-32.17572 -2.23978,-3.85 -7.14297,-11.33397 -10.89597,-16.63103 -3.75301,-5.29707 -7.59022,-11.03457 -8.52714,-12.75 -0.95705,-1.7523 -2.51327,-3.11897 -3.55153,-3.11897 -2.048,0 -2.06375,0.0322 -14.25923,29.11335 -9.11439,21.7341 -10.45764,24.53212 -17.26501,35.96343 l -5.10749,8.57677 -9.55663,1.18287 c -12.57604,1.5566 -18.15995,1.47993 -20.67821,-0.28392 z"
         id="path4049"
         inkscape:connector-curvature="0" />
      <path
         style="fill:#fd5468"
         d="m 128.86807,784.32395 c -4.02036,-1.07834 -7.41801,-4.73445 -9.08783,-9.77915 -0.63718,-1.925 -1.96142,-4.4 -2.94274,-5.5 -3.26471,-3.65953 -6.09304,-10.29983 -6.94038,-16.29449 -0.46072,-3.2594 -1.29696,-6.77654 -1.85833,-7.81585 -0.56137,-1.03931 -2.24155,-5.93966 -3.73373,-10.88966 -5.497729,-18.23752 -10.336238,-31.1516 -13.840733,-36.94117 -3.696332,-6.1065 -4.415698,-9.33939 -2.503617,-11.25147 0.790187,-0.79019 0.790187,-1.65778 0,-3.13426 -0.600953,-1.12289 -1.092641,-3.16406 -1.092641,-4.53593 0,-1.37187 -0.691373,-3.18569 -1.536384,-4.0307 -4.319457,-4.31945 -5.799952,-15.43892 -5.439814,-40.85647 0.144305,-10.18467 0.04561,-10.75 -1.876726,-10.75 -2.644606,0 -3.489806,1.50178 -3.324515,5.90712 0.134517,3.58513 0.129436,3.58129 -2.356186,-1.78298 -3.021006,-6.5197 -7.466375,-21.52863 -7.466375,-25.20878 0,-1.46911 0.664575,-4.26167 1.476834,-6.20567 1.594472,-3.81611 3.468188,-4.02815 8.265446,-0.93538 1.233253,0.79508 2.877014,1.20202 3.6528,0.90432 3.110187,-1.19349 5.076055,1.87884 5.106548,7.98068 0.02042,4.08592 0.711776,7.14835 2.301156,10.19319 1.715311,3.28609 1.998992,4.68142 1.157828,5.69496 -2.019877,2.4338 -0.743696,5.91998 2.295074,6.26951 3.500999,0.4027 4.601372,-2.07031 2.526632,-5.67844 -1.132316,-1.96918 -1.271782,-3.34885 -0.549763,-5.43853 1.377752,-3.98752 2.943118,-2.88964 4.805622,3.37046 0.888467,2.98625 2.123022,6.37449 2.743456,7.52943 2.083468,3.87837 5.315718,17.67972 4.754908,20.30295 -0.49559,2.31822 2.12409,11.10119 9.87183,33.09716 0.87178,2.475 2.90691,10.02807 4.52251,16.7846 3.03152,12.67794 3.36492,13.49129 11.29459,27.55334 5.84646,10.36782 8.08477,13.20639 9.6506,12.23866 0.65998,-0.4079 2.56045,-3.15227 4.22326,-6.09861 2.29641,-4.06901 3.65583,-5.43163 5.65419,-5.66748 2.06747,-0.24401 2.82214,-1.06007 3.52389,-3.81051 0.49114,-1.925 1.47222,-4.175 2.18019,-5 2.83513,-3.30383 4.72289,-8.90176 4.04409,-11.99229 -0.58908,-2.68206 -0.13736,-3.6793 3.40964,-7.52734 2.24877,-2.43962 4.09035,-5.23324 4.09241,-6.20803 0.007,-3.26481 3.80932,-8.27234 6.28156,-8.27234 2.78072,0 4.7147,-1.73301 4.7147,-4.22475 0,-2.21689 4.48533,-4.12124 7.76691,-3.29762 1.64641,0.41323 3.71879,-0.33862 6.95664,-2.52382 3.72921,-2.51682 5.01013,-2.91788 6.69405,-2.09594 1.14532,0.55903 3.10894,1.30449 4.36361,1.65657 1.38582,0.38889 3.06688,2.3116 4.28291,4.89859 1.10094,2.34214 3.56189,5.77063 5.46879,7.61887 1.9069,1.84824 3.46709,3.91979 3.46709,4.60345 0,0.68365 1.82566,3.35239 4.05702,5.93053 2.23136,2.57813 7.36766,9.468 11.414,15.31082 13.96058,20.15871 16.74576,22.00091 17.80125,11.77422 0.33701,-3.26534 1.62535,-7.32646 3.14904,-9.92644 1.41828,-2.42011 2.57869,-5.25196 2.57869,-6.29301 0,-1.78338 3.15914,-10.82329 5.13671,-14.69873 0.49598,-0.97199 1.76023,-5.24699 2.80942,-9.5 2.19369,-8.89232 3.55655,-13.02643 6.24833,-18.95376 1.0543,-2.32156 2.26973,-6.45298 2.70096,-9.18094 0.43123,-2.72795 1.53117,-6.10016 2.44432,-7.49379 0.91314,-1.39364 1.66026,-3.86222 1.66026,-5.48573 0,-1.62352 0.44977,-3.10185 0.99948,-3.28519 0.54971,-0.18333 2.10006,-4.77809 3.44523,-10.21058 1.56677,-6.32748 3.2519,-10.73535 4.68886,-12.26493 1.84937,-1.96857 2.36416,-4.00877 2.93264,-11.62276 0.48308,-6.47002 1.32491,-10.42114 2.81166,-13.1965 1.16717,-2.17879 2.12213,-5.60561 2.12213,-7.61514 0,-4.54497 2.93503,-8.46043 6.94278,-9.26198 2.11284,-0.42256 3.1896,-1.34072 3.62997,-3.09527 0.82571,-3.28989 3.69377,-4.07856 7.65168,-2.1041 1.80683,0.90137 4.32575,1.35636 5.76228,1.04085 1.43524,-0.31523 3.36282,0.0322 4.40442,0.79381 1.76615,1.29145 1.77626,1.61566 0.2174,6.97793 -0.89914,3.09295 -2.08533,5.90198 -2.63596,6.24229 -1.39578,0.86264 -4.97257,8.0633 -4.97257,10.0106 0,1.11146 0.57337,1.42524 1.85882,1.01726 1.09872,-0.34872 2.40753,0.0712 3.20071,1.02692 1.14764,1.38282 1.03574,1.85655 -0.77303,3.27257 -3.50265,2.74211 -10.28927,24.86835 -12.31666,40.1557 -0.69293,5.225 -2.28197,12.2 -3.53118,15.5 -1.24922,3.3 -3.17372,8.7 -4.27666,12 -4.18694,12.52724 -6.38394,18.05387 -7.80998,19.64629 -1.02456,1.14409 -1.1235,1.76322 -0.32434,2.0296 1.10631,0.36877 -2.57087,20.53419 -7.99137,43.82411 -1.08806,4.675 -2.4436,13.9 -3.01232,20.5 -0.56872,6.6 -1.69074,14.7 -2.49339,18 -0.80265,3.3 -1.47539,8.1375 -1.49498,10.75 -0.0196,2.6125 -0.14812,4.74837 -0.28562,4.74637 -0.1375,-0.002 -3.85,-1.35036 -8.25,-2.99637 -4.4,-1.64601 -8.73936,-2.99438 -9.64301,-2.99637 -1.87901,-0.004 -3.05545,2.31562 -2.24518,4.42716 1.11602,2.90829 -12.29003,4.86678 -14.56338,2.12757 -0.65805,-0.79291 -1.05065,-3.38041 -0.87244,-5.75 0.29645,-3.94185 0.11134,-4.33778 -2.17599,-4.65418 -3.22362,-0.44591 -5,-1.93804 -5,-4.1999 0,-0.99046 -1.15314,-3.17126 -2.56254,-4.84623 -1.40939,-1.67497 -3.69251,-5.197 -5.07358,-7.82673 -1.38108,-2.62972 -3.87209,-6.49738 -5.5356,-8.5948 -1.6635,-2.09741 -3.45961,-5.38913 -3.99135,-7.31493 -0.53174,-1.9258 -1.80418,-4.33884 -2.82765,-5.36231 -1.14265,-1.14265 -1.65151,-2.66141 -1.31844,-3.93507 0.40984,-1.5672 0.073,-2.07421 -1.37804,-2.07421 -2.39132,0 -6.81998,-4.57609 -12.47052,-12.88567 -4.31694,-6.3484 -9.75222,-10.46985 -12.4448,-9.43662 -1.71882,0.65958 -1.79122,2.71895 -0.18594,5.2894 1.02541,1.64196 0.54918,3.36813 -3.10003,11.23644 -2.37136,5.11305 -6.06607,14.02145 -8.21047,19.79645 -2.1444,5.775 -4.84952,12.3 -6.01138,14.5 -1.16186,2.2 -3.24564,6.25 -4.63063,9 -1.38499,2.75 -4.22236,7.29352 -6.30525,10.0967 -3.03416,4.08341 -4.64862,5.31476 -8.12044,6.19348 -6.37719,1.61406 -14.845,2.05872 -18.83334,0.98897 z m 162,-127.27915 c 0,-0.825 -0.17686,-1.5 -0.39301,-1.5 -0.21616,0 -0.65203,0.675 -0.96862,1.5 -0.31658,0.825 -0.13972,1.5 0.39301,1.5 0.53274,0 0.96862,-0.675 0.96862,-1.5 z"
         id="path4047"
         inkscape:connector-curvature="0" />
      <path
         style="fill:#fd4658"
         d="m 242.36874,783.2948 c -0.24011,-0.6875 -0.56349,-3.275 -0.71862,-5.75 -0.26216,-4.18258 -0.49366,-4.52388 -3.28205,-4.83849 -3.87838,-0.43759 -5.5,-1.83783 -5.5,-4.74916 0,-1.28852 -1.25697,-3.82092 -2.79328,-5.62755 -1.5363,-1.80664 -4.30963,-6.18538 -6.16297,-9.73054 -1.85333,-3.54516 -4.44139,-8.02498 -5.75124,-9.95515 -1.73734,-2.56011 -2.30188,-4.59887 -2.08703,-7.53698 0.16199,-2.21517 -0.15548,-4.03535 -0.70548,-4.04485 -1.64451,-0.0284 -9.83791,-7.71575 -20.60106,-19.32864 -2.84454,-3.06911 -5.80971,-5.22977 -7.76701,-5.65966 -1.74127,-0.38245 -4.79623,-2.23292 -6.78881,-4.11217 -1.99258,-1.87925 -3.81496,-3.41681 -4.04972,-3.41681 -0.23476,0 -1.88354,1.11108 -3.66395,2.46906 -1.78041,1.35798 -4.8848,3.15751 -6.89865,3.99895 -3.44489,1.43937 -3.72277,1.4155 -4.69618,-0.40332 -1.69373,-3.16477 -1.19016,-5.73276 1.46538,-7.47273 2.38263,-1.56116 2.5,-1.54309 2.5,0.38499 0,1.11268 0.64948,2.02305 1.4433,2.02305 1.96973,0 4.5567,-3.9086 4.5567,-6.88465 0,-3.52525 4.80016,-11.30099 6.74363,-10.92394 0.87485,0.16972 2.02023,1.59799 2.54528,3.17392 0.84056,2.52292 0.61146,3.1396 -1.91713,5.16037 -1.57948,1.26226 -2.56019,2.60946 -2.17936,2.99376 1.14794,1.15838 6.75779,-3.4729 7.42453,-6.12941 0.53817,-2.14423 2.66429,-3.10871 2.45805,-1.11505 -0.0412,0.39875 -0.075,1.41114 -0.075,2.24975 0,0.83861 -1.125,1.95248 -2.5,2.47525 -2.47811,0.94218 -3.13705,3.1763 -1.89301,6.41821 1.04896,2.73355 2.81545,1.74923 6.23505,-3.47429 1.8205,-2.78084 4.31673,-5.51477 5.54718,-6.0754 1.23046,-0.56063 3.06711,-2.5604 4.08145,-4.44393 2.1455,-3.98393 2.59733,-4.11192 5.02933,-1.42459 2.40289,2.65516 3.79662,2.53733 2.95707,-0.25 -1.20993,-4.01704 -6.27619,-8.50723 -9.00918,-7.98479 -2.49539,0.47702 -3.02259,-0.31279 -1.65016,-2.47217 0.59583,-0.93748 1.61449,-0.91565 4.56236,0.0978 2.93244,1.00813 4.46142,2.47115 6.72548,6.43537 1.63154,2.85672 4.25632,5.81637 5.92232,6.67789 1.64566,0.851 2.99211,2.20943 2.99211,3.01872 0,0.80929 1.51025,3.16023 3.35612,5.22432 1.84586,2.06408 4.60969,5.77788 6.14185,8.25288 9.20391,14.86773 19.53367,28 22.02462,28 1.89177,0 4.20025,-3.23955 4.98815,-7 0.40334,-1.925 1.54085,-5.09593 2.52781,-7.04651 0.98696,-1.95059 2.11789,-5.32559 2.51317,-7.5 0.94166,-5.18008 4.16061,-11.50675 5.69728,-11.1977 1.60241,0.32227 4.52236,-5.70861 5.62718,-11.62243 0.85634,-4.58375 0.82651,-4.67427 -0.99671,-3.02428 -1.80454,1.63308 -1.87859,1.56514 -1.85751,-1.70409 0.0258,-3.99923 3.25183,-11.57976 6.02909,-14.16718 1.07192,-0.99865 1.94895,-2.87743 1.94895,-4.17508 0,-1.29764 1.29394,-6.11761 2.87542,-10.71104 4.01273,-11.65501 4.66388,-14.0714 6.69685,-24.85169 1.74692,-9.26344 2.78022,-12 4.53112,-12 0.47218,0 1.16028,1.20237 1.52912,2.67194 l 0.67061,2.67194 1.84844,-2.28272 c 1.01664,-1.25552 1.84844,-3.59873 1.84844,-5.20715 0,-1.60842 0.65867,-3.92966 1.46371,-5.15831 0.94079,-1.43582 1.59275,-5.62107 1.82487,-11.71481 0.40962,-10.75308 1.81049,-14.58905 7.6298,-20.89249 4.21452,-4.56516 7.45316,-5.22765 11.10396,-2.27142 1.95834,1.58577 2.08651,2.11109 1.00718,4.12785 -0.6802,1.27096 -1.61468,4.61581 -2.07663,7.433 -0.46194,2.81718 -1.15193,6.40751 -1.5333,7.97852 -0.45652,1.88052 -0.26072,3.12378 0.5731,3.63911 1.71006,1.05687 -0.87579,9.50452 -2.90936,9.50452 -0.77916,0 -1.75386,1.125 -2.166,2.5 -0.41213,1.375 -1.71295,5.59901 -2.89071,9.3867 -1.90828,6.13706 -2.00503,7.41868 -0.88884,11.77382 1.53611,5.9936 0.0474,14.64573 -3.66387,21.29317 -1.33369,2.38887 -2.65634,6.07656 -2.93922,8.19486 -0.87546,6.5559 -6.97373,23.79049 -9.20888,26.02564 -1.16719,1.16719 -2.42875,3.51799 -2.80345,5.22399 -0.3747,1.706 -1.09552,3.10182 -1.60182,3.10182 -0.50629,0 -0.92054,0.69341 -0.92054,1.5409 0,3.4417 -4.41082,14.83861 -8.56204,22.12306 -2.42893,4.26222 -5.107,10.12562 -5.95126,13.02978 -1.21575,4.18203 -2.05546,5.4109 -4.03724,5.9083 -4.89768,1.22924 -5.55876,7.39796 -0.79281,7.39796 1.34347,0 3.74182,0.67182 5.32966,1.49292 2.8398,1.46852 6.01369,1.1519 6.01369,-0.59991 0,-0.49115 0.48032,-0.89301 1.06739,-0.89301 0.61809,0 0.79578,0.85576 0.42213,2.03303 -0.56653,1.78498 -1.14999,10.42229 -1.40668,20.82396 -0.0626,2.53896 -0.44464,3.21815 -1.56759,2.78724 -1.58575,-0.60851 -3.51525,2.06994 -3.51525,4.87974 0,0.91049 0.97504,2.44499 2.16676,3.40998 1.27194,1.02996 1.9243,2.38636 1.57967,3.28447 -0.51201,1.33428 -1.22682,1.36399 -5.58936,0.23237 -2.75125,-0.71367 -5.90764,-1.78211 -7.01419,-2.37433 -2.41997,-1.29512 -6.89439,0.11242 -7.79184,2.45113 -0.59396,1.54784 -7.29405,5.47241 -9.34259,5.47241 -0.58917,0 -1.26767,-0.5625 -1.50778,-1.25 z m 19.45356,-58.397 c 2.67368,-4.53154 1.54919,-6.18611 -2.8737,-4.22835 -3.0079,1.33142 -3.70099,3.09488 -2.47354,6.29356 0.99903,2.60344 3.063,1.80629 5.34724,-2.06521 z m -63.45423,-37.353 c 0.33992,-0.55 0.14148,-1 -0.44098,-1 -0.58246,0 -1.05902,0.45 -1.05902,1 0,0.55 0.19844,1 0.44098,1 0.24254,0 0.7191,-0.45 1.05902,-1 z m 89,-21 c 0.85325,-1.65 1.89278,-3 2.31007,-3 0.41729,0 1.53824,-1.31963 2.49099,-2.93251 1.35314,-2.29067 1.58906,-4.15106 1.07793,-8.5 -0.94553,-8.04496 -2.3913,-7.37867 -6.36324,2.93251 -1.27118,3.3 -3.11373,6.85648 -4.09456,7.90328 -1.67679,1.7896 -1.6829,2.04159 -0.10225,4.21858 2.20819,3.04129 2.82945,2.95876 4.68106,-0.62186 z M 132.17425,782.86247 c -0.65661,-0.24579 -0.99387,-0.98031 -0.74948,-1.63228 0.5103,-1.36135 -6.0157,-6.13778 -7.30082,-5.34353 -1.27078,0.78538 -2.55515,-0.44576 -4.52957,-4.34186 -0.97553,-1.925 -3.19026,-5.48321 -4.92162,-7.90712 -3.03537,-4.24954 -3.16241,-4.83784 -3.55265,-16.45219 -0.34598,-10.29712 -0.74021,-12.63247 -2.71662,-16.09288 -1.27155,-2.22629 -2.60511,-5.72206 -2.96346,-7.76837 -0.35835,-2.04631 -1.77732,-5.05847 -3.15326,-6.69369 -1.37595,-1.63522 -3.212191,-5.13597 -4.080542,-7.77944 -0.86835,-2.64347 -2.805169,-6.38131 -4.304041,-8.30631 -3.032932,-3.89519 -6.034118,-9.34156 -6.034118,-10.95034 0,-0.57731 1.325745,-1.04966 2.9461,-1.04966 l 2.9461,0 -1.382136,-4.75 c -0.760174,-2.6125 -1.429605,-5.875 -1.487624,-7.25 -0.336852,-7.98306 -2.695711,-33.11213 -3.599582,-38.34656 -0.585739,-3.39209 -0.444457,-3.80425 1.195771,-3.48837 1.386458,0.26701 2.038682,1.60743 2.561881,5.26504 0.790591,5.52692 4.183311,9.76107 7.974181,9.95185 2.25079,0.11328 2.35663,0.47215 2.62614,8.90448 0.37966,11.87873 3.64648,22.07594 7.21917,22.5343 3.33073,0.42732 4.99711,2.79405 5.01338,7.12039 0.007,1.95738 1.35134,7.38387 2.98662,12.05887 1.63528,4.675 2.97926,9.40425 2.98662,10.50945 0.007,1.1052 0.90512,2.56636 1.99502,3.24701 1.0899,0.68065 3.17719,3.6014 4.63843,6.49055 1.46124,2.88914 4.41127,7.84049 6.55562,11.00299 3.71716,5.48207 5.96922,6.94259 7.32431,4.75 0.33992,-0.55 2.58583,-1 4.99092,-1 3.6854,0 4.69803,-0.45662 6.44099,-2.90437 1.13745,-1.5974 2.06809,-3.5856 2.06809,-4.41821 0,-2.4329 1.12237,-4.67494 2.35699,-4.70834 0.62865,-0.017 2.6951,-2.09025 4.59211,-4.60721 2.28366,-3.02998 5.2692,-5.43807 8.83568,-7.12672 l 5.38658,-2.55043 4.41432,2.14464 c 4.7431,2.30438 5.26093,3.22313 2.91432,5.17064 -0.825,0.68469 -1.5,2.10131 -1.5,3.14805 0,2.11603 -8.5589,19.4613 -10.06118,20.38976 -0.52447,0.32414 -1.76499,2.24823 -2.75673,4.27577 -0.99173,2.02753 -2.45091,4.72633 -3.24262,5.99732 -1.28313,2.05992 -1.2494,2.45203 0.31053,3.61025 2.36588,1.75661 2.22825,2.61857 -1.16634,7.30467 -1.60399,2.21424 -3.91892,5.99425 -5.14429,8.40003 -2.8952,5.68418 -6.74251,10.69843 -9.23016,12.02977 -2.02645,1.08453 -15.25113,1.96757 -17.40303,1.16205 z m 6.53932,-23.7657 c 0.221,-1.14002 -0.13937,-1.62085 -1,-1.33427 -0.74002,0.24642 -1.50098,1.25007 -1.691,2.23033 -0.221,1.14002 0.13937,1.62085 1,1.33427 0.74002,-0.24642 1.50098,-1.25007 1.691,-2.23033 z m -7.23044,-4.99123 c 0.30377,-0.7916 0.0963,-2.2541 -0.46106,-3.25 -0.91569,-1.63621 -1.11653,-1.5394 -2.08368,1.00436 -1.3711,3.6062 -1.36125,3.6849 0.46106,3.6849 0.84226,0 1.77992,-0.64767 2.08368,-1.43926 z m 21.78381,-9.72437 c -0.89164,-1.4427 -2.40101,0.134 -2.36707,2.47265 0.0308,2.11895 0.079,2.1286 1.46797,0.29366 0.78989,-1.04353 1.19448,-2.28837 0.8991,-2.76631 z m -1.47133,-5.40695 c 1.23139,-1.16962 1.17836,-1.45155 -0.38592,-2.05182 -2.20275,-0.84528 -4.91763,0.706 -5.38354,3.07615 -0.27537,1.4008 0.11393,1.60236 2,1.03549 1.28806,-0.38714 2.98431,-1.31406 3.76946,-2.05982 z m -28.92754,-2.34763 c 0,-1.73031 -1.21382,-4.08179 -2.10699,-4.08179 -1.03628,0 -1.21118,3.3485 -0.22634,4.33333 0.96536,0.96537 2.33333,0.81789 2.33333,-0.25154 z M 97.682843,666.7948 c -0.200164,-1.05548 -1.419875,-1.87558 -3.073325,-2.06642 -3.085118,-0.35609 -3.645488,1.19049 -0.991449,2.73632 2.678537,1.56011 4.432848,1.27098 4.064774,-0.6699 z m 185.760567,33.2096 c 0.82115,-6.84992 1.26152,-8.02274 2.53444,-6.74982 0.72561,0.72561 0.66418,2.37844 -0.20136,5.41721 -1.81373,6.3677 -3.01921,7.05625 -2.33308,1.33261 z M 95.006193,636.21326 c -0.760216,-0.91714 -1.061847,-2.42174 -0.68275,-3.40572 0.646906,-1.67911 0.726569,-1.67822 1.679149,0.0187 0.550013,0.97978 0.857251,2.51235 0.68275,3.40572 -0.291648,1.49312 -0.427265,1.49161 -1.679149,-0.0187 z M 70.922896,620.189 c -0.460732,-1.21181 -1.841309,-5.92274 -3.067948,-10.46873 l -2.230253,-8.26543 2.871687,-2.92555 c 2.437474,-2.4832 3.400904,-2.83469 6.371687,-2.32463 4.751384,0.81577 6,2.01883 6,5.78108 0,1.75783 0.710521,5.58864 1.578935,8.51291 1.878323,6.325 1.256098,7.36036 -6.10189,10.15341 -4.556543,1.72963 -4.589636,1.7268 -5.422218,-0.46306 z"
         id="path4045"
         inkscape:connector-curvature="0" />
      <path
         style="fill:#fd3949"
         d="m 139.98066,778.5448 c -2.01099,-2.2 -4.17151,-4 -4.80114,-4 -0.62963,0 -1.31629,-0.51453 -1.52592,-1.1434 -0.28595,-0.85786 -0.91466,-0.85786 -2.51759,0 -1.17505,0.62887 -3.75218,1.1434 -5.72695,1.1434 -2.99536,0 -3.76351,-0.45508 -4.63435,-2.74557 -0.57413,-1.51006 -2.07129,-4.09756 -3.32704,-5.75 -5.83071,-7.67264 -6.56239,-12.40006 -2.48966,-16.08582 1.05053,-0.95072 1.91006,-2.55884 1.91006,-3.5736 0,-1.88661 1.66947,-2.39397 3.55278,-1.0797 2.13389,1.48914 5.45194,8.05882 4.85534,9.61352 -0.62114,1.61866 -0.1271,1.94448 4.59188,3.02832 2.66066,0.61109 6,6.41066 6,10.42046 0,3.18757 4.2838,2.91439 6.46345,-0.41217 1.59179,-2.42937 1.59141,-2.69734 -0.006,-4.46276 -1.90652,-2.10637 -1.32524,-4.95268 1.01117,-4.95268 2.48689,0 1.73495,-2.39821 -1.17579,-3.75 -1.48036,-0.6875 -3.91695,-1.25 -5.41464,-1.25 -2.21823,0 -2.93432,-0.64003 -3.86242,-3.45222 -1.02224,-3.09742 -3.29382,-4.88825 -5.66221,-4.46388 -3.73965,0.67007 -4.69754,-2.76348 -1.35356,-4.85183 2.36292,-1.47567 2.61401,-3.78248 0.5,-4.5937 -2.38413,-0.91487 -1.74224,-3.59577 1.12164,-4.68462 3.07227,-1.16807 4.34119,-0.368 7.48565,4.71985 1.52669,2.47024 2.59412,3.25735 3.76208,2.77413 5.00985,-2.07271 5.34667,-1.92746 5.00728,2.1595 -0.1778,2.14102 0.27658,5.6241 1.00974,7.74017 1.25165,3.61259 1.52466,3.80735 4.47331,3.19119 1.72716,-0.36091 4.2653,-0.74913 5.6403,-0.86271 4.61497,-0.38121 5.29935,-1.47183 4.60906,-7.34504 -0.52756,-4.48876 -0.22267,-6.28089 1.80601,-10.61565 1.3424,-2.86836 3.5593,-7.77081 4.92646,-10.89434 2.18297,-4.9874 2.95303,-5.80891 6.32211,-6.74442 5.26324,-1.46149 5.16616,-1.50061 5.89316,2.37466 0.53747,2.86494 0.0233,4.47846 -3.02709,9.5 -2.02098,3.3269 -4.11558,6.04891 -4.65465,6.04891 -0.53908,0 -2.37378,3.0375 -4.07713,6.75 -1.70334,3.7125 -4.17159,7.91726 -5.485,9.3439 -1.3134,1.42665 -2.66724,4.31458 -3.00852,6.41764 -0.56435,3.4777 -0.44783,3.75305 1.28754,3.04264 1.04943,-0.4296 2.79951,-1.0347 3.88906,-1.34468 1.96294,-0.55844 1.96348,-0.53688 0.0586,2.36346 -1.05733,1.60987 -3.32515,5.40204 -5.0396,8.42704 -5.09732,8.99379 -6.65278,11.02764 -9.59884,12.55111 -4.03833,2.0883 -4.7317,1.88704 -8.78857,-2.55111 z m 104.88741,0.53393 c 0,-0.80634 -0.77558,-3.09248 -1.7235,-5.0803 -1.48977,-3.12407 -2.08822,-3.54129 -4.41278,-3.07637 -3.53307,0.70661 -5.01421,-1.19994 -4.72606,-6.08349 0.27611,-4.67946 -0.7058,-6.56561 -3.03341,-5.82686 -1.2482,0.39617 -2.33455,-0.53195 -3.91584,-3.34547 -1.20363,-2.14156 -2.18841,-4.66806 -2.18841,-5.61443 0,-0.94638 -1.8,-3.98139 -4,-6.74448 -4.21604,-5.29512 -4.68866,-6.67387 -2.90066,-8.46187 1.38854,-1.38854 0.21626,-5.30066 -1.58837,-5.30066 -0.74484,0 -2.62701,-1.97895 -4.18261,-4.39767 -1.77756,-2.76382 -4.26537,-5.03917 -6.69624,-6.12435 -2.12734,-0.94968 -4.55888,-2.93068 -5.40342,-4.40222 -1.68448,-2.93503 -8.4792,-8.24726 -11.6938,-9.14241 -1.6817,-0.46829 -1.98043,-1.24936 -1.72109,-4.5 0.32478,-4.07098 2.50213,-8.43335 4.20924,-8.43335 0.53732,0 0.97919,0.5625 0.98192,1.25 0.003,0.6875 1.05325,2.56009 2.33449,4.16131 2.53869,3.17272 4.65667,2.8458 4.6667,-0.72033 0.003,-1.20504 0.67839,-3.47992 1.5,-5.05529 0.82161,-1.57537 1.49384,-3.98601 1.49384,-5.35699 0,-1.86215 0.40011,-2.33914 1.58179,-1.88569 0.86998,0.33385 3.53966,0.60699 5.93261,0.60699 3.63787,0 4.46554,0.3687 5.0509,2.25 0.38503,1.2375 2.19959,3.92134 4.03234,5.9641 1.83276,2.04275 4.48822,5.99522 5.90103,8.78328 4.53521,8.94981 9.16613,15.34637 15.89582,21.95643 l 6.5706,6.45382 3.06479,-2.93625 c 3.43943,-3.29519 4.41065,-2.72316 5.5667,3.27862 0.34785,1.80594 1.24304,3.25 2.01471,3.25 0.86182,0 1.38871,1.08707 1.38871,2.86514 0,3.23787 3.38673,8.13486 5.62601,8.13486 0.81447,0 2.98011,1.19629 4.81254,2.65842 3.18134,2.53845 3.27329,2.79729 2.03767,5.73597 -0.85789,2.04032 -0.97767,3.66865 -0.35539,4.83139 0.65633,1.22635 0.45262,2.49558 -0.6773,4.22005 -0.88875,1.35642 -1.31335,2.9558 -0.94353,3.55417 0.36982,0.59837 -0.0548,2.19775 -0.94353,3.55417 -1.23678,1.88756 -1.3642,2.93657 -0.54308,4.47086 1.61789,3.02304 -1.51267,3.794 -4.39825,1.08314 -2.20045,-2.06722 -2.42425,-2.08588 -6.18274,-0.51548 -2.1448,0.89616 -4.49503,2.47941 -5.22272,3.51834 -1.61155,2.3008 -7.20968,2.62917 -7.20968,0.4229 z M 117.40105,727.39208 c -2.04816,-1.61108 -2.89489,-1.79181 -4.02002,-0.85803 -1.72103,1.42832 -3.50373,0.52215 -3.53775,-1.79827 -0.0136,-0.93004 -1.70114,-3.89441 -3.75,-6.58749 -4.3367,-5.70026 -4.31473,-5.66497 -7.340973,-11.79218 -1.273664,-2.57878 -3.793662,-6.39886 -5.599996,-8.48907 -4.056523,-4.69403 -4.410681,-7.64306 -0.809328,-6.73918 2.045166,0.5133 2.692786,0.12592 3.729645,-2.23095 1.18645,-2.6969 2.611341,-4.30255 3.848582,-4.3368 0.30423,-0.008 2.5231,2.77808 4.93082,6.19223 2.40772,3.41415 4.55881,5.66415 4.78019,5 1.34341,-4.03024 4.40475,3.50199 6.10345,15.01716 0.65176,4.41817 1.83376,7.8481 3.44614,10 4.94921,6.60526 3.77042,10.98914 -1.78076,6.62258 z M 262.08057,716.3573 c -0.66688,-0.66688 -1.2125,-2.89594 -1.2125,-4.95348 0,-2.05754 -0.45,-4.0191 -1,-4.35902 -1.79278,-1.108 -1.12289,-5.32622 0.95035,-5.98424 4.0856,-1.29672 8.20137,-11.08324 10.08606,-23.98274 1.1321,-7.74853 3.155,-11.78053 5.46558,-10.89388 1.01747,0.39044 1.49801,1.99016 1.49801,4.9869 0,4.20686 0.11628,4.38288 2.5,3.7846 2.06803,-0.51904 2.5,-0.26714 2.5,1.4579 0,1.14694 -1.125,2.82248 -2.5,3.72342 -1.92166,1.25912 -2.49264,2.47896 -2.4682,5.27305 0.0175,1.99924 0.70546,4.52623 1.52882,5.61553 1.81071,2.39556 1.17857,6.06358 -2.20068,12.76946 -2.40825,4.77901 -3.78615,5.81106 -4.67289,3.5 -0.5254,-1.36931 -3.09942,1.66342 -5.67848,6.69045 -1.74871,3.40851 -3.09417,4.07395 -4.79607,2.37205 z m 21.47898,-30.50268 c -0.70075,-1.13383 3.91459,-8.30982 5.34457,-8.30982 1.56623,0 1.09914,3.01089 -0.56624,3.64996 -0.8416,0.32295 -2.12534,1.72307 -2.85275,3.11138 -0.72741,1.38831 -1.59392,2.08512 -1.92558,1.54848 z M 98.368069,681.5448 c -0.815505,-1.31952 0.380209,-3.19207 1.569098,-2.45729 1.214613,0.75067 1.206723,3.45729 -0.01008,3.45729 -0.517541,0 -1.219098,-0.45 -1.559017,-1 z m 189.500001,-8.04966 c 0,-2.64498 2.73941,-7.95034 4.10514,-7.95034 1.13725,0 0.34582,5.18764 -1.25864,8.25 -1.24574,2.3777 -2.8465,2.20918 -2.8465,-0.29966 z m -10.83899,-13.62712 c -0.64989,-1.16128 -0.34541,-3.06012 0.99037,-6.17638 1.06081,-2.47477 2.07545,-5.65772 2.25474,-7.07321 0.1793,-1.4155 1.37187,-8.56923 2.65016,-15.89719 2.20643,-12.64872 2.40523,-13.21606 3.92503,-11.20122 2.14243,2.84029 4.58766,1.78999 7.04452,-3.02584 1.06734,-2.09218 2.82037,-4.08318 3.89562,-4.42445 2.47962,-0.787 3.9151,-5.14387 4.62086,-14.02493 0.79953,-10.06095 0.74997,-10.56579 -1.17536,-11.97363 -1.61839,-1.1834 -1.55116,-1.45115 0.94537,-3.76486 1.47823,-1.36997 2.68768,-3.01289 2.68768,-3.65093 0,-1.19816 4.03631,-3.11058 6.5651,-3.11058 3.03279,0 1.27392,14.03928 -2.27429,18.15342 -0.78429,0.90939 -2.04455,4.60986 -2.80058,8.22327 -0.75602,3.61341 -2.5256,8.5339 -3.93241,10.93443 -1.4068,2.40053 -2.55782,5.48756 -2.55782,6.86007 0,1.37251 -0.30031,2.79579 -0.66736,3.16283 -0.36704,0.36705 -0.81949,5.05455 -1.00543,10.41667 -0.18594,5.36212 -0.55745,10.34033 -0.82558,11.06269 -0.82743,2.22917 -2.20768,0.42637 -2.87668,-3.75737 -0.48673,-3.0438 -1.00246,-3.84838 -2.17775,-3.39738 -2.14215,0.82202 -6.2401,9.25528 -7.56581,15.56985 -1.61117,7.67427 -5.4314,11.18492 -7.72038,7.09474 z m 19.83899,-30.38224 c 0,-0.51754 -0.45,-0.94098 -1,-0.94098 -0.55,0 -1,0.70156 -1,1.55902 0,0.85746 0.45,1.2809 1,0.94098 0.55,-0.33992 1,-1.04148 1,-1.55902 z M 71.361846,617.18415 c -0.785887,-1.88089 -1.656391,-6.15139 -1.934454,-9.48999 l -0.505569,-6.07019 3.572034,-0.98629 c 5.345674,-1.47601 7.624859,0.26024 7.097951,5.40712 -0.225224,2.2 0.161938,5.15161 0.860361,6.55913 1.589062,3.20243 0.829715,4.45219 -3.907814,6.43166 l -3.753623,1.56836 -1.428886,-3.4198 z"
         id="path4043"
         inkscape:connector-curvature="0" />
      <path
         style="fill:#fe2d38"
         d="m 145.86807,780.5448 c 0,-0.55 0.47656,-1 1.05902,-1 0.58246,0 0.7809,0.45 0.44098,1 -0.33992,0.55 -0.81648,1 -1.05902,1 -0.24254,0 -0.44098,-0.45 -0.44098,-1 z m 104.15626,-8.55639 c -0.64062,-1.40601 -1.61603,-2.27749 -2.16758,-1.93662 -1.68665,1.04242 -2.33518,-2.49102 -0.93678,-5.10396 1.13711,-2.12471 1.08245,-2.69725 -0.39894,-4.17864 -1.62212,-1.62212 -1.70108,-1.58173 -1.43478,0.73402 0.23305,2.02649 -0.49701,2.82675 -4.21818,4.62386 -4.93446,2.38306 -6.87722,1.50823 -4.42512,-1.99264 0.78382,-1.11905 1.42512,-2.82039 1.42512,-3.78075 0,-1.01191 0.54061,-1.53866 1.28571,-1.25274 0.95201,0.36532 1.28572,-0.94057 1.28572,-5.03138 0,-3.03862 -0.25345,-5.52476 -0.56321,-5.52476 -0.30976,0 -1.52677,0.67491 -2.70446,1.49979 -1.17769,0.82489 -2.82952,1.23569 -3.67072,0.91289 -2.42234,-0.92954 -8.66936,-14.65891 -10.19802,-22.41268 -0.37951,-1.925 -1.98265,-4.97816 -3.56252,-6.7848 -1.57988,-1.80663 -2.8725,-4.16913 -2.8725,-5.25 0,-1.23093 -0.67737,-1.9652 -1.81291,-1.9652 -0.9971,0 -3.10629,-1.35 -4.68709,-3 -2.73634,-2.85613 -7.5,-4.12643 -7.5,-2 0,1.60988 -1.72892,1.1488 -2.41712,-0.64462 -0.34711,-0.90454 0.0171,-2.36704 0.80925,-3.25 0.90278,-1.00622 1.23066,-2.68842 0.8785,-4.50726 -0.32942,-1.70142 0.0789,-4.18352 0.9871,-6 0.85193,-1.70397 1.82438,-3.94048 2.16102,-4.97004 1.70304,-5.20862 13.36998,2.97403 15.60078,10.94167 1.31971,4.71354 7.70517,14.01125 13.11371,19.09455 10.89739,10.24206 15.52538,15.15096 16.62839,17.63766 0.72273,1.62939 2.7066,3.41356 4.74061,4.26342 1.92377,0.8038 3.53219,1.79292 3.57427,2.19804 0.30837,2.96873 0.96792,4.75139 1.86903,5.05176 2.82431,0.94144 -0.90857,6.18482 -4.40311,6.18482 -1.59255,0 -1.72048,0.60529 -1.10959,5.25 0.37977,2.8875 1.05938,5.62414 1.51024,6.08141 0.45086,0.45728 0.34761,2.36978 -0.22945,4.25 -1.31292,4.27788 -4.79262,4.73541 -6.55737,0.8622 z m -128.68018,-1.51897 c -0.79108,-2.49248 -0.10856,-3.38132 1.98079,-2.57956 1.94504,0.74638 2.03783,4.65492 0.11052,4.65492 -0.78794,0 -1.72903,-0.93391 -2.09131,-2.07536 z m 6.49201,-5.50856 c -0.54032,-1.42115 -0.72762,-2.99615 -0.41623,-3.5 1.10172,-1.78261 3.23983,-0.8822 3.87032,1.62991 1.17296,4.67342 -1.78034,6.27238 -3.45409,1.87009 z m 7.04696,-15.09966 c 0.0451,-2.4441 2.95729,-8.72144 4.42791,-9.54444 2.45697,-1.37499 2.74402,-0.61461 1.83283,4.85513 -0.72035,4.32421 -1.11938,4.90852 -3.54377,5.18931 -1.50261,0.17403 -2.72525,-0.051 -2.71697,-0.5 z M 264.27939,709.1743 c -0.42333,-1.10317 0.0143,-2.2251 1.21325,-3.11043 1.61947,-1.19584 1.92266,-1.17316 2.22152,0.16624 0.19035,0.8531 -0.35562,2.25279 -1.21326,3.11043 -1.41246,1.41246 -1.62172,1.3968 -2.22151,-0.16624 z m -73.71041,-4.22719 c -2.20393,-1.19494 -2.65844,-1.98377 -2.1376,-3.70997 1.43901,-4.76931 3.37839,-4.63954 5.98467,0.40044 1.42548,2.75657 1.26378,4.9611 -0.357,4.86718 -0.38004,-0.022 -1.95057,-0.72296 -3.49007,-1.55765 z m -98.24203,-9.46884 c -0.362533,-0.58659 -0.41903,-1.30665 -0.125548,-1.60014 0.716313,-0.71631 2.666667,0.54583 2.666667,1.72569 0,1.27797 -1.726411,1.19267 -2.541119,-0.12555 z"
         id="path4041"
         inkscape:connector-curvature="0" />
    </g>
  </g>
</svg>
