<?xml version="1.0" encoding="UTF-8" standalone="no"?>
<!-- Created with Inkscape (http://www.inkscape.org/) -->

<svg
   xmlns:dc="http://purl.org/dc/elements/1.1/"
   xmlns:cc="http://creativecommons.org/ns#"
   xmlns:rdf="http://www.w3.org/1999/02/22-rdf-syntax-ns#"
   xmlns:svg="http://www.w3.org/2000/svg"
   xmlns="http://www.w3.org/2000/svg"
   xmlns:sodipodi="http://sodipodi.sourceforge.net/DTD/sodipodi-0.dtd"
   xmlns:inkscape="http://www.inkscape.org/namespaces/inkscape"
   width="208.25229"
   height="276"
   id="svg2"
   version="1.1"
   inkscape:version="0.48.2 r9819"
   sodipodi:docname="7-W.svg">
  <defs
     id="defs4" />
  <sodipodi:namedview
     id="base"
     pagecolor="#ffffff"
     bordercolor="#666666"
     borderopacity="1.0"
     inkscape:pageopacity="0.0"
     inkscape:pageshadow="2"
     inkscape:zoom="0.98994949"
     inkscape:cx="242.64123"
     inkscape:cy="27.881432"
     inkscape:document-units="px"
     inkscape:current-layer="layer1"
     showgrid="false"
     fit-margin-top="5"
     fit-margin-left="5"
     fit-margin-right="5"
     fit-margin-bottom="5"
     inkscape:window-width="968"
     inkscape:window-height="702"
     inkscape:window-x="611"
     inkscape:window-y="0"
     inkscape:window-maximized="0" />
  <metadata
     id="metadata7">
    <rdf:RDF>
      <cc:Work
         rdf:about="">
        <dc:format>image/svg+xml</dc:format>
        <dc:type
           rdf:resource="http://purl.org/dc/dcmitype/StillImage" />
        <dc:title></dc:title>
      </cc:Work>
    </rdf:RDF>
  </metadata>
  <g
     inkscape:label="Layer 1"
     inkscape:groupmode="layer"
     id="layer1"
     transform="translate(-85.729737,-338.56509)">
    <g
       id="g4117"
       transform="translate(-251.52798,-169.70563)">
      <path
         style="fill:#d1fbfc"
         d="m 345.93668,778.50541 c -0.55,-0.40408 -1.09708,-1.40969 -1.21573,-2.23469 -0.11866,-0.825 -0.79713,-3.83938 -1.50772,-6.69863 -0.96717,-3.89161 -1.06518,-7.98185 -0.38986,-16.26884 0.57563,-7.06373 0.54869,-11.86228 -0.0744,-13.25876 -0.54004,-1.21027 -0.65192,-3.99559 -0.25028,-6.23116 0.39945,-2.22343 0.99889,-8.31761 1.33208,-13.54261 0.33319,-5.225 1.02142,-15.33616 1.52939,-22.46924 0.50797,-7.13308 0.70519,-13.32261 0.43826,-13.75451 -0.26692,-0.4319 0.40636,-5.39574 1.49619,-11.03076 1.08982,-5.63502 2.2346,-11.82049 2.54393,-13.74549 0.30934,-1.925 1.24495,-6.875 2.07913,-11 0.83418,-4.125 1.52596,-12 1.5373,-17.5 0.0187,-9.08569 0.53531,-13.77094 3.96917,-36 0.59473,-3.85 1.49896,-14.65 2.00939,-24 1.77331,-32.48306 3.58752,-50.81035 5.37018,-54.25 l 1.68436,-3.25 17.1083,0 c 18.7974,0 23.82697,0.91715 27.02821,4.92864 1.90784,2.39073 2.00149,3.37921 1.33312,14.07136 -1.32927,21.26506 -1.47485,22.98468 -2.4676,29.14914 -0.5443,3.37975 -0.77921,6.48548 -0.52203,6.9016 0.25718,0.41613 -0.39191,5.86244 -1.44242,12.10293 -1.05051,6.24048 -2.06278,16.07133 -2.24948,21.84633 l -0.33946,10.5 30,0.0411 c 16.5,0.0226 34.099,0.41988 39.10889,0.88283 7.35375,0.67954 9.27447,0.57528 9.9682,-0.5411 0.47262,-0.76056 0.88371,-12.85783 0.91353,-26.88283 0.0298,-14.025 0.45541,-34.03174 0.94576,-44.45941 1.18441,-25.18762 0.12549,-23.98689 20.36934,-23.09699 27.27554,1.19902 30.37285,1.65678 33.05186,4.88479 1.54866,1.86602 1.6337,21.74402 0.1633,38.17161 -2.01449,22.50629 -3.17561,34.2157 -4.16478,42 -0.55912,4.4 -1.39591,12.275 -1.85955,17.5 -0.46363,5.225 -1.54995,16.03337 -2.41405,24.01861 -0.8641,7.98523 -1.5278,16.31023 -1.47489,18.5 0.10891,4.5077 -2.02577,38.8742 -2.79403,44.98139 -0.27675,2.2 -0.57302,14.78811 -0.65838,27.97358 -0.15162,23.42048 -0.10075,24.07595 2.20487,28.41095 2.06875,3.88964 2.22251,4.89649 1.24566,8.15689 -1.47493,4.9229 -5.48801,6.75983 -11.09677,5.07941 -2.31905,-0.6948 -9.76808,-1.09876 -18.46309,-1.00125 -16.81824,0.18861 -17.99981,-0.2954 -19.13068,-7.83654 -0.37004,-2.46765 0.0507,-11.52832 0.93491,-20.13484 2.08498,-20.29355 2.28101,-26.80475 1.29901,-43.1482 -0.44613,-7.425 -0.91052,-18.675 -1.03198,-25 -0.24253,-12.62994 -1.18707,-15.55986 -5.39599,-16.73819 -1.49663,-0.419 -18.12629,-0.75309 -36.95481,-0.74243 -28.88475,0.0164 -34.46509,0.25081 -35.71482,1.50054 -0.81463,0.81463 -1.70417,3.95591 -1.97675,6.98061 -0.27259,3.02471 -1.01994,10.44947 -1.66078,16.49947 -0.64085,6.05 -1.22116,26.89682 -1.28958,46.32626 l -0.1244,35.32627 -3.73532,3.42373 c -3.09972,2.84117 -4.50351,3.42374 -8.25,3.42374 -2.93691,0 -4.52003,0.43684 -4.52999,1.25 -0.0113,0.92566 -0.20789,0.94728 -0.75752,0.0833 -0.40821,-0.64166 -2.8797,-1.16666 -5.4922,-1.16666 -2.62414,0 -4.49645,0.41025 -4.18347,0.91666 0.31159,0.5042 0.09,0.9167 -0.49248,0.9167 -0.58246,0 -1.05902,-0.45 -1.05902,-1 0,-0.55 -0.9,-1 -2,-1 -1.1,0 -2.0009,0.3375 -2.002,0.75 -0.003,1.2358 -7.30621,1.36934 -8.0614,0.14742 -0.48631,-0.78687 -1.24665,-0.82329 -2.50349,-0.11993 -1.24082,0.69441 -2.5817,0.6563 -4.28967,-0.1219 -1.90894,-0.86977 -2.58025,-0.84517 -2.89736,0.10617 -0.46726,1.40179 -1.28913,1.54333 -2.74608,0.47293 z"
         id="path4131"
         inkscape:connector-curvature="0" />
      <path
         style="fill:#a0f6f4"
         d="m 513.93668,776.34856 c -1.65,-0.37704 -8.2078,-0.49031 -14.57288,-0.25171 -13.53309,0.5073 -15.5241,-0.16523 -16.54406,-5.58828 -0.38665,-2.05582 0.11273,-12.42783 1.10974,-23.04891 1.35388,-14.42277 1.63423,-22.90276 1.1075,-33.5 -0.38789,-7.80392 -0.92585,-20.71394 -1.19548,-28.68894 -0.26963,-7.975 -0.94726,-15.93626 -1.50584,-17.69169 -1.76207,-5.53759 -4.09396,-5.83982 -42.86856,-5.55601 -18.95826,0.13877 -35.22919,0.4934 -36.15762,0.78807 -2.45961,0.78065 -2.70194,1.90058 -4.49629,20.77907 -1.10153,11.58931 -1.67259,28.31942 -1.75474,51.40757 l -0.12177,34.22702 -2.5,2.45445 c -2.46721,2.42227 -2.77072,2.45864 -23.14055,2.77299 -28.83649,0.44501 -27.29313,2.63604 -25.83836,-36.68147 1.87846,-50.7682 2.66164,-60.96372 6.03003,-78.5 2.38911,-12.43801 3.23391,-19.82345 3.43158,-30 0.14423,-7.425 1.00122,-17.39525 1.90442,-22.15611 2.45785,-12.95558 4.00238,-29.9616 6.10923,-67.26533 0.74116,-13.12301 2.10174,-22.38936 3.54229,-24.12512 1.71816,-2.07025 35.16419,-1.58904 39.46136,0.56775 4.67263,2.34523 5.84523,7.29254 4.61684,19.47881 -0.55441,5.5 -1.53161,15.625 -2.17155,22.5 -0.63995,6.875 -1.79793,16.325 -2.57329,21 -2.18454,13.17147 -3.62057,32.99556 -2.48894,34.3591 0.67652,0.81515 4.57292,1.06023 12.79484,0.80478 22.23924,-0.69096 42.0716,-0.37839 54.68487,0.86185 10.47764,1.03025 12.88708,1.01181 14.23758,-0.10902 1.43185,-1.18832 1.58235,-3.97542 1.26263,-23.38292 -0.19964,-12.11859 0.0436,-32.48902 0.54044,-45.26764 1.09897,-28.26316 0.36802,-26.87252 13.95371,-26.54726 5.02858,0.12039 14.94839,0.60529 22.04402,1.07755 16.36638,1.0893 16.59761,1.29215 16.60159,14.56434 0.002,5.02657 -0.43343,13.86422 -0.96654,19.63922 -0.53311,5.775 -1.67735,18.6 -2.54276,28.5 -0.8654,9.9 -2.20226,21.825 -2.97079,26.5 -0.76854,4.675 -1.66348,12.325 -1.98875,17 -0.32528,4.675 -1.00234,11.875 -1.50457,16 -0.50224,4.125 -1.39081,16.05 -1.97461,26.5 -0.5838,10.45 -1.78879,27.325 -2.67776,37.5 -2.14293,24.52769 -1.25182,55.07233 1.71678,58.8463 2.31232,2.93964 2.43054,5.96018 0.34956,8.93119 -1.6367,2.33672 -6.3401,2.80924 -12.9433,1.30035 z"
         id="path4129"
         inkscape:connector-curvature="0" />
      <path
         style="fill:#5ae6e0"
         d="m 515.43668,775.17341 c -1.925,-0.49092 -8.9,-0.62922 -15.5,-0.30734 -15.82709,0.77189 -16.08943,0.59256 -15.75479,-10.76962 0.13487,-4.57915 0.73507,-13.46801 1.33379,-19.75301 0.59872,-6.28501 1.12882,-15.51001 1.17799,-20.5 0.10246,-10.39602 -2.01135,-51.42682 -2.90454,-56.37958 -1.39455,-7.73283 -6.00064,-8.31525 -54.35245,-6.87268 -21.08012,0.62893 -27.82844,1.1408 -28.90691,2.19263 -2.61853,2.55385 -4.15076,23.61814 -4.74775,65.2694 -0.52094,36.34479 -0.74842,40.49373 -2.32713,42.44335 -1.68864,2.08538 -2.47524,2.16283 -22.52031,2.21751 l -20.77056,0.0566 -2.0965,-2.80034 c -2.33512,-3.11906 -2.37791,-4.23664 -1.29028,-33.69966 1.31653,-35.66355 3.53752,-63.40386 6.20562,-77.50863 1.68524,-8.90893 2.93717,-19.98508 3.44641,-30.49137 0.43987,-9.075 1.48936,-20.55 2.3322,-25.5 1.46213,-8.58706 3.1235,-25.72763 4.16784,-43 0.26603,-4.4 0.67009,-10.7 0.8979,-14 0.2278,-3.3 0.71805,-10.5 1.08944,-16 0.98657,-14.61049 0.18733,-14.01259 18.62964,-13.9365 25.33771,0.10453 26.71254,1.11749 25.42296,18.73128 -0.41094,5.61287 -0.86699,12.00522 -1.01344,14.20522 -0.43756,6.57305 -3.48199,31.0349 -4.56945,36.71535 -0.55643,2.90656 -1.2141,7.53465 -1.46148,10.28465 -0.24738,2.75 -0.72048,7.95165 -1.05133,11.55922 -0.47121,5.13811 -0.27829,6.8275 0.89041,7.79743 1.33904,1.11131 5.92285,1.31926 21.17272,0.96052 19.37936,-0.45588 38.61101,-0.24186 45.5,0.50634 10.13367,1.10061 17.04385,1.03264 18.25605,-0.17956 0.4857,-0.4857 1.10185,-15.67928 1.36922,-33.76352 0.84744,-57.31772 0.93591,-59.4817 2.47507,-60.53768 1.3748,-0.94323 23.94022,-0.46004 38.21552,0.8183 10.19409,0.91287 10.30525,1.19864 8.81407,22.6603 -1.61966,23.31098 -2.73256,35.62721 -4.71487,52.17865 -0.9222,7.7 -1.99609,18.05 -2.38642,23 -0.39033,4.95 -1.43278,14.85 -2.31657,22 -0.88378,7.15 -1.84669,17.05 -2.13979,22 -0.29311,4.95 -1.02384,17.325 -1.62386,27.5 -0.60002,10.175 -1.39637,22.1 -1.76968,26.5 -0.37331,4.4 -0.45374,16.55152 -0.17874,27.00338 0.47799,18.16675 0.60131,19.10453 2.80115,21.30115 1.64631,1.64389 2.10948,2.9235 1.62761,4.49662 -1.47831,4.82613 -3.78123,5.55185 -11.42876,3.60154 z"
         id="path4127"
         inkscape:connector-curvature="0" />
      <path
         style="fill:#26ead6"
         d="m 516.43668,773.16545 c -3.025,-0.37682 -9.82791,-0.44354 -15.11759,-0.14828 -5.28967,0.29526 -10.86903,0.22274 -12.39859,-0.16115 l -2.781,-0.69799 0.75246,-15.19366 c 0.41385,-8.35651 1.04321,-19.46865 1.39859,-24.69365 0.35537,-5.225 0.33684,-13.775 -0.0412,-19 -0.37802,-5.225 -0.94345,-16.025 -1.25651,-24 -0.71923,-18.32145 -1.28759,-22.55318 -3.65143,-27.18669 -1.04759,-2.0535 -1.90473,-4.37408 -1.90473,-5.15684 0,-2.83828 -8.25953,-3.56385 -11.86015,-1.04187 -2.13136,1.49286 -2.60054,1.48141 -6.22251,-0.15187 -2.15454,-0.97157 -3.91734,-2.09081 -3.91734,-2.48722 0,-0.39641 -6.35283,-7.19057 -14.11741,-15.09813 -14.76819,-15.04015 -17.41813,-18.20184 -16.50033,-19.68687 1.18288,-1.91395 14.50326,-2.27966 20.41681,-0.56054 4.63652,1.34787 6.47239,1.44478 9.91706,0.52347 3.32678,-0.88978 5.88411,-0.81356 12.00555,0.3578 11.58355,2.21657 14.89304,2.0064 16.91135,-1.07393 1.48134,-2.2608 1.60611,-4.76414 1.0592,-21.25 -0.36605,-11.03413 -0.15086,-24.83039 0.52544,-33.68731 0.62996,-8.25 1.17619,-20.39739 1.21385,-26.99421 l 0.0685,-11.99421 6,-0.75847 c 3.3,-0.41716 6.675,-0.49189 7.5,-0.16608 0.825,0.32582 7.74316,0.99312 15.3737,1.4829 8.36324,0.53681 14.47139,1.38655 15.37852,2.13939 1.2667,1.05127 1.40908,3.54672 0.8998,15.76979 -0.33279,7.98649 -1.27375,21.04589 -2.09106,29.02089 -0.81731,7.975 -1.96299,19.45 -2.54595,25.5 -0.58297,6.05 -1.49733,12.575 -2.03191,14.5 -0.53458,1.925 -0.97448,6.2123 -0.97754,9.52733 -0.003,3.31503 -0.88021,12.31503 -1.94921,20 -2.17451,15.63248 -2.62928,21.51766 -4.08254,52.83223 -0.55796,12.02276 -1.39108,23.72276 -1.85138,26 -0.4603,2.27724 -0.56366,13.67853 -0.22968,25.3362 0.57869,20.19965 0.71137,21.29263 2.8231,23.25715 2.20736,2.05349 2.18676,4.56135 -0.0432,5.2597 -0.64497,0.20198 -3.64768,0.0589 -6.67268,-0.31788 z m -166.62367,-3.42749 c -2.50368,-2.50368 -2.554,-2.8138 -1.9096,-11.76934 0.36401,-5.05884 0.69588,-12.3479 0.73751,-16.1979 0.14147,-13.08719 3.21179,-62.76713 4.35702,-70.5 0.2851,-1.925 1.45486,-9.125 2.59947,-16 1.18453,-7.11476 2.19698,-18.31606 2.35006,-26 0.14791,-7.425 1.1815,-19.125 2.29685,-26 2.09214,-12.89586 2.86731,-21.03198 3.70037,-38.83877 0.26602,-5.68632 0.78941,-10.83345 1.16308,-11.43806 0.37368,-0.60462 0.80998,-6.52717 0.96957,-13.16124 0.15959,-6.63406 0.64826,-14.31193 1.08592,-17.06193 l 0.79576,-5 14.48883,-0.28429 c 15.77949,-0.30962 21.94963,0.974 24.11308,5.01645 2.45451,4.58631 -3.14264,63.4251 -6.214,65.32331 -0.50064,0.30941 -0.93708,2.89851 -0.96986,5.75355 -0.0328,2.85504 -0.44352,7.21598 -0.91274,9.69098 -2.36068,12.45195 -2.44341,11.34164 0.98727,13.24965 2.61772,1.45588 4.57758,1.63961 11.67237,1.09426 l 8.52642,-0.65539 10.14315,10.47409 c 5.57873,5.76075 11.06001,11.11833 12.18062,11.90574 3.7311,2.62168 12.55938,17.16812 11.22764,18.49987 -0.22963,0.22962 -11.18322,0.70811 -24.34131,1.06331 -13.1581,0.35521 -25.48694,1.14592 -27.39744,1.75715 -3.04591,0.97448 -3.56284,1.63487 -4.19819,5.36331 -2.15074,12.62125 -3.14034,32.52987 -3.22909,64.96224 -0.0889,32.48624 -0.27188,36.38702 -1.7776,37.8928 -1.23723,1.23726 -3.86628,1.76413 -10,2.00402 -4.57682,0.179 -13.17074,0.57344 -19.09761,0.87654 -10.57774,0.54094 -10.82345,0.50375 -13.34755,-2.02035 z"
         id="path4125"
         inkscape:connector-curvature="0" />
      <path
         style="fill:#17e9cd"
         d="m 350.01292,769.93787 c -2.33409,-2.3341 -2.57624,-3.31977 -2.57624,-10.48684 0,-6.29364 0.39347,-8.41081 1.92498,-10.35781 1.33202,-1.69339 1.63595,-2.89007 0.98668,-3.88486 -1.35157,-2.07084 -0.86861,-25.52962 0.64724,-31.43764 0.70557,-2.75 1.03552,-7.09755 0.73321,-9.66122 -0.32225,-2.73276 -0.0213,-6.04254 0.72751,-8 0.70244,-1.83633 1.84435,-10.31378 2.53757,-18.83878 0.69322,-8.525 1.85446,-20 2.58054,-25.5 0.72608,-5.5 1.21856,-14.5 1.0944,-20 -0.12416,-5.5 0.48753,-15.175 1.35932,-21.5 2.54799,-18.48628 3.33997,-26.65874 3.97324,-41 0.32786,-7.425 0.79026,-14.11318 1.02755,-14.86262 0.66353,-2.09571 3.14658,0.397 3.92476,3.94003 0.68606,3.1236 3.03129,4.92259 6.41726,4.92259 1.13616,0 2.06386,-0.1125 2.06156,-0.25 -0.0305,-1.82431 -5.53985,-10.22165 -8.46486,-12.90222 l -3.81458,-3.4958 1.09892,-10.42599 c 0.60441,-5.7343 1.39651,-12.14819 1.76022,-14.25311 l 0.6613,-3.82711 12.80115,0.32711 c 7.04063,0.17992 13.06041,0.58768 13.37728,0.90615 0.31688,0.31847 0.86234,2.79347 1.21214,5.5 0.64145,4.96322 3.5144,9.42097 6.07168,9.42097 3.39178,0 4.4973,14.91575 1.84432,24.88364 -0.78808,2.961 -1.72289,7.911 -2.07735,11 -0.95611,8.33205 -2.37427,13.11636 -3.88795,13.11636 -1.75696,0 -2.5476,-3.16017 -2.56444,-10.25 -0.0216,-9.08379 -1.56053,-7.15107 -4.57852,5.75 -1.02538,4.38322 -0.95102,19.47708 0.0967,19.63479 0.49253,0.0741 1.36185,-0.61368 1.93182,-1.52847 0.76168,-1.22248 0.66644,-1.89397 -0.3594,-2.53386 -1.68069,-1.04836 -0.74702,-4.07246 1.25734,-4.07246 1.76884,0 2.96609,2.86247 1.83061,4.37675 -0.46325,0.61779 -0.91839,3.42451 -1.01142,6.23716 -0.093,2.81265 -0.89888,6.86041 -1.79078,8.99503 -2.37701,5.68897 -2.481,15.5605 -0.19369,18.38522 1.56739,1.93564 2.19258,2.09536 4.56004,1.16493 1.50899,-0.59304 4.09361,-1.20894 5.74361,-1.36867 2.23951,-0.2168 3.08101,-0.86079 3.31955,-2.54042 0.17575,-1.2375 0.93293,-2.25 1.68261,-2.25 0.74969,0 1.65634,-0.92402 2.01478,-2.05338 0.54228,-1.70856 1.34732,-2.00243 4.794,-1.75 3.23103,0.23664 4.40927,0.8416 5.3559,2.74997 0.66749,1.34563 2.66211,3.14563 4.43249,4 3.33473,1.60932 5.7853,4.50211 4.718,5.56941 -0.33656,0.33656 -1.89564,0.53538 -3.46463,0.44183 -3.43734,-0.20496 -13.68676,-0.2172 -17.87723,-0.0213 -4.91106,0.22954 -11.95275,2.66633 -12.26446,4.24414 -0.15894,0.80454 0.87473,1.99304 2.29705,2.64109 3.52925,1.60803 4.17533,1.49701 4.78169,-0.82172 0.33376,-1.2763 1.37105,-2.00494 2.86663,-2.01365 1.28899,-0.008 3.33426,-0.27928 4.54505,-0.60393 1.576,-0.42258 2.88703,0.1495 4.61467,2.01365 3.1086,3.35423 7.37652,3.5622 7.2633,0.35393 -0.0736,-2.08617 0.28466,-2.22575 4.9206,-1.91701 3.42854,0.22834 5.47144,0.9293 6.5,2.23029 0.825,1.04351 2.95241,2.18539 4.72757,2.53752 3.59398,0.71291 5.79701,2.74139 4.77436,4.39607 -0.36863,0.59647 -1.46884,0.83102 -2.4449,0.52123 -2.91408,-0.92489 -4.08601,1.50805 -2.52017,5.2319 1.85766,4.41782 5.46314,4.58281 5.46314,0.24996 0,-2.94037 1.32295,-3.7644 3.58772,-2.23469 1.37941,0.93171 2.36568,4.72553 1.53971,5.92268 -1.23854,1.7951 -8.81114,3.08759 -19.12743,3.26465 -24.37239,0.4183 -33.88117,1.51289 -34.04204,3.91868 -0.78401,11.72527 -1.22843,29.28664 -1.55962,61.62868 -0.22529,22 -0.64217,41.01854 -0.9264,42.26342 -0.42637,1.86745 -0.969,2.14993 -3.10169,1.61466 -1.70598,-0.42817 -2.87637,-0.17772 -3.44205,0.73657 -0.47142,0.76194 -2.11062,1.47529 -3.64267,1.58521 -1.53204,0.10992 -5.71053,0.39323 -9.28553,0.62957 -3.575,0.23634 -9.72819,0.76367 -13.67376,1.17184 -6.84837,0.70846 -7.29061,0.62527 -9.75,-1.83412 z m 40.32281,-34.04551 c 0.81264,-0.97918 0.84811,-2.15647 0.12245,-4.0651 -0.56183,-1.47771 -1.0215,-3.97064 -1.0215,-5.53985 0,-3.28505 -0.88372,-6.01669 -1.94647,-6.01669 -1.01725,0 -3.05353,4.68592 -3.05353,7.02682 0,2.50171 2.98624,9.97318 3.98614,9.97318 0.42293,0 1.28374,-0.62026 1.91291,-1.37836 z m 43.10095,-89.62164 c 0,-0.55 -0.675,-1 -1.5,-1 -0.825,0 -1.5,0.45 -1.5,1 0,0.55 0.675,1 1.5,1 0.825,0 1.5,-0.45 1.5,-1 z M 391.0846,634.71077 c 0.18489,-3.18244 -0.0961,-4.45734 -0.92164,-4.18214 -1.50149,0.50049 -3.13951,7.22284 -2.29575,9.42164 1.08148,2.8183 2.92352,-0.18145 3.21739,-5.2395 z m -2.64792,-26.40487 c 0,-1.08065 -0.93556,-2.46551 -2.07903,-3.07747 -1.14346,-0.61197 -2.53749,-2.4278 -3.09782,-4.03519 -0.62283,-1.78663 -1.72633,-2.92252 -2.83919,-2.92252 -1.00121,0 -2.64469,-0.29706 -3.65217,-0.66013 -1.65719,-0.59721 -1.63636,-0.4304 0.21843,1.75 1.12763,1.32557 3.32633,4.32263 4.886,6.66013 3.02045,4.52676 6.56378,5.76037 6.56378,2.28518 z m -20,-24.0942 c 0,-1.13246 -0.45,-1.7809 -1,-1.44098 -0.55,0.33992 -1,1.26648 -1,2.05902 0,0.79254 0.45,1.44098 1,1.44098 0.55,0 1,-0.92656 1,-2.05902 z m 18.97805,-11.94098 c 0.0126,-5.08079 2.80944,-20.40678 5.18103,-28.39064 2.89548,-9.74753 2.8094,-13.09543 -0.41974,-16.32457 -2.43372,-2.43371 -2.71772,-2.50472 -3.35682,-0.83925 -0.38399,1.00066 -0.18263,2.64488 0.44745,3.65381 1.1112,1.77932 0.2081,7.5078 -2.74323,17.40065 -0.49224,1.65 -1.46921,6.7125 -2.17104,11.25 -0.85404,5.52155 -1.71255,8.25 -2.59588,8.25 -1.69442,0 -1.75118,-0.26848 1.26523,5.98425 2.83144,5.86929 4.37687,5.52304 4.393,-0.98425 z m 9.58642,-11.75 c 0.33142,-1.5125 0.77034,-3.29809 0.97538,-3.96798 0.20504,-0.66988 -0.003,-1.45008 -0.46177,-1.73376 -0.45902,-0.28369 -1.08285,0.7144 -1.3863,2.21797 -0.30344,1.50357 -0.85638,3.52127 -1.22874,4.48377 -0.39041,1.00917 -0.21646,1.75 0.41092,1.75 0.59836,0 1.35909,-1.2375 1.69051,-2.75 z m -19.18373,-23.06918 c 0.8241,-3.53262 1.0096,-6.5966 0.48518,-8.01423 -0.88985,-2.40548 -2.86592,-2.11064 -2.86592,0.42761 0,0.81189 -0.62115,2.47283 -1.38033,3.69098 -2.03791,3.26995 -2.83649,11.39108 -1.35551,13.78485 1.18163,1.90991 1.2917,1.86226 2.50911,-1.08626 0.7003,-1.69608 1.87366,-5.65741 2.60747,-8.80295 z M 487.43668,771.3021 c 0,-0.53273 0.675,-0.70959 1.5,-0.39301 0.825,0.31659 1.5,0.75246 1.5,0.96862 0,0.21615 -0.675,0.39301 -1.5,0.39301 -0.825,0 -1.5,-0.43588 -1.5,-0.96862 z m 5.85628,-0.27974 c -3.70474,-1.48958 -6.18742,-10.73105 -5.42565,-20.19627 0.58452,-7.26294 1.69766,-9.55537 4.6398,-9.55537 1.52443,0 1.68972,-0.45358 1.00214,-2.75 -2.17067,-7.24973 -3.28136,-13.93912 -3.50057,-21.08313 -0.13199,-4.30135 -0.49931,-8.24024 -0.81627,-8.7531 -0.67556,-1.09307 -1.54149,-12.07851 -2.27914,-28.91377 -0.28918,-6.6 -0.91733,-13.6875 -1.39588,-15.75 -0.51974,-2.24002 -0.48182,-5.25998 0.0942,-7.5 0.53034,-2.0625 1.20033,-4.70975 1.48886,-5.88278 0.28852,-1.17303 0.0595,-2.42022 -0.50891,-2.77152 -1.67304,-1.03398 -9.15486,0.53933 -9.15486,1.92512 0,1.38029 -2.16913,2.47918 -4.89373,2.47918 -0.95158,0 -2.64638,-1.2375 -3.76621,-2.75 -1.11983,-1.5125 -3.79196,-3.36966 -5.93806,-4.12702 -5.00776,-1.76724 -6.402,-2.91643 -6.402,-5.27681 0,-2.87246 2.46402,-3.29641 11.91044,-2.04928 4.78516,0.63174 10.3612,0.79413 12.58956,0.36665 l 4,-0.76736 -4.74791,-2.14093 c -3.48215,-1.57018 -8.38036,-2.43099 -18.37337,-3.22894 -7.49401,-0.5984 -14.47169,-1.54088 -15.50595,-2.0944 -1.03426,-0.55352 -3.11624,-0.87714 -4.62662,-0.71916 -2.49403,0.26088 -2.76532,-0.0341 -2.95489,-3.21275 -0.11481,-1.925 -0.33981,-4.4 -0.5,-5.5 -0.68703,-4.71767 10.44621,-2.26791 18.38875,4.04627 4.73056,3.76071 6.02189,4.12031 7.66907,2.13558 0.80683,-0.97217 0.69145,-1.89282 -0.43957,-3.50759 -1.39704,-1.99454 -1.37832,-2.249 0.21026,-2.85859 0.95909,-0.36804 3.7995,0.12206 6.31202,1.08912 7.37651,2.83918 15.38922,4.65043 17.93361,4.05382 2.0315,-0.47635 2.27974,-0.98289 1.75862,-3.58849 -0.65592,-3.27963 0.88198,-7.29347 2.42832,-6.33777 0.5236,0.3236 0.67428,2.32508 0.33485,4.44773 -0.51681,3.23195 -0.2733,4.0741 1.49784,5.18019 1.18201,0.73818 2.11497,2.3611 2.11497,3.67907 0,1.335 1.31212,3.58394 3.02403,5.1831 2.71251,2.53387 2.95688,3.24478 2.37219,6.90121 -0.42839,2.67899 -0.27729,4.07635 0.44079,4.07635 1.79718,0 3.39825,-4.03633 2.72193,-6.86206 -0.34725,-1.45087 -0.82908,-6.29223 -1.07073,-10.75859 -0.24164,-4.46636 -0.87465,-9.26557 -1.40668,-10.6649 -1.2328,-3.24253 0.30539,-9.10137 3.13148,-11.92746 1.55342,-1.55342 1.82968,-2.49049 1.08642,-3.68506 -0.62368,-1.00238 -0.68872,-4.03467 -0.17378,-8.10193 0.45262,-3.575 0.89598,-10.55 0.98525,-15.5 0.18498,-10.25777 1.12863,-12.4982 4.1228,-9.7885 1.86173,1.68484 2.00684,1.68003 3.31559,-0.1098 0.75277,-1.02946 1.6376,-3.94849 1.96631,-6.48673 0.32871,-2.53823 1.18416,-5.73997 1.901,-7.11497 1.31349,-2.51943 1.95156,-12.08077 1.01178,-15.16122 -0.27874,-0.91367 -2.03611,-2.82768 -3.90526,-4.25335 l -3.39847,-2.59214 0.57644,3.75336 c 0.31704,2.06434 0.95053,4.23324 1.40775,4.81976 0.45723,0.58653 0.36605,2.7515 -0.20261,4.81103 -1.51656,5.49252 -4.1244,4.54432 -5.18977,-1.88698 -1.04707,-6.32085 -2.60436,-8.02783 -6.22333,-6.8215 -2.24421,0.74807 -3.08563,2.10699 -4.95464,8.00194 -1.98431,6.25862 -2.16017,8.20153 -1.48266,16.38065 0.44547,5.37779 0.37752,10.30866 -0.16161,11.72666 -0.51166,1.34578 -1.12665,6.79574 -1.36664,12.11104 -0.24,5.31529 -1.07901,11.19259 -1.86447,13.06066 l -1.42812,3.39649 -0.56457,-2.9232 c -2.07293,-10.73301 -1.26818,-33.02306 1.91967,-53.1713 1.3208,-8.34788 1.30759,-9.54909 -0.13578,-12.34026 -2.03471,-3.9347 -1.34877,-5.63997 2.99951,-7.45679 4.98268,-2.0819 7.20689,-1.82553 11.95324,1.37775 3.99968,2.69935 4.3817,2.76869 8.12116,1.47406 3.66005,-1.26715 4.0308,-1.21701 5.5109,0.7452 1.3884,1.84065 1.74246,1.91625 2.8311,0.60452 0.80409,-0.96888 2.77629,-1.43993 5.57515,-1.33161 3.84496,0.1488 4.45115,0.50465 5.40262,3.17142 1.03022,2.8875 0.12275,24.09765 -1.1189,26.15187 -0.28322,0.46857 -1.06448,6.69521 -1.73613,13.83699 -0.67166,7.14177 -1.65856,14.11677 -2.19312,15.5 -0.53456,1.38322 -1.1571,6.69766 -1.38343,11.80986 -0.42646,9.63294 -2.23757,15.20509 -4.94209,15.20509 -2.16433,0 -1.80429,1.81914 1.02568,5.18237 2.93331,3.48604 2.89246,2.84361 0.91036,14.31763 -0.85509,4.95 -1.80692,10.92283 -2.11518,13.27296 -0.30825,2.35013 -0.91983,4.49506 -1.35906,4.76652 -0.43923,0.27146 -2.4527,-0.62893 -4.47437,-2.00087 -2.52741,-1.71515 -4.18905,-2.23115 -5.31875,-1.65165 -0.90365,0.46353 -2.14387,0.66164 -2.75604,0.44023 -1.0823,-0.39143 -2.80759,6.58551 -1.86227,7.53084 0.25468,0.25467 1.25331,-0.24717 2.21918,-1.1152 1.36988,-1.23112 2.71767,-1.40104 6.12789,-0.77255 4.8935,0.90186 6.30115,2.3708 5.21901,5.44625 -0.4032,1.14591 -0.82645,14.38146 -0.94055,29.41233 -0.17132,22.5675 -0.47341,27.73476 -1.73393,29.65855 -1.71173,2.61244 -1.76721,8.42489 -0.22605,23.68316 1.0813,10.70536 -0.37331,27.68683 -2.48745,29.03909 -0.66154,0.42313 -1.87779,0.4634 -2.70279,0.0895 -1.59249,-0.72177 -4.42057,-0.71124 -12.5,0.0465 -2.75,0.25792 -6.18967,-0.009 -7.64372,-0.59403 z m 13.14386,-13.75198 c 1.54877,-3.73906 1.98061,-10.74853 0.85122,-13.8168 -0.63883,-1.73554 -1.35472,-2.15787 -2.85214,-1.68261 -2.16431,0.68692 -2.31349,0.4823 -1.39444,-1.91272 0.33264,-0.86682 1.05795,-1.29598 1.61181,-0.95367 1.37094,0.84729 2.74949,-1.55556 2.7681,-4.82484 0.018,-3.16058 -1.51642,-4.44254 -3.42323,-2.86002 -0.74302,0.61664 -1.96081,0.99288 -2.7062,0.83609 -1.09045,-0.22939 -1.32129,2.15737 -1.1814,12.21491 0.0956,6.875 0.20812,13.2875 0.25,14.25 0.13578,3.12064 4.65058,2.19162 6.07628,-1.25034 z m 7.68297,-10.18716 c -0.31922,-0.79773 -0.55618,-0.56078 -0.60416,0.60417 -0.0434,1.05416 0.19292,1.64479 0.52522,1.3125 0.33229,-0.3323 0.36781,-1.1948 0.0789,-1.91667 z m -0.84845,-14.86884 c -0.42295,-2.89035 -2.83466,-3.8337 -2.83466,-1.10878 0,1.10085 0.28475,2.7436 0.63278,3.65055 0.89025,2.31996 2.62096,0.32209 2.20188,-2.54177 z m -12.58936,-15.14473 c 0.27486,-2.86059 0.0962,-6.57309 -0.39711,-8.25 -0.93813,-3.18924 -0.26589,-9.81121 1.29843,-12.79015 0.60285,-1.14802 0.35149,-3.67739 -0.73781,-7.42445 -1.57976,-5.43421 -1.57066,-5.74281 0.20775,-7.04322 1.5863,-1.15993 2.02496,-1.13427 2.98191,0.17445 1.42375,1.94709 2.40153,1.96111 2.40153,0.0344 0,-0.825 -0.675,-1.5 -1.5,-1.5 -0.825,0 -1.5,-0.87344 -1.5,-1.94098 0,-1.06754 -0.4125,-2.19593 -0.91667,-2.50752 -1.40022,-0.86538 -1.10569,-9.43337 0.35402,-10.29845 3.90025,-2.31143 4.0769,-8.8823 0.21162,-7.8715 -1.17015,0.306 -2.82705,-0.13772 -3.79908,-1.0174 -0.94813,-0.85804 -2.14181,-1.30177 -2.65264,-0.98606 -0.7415,0.45828 -0.93305,18.01227 -0.30687,28.12191 0.30241,4.88226 -0.0236,8.72007 -0.94689,11.14862 -0.74513,1.95986 -0.62825,3.18355 0.46319,4.8493 1.10686,1.68928 1.31943,4.08424 0.87918,9.90537 -0.4093,5.41187 -0.19219,8.40321 0.73573,10.13705 1.95162,3.64664 2.66847,3.03704 3.22371,-2.74141 z m 9.7547,-19.81439 c 0,-1.30551 -3.27625,-2.10829 -4.32484,-1.0597 -1.58992,1.58992 1.22004,4.40703 2.95752,2.96505 0.75203,-0.62413 1.36732,-1.48153 1.36732,-1.90535 z m 4.5,-0.98454 c -0.33992,-0.55 -1.29303,-1 -2.11803,-1 -0.825,0 -1.22189,0.45 -0.88197,1 0.33992,0.55 1.29303,1 2.11803,1 0.825,0 1.22189,-0.45 0.88197,-1 z m -14.5,-48.19113 c 0,-1.04718 -1.14093,-1.00561 -2.89572,0.10552 -0.87375,0.55326 -1.12752,1.57596 -0.67858,2.73469 0.69134,1.78434 0.76853,1.78109 2.14572,-0.0902 0.78572,-1.06762 1.42858,-2.30512 1.42858,-2.75 z m -13,-10.80887 c 0,-0.55 -0.45,-1 -1,-1 -0.55,0 -1,0.45 -1,1 0,0.55 0.45,1 1,1 0.55,0 1,-0.45 1,-1 z m 27.39301,-2.58179 c 0.86665,-2.25844 0.78392,-2.42333 -0.89301,-1.77984 -0.825,0.31659 -1.5,1.20246 -1.5,1.96862 0,1.89454 1.64331,1.76491 2.39301,-0.18878 z m 3.13894,-14.51887 c 0.8112,-2.55586 -0.60022,-4.19411 -2.86473,-3.32513 -1.66339,0.6383 -2.2641,3.49558 -1.00055,4.75912 1.32391,1.32391 3.21231,0.62332 3.86528,-1.43399 z m -4.22727,-43.95645 c 0.3422,-1.30857 0.11174,-1.9152 -0.63337,-1.66713 -1.43833,0.47887 -2.18886,3.72424 -0.86127,3.72424 0.52619,0 1.19877,-0.9257 1.49464,-2.05711 z m 8.69532,195.11613 c 0,-0.51754 0.45,-1.2191 1,-1.55902 0.55,-0.33992 1,0.0835 1,0.94098 0,0.85746 -0.45,1.55902 -1,1.55902 -0.55,0 -1,-0.42344 -1,-0.94098 z M 461.46564,652.30978 c -0.80907,-0.51167 -1.21098,-1.19037 -0.89313,-1.50823 0.78775,-0.78775 3.86417,0.46709 3.86417,1.57616 0,1.13978 -1.10118,1.11461 -2.97104,-0.0679 z m -29.52896,-31.03906 c -0.33992,-0.55 -0.16803,-1 0.38197,-1 0.55,0 1.27811,0.45 1.61803,1 0.33992,0.55 0.16803,1 -0.38197,1 -0.55,0 -1.27811,-0.45 -1.61803,-1 z"
         id="path4123"
         inkscape:connector-curvature="0" />
      <path
         style="fill:#10d5b5"
         d="m 350.01292,769.93787 c -2.33541,-2.33541 -2.57624,-3.31798 -2.57624,-10.51091 0,-6.31349 0.38932,-8.41546 1.90547,-10.28783 1.45638,-1.79855 1.66529,-2.80194 0.88639,-4.25733 -1.35746,-2.53642 -0.49813,-29.42448 1.03171,-32.28211 0.74708,-1.39548 0.93328,-4.36192 0.52125,-8.30404 -0.57197,-5.47226 -0.38267,-6.47733 1.75708,-9.32897 2.00367,-2.6703 2.43363,-4.51177 2.61412,-11.19596 0.30758,-11.39087 0.9722,-24.9126 1.25338,-25.5 0.60138,-1.25632 1.35561,-18.41855 1.17982,-26.84632 -0.10723,-5.14047 0.53004,-14.59047 1.41616,-21 2.56926,-18.58407 3.36366,-26.7587 3.99931,-41.15368 0.67134,-15.20352 0.95925,-16.87607 2.61924,-15.21607 1.32524,1.32524 1.21496,11.61444 -0.20061,18.71607 -1.09114,5.47409 -1.8435,34.50214 -0.8942,34.50082 0.32401,-4.5e-4 1.44901,-1.79566 2.5,-3.98935 1.47602,-3.08086 2.4798,-3.98765 4.41088,-3.98468 3.12996,0.005 4.3547,0.81413 6.01261,3.97321 0.72161,1.375 2.57191,4.075 4.11179,6 2.67297,3.34147 2.75987,3.78147 1.91867,9.71447 -0.48462,3.41796 -1.18772,6.71056 -1.56245,7.31688 -0.42169,0.68232 0.0238,0.98166 1.16903,0.78553 1.45066,-0.24843 1.92009,0.41261 2.17319,3.06028 0.38366,4.01336 -1.2919,6.37104 -2.29089,3.2235 -1.63875,-5.16323 -7.53195,0.0532 -7.53195,6.66693 0,4.3941 0.89387,4.47339 4.86101,0.4312 l 3.6301,-3.69879 0.32596,3.35942 c 0.22323,2.3006 -0.29875,4.03408 -1.65613,5.5 -3.49034,3.7694 -4.4891,9.99137 -3.22751,20.10644 0.61972,4.96878 1.22572,10.60914 1.34667,12.53414 0.14744,2.34671 0.71417,3.5 1.7199,3.5 1.16667,0 1.5,-1.33333 1.5,-6 0,-6.58852 1.82886,-8.80628 2.28499,-2.77089 0.39695,5.25224 1.04887,6.83703 2.29846,5.58744 0.60824,-0.60824 1.00056,-7.35871 0.97485,-16.77354 -0.0237,-8.66561 0.22327,-16.81668 0.54875,-18.1135 0.70709,-2.81727 3.90315,-4.0809 5.97425,-2.36204 1.29507,1.07482 1.20868,1.52719 -0.6745,3.53174 -1.29414,1.37754 -1.90896,2.95278 -1.53393,3.9301 0.54508,1.42044 1.88503,1.54327 10.37652,0.95121 9.82756,-0.68523 14.95817,-0.80494 25.50061,-0.59502 4.39356,0.0875 5.75,0.46835 5.75,1.6145 0,0.825 -0.5625,1.56598 -1.25,1.64663 -1.6185,0.18986 -13.24749,0.70916 -17.7,0.79041 -5.69464,0.10392 -1.85065,2.5403 4.2501,2.69378 7.49286,0.1885 7.8835,0.26308 7.19686,1.3741 -0.34159,0.5527 -2.50565,0.94369 -4.80901,0.86887 -5.47296,-0.17779 -21.31502,0.88539 -24.88876,1.67032 -3.21913,0.70703 -3.39251,0.29105 -1.24485,-2.98669 1.52761,-2.33144 0.58228,-4.37793 -1.44385,-3.12571 -1.04474,0.64569 -2.25786,6.98333 -2.02293,10.56829 0.0901,1.375 0.0678,6.325 -0.0495,11 -0.11732,4.675 -0.51138,27.25074 -0.8757,50.16832 -0.36431,22.91757 -1.00453,42.00972 -1.42271,42.427 -0.41819,0.41727 -1.36561,-0.0691 -2.1054,-1.0808 -1.66509,-2.27715 -4.63427,-1.37131 -4.63427,1.41384 0,1.51289 -0.6605,1.98378 -2.75,1.96053 -3.62693,-0.0404 -14.0009,0.68931 -22.92376,1.61238 -6.84837,0.70846 -7.29061,0.62527 -9.75,-1.83412 z m 4.3533,-11.91715 -0.0705,-5.25 -1.45276,3.96829 c -1.48614,4.05942 -1.2733,6.53171 0.5623,6.53171 0.58649,0 1.00099,-2.26462 0.96092,-5.25 z m 31.40774,0.5 c 0.76375,-1.5125 1.68479,-5.75783 2.04677,-9.43406 0.36198,-3.67623 1.27243,-8.42515 2.02323,-10.55315 1.69111,-4.79312 0.36088,-28.6977 -2.07358,-37.26279 -1.50504,-5.29512 -1.6791,-7.01239 -1.2712,-12.54167 0.19868,-2.69318 -0.63217,-4.222 -1.70917,-3.145 -0.35566,0.35567 -0.81561,6.15562 -1.0221,12.88877 -0.20649,6.73316 -0.80935,12.67602 -1.33968,13.20635 -0.61899,0.61899 -0.42187,1.56356 0.55053,2.63804 1.22055,1.3487 1.29632,2.2351 0.39011,4.56366 -0.61856,1.58942 -1.19385,6.48985 -1.27842,10.88985 l -0.15377,8 -3.75,-0.29328 c -4.5575,-0.35644 -4.85336,1.17135 -0.64796,3.34605 2.96248,1.53195 3.20994,1.50277 5.5,-0.64864 2.47438,-2.32455 3.19006,-1.25271 1.39862,2.09464 -0.84297,1.5751 -1.93833,1.81002 -7,1.50127 l -6.00066,-0.36602 0,5.31055 c 0,3.50053 -0.51125,5.73484 -1.5,6.55543 -1.68446,1.39798 -2.02211,4 -0.51905,4 0.53952,0 1.2633,-1.125 1.60841,-2.5 0.3735,-1.48815 1.3435,-2.5 2.3966,-2.5 0.97303,0 2.32935,-0.675 3.01404,-1.5 0.68469,-0.825 1.70268,-1.5 2.2622,-1.5 1.80169,0 3.6733,3.40891 3.706,6.75 0.0389,3.97281 1.50554,4.19047 3.36908,0.5 z m -28.42934,-15.37774 c 0.41386,-1.85474 0.36377,-4.72226 -0.11131,-6.37226 -0.47507,-1.65 -0.58499,-5.41289 -0.24425,-8.36198 0.4881,-4.2246 0.33613,-5.26842 -0.71643,-4.92089 -1.69984,0.56124 -3.90477,22.31405 -2.41303,23.80579 1.3486,1.3486 2.58708,-0.12644 3.48502,-4.15066 z m 12.93318,-17.12226 c -0.1356,-0.6875 0.23975,-2.825 0.83412,-4.75 1.46256,-4.73684 1.21294,-36.19197 -0.29125,-36.70024 -1.65453,-0.55907 -2.59229,6.46564 -2.89686,21.70024 -0.29332,14.67188 0.20874,21 1.66611,21 0.51394,0 0.82348,-0.5625 0.68788,-1.25 z m -6.87175,-24.25 c 0,-1.65 -0.43621,-3.675 -0.96937,-4.5 -0.68479,-1.05964 -0.96937,0.26145 -0.96937,4.5 0,4.23855 0.28458,5.55964 0.96937,4.5 0.53316,-0.825 0.96937,-2.85 0.96937,-4.5 z m 1.68659,-17.24298 c 0.33155,-2.7994 0.31102,-6.25244 -0.0456,-7.67342 -1.28242,-5.10955 -2.34609,-2.42286 -2.38459,6.02314 -0.0426,9.3494 1.40217,10.33051 2.43021,1.65028 z m 3.43782,-13.56324 c -0.79171,-0.79171 -1.09378,-0.53223 -1.09378,0.93955 0,2.64375 1.39845,4.04704 1.84378,1.85016 0.18908,-0.93276 -0.14842,-2.18813 -0.75,-2.78971 z m -5.09378,-8.31181 c 0,-2.07869 -0.40609,-3.24903 -1,-2.88197 -0.55,0.33992 -1,2.19303 -1,4.11803 0,2.07869 0.40609,3.24903 1,2.88197 0.55,-0.33992 1,-2.19303 1,-4.11803 z m 1.98469,-14.63197 c 0.008,-0.9625 -0.38655,-1.75 -0.8777,-1.75 -1.28956,0 -2.1463,2.73398 -1.43644,4.58385 0.48935,1.27522 0.77253,1.32393 1.4533,0.25 0.46504,-0.73362 0.85242,-2.12135 0.86084,-3.08385 z m -0.98469,-26.80902 c 0,-1.13246 -0.45,-1.7809 -1,-1.44098 -0.55,0.33992 -1,1.26648 -1,2.05902 0,0.79254 0.45,1.44098 1,1.44098 0.55,0 1,-0.92656 1,-2.05902 z m 123,150.0904 c 0,-0.53273 0.675,-0.70959 1.5,-0.39301 0.825,0.31659 1.5,0.75246 1.5,0.96862 0,0.21615 -0.675,0.39301 -1.5,0.39301 -0.825,0 -1.5,-0.43588 -1.5,-0.96862 z m 7.65346,0.28874 c -0.3594,-0.3594 -0.65346,-1.44813 -0.65346,-2.4194 0,-0.97127 -0.90765,-2.05402 -2.01699,-2.40611 -3.38868,-1.07553 -5.16886,-7.01882 -4.57723,-15.28148 0.28697,-4.00779 0.81764,-7.76562 1.17927,-8.35075 0.36163,-0.58513 1.93549,-0.80827 3.49746,-0.49588 1.56197,0.3124 3.05893,0.21366 3.32659,-0.21942 0.26766,-0.43308 -0.1492,-4.35584 -0.92634,-8.71725 -1.67415,-9.39554 -1.83329,-13.42983 -0.52976,-13.42983 1.57671,0 3.03549,7.04635 3.04142,14.69098 0.003,3.95504 0.45052,7.46597 0.99434,7.80207 0.62032,0.38338 0.75236,5.00762 0.35434,12.40998 -0.43619,8.11217 -0.29213,12.01044 0.46106,12.47594 0.60252,0.37237 1.5839,-0.23556 2.18085,-1.35096 0.59695,-1.11541 1.95369,-2.02801 3.01499,-2.02801 3.00612,0 4.15733,-3.42944 4.7477,-14.14345 0.29994,-5.44326 0.79127,-9.65091 1.09185,-9.35033 1.87173,1.87173 1.76181,24.76668 -0.12199,25.40881 -0.66966,0.22827 -2.34256,1.61429 -3.71756,3.08004 -1.84198,1.96357 -3.57824,2.70627 -6.59654,2.82176 -2.2531,0.0862 -4.3906,-0.13731 -4.75,-0.49671 z m 18.34654,-0.32012 c 0,-0.55 0.45,-1 1,-1 0.55,0 1,0.45 1,1 0,0.55 -0.45,1 -1,1 -0.55,0 -1,-0.45 -1,-1 z m 9,0.059 c 0,-0.51754 0.45,-1.2191 1,-1.55902 0.55,-0.33992 1,0.0835 1,0.94098 0,0.85746 -0.45,1.55902 -1,1.55902 -0.55,0 -1,-0.42344 -1,-0.94098 z m -7.26119,-13.309 c 0.79966,-7.0577 0.7936,-7.31355 -0.51701,-21.81636 -1.09214,-12.08542 -2.19613,-14.93364 -5.78837,-14.93364 -3.50106,0 -4.10938,-2.59445 -1.45131,-6.18969 1.81691,-2.4575 2.15227,-3.92566 1.73742,-7.60622 -0.69942,-6.20523 0.78553,-9.20409 4.55761,-9.20409 2.61585,0 2.87184,-0.25898 2.224,-2.25 -0.88042,-2.70581 -0.88677,-3.4353 -0.14408,-16.53536 0.55566,-9.80084 1.68115,-14.57986 2.95011,-12.52663 0.79022,1.2786 1.92318,27.45802 1.71799,39.69754 -0.13522,8.06583 -0.52528,10.37188 -2.11902,12.52752 -1.82936,2.47434 -1.88743,3.39332 -0.91523,14.48341 0.57095,6.51278 1.30661,12.27592 1.63482,12.80697 0.3282,0.53105 0.28128,4.75252 -0.10427,9.38105 -0.61197,7.34661 -0.94169,8.4155 -2.59591,8.4155 -1.73327,0 -1.8345,-0.53308 -1.18675,-6.25 z m -24.98881,-37.625 c -0.4125,-1.85625 -0.72148,-4.55625 -0.68661,-6 l 0.0634,-2.625 0.98413,2.46555 c 0.54127,1.35606 0.85025,4.05606 0.68661,6 l -0.29753,3.53445 -0.75,-3.375 z m -0.9956,-11.71337 c -0.67734,-1.09596 -1.55994,-12.34062 -2.23165,-28.43201 -0.2645,-6.33621 -0.77157,-12.97371 -1.12683,-14.75 -0.38428,-1.92142 -0.23982,-3.22962 0.35664,-3.22962 2.51445,0 3.53661,3.4986 3.87608,13.26695 0.19559,5.62818 0.61027,12.03305 0.92151,14.23305 1.25376,8.86221 0.0205,21.85033 -1.79575,18.91163 z m 25.47729,-46.49592 c -5.09946,-4.55637 -4.04416,-7.14193 2.51831,-6.17003 3.5626,0.52761 3.88574,1.51271 1.98169,6.04112 l -1.26831,3.01642 -3.23169,-2.88751 z m -83.72435,-4.90384 c -1.04328,-1.68806 0.7243,-1.87958 10.30168,-1.11621 0.71996,0.0574 1.07864,0.4771 0.79707,0.93269 -0.69261,1.12066 -10.42016,1.28151 -11.09875,0.18352 z m 56.99266,-2.01187 c -0.9863,-1.59587 0.41783,-3 3,-3 2.85969,0 4.30196,1.87795 2.37812,3.09649 -1.86057,1.17846 -4.62076,1.12894 -5.37812,-0.0965 z m 12.83285,-3.66369 c 0.66829,-4.11816 1.96444,-5.88865 3.58002,-4.89016 1.46041,0.90258 1.38437,5.85661 -0.11287,7.35385 -2.52175,2.52175 -4.09479,1.40398 -3.46715,-2.46369 z m -55.80023,0.71648 c -0.87924,-1.42264 0.24199,-3.05279 2.09972,-3.05279 0.87615,0 1.37805,0.70256 1.19098,1.66713 -0.38952,2.00847 -2.38616,2.84922 -3.2907,1.38566 z m 48.46738,-7.76223 c -0.825,-0.30334 -2.29814,-1.24719 -3.27363,-2.09742 -2.10969,-1.8388 -0.73471,-3.15346 3.32363,-3.17783 1.4025,-0.008 3.05975,-0.52506 3.68278,-1.14809 1.68239,-1.68239 4.36317,-0.30792 3.59836,1.84493 -1.52259,4.28594 -3.9699,5.81432 -7.33114,4.57841 z m -52.5,-1.29056 c -0.33992,-0.55 -0.14148,-1 0.44098,-1 0.58246,0 1.05902,0.45 1.05902,1 0,0.55 -0.19844,1 -0.44098,1 -0.24254,0 -0.7191,-0.45 -1.05902,-1 z m 83.65789,-7 c 0,-1.375 0.22698,-1.9375 0.50439,-1.25 0.27741,0.6875 0.27741,1.8125 0,2.5 -0.27741,0.6875 -0.50439,0.125 -0.50439,-1.25 z m -132.15789,-1 c 0,-0.55 0.45,-1 1,-1 0.55,0 1,0.45 1,1 0,0.55 -0.45,1 -1,1 -0.55,0 -1,-0.45 -1,-1 z m 97,0.003 c -1.375,-0.46154 -4.19091,-1.12205 -6.25757,-1.46779 -2.43208,-0.40688 -4.32459,-1.49402 -5.36501,-3.08189 -1.80068,-2.74824 -6.37742,-3.43235 -6.37742,-0.95332 0,1.69817 -1.56593,2.01136 -2.5,0.5 -0.33992,-0.55 -1.54658,-1 -2.68146,-1 -1.67023,0 -1.8386,-0.2709 -0.88357,-1.42164 0.90991,-1.09638 0.88939,-1.88675 -0.0897,-3.45452 -1.88993,-3.02626 -0.51146,-3.50253 3.80782,-1.31564 5.11344,2.58898 8.69528,3.28576 17.30734,3.36679 4.46581,0.042 7.29806,0.49587 7.46591,1.19636 0.14874,0.62076 0.73864,2.5622 1.3109,4.31431 0.83731,2.56365 0.75331,3.29586 -0.43018,3.75 -1.75877,0.67491 -2.08699,0.64815 -5.30706,-0.43271 z M 385.10335,602.60405 c -0.83163,-0.83162 -0.86664,-4.64863 -0.0619,-6.7458 1.02388,-2.66819 2.39521,-0.68066 2.39521,3.47149 0,3.7009 -0.79339,4.81425 -2.33333,3.27431 z m -15.23226,-9.74448 c 1.0177,-6.78657 2.39492,-10.15952 3.63991,-8.91453 0.66667,0.66667 0.65428,1.90931 -0.0372,3.72794 -0.57044,1.50037 -1.03716,3.76854 -1.03716,5.0404 0,1.27185 -0.74279,2.92892 -1.65066,3.68237 -1.51005,1.25324 -1.58798,0.95204 -0.91494,-3.53618 z m 120.24099,-1.13211 c -1.32411,-8.01847 -0.63519,-15.45674 1.43159,-15.45674 1.07855,0 1.06771,14.69393 -0.0129,17.45674 -0.61542,1.57347 -0.89331,1.18172 -1.41871,-2 z m 38.1822,-12.00674 c -0.71135,-4.74546 -0.52862,-8.57891 0.56961,-11.95 2.66818,-8.19018 2.67064,-9.07672 0.036,-12.95908 -1.38241,-2.0371 -2.43119,-4.22966 -2.33062,-4.87237 0.10056,-0.6427 -0.1621,-1.95822 -0.58371,-2.92338 -0.42161,-0.96516 -0.58663,-3.29609 -0.36671,-5.17985 0.23206,-1.98778 0.004,-3.18041 -0.54336,-2.84209 -1.15477,0.71368 -0.16608,-7.63193 1.03227,-8.71361 1.47374,-1.33023 8.33191,0.12745 9.32436,1.98186 0.98636,1.84303 -0.1534,19.1533 -1.87709,28.50852 -0.50669,2.75 -1.4417,7.925 -2.0778,11.5 -1.04208,5.85667 -2.80372,9.97995 -3.18295,7.45 z m 2.1424,-42.53333 c 0,-2.43705 -2.33677,-2.09257 -2.82332,0.4162 -0.19138,0.98676 0.31876,1.66713 1.25,1.66713 0.92763,0 1.57332,-0.855 1.57332,-2.08333 z m -132.52207,34.83333 c 1.91097,-15.07279 4.73121,-29.38772 6.04952,-30.70602 2.62,-2.62 1.93073,11.03663 -1.02745,20.35719 -1.375,4.33231 -2.5,8.90256 -2.5,10.15609 0,3.02015 -0.9796,5.44274 -2.20083,5.44274 -0.60834,0 -0.73155,-2.01366 -0.32124,-5.25 z m -24.43242,2.33504 c -1.71043,-3.19598 -0.40965,-10.3097 1.80162,-9.85264 1.25823,0.26007 1.60823,1.34185 1.46591,4.53077 -0.10283,2.30401 -0.61099,4.94681 -1.12924,5.87288 -0.84628,1.51223 -1.06412,1.45609 -2.13829,-0.55101 z m 117.52404,-9.83504 c 0.62198,-8.07622 2.2008,-13.36906 2.59515,-8.7 1.04638,12.38922 0.54294,17.45 -1.73592,17.45 -1.31202,0 -1.43593,-1.26186 -0.85923,-8.75 z m -115.18962,-6.70229 c -0.36693,-0.95621 0.56401,-7.7353 2.06876,-15.06465 1.50475,-7.32935 2.43905,-14.26141 2.07622,-15.40458 -0.73018,-2.30057 -3.73455,-2.77372 -5.26074,-0.82848 -2.13227,2.71772 -4.26417,11.43105 -4.26417,17.42814 0,6.72329 -0.62195,7.50206 -3.47428,4.35027 -1.62703,-1.79784 -1.68853,-2.87732 -0.69788,-12.25 1.75739,-16.62683 2.05807,-17.77841 4.642,-17.77841 6.00247,0 11.35663,1.28863 10.84914,2.61115 -0.31628,0.82419 0.50392,1.75122 2.07937,2.3502 2.05499,0.78131 2.60165,1.66232 2.60165,4.1929 0,1.76206 -0.44364,4.5857 -0.98586,6.27475 -3.25804,10.14897 -8.33134,25.12973 -8.62354,25.46413 -0.18894,0.21622 -0.64374,-0.38922 -1.01067,-1.34542 z m 16.20599,-3.54771 c 0.37855,-2.475 1.03217,-5.175 1.45249,-6 0.42031,-0.825 1.08554,-3.64303 1.47828,-6.2623 0.39275,-2.61926 1.17286,-5.04583 1.73359,-5.39238 1.30706,-0.80781 0.2461,7.16023 -1.95131,14.65468 -2.10262,7.17116 -3.60517,8.83263 -2.71305,3 z m 103.41408,-15.86514 c 0,-1.57583 -0.9,-4.00931 -2,-5.40773 -2.74021,-3.48361 -2.56572,-5.06843 0.49365,-4.48359 1.41871,0.2712 2.98024,-0.10962 3.62244,-0.88343 1.49316,-1.79913 3.80453,-1.73054 4.52008,0.13415 0.31537,0.82184 0.93814,1.26883 1.38394,0.99331 1.02081,-0.6309 6.66918,4.06335 8.09507,6.72765 0.77646,1.45083 0.7508,2.31305 -0.0935,3.14214 -0.87609,0.86029 -1.63989,0.55978 -3.09104,-1.21617 -2.34324,-2.86767 -5.92064,-2.33404 -9.38054,1.39925 -2.93614,3.16815 -3.5501,3.09801 -3.5501,-0.40558 z"
         id="path4121"
         inkscape:connector-curvature="0" />
      <path
         style="fill:#0fb69a"
         d="m 351.66564,771.6121 c -2.47394,-1.01615 -4.22897,-6.23991 -4.21365,-12.54172 0.0163,-6.71511 1.01335,-9.51802 2.95811,-8.31609 0.8349,0.516 0.99681,2.46487 0.53521,6.4421 -0.75657,6.51865 0.7576,9.07259 4.26577,7.19507 1.04624,-0.55993 2.82422,-0.77696 3.95107,-0.48228 1.12685,0.29468 2.33603,0.071 2.68707,-0.49695 0.35105,-0.568 0.19642,-5.69599 -0.34362,-11.39554 -0.99455,-10.49649 -0.62354,-15.20678 1.11322,-14.1334 0.52512,0.32454 0.70321,2.45698 0.39576,4.73875 -0.36502,2.70909 -0.0418,5.14259 0.93155,7.01299 0.8198,1.57537 1.49055,4.58072 1.49055,6.67857 0,4.58549 2.25566,7.18116 5.87572,6.76141 2.18158,-0.25296 2.62428,-0.81037 2.62428,-3.30429 0,-2.65367 0.37519,-3.03618 3.25,-3.31336 3.18739,-0.30732 3.25,-0.23466 3.25,3.77144 0,3.3867 -0.42725,4.27947 -2.5,5.22387 -1.87752,0.85546 -3.1342,0.85012 -5.04705,-0.0214 -1.40088,-0.63829 -3.42588,-1.16052 -4.5,-1.16052 -2.06407,0 -2.6834,2.43052 -0.90016,3.53262 2.20453,1.36248 0.14697,2.8489 -4.11553,2.97312 -2.44049,0.0711 -5.78726,0.4057 -7.43726,0.74351 -1.65,0.33781 -3.57197,0.37927 -4.27104,0.0921 z m 139.3235,-9.25829 c -3.53902,-5.60616 -3.33367,-10.4643 0.28918,-6.84145 0.98886,0.98886 1.43364,0.93796 2.18469,-0.25 1.59898,-2.52916 1.08374,-4.6895 -1.52633,-6.39968 -1.375,-0.90094 -2.5,-2.58394 -2.5,-3.74001 0,-1.83631 0.40903,-2.02014 3.23661,-1.45463 5.09916,1.01983 5.50485,2.07272 4.85217,12.59265 -0.4867,7.84469 -0.88308,9.546 -2.28632,9.81322 -1.09031,0.20762 -2.61061,-1.12312 -4.25,-3.7201 z m -103.09955,-2.40084 c 0.35791,-1.20024 1.08097,-5.55725 1.60681,-9.68225 1.328,-10.41764 1.81359,-12.19633 3.11081,-11.39461 0.75827,0.46864 0.92031,3.60384 0.50949,9.85799 -0.70534,10.73774 -1.13047,12.15965 -3.84811,12.87033 -1.70223,0.44514 -1.92474,0.17866 -1.379,-1.65146 z m 126.03972,-45.06878 c 0.39427,-5.31528 0.14108,-6.80942 -1.50945,-8.90773 -3.66797,-4.66306 -1.6986,-8.43451 3.32273,-6.36319 2.68415,1.10723 2.81714,1.48287 3.06492,8.65745 0.21373,6.18869 -0.0912,7.98081 -1.74396,10.25 -1.10164,1.5125 -2.36411,2.75 -2.80547,2.75 -0.44137,0 -0.58931,-2.87394 -0.32877,-6.38653 z m -122.29768,-5.11347 c 0.0204,-1.65 0.2445,-2.20394 0.49804,-1.23097 0.25354,0.97297 0.23687,2.32297 -0.037,3 -0.27393,0.67703 -0.48137,-0.11903 -0.46099,-1.76903 z m -1.19495,-8.5 c 0,-1.1 0.45,-2 1,-2 0.55,0 1,0.9 1,2 0,1.1 -0.45,2 -1,2 -0.55,0 -1,-0.9 -1,-2 z m 1,-18.94098 c 0,-4.36262 1.46383,-6.21733 2.32076,-2.94045 0.5314,2.0321 -0.73424,6.88143 -1.79601,6.88143 -0.28861,0 -0.52475,-1.77344 -0.52475,-3.94098 z m -19.92105,-15.64235 c 0.048,-1.16495 0.28494,-1.4019 0.60416,-0.60417 0.28888,0.72187 0.25335,1.58437 -0.079,1.91667 -0.33229,0.33229 -0.56864,-0.25834 -0.52522,-1.3125 z m 143.37993,-7.4832 c -0.36253,-0.58659 -0.4085,-1.31719 -0.10214,-1.62354 0.82264,-0.82264 3.64326,0.46152 3.64326,1.65869 0,1.35725 -2.69711,1.33048 -3.54112,-0.0351 z m -146.87593,-4.79926 c -0.43077,-0.697 -0.51316,-1.53733 -0.18309,-1.86741 0.89497,-0.89496 1.87077,0.4213 1.38739,1.87145 -0.33872,1.01617 -0.57427,1.01538 -1.2043,-0.004 z m 120.53999,-24.00659 -2.37706,-1.8279 2.37114,-0.62007 c 2.62655,-0.68686 5.54871,1.43416 4.44229,3.22439 -0.9204,1.48923 -1.6579,1.36016 -4.43637,-0.77642 z M 369.65728,607.34905 c 0.15367,-1.33192 0.8419,-2.60692 1.5294,-2.83334 1.701,-0.56018 1.57255,0.96337 -0.2794,3.31388 -1.48106,1.87978 -1.52057,1.8646 -1.25,-0.48054 z m 163.46355,-56.82833 c -0.23864,-0.4125 -0.0718,-1.65 0.3707,-2.75 0.7024,-1.746 0.81351,-1.65075 0.87486,0.75 0.0693,2.713 -0.3985,3.46421 -1.24556,2 z M 366.59297,537.35194 c 0.18904,-5.45533 0.69192,-10.26604 1.11752,-10.69047 0.4256,-0.42444 1.49566,-0.0498 2.37793,0.83242 1.32665,1.32665 1.40902,2.16378 0.47619,4.8397 -0.62036,1.77957 -1.13407,4.85593 -1.14158,6.83635 -0.0176,4.63671 -0.95694,8.10078 -2.19669,8.10078 -0.59353,0 -0.84216,-3.89355 -0.63337,-9.91878 z m 166.87412,-1.63122 c 0.0267,-2.58611 0.16279,-2.72225 1.10362,-1.10363 0.76916,1.32327 0.76054,2.15906 -0.0304,2.95 -0.80483,0.80484 -1.09539,0.30496 -1.07321,-1.84637 z m -24.46612,-0.15687 c -0.54268,-1.4252 -0.42782,-1.54006 0.5598,-0.5598 0.68342,0.67834 0.99067,1.48524 0.68278,1.79313 -0.30789,0.30789 -0.86705,-0.24711 -1.24258,-1.23333 z m -12.56429,-0.21134 c 0,-0.50502 -0.25086,-1.57195 -0.55747,-2.37096 -0.792,-2.06392 2.09203,-2.86717 5.31932,-1.48151 3.73261,1.60262 3.68241,1.53045 2.25821,3.24651 -1.35946,1.63805 -7.02006,2.12666 -7.02006,0.60596 z"
         id="path4119"
         inkscape:connector-curvature="0" />
    </g>
  </g>
</svg>
