<?xml version="1.0" encoding="UTF-8" standalone="no"?>
<!-- Created with Inkscape (http://www.inkscape.org/) -->

<svg
   xmlns:dc="http://purl.org/dc/elements/1.1/"
   xmlns:cc="http://creativecommons.org/ns#"
   xmlns:rdf="http://www.w3.org/1999/02/22-rdf-syntax-ns#"
   xmlns:svg="http://www.w3.org/2000/svg"
   xmlns="http://www.w3.org/2000/svg"
   xmlns:sodipodi="http://sodipodi.sourceforge.net/DTD/sodipodi-0.dtd"
   xmlns:inkscape="http://www.inkscape.org/namespaces/inkscape"
   width="200.07692"
   height="277.87796"
   id="svg2"
   version="1.1"
   inkscape:version="0.48.2 r9819"
   sodipodi:docname="8-H.svg">
  <defs
     id="defs4" />
  <sodipodi:namedview
     id="base"
     pagecolor="#ffffff"
     bordercolor="#666666"
     borderopacity="1.0"
     inkscape:pageopacity="0.0"
     inkscape:pageshadow="2"
     inkscape:zoom="0.98994949"
     inkscape:cx="120.32381"
     inkscape:cy="172.9525"
     inkscape:document-units="px"
     inkscape:current-layer="layer1"
     showgrid="false"
     fit-margin-top="5"
     fit-margin-left="5"
     fit-margin-right="5"
     fit-margin-bottom="5"
     inkscape:window-width="968"
     inkscape:window-height="702"
     inkscape:window-x="611"
     inkscape:window-y="0"
     inkscape:window-maximized="0" />
  <metadata
     id="metadata7">
    <rdf:RDF>
      <cc:Work
         rdf:about="">
        <dc:format>image/svg+xml</dc:format>
        <dc:type
           rdf:resource="http://purl.org/dc/dcmitype/StillImage" />
        <dc:title></dc:title>
      </cc:Work>
    </rdf:RDF>
  </metadata>
  <g
     inkscape:label="Layer 1"
     inkscape:groupmode="layer"
     id="layer1"
     transform="translate(-122.31742,-71.027146)">
    <g
       id="g4214"
       transform="translate(-138.3909,-29.294424)">
      <path
         style="fill:#98a8ed"
         d="m 268.25931,371.12696 c -2.93591,-2.30939 -3.30961,-4.51022 -1.26583,-7.45491 2.12263,-3.05829 32.63097,-63.6972 32.63097,-64.85788 0,-1.00895 6.98205,-16.1544 17.62801,-38.23865 l 5.36245,-11.12403 -2.86368,-6.94449 c -1.57502,-3.81948 -4.90515,-10.51367 -7.40028,-14.87598 -4.68361,-8.18851 -5.94161,-11.15892 -22.20541,-52.43148 -5.30994,-13.475 -10.49735,-26.54547 -11.52758,-29.04549 -2.42281,-5.87932 -5.99351,-18.7771 -5.99351,-21.64923 0,-1.2292 0.8728,-2.70202 1.93954,-3.27293 1.10704,-0.59246 10.58524,-1.1441 22.08206,-1.28518 l 20.1425,-0.24717 2.21783,2.57311 c 1.21981,1.41521 3.69623,6.81521 5.50317,12 9.03892,25.93611 21.82918,54.13219 27.15874,59.87134 3.0979,3.33599 3.24471,3.38322 4.66214,1.5 0.80493,-1.06945 2.47627,-3.96945 3.71408,-6.44445 5.23034,-10.45803 15.15082,-27.99634 19.5148,-34.5 9.50296,-14.16231 18.36054,-27.04016 19.60273,-28.5 0.70199,-0.825 1.7835,-3.40485 2.40335,-5.73299 1.60805,-6.03985 3.17527,-6.56199 17.41444,-5.80183 33.3254,1.77907 34.64462,2.16576 34.64462,10.15526 0,3.62703 -1.04478,5.90502 -6.58956,14.36764 -3.62426,5.53146 -11.12459,18.93451 -16.66741,29.78456 -5.54282,10.85005 -15.51502,28.18159 -22.16044,38.51454 -6.64543,10.33294 -15.23259,23.71728 -19.08259,29.74298 -3.85,6.02569 -12.175,18.27146 -18.5,27.21282 -6.325,8.94136 -14.35288,20.98202 -17.83974,26.75702 -7.19046,11.90899 -30.7125,59.25915 -34.17533,68.79538 -2.56507,7.0639 -4.51466,8.71411 -8.50337,7.19761 -1.45717,-0.55401 -3.00001,-0.7906 -3.42854,-0.52576 -1.16508,0.72006 -31.05207,6.53277 -33.58928,6.53277 -1.20671,0 -3.37971,-0.93266 -4.82888,-2.07258 z M 451.87445,105.51021 c 0.9625,-0.25152 2.5375,-0.25152 3.5,0 0.9625,0.25153 0.175,0.45733 -1.75,0.45733 -1.925,0 -2.7125,-0.2058 -1.75,-0.45733 z"
         id="path4228"
         inkscape:connector-curvature="0" />
      <path
         style="fill:#6588ed"
         d="m 268.82445,369.99954 c -0.66,-0.66 -1.2,-1.61274 -1.2,-2.1172 0,-0.50446 7.36948,-15.60196 16.37662,-33.55 9.00714,-17.94804 16.7084,-33.7578 17.1139,-35.1328 0.8121,-2.75368 9.94213,-22.80252 17.60251,-38.65374 2.69883,-5.58456 4.90697,-10.8424 4.90697,-11.68409 0,-2.43593 -5.04417,-13.54006 -9.61316,-21.16217 -3.9043,-6.51326 -10.0949,-20.63652 -16.87558,-38.5 -1.56578,-4.125 -4.11252,-10.48028 -5.65942,-14.12285 -8.26322,-19.45785 -15.02242,-38.2939 -17.24416,-48.05482 -1.11909,-4.9166 0.31856,-5.29241 21.66828,-5.66415 19.59732,-0.34123 19.63546,-0.33767 22.03096,2.05783 1.4516,1.4516 3.90048,6.92023 6.19844,13.84182 3.69887,11.14119 13.89312,36.43694 15.4923,38.44217 0.43863,0.55 2.23436,4.43598 3.99051,8.63551 3.71532,8.88452 9.96248,15.98027 12.33537,14.01094 0.77696,-0.64482 6.30952,-10.18654 12.29456,-21.20381 5.98504,-11.01727 13.8069,-24.04085 17.3819,-28.9413 13.54816,-18.5712 15.12915,-21.02242 16.8932,-26.19181 l 1.81189,-5.30953 15.39745,0.0578 c 35.97433,0.13514 38.52918,2.30878 25.86289,22.00392 -3.86902,6.01603 -11.11816,18.99811 -16.10921,28.84905 -10.10324,19.94099 -12.0029,23.17851 -29.09708,49.58919 -15.20294,23.4887 -18.91132,29.00767 -32.25278,48 -12.67403,18.04219 -19.95274,30.08379 -29.92097,49.5 -9.15772,17.8375 -19.95464,40.82954 -21.60131,46 -1.57855,4.95656 -2.25893,5.40695 -7.1725,4.7479 -2.23537,-0.29982 -6.38969,0.16657 -9.62259,1.08029 -14.67242,4.14693 -28.73805,5.72275 -30.98899,3.47181 z"
         id="path4226"
         inkscape:connector-curvature="0" />
      <path
         style="fill:#4f70e4"
         d="m 270.37445,370.11944 c -2.4174,-1.40801 -2.18849,-4.24198 0.61333,-7.59317 1.29983,-1.5547 3.59117,-5.52673 5.09187,-8.82673 1.5007,-3.3 7.48069,-15.675 13.28887,-27.5 5.80819,-11.825 11.79632,-24.65 13.30696,-28.5 3.04577,-7.7624 11.96157,-27.61098 18.01843,-40.11312 2.1618,-4.46222 3.93054,-9.07472 3.93054,-10.25 0,-1.23278 0.63464,-2.13688 1.5,-2.13688 1.82903,0 1.86031,-0.94157 0.10795,-3.25 -1.79592,-2.36583 -2.53921,-2.20316 -1.85681,0.40637 0.38636,1.47745 0.19947,1.93114 -0.59362,1.44098 -0.63663,-0.39346 -1.15752,-1.27265 -1.15752,-1.95376 0,-0.6811 -2.60438,-5.49205 -5.78751,-10.69098 -5.69047,-9.29412 -10.66325,-20.18896 -19.60504,-42.95261 -2.48453,-6.325 -7.22929,-18.17752 -10.54392,-26.33894 -9.61642,-23.67793 -13.64988,-37.58125 -11.31353,-38.99774 0.73417,-0.44511 19.80912,-0.89937 33.80243,-0.80499 8.84325,0.0597 9.34164,0.56513 14.02332,14.22278 5.55629,16.20908 8.97651,24.87983 14.29741,36.24596 2.70204,5.77189 5.48004,12.22203 6.17334,14.33364 1.52362,4.64058 4.90895,10.13678 7.88233,12.79725 1.66861,1.49301 2.58991,1.70988 3.87971,0.91324 0.9303,-0.5746 5.74146,-8.49697 10.69146,-17.60527 14.83808,-27.30295 15.59877,-28.56762 20.66672,-34.35905 2.683,-3.06602 5.72308,-7.22435 6.75574,-9.24073 1.03265,-2.01638 3.27255,-4.69212 4.97755,-5.94609 1.76202,-1.29591 3.09999,-3.18805 3.09999,-4.38398 0,-2.76938 2.08021,-9.98194 3.36507,-11.66746 0.77961,-1.02272 3.57901,-1.21636 12.07492,-0.83523 16.8274,0.75487 31.54768,2.41148 33.13522,3.72903 2.0427,1.69529 1.77646,8.22074 -0.45095,11.05272 -4.1947,5.33323 -16.37908,26.41865 -23.6152,40.86677 -4.23569,8.45726 -12.67881,23.05862 -18.76249,32.44746 -6.08368,9.38885 -14.20251,22.02063 -18.04184,28.07063 -3.83932,6.05 -10.21673,15.5 -14.17202,21 -17.46532,24.28629 -31.02234,46.50866 -41.17919,67.5 -14.59063,30.15473 -17.23144,35.89913 -18.28672,39.778 l -1.16386,4.27801 -5.20147,-0.65223 c -2.86081,-0.35873 -5.62897,-1.04633 -6.15147,-1.52801 -1.55932,-1.43748 -3.81908,-1.01937 -3.20066,0.5922 0.81264,2.11771 -0.21011,2.50191 -13.68819,5.14213 -13.8087,2.70497 -13.55206,2.68385 -15.91115,1.3098 z m 37.25,-11.50323 c 0,-1.76593 -2.15276,-1.45839 -2.77083,0.39583 -0.21771,0.65312 0.31666,1.1875 1.1875,1.1875 0.87083,0 1.58333,-0.7125 1.58333,-1.58333 z m 20.5,-89.41667 c 0.85325,-1.65 1.10564,-3 0.56086,-3 -1.07234,0 -3.06086,3.20559 -3.06086,4.93426 0,1.85718 0.8991,1.16154 2.5,-1.93426 z m 10.4731,-17.75 c 0.0775,-3.6027 -4.49826,0.78766 -5.47174,5.25 l -0.65447,3 3.04966,-3.5 c 1.6773,-1.925 3.06175,-4.0625 3.07655,-4.75 z m 65.41991,-103.83179 c 0.33385,-0.86998 0.59268,-2.78248 0.57519,-4.25 -0.0305,-2.56205 -0.0902,-2.59098 -1.5,-0.72708 -1.60914,2.12747 -1.99775,6.55887 -0.57519,6.55887 0.49116,0 1.16616,-0.7118 1.5,-1.58179 z m 6.04189,-9.39346 c 1.60238,-0.60922 2.5651,-1.74481 2.5651,-3.02568 0,-1.95634 -0.13767,-1.97924 -3,-0.49907 -1.65,0.85325 -3,2.2148 -3,3.02568 0,1.74464 0.1149,1.76133 3.4349,0.49907 z m 8.1558,-9.76739 c -0.6935,-0.69349 -2.5907,0.71555 -2.5907,1.9241 0,0.66309 0.57378,0.58723 1.52417,-0.20152 0.83829,-0.69572 1.31823,-1.47088 1.06653,-1.72258 z"
         id="path4224"
         inkscape:connector-curvature="0" />
      <path
         style="fill:#2f6af8"
         d="m 271.73123,367.39906 c -0.90388,-1.68891 -0.66343,-2.57297 1.35091,-4.96687 1.34778,-1.60174 3.36659,-5.3607 4.48624,-8.35324 1.11965,-2.99255 7.37675,-16.22713 13.90465,-29.4102 6.52791,-13.18307 12.44902,-25.76921 13.15803,-27.96921 3.21081,-9.96285 21.62945,-49.5 23.0599,-49.5 3.13039,0 -0.49575,-7.2789 -7.95131,-15.96101 -3.08836,-3.59645 -6.4501,-8.56399 -7.47053,-11.03899 -1.02043,-2.475 -4.01676,-9.225 -6.6585,-15 -2.64174,-5.775 -5.02854,-11.4 -5.304,-12.5 -0.27546,-1.1 -2.15675,-5.825 -4.18065,-10.5 -14.5258,-33.55318 -22.40335,-56.70657 -19.83376,-58.29466 0.48576,-0.30022 6.33501,-0.69424 12.99833,-0.8756 10.53627,-0.28677 12.37392,-0.0961 14.10096,1.46343 1.83172,1.654 2.03554,1.66366 2.62621,0.12439 0.51782,-1.34941 1.60535,-1.57607 5.68242,-1.18431 2.77313,0.26646 5.48277,0.9252 6.02143,1.46385 0.53865,0.53866 3.37188,7.91467 6.29606,16.39114 2.92418,8.47647 7.45846,20.36176 10.07618,26.41176 2.61772,6.05 5.89399,13.7 7.28059,17 1.3866,3.3 4.02952,8.3625 5.87315,11.25 2.75363,4.31272 3.85875,5.25 6.19018,5.25 1.67774,0 3.66439,-0.91992 4.8591,-2.25 1.11155,-1.2375 6.87687,-11.36684 12.81182,-22.50964 6.86891,-12.89632 12.8411,-22.7094 16.43203,-27 3.10266,-3.7072 6.6127,-8.32304 7.80009,-10.25742 1.18738,-1.93438 3.31196,-4.60032 4.72128,-5.92431 1.40933,-1.32399 2.56924,-3.34132 2.57759,-4.48294 0.008,-1.14163 0.62141,-4.10069 1.36235,-6.57569 l 1.34716,-4.5 11.38766,0.1057 c 12.99077,0.12057 28.94632,1.82015 31.89314,3.39724 3.72552,1.99384 2.38314,5.87001 -7.51831,21.7093 -5.23021,8.36673 -13.05323,22.32584 -17.38449,31.02025 -4.90101,9.83809 -12.68685,22.97575 -20.61645,34.78776 -7.00778,10.43886 -14.62203,22.12975 -16.92054,25.97975 -2.29851,3.85 -9.3836,14.26416 -15.74465,23.14258 -6.36105,8.87843 -13.01522,18.55343 -14.78704,21.5 -15.25062,25.36203 -21.42709,36.71174 -31.48579,57.85742 -1.43895,3.025 -3.88726,7.82927 -5.44067,10.67616 -1.55342,2.8469 -3.0776,7.06388 -3.38706,9.37109 -0.74476,5.55259 -2.08961,6.83367 -4.69686,4.47413 -1.113,-1.00724 -2.02363,-2.45073 -2.02363,-3.20775 0,-3.35989 -3.24208,-2.41879 -7.70183,2.23567 -4.18763,4.37045 -5.23893,4.91966 -11.69962,6.11199 -14.91291,2.75221 -16.2843,2.79441 -17.49177,0.53823 z m 40.89322,-16.19952 c 0,-0.55 -0.45,-1 -1,-1 -0.55,0 -1,0.45 -1,1 0,0.55 0.45,1 1,1 0.55,0 1,-0.45 1,-1 z m 17.27498,-84.65813 c 0.24622,-1.28803 0.0535,-2.34187 -0.42835,-2.34187 -1.3243,0 -4.84361,6.22313 -4.80693,8.5 0.0283,1.75432 0.3243,1.64276 2.40991,-0.90813 1.30773,-1.59947 2.57915,-3.96197 2.82537,-5.25 z m 7.22087,-11.33588 c 3.19282,-4.60725 2.38368,-7.44903 -1.22317,-4.29591 -3.12115,2.72851 -5.17174,10.58164 -2.29955,8.80653 0.38179,-0.23597 1.96702,-2.26574 3.52272,-4.51062 z m 8.50415,-15.00599 c 0,-0.55 -0.19844,-1 -0.44098,-1 -0.24254,0 -0.7191,0.45 -1.05902,1 -0.33992,0.55 -0.14148,1 0.44098,1 0.58246,0 1.05902,-0.45 1.05902,-1 z m 6.5,-11 c 0.33992,-0.55 0.14148,-1 -0.44098,-1 -0.58246,0 -1.05902,0.45 -1.05902,1 0,0.55 0.19844,1 0.44098,1 0.24254,0 0.7191,-0.45 1.05902,-1 z m -2.5,-10.11803 c 0,-0.55 -0.45,-0.72189 -1,-0.38197 -0.55,0.33992 -1,1.06803 -1,1.61803 0,0.55 0.45,0.72189 1,0.38197 0.55,-0.33992 1,-1.06803 1,-1.61803 z m 54.00512,-70.38813 c 0.6875,-0.82839 1.5476,-2.96589 1.91134,-4.75 0.4307,-2.11257 1.56214,-3.67739 3.24431,-4.487 3.42542,-1.64861 5.19303,-3.89247 4.49639,-5.70787 -1.11943,-2.9172 -5.99004,0.11689 -9.43591,5.878 -4.16698,6.96673 -4.33537,14.03024 -0.21613,9.06687 z m 15.01494,-19.01801 c 0.69572,-0.83829 0.98669,-1.80241 0.64661,-2.1425 -0.72629,-0.72629 -3.66667,1.51036 -3.66667,2.78911 0,1.37745 1.62985,1.02849 3.02006,-0.64661 z"
         id="path4222"
         inkscape:connector-curvature="0" />
      <path
         style="fill:#255af0"
         d="m 272.29112,368.53287 c -1.26049,-1.26048 -0.66361,-2.33333 1.29815,-2.33333 2.3636,0 3.54319,-2.07369 4.41045,-7.75346 0.55465,-3.63244 8.91808,-21.24157 11.85861,-24.96819 0.53017,-0.67191 1.33448,-2.69691 1.78733,-4.5 1.03757,-4.13115 5.16327,-14.46435 8.89501,-22.27835 1.57598,-3.3 3.43109,-7.8 4.12246,-10 1.40438,-4.46886 11.46272,-27.38856 17.83989,-40.65136 3.35456,-6.97657 4.51623,-8.55816 6.00076,-8.16994 1.65993,0.43408 1.8477,-0.23925 1.90986,-6.84865 0.0379,-4.03153 -0.56696,-9.23713 -1.34417,-11.56801 -1.10382,-3.31037 -1.15989,-4.79372 -0.25619,-6.77713 0.87928,-1.92982 0.87545,-2.82062 -0.016,-3.71204 -0.89717,-0.89716 -1.17288,-0.54556 -1.17288,1.49575 0,1.97212 -0.39511,2.51699 -1.51387,2.08769 -1.80051,-0.69093 -8.48613,-12.31152 -8.48613,-14.75016 0,-0.93591 -1.12095,-2.74051 -2.491,-4.01023 -1.37004,-1.26971 -3.16322,-3.91745 -3.98484,-5.88387 -1.60882,-3.85043 -3.52416,-5.70977 -3.52416,-3.42111 0,0.77494 1.29383,3.19506 2.87517,5.37804 1.58135,2.18299 3.20766,5.063 3.61402,6.40004 0.40637,1.33704 1.54193,3.78098 2.52347,5.43098 0.98155,1.65 2.31218,5.5877 2.95697,8.75044 0.99252,4.86835 0.94242,5.98036 -0.32657,7.24935 -1.33189,1.33189 -1.70603,1.23561 -3.35759,-0.864 -1.02227,-1.29961 -2.67711,-4.33682 -3.67741,-6.74936 -1.0003,-2.41254 -3.98015,-9.11143 -6.62189,-14.88643 -2.64174,-5.775 -5.02854,-11.4 -5.304,-12.5 -0.27546,-1.1 -2.15675,-5.825 -4.18065,-10.5 -10.61641,-24.52288 -19.01902,-47.13309 -20.15468,-54.23336 -0.72838,-4.55393 -0.99836,-4.44666 12.90638,-5.12798 l 10.75321,-0.5269 1.63632,3.19412 c 2.47684,4.83484 3.20053,5.04182 10.60725,3.03379 0.9625,-0.26095 1.75,-1.34412 1.75,-2.40706 0,-2.47353 3.57408,-2.60808 4.85078,-0.18261 0.50663,0.9625 3.06061,8.05 5.67551,15.75 2.6149,7.7 7.21181,19.625 10.21536,26.5 5.98426,13.69775 10.25835,24.55301 10.25835,26.05396 0,0.53555 -0.85168,0.4311 -1.9188,-0.23532 -1.49903,-0.93616 -2.24632,-0.9265 -3.4159,0.0442 -1.23779,1.02728 -1.61398,0.87423 -2.1719,-0.88361 -0.45414,-1.43088 -0.12513,-2.52801 1.0062,-3.35526 1.5325,-1.12059 1.54051,-1.34576 0.0907,-2.549 -1.3426,-1.11426 -1.5903,-1.06713 -1.5903,0.3026 0,3.99835 -4.63678,0.0755 -5.52839,-4.67717 -0.62244,-3.31793 -0.47598,-3.70038 1.4171,-3.70038 2.72524,0 2.76919,-2.79008 0.12558,-7.97199 -3.13803,-6.15104 -4.42938,-6.21475 -3.62871,-0.17903 0.66963,5.04792 -0.10305,6.46403 -2.12854,3.90102 -0.54331,-0.6875 -2.17565,-4.4 -3.62741,-8.25 -1.45177,-3.85 -3.60952,-8.8 -4.795,-11 -1.18549,-2.2 -3.09575,-5.82611 -4.24503,-8.05803 -2.6506,-5.14749 -6.05432,-9.44197 -7.48352,-9.44197 -0.60834,0 -1.10608,1.5973 -1.10608,3.54957 0,2.70053 0.83348,4.40777 3.48455,7.13748 2.69967,2.77977 3.34785,4.13254 2.87769,6.0058 -0.41938,1.67097 0.0259,3.09582 1.44133,4.61251 1.12649,1.20705 2.38159,3.54464 2.7891,5.19464 0.40752,1.65 1.78648,5.25 3.06436,8 1.27789,2.75 2.32783,5.93252 2.3332,7.07227 0.005,1.13975 2.04131,4.96475 4.52431,8.5 2.483,3.53525 5.20865,8.90273 6.05699,11.92773 1.78267,6.35654 4.01816,12.31315 6.1085,16.27653 0.80542,1.5271 1.66152,4.7896 1.90246,7.25 0.40875,4.17404 0.27785,4.47347 -1.95558,4.47347 -1.58935,0 -2.57786,0.70443 -2.94188,2.09645 -0.59678,2.2821 0.0853,4.90355 1.27594,4.90355 1.11106,0 5.19303,-3.99671 8.426,-8.25 1.56772,-2.0625 3.472,-3.75 4.23172,-3.75 0.75972,0 1.38131,-0.43434 1.38131,-0.9652 0,-0.53087 1.3983,-2.55779 3.10734,-4.50427 2.3393,-2.66432 2.95631,-4.14078 2.49633,-5.97351 -0.61007,-2.43072 0.74899,-4.41346 1.82823,-2.66721 1.10272,1.78425 4.67498,-0.18852 8.84984,-4.8873 2.32004,-2.61119 5.26886,-5.29119 6.55292,-5.95556 2.37869,-1.23072 5.73048,-7.4787 5.29054,-9.86198 -0.56012,-3.03442 2.98494,-10.91412 5.40668,-12.01754 1.35746,-0.6185 2.46993,-1.9217 2.47215,-2.89599 0.002,-0.97429 3.26472,-5.21837 7.25,-9.43129 3.98528,-4.21291 8.82097,-10.21842 10.74597,-13.34557 1.925,-3.12715 5.09827,-7.55522 7.05172,-9.84015 10.41563,-12.18311 12.32856,-16.55328 6.92363,-15.81742 -4.13694,0.56323 -7.49595,2.62201 -7.19185,4.40798 0.15901,0.93383 -0.93884,2.45308 -2.5,3.45959 -4.31623,2.78279 -8.97925,8.8082 -19.01685,24.57301 -1.77835,2.79302 -4.29905,6.23566 -5.60157,7.65032 -1.30251,1.41465 -3.37737,4.71418 -4.61078,7.33228 -1.2463,2.64544 -4.19992,6.36408 -6.64844,8.37046 -2.91925,2.39211 -4.40586,4.39818 -4.40586,5.9454 0,1.28432 -1.0125,3.87875 -2.25,5.7654 -1.2375,1.88665 -3.01657,4.83163 -3.95349,6.54441 -0.93692,1.71278 -2.40444,3.11414 -3.26116,3.11414 -1.19734,0 -0.62486,-1.79277 2.4748,-7.75 11.40299,-21.91537 18.82687,-35.34363 20.04101,-36.25 0.36838,-0.275 1.36917,-1.86591 2.22399,-3.53536 0.85482,-1.66945 2.7549,-3.67795 4.2224,-4.46333 1.4675,-0.78538 3.80419,-3.36642 5.19264,-5.73563 1.38845,-2.36922 4.2914,-6.43572 6.45099,-9.03668 2.64353,-3.18381 3.76456,-5.38968 3.43085,-6.75099 -0.27262,-1.11209 0.10107,-4.03709 0.83043,-6.5 l 1.32611,-4.47801 12.11837,0 c 11.53261,0 12.1966,0.11182 13.73686,2.31345 1.53814,2.1986 1.71255,2.22834 3.51302,0.59893 1.73084,-1.56639 2.47812,-1.59347 8.64886,-0.31345 6.41674,1.33104 6.76803,1.55101 7.02859,4.40107 0.21243,2.32371 -1.87558,6.42973 -9.26237,18.21419 -5.24514,8.3678 -12.95577,22.0928 -17.13474,30.5 -4.17896,8.40719 -9.4888,17.98581 -11.79964,21.28581 -2.31083,3.3 -5.43008,8.1375 -6.93167,10.75 -1.50159,2.6125 -3.1124,4.75 -3.5796,4.75 -0.46719,0 -1.10944,1.03594 -1.42722,2.3021 -0.31779,1.26615 -3.08275,4.48724 -6.14436,7.15797 -6.46361,5.63839 -16.9304,19.49817 -21.37681,28.30645 -1.69844,3.36458 -3.73735,6.48104 -4.53092,6.92545 -2.87868,1.61212 -16,20.37902 -19.72053,28.20549 -1.14975,2.4186 -4.25032,7.61258 -6.89015,11.54217 -2.63983,3.92958 -6.42777,10.49004 -8.41764,14.57878 -1.98988,4.08875 -4.67922,8.56977 -5.97632,9.95784 -1.29709,1.38806 -3.83325,5.44875 -5.63589,9.02375 -1.80265,3.575 -3.84063,7.175 -4.52884,8 -0.68822,0.825 -2.30121,3.49226 -3.58444,5.92724 -2.68295,5.09104 -4.82234,6.37153 -4.85537,2.90609 l -0.0222,-2.33333 -1.95553,2.5 c -1.07554,1.375 -1.96553,2.89114 -1.97776,3.36919 -0.0122,0.47805 -1.59724,3.46192 -3.52224,6.63081 -1.925,3.16889 -3.5,6.70668 -3.5,7.86176 0,1.37191 -0.7802,2.26321 -2.25,2.57043 -16.02188,3.3489 -21.89716,4.08731 -23.08333,2.90114 z m 18.38184,-18.98032 c 0.63295,-1.91786 0.87026,-3.76758 0.52735,-4.11049 -1.19782,-1.19781 -3.64808,2.42792 -4.27558,6.32673 -0.5691,3.53593 -0.47043,3.79716 0.98238,2.60076 0.88827,-0.7315 2.1329,-2.89915 2.76585,-4.817 z m 9.95149,-6.44407 c 0,-1.2302 -0.50047,-1.65412 -1.5,-1.27057 -0.825,0.31659 -1.5,1.70756 -1.5,3.09106 0,2.12258 0.23428,2.32103 1.5,1.27057 0.825,-0.68469 1.5,-2.07567 1.5,-3.09106 z m -4.26033,-1.15894 c 0.5415,-0.6875 1.29129,-2.6 1.66619,-4.25 0.37489,-1.65 2.28802,-6.375 4.25139,-10.5 1.96337,-4.125 4.85389,-10.2 6.42338,-13.5 1.56949,-3.3 3.49765,-7.8 4.2848,-10 3.09879,-8.66079 11.50579,-25.12894 14.00012,-27.42431 1.44895,-1.33338 2.63445,-2.20701 2.63445,-1.94141 0,1.50447 -6.36498,17.6085 -7.45651,18.86572 -1.52927,1.76141 -4.54629,7.54675 -4.53717,8.70034 0.009,1.15984 6.01693,4.40333 7.01431,3.78691 0.46397,-0.28675 1.355,-3.10118 1.98008,-6.2543 2.02913,-10.23559 3.01116,-13.0936 5.52593,-16.08224 1.36035,-1.61668 2.47336,-3.57386 2.47336,-4.34929 0,-1.84195 5.09835,-9.771 7.84868,-12.20641 1.18323,-1.04774 2.15132,-2.4056 2.15132,-3.01746 0,-1.09211 13.62689,-29.5972 18.5125,-38.72493 1.36812,-2.55606 2.4875,-5.42628 2.4875,-6.37827 0,-0.95199 1.39732,-4.17316 3.10515,-7.15814 2.82258,-4.93335 3.38779,-5.39944 6.21096,-5.12173 2.73426,0.26897 3.20779,0.78403 3.95836,4.30552 0.46891,2.2 0.61822,5.51826 0.33181,7.3739 -0.59744,3.87079 -0.60236,3.87301 2.91802,-1.31457 2.35987,-3.47747 2.46519,-3.98571 0.99623,-4.80778 -1.19109,-0.66656 -1.47121,-1.6996 -1.01909,-3.75812 0.54978,-2.50312 0.37959,-2.77508 -1.43896,-2.29952 -5.08344,1.32935 0.41938,-5.82564 5.83556,-7.58763 2.37587,-0.77292 3.77814,-0.78999 4.66164,-0.0568 0.94149,0.78136 1.92344,0.14395 3.85197,-2.50042 1.42359,-1.95201 3.71335,-5.09409 5.08835,-6.98239 1.375,-1.8883 2.5,-4.12793 2.5,-4.97695 0,-0.84902 -1.125,-2.2808 -2.5,-3.18173 -1.375,-0.90093 -2.5,-2.33837 -2.5,-3.19431 0,-2.41287 3.05477,-5.21373 5.68637,-5.21373 1.30702,0 2.62336,-0.64356 2.92519,-1.43012 0.30183,-0.78657 1.84128,-1.88069 3.42099,-2.43138 2.33291,-0.81326 3.33324,-0.63861 5.32756,0.93012 3.95121,3.10803 7.93377,2.08002 4.13989,-1.06862 -0.825,-0.68469 -1.5,-2.08979 -1.5,-3.12245 0,-1.4195 -0.73188,-1.87755 -3,-1.87755 -1.65,0 -3,-0.38529 -3,-0.8562 0,-1.10258 6.16072,-9.27488 11.6776,-15.49052 4.70579,-5.30183 10.43103,-16.20663 9.61934,-18.32185 -0.61929,-1.61386 -3.29694,-1.78379 -3.29694,-0.20924 0,0.6172 -3.51456,4.7797 -7.81014,9.25 -17.84171,18.5674 -27.48741,30.46933 -38.42242,47.40985 -2.27596,3.52592 -2.49946,4.38356 -1.26573,4.85699 2.76439,1.0608 1.53965,3.32442 -5.20061,9.61198 -3.6844,3.43695 -7.6219,7.17517 -8.75,8.30717 -1.12811,1.13201 -3.74624,3.32874 -5.81808,4.88164 -3.63763,2.72651 -3.74579,2.98319 -3.14989,7.47533 l 0.6171,4.65188 -4.35012,0.16839 c -4.89151,0.18935 -8.85011,3.60937 -8.85011,7.64603 0,1.24846 -1.125,3.3268 -2.5,4.61855 -1.43974,1.35256 -2.5,3.46596 -2.5,4.98318 0,3.0312 -1.371,4.95793 -5.22571,7.34393 -1.49915,0.92794 -4.02041,4.27146 -5.60281,7.43003 -1.58239,3.15857 -5.26112,9.79286 -8.17494,14.74286 -7.07089,12.01202 -8.99654,15.68378 -8.99654,17.15428 0,1.66245 -4.10363,8.65745 -5.63642,9.60779 -1.84816,1.14587 -4.50207,6.78624 -5.05241,10.73793 -0.2681,1.925 -1.52413,5.975 -2.79119,9 -6.58151,15.71279 -7.51998,18.40415 -7.51998,21.56591 0,3.55986 1.8192,4.62233 3.73967,2.18409 z m 38.30196,-79.2532 c -0.0229,-0.55176 1.53337,-3.21847 3.45837,-5.92602 2.53888,-3.57098 3.5,-4.37103 3.5,-2.91341 0,2.00437 -6.87937,10.74344 -6.95837,8.83943 z m -18.47662,65.00184 c 0.74852,-1.79146 2.43575,-4.54902 3.7494,-6.12792 3.0592,-3.6769 4.68559,-6.78695 4.68559,-8.95997 0,-1.56943 -0.18556,-1.55322 -2.11032,0.18426 -2.08462,1.8818 -7.93423,12.67463 -9.3657,17.28022 -1.10856,3.56667 1.36572,1.63301 3.04103,-2.37659 z m -6.22489,-4.7814 c 0.55226,-2.20137 0.5423,-2.20035 -1.39194,0.14354 -2.26669,2.74675 -2.64895,4.9657 -0.55624,3.22891 0.76556,-0.63537 1.64224,-2.15297 1.94818,-3.37245 z m -7.00876,-147.46724 c 0.47157,-2.47735 0.26798,-3.25 -0.85636,-3.25 -1.59043,0 -1.79808,1.19199 -0.83434,4.78966 0.74156,2.76831 0.89775,2.62608 1.6907,-1.53966 z m 24.37518,-14.86138 c -0.6636,-2.2174 -1.96777,-5.12446 -2.89815,-6.46013 -1.68797,-2.42326 -1.69078,-2.41907 -1.30498,1.94854 0.2422,2.74187 1.21807,5.26205 2.61223,6.74606 1.22407,1.30296 2.35425,2.24035 2.51151,2.08309 0.15726,-0.15726 -0.25701,-2.10017 -0.92061,-4.31756 z m 99.46239,-7.54245 c 9.80508,-12.87844 11.83107,-16.0489 11.83107,-18.51438 0,-3.42618 -1.57727,-2.09951 -4.60315,3.87177 -1.41082,2.78411 -4.49492,7.13976 -6.85356,9.67923 -4.80327,5.1715 -9.50564,13.42373 -7.12972,12.512 0.78335,-0.3006 3.82327,-3.69748 6.75536,-7.54862 z M 311.00849,361.75795 c -0.99485,-2.59253 0.0919,-5.05206 2.37618,-5.37796 2.4763,-0.3533 2.71327,0.44397 1.26453,4.25445 -1.07606,2.83025 -2.78357,3.35718 -3.64071,1.12351 z m 5.63127,-11.74939 c -0.008,-0.93004 0.43469,-1.9691 0.98469,-2.30902 1.2656,-0.78218 1.2656,0.54163 0,2.5 -0.8354,1.29269 -0.97149,1.26629 -0.98469,-0.19098 z m 2.98469,-8.72695 c 0,-2.13488 0.74201,-3.52215 2.5,-4.67403 1.375,-0.90093 2.5,-2.14482 2.5,-2.76419 0,-0.9876 3.69638,-9.12227 8.84579,-19.46703 0.90982,-1.82775 2.23104,-3.80725 2.93606,-4.39888 1.78614,-1.49889 0.52318,1.65127 -5.12364,12.77965 -2.49569,4.91833 -5.6395,11.4723 -6.98626,14.56439 -2.95148,6.77642 -4.67195,8.23475 -4.67195,3.96009 z m 19.70753,-37.58207 c 0.87781,-2.75 2.11571,-5.675 2.75089,-6.5 0.63517,-0.825 1.632,-2.625 2.21517,-4 0.58317,-1.375 2.58268,-4.37338 4.44336,-6.66307 1.86068,-2.28968 4.73305,-6.49581 6.38305,-9.34694 1.65,-2.85114 4.0125,-6.44272 5.25,-7.98129 1.2375,-1.53858 2.25,-3.43394 2.25,-4.21193 0,-2.14373 2.51131,-5.12633 3.92073,-4.65653 0.79956,0.26652 -1.21284,4.16942 -5.61381,10.8876 -3.77308,5.75969 -9.70056,15.44097 -13.17218,21.51395 -3.47162,6.07299 -7.14705,12.14799 -8.16764,13.5 -1.82695,2.42025 -1.83096,2.38099 -0.25957,-2.54179 z m 30.29247,-46.38197 c 0,-0.55 0.45,-1.27811 1,-1.61803 0.55,-0.33992 1,-0.16803 1,0.38197 0,0.55 -0.45,1.27811 -1,1.61803 -0.55,0.33992 -1,0.16803 -1,-0.38197 z m 11,-15.11803 c 0.5887,-1.1 1.29537,-2 1.57037,-2 0.275,0 0.0183,0.9 -0.57037,2 -0.5887,1.1 -1.29537,2 -1.57037,2 -0.275,0 -0.0183,-0.9 0.57037,-2 z"
         id="path4220"
         inkscape:connector-curvature="0" />
      <path
         style="fill:#1950f2"
         d="m 278.90491,360.77111 c 0.59674,-5.78183 3.19829,-11.56449 5.55636,-12.35051 1.0301,-0.34337 1.16448,0.5875 0.61437,4.25585 -0.67958,4.53175 -0.62131,4.68362 1.67235,4.35921 1.75777,-0.24861 3.00717,-1.70291 4.79911,-5.58612 2.39968,-5.20023 4.07735,-6.71304 4.07735,-3.67668 0,2.64827 3.25091,1.16124 5.36138,-2.4524 1.56226,-2.67495 1.72728,-3.70849 0.79778,-4.99673 -2.20259,-3.0527 -2.28213,-3.89412 -0.72125,-7.62982 1.3687,-3.27578 1.76234,-3.57307 3.17673,-2.39923 1.38973,1.15338 1.93997,0.9614 3.95335,-1.37928 2.28511,-2.6566 4.41528,-8.43198 4.42643,-12.00104 0.005,-1.47138 -0.34348,-1.59838 -1.98014,-0.72246 -1.83484,0.98197 -1.90982,0.86309 -0.98681,-1.5646 0.5494,-1.44503 1.63321,-3.53292 2.40847,-4.63976 1.36156,-1.9439 1.42081,-1.91496 1.73998,0.84978 0.32471,2.81283 0.36388,2.78888 2.26969,-1.38778 2.04378,-4.47901 3.2858,-5.04111 6.62886,-3 1.7421,1.06364 2.26189,0.9606 3.48643,-0.69113 0.79151,-1.06762 1.43946,-2.86762 1.43989,-4 10e-4,-3.16291 5.61068,-14.29928 7.93326,-15.74976 1.13627,-0.70961 2.06595,-1.84169 2.06595,-2.51573 0,-2.62773 3.39564,-8.15262 5.63883,-9.17468 1.69175,-0.77082 2.36117,-1.89832 2.36117,-3.97694 0,-1.91316 1.53245,-4.87461 4.5,-8.69623 4.43549,-5.71204 5.69584,-9.86567 3.25,-10.71077 -1.16424,-0.40227 2.82836,-9.87057 10.90893,-25.87009 1.28759,-2.54943 2.34107,-5.24297 2.34107,-5.98565 0,-0.74267 1.20958,-3.741 2.68795,-6.66295 2.29397,-4.53396 3.05771,-5.26892 5.21071,-5.01436 3.51327,0.41541 4.88864,6.71776 2.58292,11.83578 -1.22625,2.72192 -1.3526,4.17154 -0.54806,6.28765 l 1.04561,2.75017 3.00037,-2.21828 c 1.65021,-1.22005 3.29148,-3.14949 3.64727,-4.28765 0.35579,-1.13816 1.71032,-3.34141 3.01006,-4.89611 1.29974,-1.55469 2.36317,-4.08724 2.36317,-5.62787 0,-4.04239 2.34462,-9.08021 8.60202,-18.48296 4.42178,-6.64442 5.37883,-8.79054 4.85351,-10.88361 -0.3599,-1.43394 -1.50962,-2.87861 -2.55494,-3.21038 -3.41044,-1.08243 -1.51576,-5.46845 2.36227,-5.46845 1.25759,0 1.76121,0.60002 1.55,1.84672 -0.17207,1.0157 0.13714,1.90721 0.68714,1.98114 0.55,0.0739 1,-1.04088 1,-2.47734 0,-1.67939 0.9777,-3.34581 2.73876,-4.66799 l 2.73875,-2.05624 4.26125,3.12034 c 3.00706,2.20196 4.18804,3.74597 4.01255,5.24602 -0.4097,3.50186 -4.9495,12.17604 -9.16281,17.50735 -2.17331,2.75 -6.74767,9.05 -10.16524,14 -3.41758,4.95 -7.88731,10.8 -9.93275,13 -6.32577,6.8038 -13.68434,16.95052 -16.87124,23.26373 -1.67525,3.31864 -4.35345,7.09193 -5.95157,8.38508 -2.83062,2.29047 -16.13832,21.84504 -19.63443,28.85119 -0.96059,1.925 -3.22837,5.75 -5.0395,8.5 -8.09311,12.28844 -11.06101,17.26437 -12.47618,20.9174 -1.91258,4.937 -4.27021,6.0957 -3.38366,1.66296 0.7041,-3.52052 -0.78475,-4.06388 -4.33042,-1.58039 -2.96781,2.07873 -10.79454,16.89615 -12.2748,23.23843 -0.67245,2.88113 -2.01238,6.25613 -2.97764,7.5 -0.96525,1.24388 -4.13253,6.8741 -7.0384,12.5116 -2.90588,5.6375 -5.78499,10.3203 -6.39804,10.40622 -4.76291,0.66757 -6.71685,0.92662 -11.01617,1.46055 l -4.90154,0.60872 0.58354,-5.65392 z m 13.64966,-1.80097 c 1.34147,-3.84814 1.34831,-3.7706 -0.33229,-3.7706 -1.21336,0 -3.59783,4.71737 -3.59783,7.11784 0,1.96231 2.9572,-0.55629 3.93012,-3.34724 z M 366.31,244.02523 c 2.81606,-2.64556 2.99367,-4.17604 0.38867,-3.34925 -1.2587,0.3995 -2.26436,0.006 -2.90322,-1.13537 -0.82532,-1.47476 -1.22596,-1.54034 -2.57422,-0.42139 -2.10772,1.74925 -2.03166,4.72764 0.15322,6.00022 2.35273,1.37034 2.29962,1.38211 4.93555,-1.09421 z m -54.49805,117.11181 c 0.24063,-0.72188 1.02813,-1.50938 1.75,-1.75 0.75,-0.25 1.125,0.125 0.875,0.875 -0.24063,0.72187 -1.02812,1.50937 -1.75,1.75 -0.75,0.25 -1.125,-0.125 -0.875,-0.875 z m -3.1875,-69.38629 c 0,-0.33849 0.70877,-2.28849 1.57504,-4.33333 0.86628,-2.04483 2.7201,-7.31788 4.11961,-11.71788 1.39951,-4.4 4.70808,-12.31424 7.35238,-17.5872 4.06081,-8.09761 5.16868,-9.57365 7.13039,-9.5 2.0958,0.0787 2.29836,-0.30249 2.07456,-3.9038 -0.1364,-2.19505 0.20985,-5.37832 0.76946,-7.07395 0.89586,-2.7145 1.38253,-3.02937 4.07209,-2.63463 2.44202,0.35841 3.74169,-0.21761 6.48054,-2.87222 l 3.42593,-3.32053 0,3.02185 c 0,1.9125 -0.89789,3.86538 -2.44585,5.31961 -1.34521,1.26376 -2.58272,3.69034 -2.75,5.39239 -0.22014,2.23983 -1.2709,3.74394 -3.80407,5.44532 -2.22512,1.49448 -4.61641,4.60212 -6.56521,8.53192 -4.80962,9.69872 -11.36663,20.97872 -13.53984,23.29251 -1.09065,1.1612 -2.81154,4.29398 -3.8242,6.96173 -1.01266,2.66775 -2.34286,5.01768 -2.95601,5.22206 -0.61315,0.20438 -1.11482,0.0947 -1.11482,-0.24385 z m 26.39574,-67.96231 c -0.33292,-0.86758 -1.00816,-1.32844 -1.50052,-1.02414 -1.53464,0.94846 -0.97826,-3.25096 0.60478,-4.56476 2.11576,-1.75593 4.69498,0.54544 4.30056,3.83729 -0.35042,2.92457 -2.52535,4.04347 -3.40482,1.75161 z m 17.60426,-1.43391 c 0,-1.01476 0.92747,-2.68437 2.06105,-3.71024 1.76389,-1.5963 2.19422,-1.65469 2.98469,-0.40499 1.43362,2.26651 1.12924,3.79623 -0.98,4.92506 -2.83448,1.51696 -4.06574,1.27172 -4.06574,-0.80983 z m -36.74723,-2.40499 c -0.54567,-0.6875 -1.50403,-2.825 -2.12969,-4.75 -1.7242,-5.30494 -6.99266,-14 -8.48279,-14 -1.67794,0 -3.64029,-4.25433 -3.64029,-7.89207 0,-1.53887 -0.88141,-3.59562 -1.9587,-4.57055 -1.07728,-0.97493 -2.71113,-4.08217 -3.63077,-6.90499 -0.91965,-2.82281 -2.27177,-6.25739 -3.00472,-7.63239 -3.69463,-6.93108 -13.47204,-32.38518 -16.00391,-41.66392 -2.50288,-9.1725 -2.47394,-9.19672 10.75467,-9.00209 10.45089,0.15376 11.3627,0.32422 12.35266,2.30936 0.58787,1.17884 1.60308,2.78705 2.25602,3.57379 0.80588,0.97103 0.86002,1.75758 0.16858,2.44903 -0.69146,0.69146 -0.52323,1.42971 0.52379,2.29866 0.97476,0.80898 1.54238,2.94833 1.54238,5.81322 0,3.29467 0.68302,5.42866 2.5,7.81084 1.375,1.80271 2.5,4.36497 2.5,5.69391 0,1.32893 1.34181,4.39645 2.9818,6.81672 1.63999,2.42026 2.98999,4.97794 3,5.68372 0.01,0.70579 1.1432,3.50333 2.5182,6.21676 1.375,2.71343 2.5,6.12883 2.5,7.58977 0,1.56187 1.92563,5.35478 4.67385,9.20607 2.98585,4.18429 5.33046,8.92522 6.4919,13.12699 0.99993,3.61744 2.09548,7.58967 2.43456,8.82717 0.5223,1.90617 0.22693,2.25 -1.93289,2.25 -1.40216,0 -2.84646,0.48068 -3.20955,1.06817 -0.3631,0.5875 -1.27775,0.83119 -2.03257,0.54154 -0.75482,-0.28966 -1.7785,0.19901 -2.27484,1.08591 -0.78477,1.40231 -1.1006,1.2991 -2.42232,-0.79153 -2.09404,-3.31226 -3.07151,-6.90409 -1.87886,-6.90409 0.54123,0 1.21103,0.5625 1.48844,1.25 0.27741,0.6875 0.53991,-0.42167 0.58333,-2.46482 0.0593,-2.78787 -0.4396,-3.99233 -1.99919,-4.827 -1.14298,-0.6117 -2.6757,-0.88288 -3.40605,-0.60262 -2.1307,0.81763 -3.5987,-1.26376 -10.4776,-14.85556 -3.17203,-6.26754 -3.72083,-8.96008 -2.03821,-10 1.49626,-0.92474 1.20518,-5.08483 -0.45201,-6.46017 -0.8071,-0.66984 -2.38847,-0.90785 -3.56044,-0.53588 -1.77232,0.56251 -2.00058,1.17348 -1.43185,3.83262 1.15125,5.38287 3.5599,12.01991 5.5458,15.28146 1.04417,1.71492 1.8985,3.8287 1.8985,4.69728 0,0.86859 2.7,6.8017 6,13.18469 3.3,6.38299 6,12.25672 6,13.05272 0,1.77838 -1.41184,1.87977 -2.74723,0.19728 z m 69.31346,-14.32537 c 0.96044,-4.05921 2.43377,-5.41952 2.43377,-2.24708 0,1.41766 -0.7033,3.16125 -1.56288,3.87464 -1.37516,1.14128 -1.47977,0.94579 -0.87089,-1.62756 z m -14.06623,-4.42463 c 0.33992,-0.55 0.81648,-1 1.05902,-1 0.24254,0 0.44098,0.45 0.44098,1 0,0.55 -0.47656,1 -1.05902,1 -0.58246,0 -0.7809,-0.45 -0.44098,-1 z m 8,-8 c 0.33992,-0.55 1.06803,-1 1.61803,-1 0.55,0 0.72189,0.45 0.38197,1 -0.33992,0.55 -1.06803,1 -1.61803,1 -0.55,0 -0.72189,-0.45 -0.38197,-1 z m -4.5,-18.10344 c 0,-1.12989 2.39948,-5.29525 8.86926,-15.39656 2.83413,-4.42494 11.13074,-13.85494 11.13074,-12.65129 0,1.2551 -9.54306,15.53596 -11.41922,17.08848 -0.95524,0.79045 -2.81814,3.5711 -4.13977,6.17923 -2.44989,4.83462 -4.44101,6.97779 -4.44101,4.78014 z m 14,-2.77853 c 0,-0.55 0.45,-1.27811 1,-1.61803 0.55,-0.33992 1,-0.16803 1,0.38197 0,0.55 -0.45,1.27811 -1,1.61803 -0.55,0.33992 -1,0.16803 -1,-0.38197 z m 30.3546,-6.63635 c -0.42211,-1.09999 0.28925,-2.60379 2.04977,-4.33315 2.73172,-2.6834 10.44675,-12.50162 15.28262,-19.44882 1.45494,-2.09016 2.97233,-5.69016 3.37198,-8 0.58473,-3.37956 2.5759,-9.76612 3.59941,-11.54487 0.55559,-0.96556 6.34162,1.19753 6.34162,2.3708 0,4.5073 -12.76038,24.63192 -22.71128,35.81836 -6.19654,6.96593 -7.02636,7.50328 -7.93412,5.13768 z m -4.3546,-5.07395 c 0,-0.32575 0.9,-1.73644 2,-3.13486 2.26912,-2.88471 2.52661,-2.52275 0.83948,1.18008 -1.03375,2.26883 -2.83948,3.51195 -2.83948,1.95478 z m -96.71477,-8.58453 c -1.0826,-1.82776 -3.18558,-5.46404 -4.6733,-8.08061 -1.48771,-2.61658 -3.83242,-5.49618 -5.21046,-6.39911 -3.79815,-2.48864 -2.96657,-6.45504 1.59853,-7.62456 1.925,-0.49316 4.31433,-1.76664 5.30961,-2.82996 0.99529,-1.06332 2.19035,-1.698 2.65569,-1.4104 1.02437,0.63309 6.50773,15.63323 7.5017,20.52144 l 0.71169,3.5 -2.83184,-2.96787 c -2.399,-2.51425 -2.88373,-2.69839 -3.17139,-1.20473 -0.18675,0.96973 0.15328,3.17687 0.75562,4.90475 1.57529,4.51887 -0.2585,5.62161 -2.64585,1.59105 z m 90.71477,-4.37286 c 0,-1.37457 3.16231,-6.45803 4.75245,-7.63964 2.67766,-1.98971 9.24755,-12.07765 9.24755,-14.19941 0,-1.62553 -0.58931,-1.80497 -4.48557,-1.36581 -4.83225,0.54467 -9.51443,3.0299 -9.51443,5.05013 0,0.68722 -2.475,3.9089 -5.5,7.15929 -3.025,3.25039 -5.5,5.57316 -5.5,5.16171 0,-1.26242 2.14959,-5.00613 4.12061,-7.17643 1.30764,-1.43984 1.99924,-4.06458 2.29782,-8.72055 0.23492,-3.6634 0.72086,-7.13599 1.07986,-7.71686 0.43383,-0.70196 4.23234,-0.83812 11.32721,-0.40602 10.12174,0.61644 10.84166,0.80812 13.90253,3.70155 3.00921,2.8446 3.34969,2.94134 5.02284,1.42716 1.08282,-0.97994 2.3142,-1.30328 3.10412,-0.81508 1.7047,1.05356 -0.31089,8.28724 -2.98296,10.70543 -1.72949,1.56517 -1.81448,1.47333 -1.69041,-1.82677 0.26969,-7.17396 -2.33213,-7.10225 -7.58478,0.20905 -1.89746,2.64113 -4.72049,5.55955 -6.27339,6.48538 -1.5529,0.92582 -4.33851,3.67079 -6.19024,6.09992 -2.9676,3.89293 -5.13321,5.52433 -5.13321,3.86695 z"
         id="path4218"
         inkscape:connector-curvature="0" />
      <path
         style="fill:#0f32db"
         d="m 284.12445,364.19954 c 0.33992,-0.55 0.81648,-1 1.05902,-1 0.24254,0 0.44098,0.45 0.44098,1 0,0.55 -0.47656,1 -1.05902,1 -0.58246,0 -0.7809,-0.45 -0.44098,-1 z m 10.09924,-3.75 c 0.81527,-3.51768 4.77648,-10.4892 7.00575,-12.32972 2.1302,-1.75874 1.89328,-1.03453 -2.60499,7.96297 -3.63207,7.2649 -5.50261,9.12099 -4.40076,4.36675 z m 17.58826,0.6875 c 0.24063,-0.72188 1.02813,-1.50938 1.75,-1.75 0.75,-0.25 1.125,0.125 0.875,0.875 -0.24063,0.72187 -1.02812,1.50937 -1.75,1.75 -0.75,0.25 -1.125,-0.125 -0.875,-0.875 z m -8.1557,-18.80217 c -0.0297,-2.21133 4.89277,-12.54409 5.62646,-11.8104 0.62609,0.62609 -2.59044,10.20038 -4.09612,12.19245 -1.46832,1.94264 -1.49918,1.93494 -1.53034,-0.38205 z m 14.9682,-32.98034 c 0,-3.356 1.04373,-4.01215 2.87402,-1.80678 0.85368,1.02862 0.64566,1.7765 -0.87755,3.15499 -1.95521,1.76944 -1.99647,1.74157 -1.99647,-1.34821 z m -6.55015,-26.15499 c 2.00978,-7.65858 5.64811,-17.13066 9.69079,-25.22917 4.747,-9.50943 4.91318,-9.70343 7.35802,-8.58948 1.37574,0.62682 2.50134,1.49627 2.50134,1.93211 0,1.57269 -2.51743,6.53366 -7.21375,14.21575 -2.63244,4.30606 -4.79344,8.13106 -4.80222,8.5 -0.009,0.36893 -1.24629,2.09091 -2.75,3.8266 -1.50372,1.7357 -3.28388,3.9857 -3.95592,5 -0.76636,1.15666 -1.07514,1.28498 -0.82826,0.34419 z m 20.02362,-37.32833 c -1.04723,-6.98348 -0.52924,-8.02144 4.42524,-8.86724 2.40977,-0.41137 5.29573,-1.54816 6.41324,-2.52619 2.37405,-2.07774 1.48406,-0.009 -1.38618,3.22176 -0.97719,1.1 -1.92274,3.48472 -2.10124,5.29938 -0.23908,2.43062 -1.162,3.82727 -3.50512,5.30425 l -3.18059,2.00488 -0.66535,-4.43684 z m 21.22838,-23.30315 c -0.9889,-0.98891 1.20305,-4.36852 2.83333,-4.36852 1.97119,0 1.87456,3.62879 -0.11697,4.39301 -1.9503,0.7484 -1.9434,0.74847 -2.71636,-0.0245 z m 19.29815,-11.86852 c 0,-2.79647 2.42318,-3.44556 3.39626,-0.90976 0.75899,1.97791 -0.0621,3.40976 -1.95528,3.40976 -0.87038,0 -1.44098,-0.98995 -1.44098,-2.5 z m -69.85377,-12.07841 c -0.63043,-1.38363 -1.14623,-3.96128 -1.14623,-5.7281 0,-2.07431 -0.6739,-3.63325 -1.90215,-4.40031 -1.04618,-0.65335 -2.68003,-3.5741 -3.63078,-6.49055 -0.95074,-2.91645 -2.32831,-6.42763 -3.06126,-7.80263 -1.67207,-3.13678 -8.30123,-19.24437 -11.72932,-28.5 -3.68042,-9.93689 -6.05151,-19.08034 -5.39296,-20.79648 0.44459,-1.15859 2.89663,-1.49337 11.61518,-1.58584 l 11.05161,-0.11721 -0.83158,2.24976 c -0.45737,1.23738 -0.61978,2.85399 -0.36092,3.59249 0.25886,0.73849 -0.73979,0.28849 -2.21923,-1 -3.84144,-3.34564 -6.158,-4.00623 -7.66813,-2.18663 -1.05405,1.27005 -0.97982,1.70321 0.42678,2.49038 1.86063,1.04126 2.29734,4.36803 0.70276,5.35353 -1.73814,1.07423 -1.08442,4.32746 1.18967,5.92029 2.63412,1.84502 3.62418,1.26526 1.73225,-1.01437 -1.18765,-1.43103 -0.98076,-1.94832 1.6075,-4.0192 1.63382,-1.30723 3.26049,-2.37902 3.61483,-2.38175 0.35433,-0.003 2.04183,1.30057 3.75,2.89624 2.2348,2.08762 3.10575,3.80722 3.10575,6.13197 0,1.77691 0.85146,4.63387 1.89213,6.34879 1.04067,1.71491 2.20927,4.69303 2.5969,6.61803 0.38763,1.925 1.56278,4.99095 2.61146,6.81323 2.84916,4.95099 8.00833,17.41128 7.44314,17.97648 -0.27135,0.27135 -1.34525,-1.48283 -2.38645,-3.89818 -1.46756,-3.40442 -8.64809,-15.23639 -10.80735,-17.8082 -1.01948,-1.21425 -1.26829,1.00093 -0.37603,3.34777 0.94339,2.48129 0.84089,2.68165 -1.22202,2.38868 -1.776,-0.25221 -2.52422,-1.37624 -3.54118,-5.31978 -0.70917,-2.75 -1.46881,-6.91039 -1.68809,-9.24532 -0.44211,-4.70768 -1.11248,-6.25468 -2.71036,-6.25468 -1.25671,0 -0.34903,8.71755 1.42972,13.7313 0.93465,2.63448 0.84598,3.86126 -0.48003,6.64194 -1.55381,3.25838 -1.5193,3.67212 0.77322,9.26869 1.3198,3.22194 2.93742,8.33307 3.59472,11.35807 0.65731,3.025 1.77557,6.18676 2.48504,7.02612 1.68514,1.99368 2.88516,9.54684 1.63913,10.31693 -0.52882,0.32683 -1.4773,-0.53783 -2.10772,-1.92146 z m 99.85377,-8.94355 c 0,-0.28707 1.35,-3.49932 3,-7.13831 1.65,-3.639 3,-7.87379 3,-9.41066 0,-4.18796 3.3012,-4.81812 6.5168,-1.24397 2.88485,3.20653 2.83251,8.16645 -0.12062,11.42962 -1.54486,1.70705 -1.79094,1.72767 -2.87788,0.24119 -1.04483,-1.42889 -1.45285,-1.19788 -3.37368,1.91008 -2.1647,3.50256 -6.14462,6.23074 -6.14462,4.21205 z m 27,-36.30325 c 0,-0.45386 1.92023,-3.29809 4.26718,-6.32049 3.97079,-5.1136 5.64844,-8.29525 8.77512,-16.64199 1.50937,-4.0293 3.51119,-3.63856 3.31005,0.6461 -0.15254,3.24937 -7.22669,15.55592 -11.74361,20.42976 -2.45798,2.6522 -4.60874,3.53263 -4.60874,1.88662 z m -106.82368,-7.38209 c -1.13939,-1.81099 -3.65102,-5.53936 -5.5814,-8.28527 -2.23582,-3.1804 -3.16226,-5.34009 -2.55235,-5.95 0.52659,-0.52659 0.95743,-1.96587 0.95743,-3.19841 0,-4.10652 1.9924,-3.54255 3.99574,1.13103 2.65523,6.19442 6.35203,18.49552 5.74177,19.10578 -0.26927,0.26926 -1.4218,-0.99215 -2.56119,-2.80313 z m 78.82368,-9.17135 c 0,-0.41406 0.52351,-1.73103 1.16337,-2.9266 0.63985,-1.19558 1.26501,-5.03115 1.38925,-8.52351 0.12423,-3.49236 0.64337,-6.76723 1.15364,-7.2775 0.53803,-0.53803 5.19346,-0.64821 11.08219,-0.2623 l 10.15443,0.66546 1.1228,3.40213 c 0.98321,2.97914 0.83972,3.81527 -1.15412,6.72509 -2.35778,3.44096 -5.91156,6.26559 -5.91156,4.69866 0,-0.49179 0.67223,-2.1831 1.49384,-3.75847 3.51089,-6.73183 0.52865,-8.61289 -8.18592,-5.16332 -4.79693,1.89882 -5.86071,2.75403 -6.11122,4.91298 -0.26524,2.28603 -6.1967,9.47207 -6.1967,7.50738 z"
         id="path4216"
         inkscape:connector-curvature="0" />
    </g>
  </g>
</svg>
